G04*
G04 #@! TF.GenerationSoftware,Altium Limited,Altium Designer,26.8.1 (31)*
G04*
G04 Layer_Color=8388736*
G04 Board_Origin=10000000|10000000*
%FSLAX44Y44*%
%MOMM*%
G71*
G04*
G04 #@! TF.SameCoordinates,386DA3DA-DCAF-4790-80FA-1E2CBEDCECB1*
G04*
G04*
G04 #@! TF.FilePolarity,Negative*
G04*
G01*
G75*
%ADD17C,1.7032*%
%ADD18R,1.7032X1.7032*%
%ADD19C,1.8032*%
%ADD20R,1.8032X1.8032*%
%ADD21R,1.8032X1.8032*%
%ADD22R,1.7032X1.7032*%
%ADD23R,1.2000X1.2000*%
%ADD24C,1.2000*%
%ADD25C,1.1500*%
%ADD26R,1.1500X1.1500*%
%ADD27R,1.3000X1.3000*%
%ADD28C,1.3000*%
%ADD29C,3.2032*%
%ADD30C,2.7032*%
%ADD31C,2.2032*%
%ADD32C,6.5032*%
%ADD33R,1.2000X1.2000*%
%ADD34R,1.5700X1.5700*%
%ADD35R,1.1500X1.1500*%
%ADD36R,3.0000X3.0000*%
%ADD37R,3.0000X3.0000*%
%ADD38C,1.4212*%
%ADD39R,1.4212X1.4212*%
%ADD40C,1.4140*%
%ADD41R,1.4140X1.4140*%
%ADD42C,1.6032*%
%ADD43R,1.6032X1.6032*%
%ADD44C,6.4032*%
D17*
X371324Y432400D02*
D03*
X523724Y356200D02*
D03*
X396724Y432400D02*
D03*
X472924Y356200D02*
D03*
X447524D02*
D03*
X396724D02*
D03*
X422124D02*
D03*
X523724Y432400D02*
D03*
X498324D02*
D03*
X472924D02*
D03*
X447524D02*
D03*
X422124D02*
D03*
X498324Y356200D02*
D03*
X421856Y505010D02*
D03*
X396456D02*
D03*
X447256D02*
D03*
Y581211D02*
D03*
X421856D02*
D03*
X523456D02*
D03*
X498056D02*
D03*
Y505010D02*
D03*
X472656Y581211D02*
D03*
Y505010D02*
D03*
X396456Y581211D02*
D03*
X523456Y505010D02*
D03*
X371056Y581211D02*
D03*
X2635642Y356198D02*
D03*
X2610242Y432398D02*
D03*
X2584842D02*
D03*
X2610242Y356198D02*
D03*
X2584842D02*
D03*
X2559442Y432398D02*
D03*
X2534042D02*
D03*
X2508642D02*
D03*
X2483242D02*
D03*
X2559442Y356198D02*
D03*
X2534042D02*
D03*
X2508642D02*
D03*
X2483242D02*
D03*
X2638203Y516541D02*
D03*
X2612803Y592742D02*
D03*
X2587403D02*
D03*
X2612803Y516541D02*
D03*
X2587403D02*
D03*
X2562003Y592742D02*
D03*
X2536603D02*
D03*
X2511203D02*
D03*
X2485803D02*
D03*
X2562003Y516541D02*
D03*
X2536603D02*
D03*
X2511203D02*
D03*
X2485803D02*
D03*
X264432Y1399755D02*
D03*
Y1475955D02*
D03*
X340632Y1552155D02*
D03*
Y1501355D02*
D03*
X264432Y1374355D02*
D03*
Y1526755D02*
D03*
X340632D02*
D03*
Y1475955D02*
D03*
Y1425155D02*
D03*
Y1450555D02*
D03*
Y1399755D02*
D03*
Y1374355D02*
D03*
X264432Y1501355D02*
D03*
Y1425155D02*
D03*
Y1450555D02*
D03*
X548100Y1013500D02*
D03*
Y911900D02*
D03*
Y861100D02*
D03*
Y886500D02*
D03*
X471900Y1064300D02*
D03*
Y962700D02*
D03*
Y911900D02*
D03*
X548100Y1038900D02*
D03*
Y937300D02*
D03*
Y1064300D02*
D03*
X471900Y1038900D02*
D03*
Y988100D02*
D03*
Y937300D02*
D03*
X548100Y988100D02*
D03*
X471900Y886500D02*
D03*
Y861100D02*
D03*
Y835700D02*
D03*
Y1013500D02*
D03*
X548100Y962700D02*
D03*
X50444Y253006D02*
D03*
X2862536Y754143D02*
D03*
X2611645Y297622D02*
D03*
X630000Y1840000D02*
D03*
X78388Y599363D02*
D03*
X213056Y653162D02*
D03*
X243162Y671517D02*
D03*
X246773Y700143D02*
D03*
D18*
X371324Y356200D02*
D03*
X371056Y505010D02*
D03*
X2635642Y432398D02*
D03*
X2638203Y592742D02*
D03*
D19*
X2370800Y1896200D02*
D03*
X2320000D02*
D03*
X2345400D02*
D03*
X2294600D02*
D03*
X2370800Y1820000D02*
D03*
X2320000D02*
D03*
X2243800Y1896200D02*
D03*
X2218400D02*
D03*
X2345400Y1820000D02*
D03*
X2269200Y1896200D02*
D03*
X2294600Y1820000D02*
D03*
X2243800D02*
D03*
X2269200D02*
D03*
X1575700Y1896200D02*
D03*
X1626500D02*
D03*
X1601100Y1820000D02*
D03*
X1677300Y1896200D02*
D03*
X1728100D02*
D03*
X1601100D02*
D03*
X1651900Y1820000D02*
D03*
X1702700D02*
D03*
X1626500D02*
D03*
X1677300D02*
D03*
X1651900Y1896200D02*
D03*
X1728100Y1820000D02*
D03*
X1702700Y1896200D02*
D03*
X1034600D02*
D03*
X958400D02*
D03*
X983800D02*
D03*
X1009200Y1820000D02*
D03*
X1085400Y1896200D02*
D03*
X958400Y1820000D02*
D03*
X1060000D02*
D03*
X933000Y1896200D02*
D03*
X983800Y1820000D02*
D03*
X1034600D02*
D03*
X1085400D02*
D03*
X1009200Y1896200D02*
D03*
X1060000D02*
D03*
X158100Y1409200D02*
D03*
X81900Y1536200D02*
D03*
Y1485400D02*
D03*
X158100Y1536200D02*
D03*
Y1485400D02*
D03*
Y1434600D02*
D03*
X81900D02*
D03*
Y1510800D02*
D03*
X158100Y1460000D02*
D03*
Y1510800D02*
D03*
X81900Y1460000D02*
D03*
Y1409200D02*
D03*
Y1383800D02*
D03*
D20*
X2218400Y1820000D02*
D03*
X1575700D02*
D03*
X933000D02*
D03*
D21*
X158100Y1383800D02*
D03*
D22*
X264432Y1552155D02*
D03*
X548100Y835700D02*
D03*
D23*
X60000Y815000D02*
D03*
X2710000Y1165000D02*
D03*
X286250Y1868440D02*
D03*
X137200Y1868644D02*
D03*
X86400Y1941380D02*
D03*
X86400Y2014328D02*
D03*
X60000Y215000D02*
D03*
X1960000Y1823570D02*
D03*
X286245Y1941386D02*
D03*
X2710000Y1380000D02*
D03*
Y925000D02*
D03*
D24*
X60000Y865000D02*
D03*
X2710000Y1215000D02*
D03*
X260850Y1868440D02*
D03*
X235450D02*
D03*
X86400Y1868644D02*
D03*
X111800D02*
D03*
Y1941380D02*
D03*
X137200D02*
D03*
X111800Y2014328D02*
D03*
X137200D02*
D03*
X60000Y165000D02*
D03*
X1960000Y1873570D02*
D03*
X269932Y1700964D02*
D03*
X385218Y1795620D02*
D03*
Y1821020D02*
D03*
X2843538Y670000D02*
D03*
X182298Y1779800D02*
D03*
X2843616Y426031D02*
D03*
X197627Y524004D02*
D03*
X86853Y404095D02*
D03*
X2754335Y553065D02*
D03*
X89170Y524004D02*
D03*
X2754335Y426031D02*
D03*
Y670000D02*
D03*
X235445Y1941386D02*
D03*
X260845D02*
D03*
X2843538Y553065D02*
D03*
X2710000Y1430000D02*
D03*
X195310Y404095D02*
D03*
X2710000Y975000D02*
D03*
D25*
X230000Y215000D02*
D03*
X150000D02*
D03*
X2719408Y1735385D02*
D03*
X2602742D02*
D03*
X2819281Y266000D02*
D03*
X2719193D02*
D03*
X2770997Y170178D02*
D03*
X2486075Y1735385D02*
D03*
X1285589Y1823574D02*
D03*
X1385589D02*
D03*
X1435589D02*
D03*
X1335589D02*
D03*
X859391Y1825091D02*
D03*
X809391D02*
D03*
X190000Y215000D02*
D03*
X110000D02*
D03*
X2029487Y1823570D02*
D03*
X2283716Y292904D02*
D03*
Y344782D02*
D03*
X1889939Y292904D02*
D03*
Y344782D02*
D03*
X1533062Y292904D02*
D03*
Y344782D02*
D03*
X709391Y1825091D02*
D03*
X88884Y343619D02*
D03*
X197342D02*
D03*
X90855Y464138D02*
D03*
X2079487Y1823570D02*
D03*
X2754085Y488414D02*
D03*
X2843288Y610000D02*
D03*
X2754085D02*
D03*
X2843366Y488414D02*
D03*
Y361380D02*
D03*
X759391Y1825091D02*
D03*
X2754085Y361380D02*
D03*
X199313Y464138D02*
D03*
X2583465Y2017712D02*
D03*
Y2119270D02*
D03*
Y2068490D02*
D03*
Y1966930D02*
D03*
X2581860Y1916150D02*
D03*
X469382Y2023621D02*
D03*
Y2125180D02*
D03*
Y2074400D02*
D03*
Y1972840D02*
D03*
Y1922060D02*
D03*
X2544408Y1735385D02*
D03*
X2777740D02*
D03*
X2661075D02*
D03*
X2836080D02*
D03*
X746524Y299881D02*
D03*
Y342791D02*
D03*
X806612Y299881D02*
D03*
Y342791D02*
D03*
X1134848Y299881D02*
D03*
Y342791D02*
D03*
X1193852Y299881D02*
D03*
Y342791D02*
D03*
X1594251Y292904D02*
D03*
Y344782D02*
D03*
X1951129Y292904D02*
D03*
Y344782D02*
D03*
X2344905Y292904D02*
D03*
Y344782D02*
D03*
X2769237Y266000D02*
D03*
X2720953Y170178D02*
D03*
X2821042D02*
D03*
D26*
X230000Y165000D02*
D03*
X150000D02*
D03*
X2719408Y1685385D02*
D03*
X2602742D02*
D03*
X2819281Y216000D02*
D03*
X2719193D02*
D03*
X2770997Y120178D02*
D03*
X2486075Y1685385D02*
D03*
X1285589Y1873574D02*
D03*
X1385589D02*
D03*
X1435589D02*
D03*
X1335589D02*
D03*
X859391Y1875091D02*
D03*
X809391D02*
D03*
X190000Y165000D02*
D03*
X110000D02*
D03*
X2029487Y1873570D02*
D03*
X709391Y1875091D02*
D03*
X2079487Y1873570D02*
D03*
X759391Y1875091D02*
D03*
X2544408Y1685385D02*
D03*
X2777740D02*
D03*
X2661075D02*
D03*
X2836080D02*
D03*
X2821042Y120178D02*
D03*
X2720953D02*
D03*
X2769237Y216000D02*
D03*
D27*
X2790000Y1392500D02*
D03*
Y1210000D02*
D03*
X2797800Y938816D02*
D03*
D28*
X2790000Y1427500D02*
D03*
Y1175000D02*
D03*
X2797800Y973816D02*
D03*
D29*
X271678Y153718D02*
D03*
X271384Y191336D02*
D03*
D30*
X2681678Y193718D02*
D03*
D31*
X520000Y1576200D02*
D03*
X494600Y1550800D02*
D03*
X520000Y1500000D02*
D03*
Y1550800D02*
D03*
Y1525400D02*
D03*
X494600D02*
D03*
Y1500000D02*
D03*
Y1576200D02*
D03*
X921678Y253718D02*
D03*
X851678Y93718D02*
D03*
X671678Y253718D02*
D03*
X601678Y93718D02*
D03*
X421678Y253718D02*
D03*
X351678Y93718D02*
D03*
X2671678Y253718D02*
D03*
X2601678Y93718D02*
D03*
X2421678Y253718D02*
D03*
X2351678Y93718D02*
D03*
X2171678Y253718D02*
D03*
X2101678Y93718D02*
D03*
X1921678Y253718D02*
D03*
X1851678Y93718D02*
D03*
X1671678Y253718D02*
D03*
X1601678Y93718D02*
D03*
X1421678Y253718D02*
D03*
X1351678Y93718D02*
D03*
X1171678Y253718D02*
D03*
X1101678Y93718D02*
D03*
X2500000Y1296200D02*
D03*
Y1245400D02*
D03*
Y1270800D02*
D03*
X2525400D02*
D03*
Y1296200D02*
D03*
Y1245400D02*
D03*
X2500000Y1321600D02*
D03*
X2525400D02*
D03*
X2500000Y1517000D02*
D03*
X2525400Y1491600D02*
D03*
Y1517000D02*
D03*
Y1466200D02*
D03*
X2500000Y1491600D02*
D03*
Y1466200D02*
D03*
X2525400Y1440800D02*
D03*
X2500000D02*
D03*
X2525400Y1075400D02*
D03*
X2500000Y1050000D02*
D03*
X2525400Y999200D02*
D03*
Y1050000D02*
D03*
Y1024600D02*
D03*
X2500000D02*
D03*
Y999200D02*
D03*
Y1075400D02*
D03*
X2525400Y879200D02*
D03*
X2500000Y853800D02*
D03*
X2525400Y803000D02*
D03*
Y853800D02*
D03*
Y828400D02*
D03*
X2500000D02*
D03*
Y803000D02*
D03*
Y879200D02*
D03*
X2397700Y1990000D02*
D03*
Y2015400D02*
D03*
X1910800Y475400D02*
D03*
X1936200D02*
D03*
X1860000D02*
D03*
X1885400D02*
D03*
X1936200Y450000D02*
D03*
X1885400D02*
D03*
X1910800D02*
D03*
X1860000D02*
D03*
X1540800Y475400D02*
D03*
X1566200D02*
D03*
X1515400D02*
D03*
X1490000Y450000D02*
D03*
X1566200D02*
D03*
X1515400D02*
D03*
X1540800D02*
D03*
X1490000Y475400D02*
D03*
X520000Y1376200D02*
D03*
X494600Y1350800D02*
D03*
X520000Y1300000D02*
D03*
Y1350800D02*
D03*
Y1325400D02*
D03*
X494600D02*
D03*
Y1300000D02*
D03*
Y1376200D02*
D03*
X800800Y475400D02*
D03*
X826200D02*
D03*
X775400D02*
D03*
X750000Y450000D02*
D03*
X826200D02*
D03*
X775400D02*
D03*
X800800D02*
D03*
X750000Y475400D02*
D03*
X2007700Y2015400D02*
D03*
Y1990000D02*
D03*
X1617700Y2015000D02*
D03*
Y1989600D02*
D03*
X2202700Y2015400D02*
D03*
Y1990000D02*
D03*
X1812700Y2015400D02*
D03*
Y1990000D02*
D03*
X642700Y2015400D02*
D03*
Y1990000D02*
D03*
X1032700Y2015400D02*
D03*
Y1990000D02*
D03*
X1422700Y2015400D02*
D03*
Y1990000D02*
D03*
X2290800Y475400D02*
D03*
X2316200D02*
D03*
X2240000D02*
D03*
X2265400D02*
D03*
X2316200Y450000D02*
D03*
X2265400D02*
D03*
X2290800D02*
D03*
X2240000D02*
D03*
X1227700Y2015000D02*
D03*
Y1989600D02*
D03*
X1170800Y475400D02*
D03*
X1196200D02*
D03*
X1120000D02*
D03*
X1145400D02*
D03*
X1196200Y450000D02*
D03*
X1145400D02*
D03*
X1170800D02*
D03*
X1120000D02*
D03*
X837700Y2015400D02*
D03*
Y1990000D02*
D03*
X787439Y621443D02*
D03*
X633602Y1729942D02*
D03*
X2394102Y1743625D02*
D03*
X2379479Y647787D02*
D03*
X191961Y2125722D02*
D03*
D32*
X851678Y193718D02*
D03*
X601678D02*
D03*
X351678D02*
D03*
X2601678D02*
D03*
X2351678D02*
D03*
X2101678D02*
D03*
X1851678D02*
D03*
X1601678D02*
D03*
X1351678D02*
D03*
X1101678D02*
D03*
D33*
X319932Y1700964D02*
D03*
X385218Y1846420D02*
D03*
X2793538Y670000D02*
D03*
X232298Y1779800D02*
D03*
X2793616Y426031D02*
D03*
X247627Y524004D02*
D03*
X136853Y404095D02*
D03*
X2704335Y553065D02*
D03*
X139170Y524004D02*
D03*
X2704335Y426031D02*
D03*
Y670000D02*
D03*
X2793538Y553065D02*
D03*
X245310Y404095D02*
D03*
D34*
X80000Y1780000D02*
D03*
D35*
X2233716Y292904D02*
D03*
Y344782D02*
D03*
X1839939Y292904D02*
D03*
Y344782D02*
D03*
X1483062Y292904D02*
D03*
Y344782D02*
D03*
X138884Y343619D02*
D03*
X247342D02*
D03*
X140855Y464138D02*
D03*
X2704085Y488414D02*
D03*
X2793288Y610000D02*
D03*
X2704085D02*
D03*
X2793366Y488414D02*
D03*
Y361380D02*
D03*
X2704085D02*
D03*
X249313Y464138D02*
D03*
X696524Y299881D02*
D03*
Y342791D02*
D03*
X856612Y299881D02*
D03*
Y342791D02*
D03*
X1084848Y299881D02*
D03*
Y342791D02*
D03*
X1243852Y299881D02*
D03*
Y342791D02*
D03*
X1644251Y292904D02*
D03*
Y344782D02*
D03*
X2001129Y292904D02*
D03*
Y344782D02*
D03*
X2394905Y292904D02*
D03*
Y344782D02*
D03*
X2533465Y2068490D02*
D03*
X2531860Y1916150D02*
D03*
X519382Y1922060D02*
D03*
Y1972840D02*
D03*
Y2074400D02*
D03*
X2533465Y2017712D02*
D03*
X519382Y2023621D02*
D03*
X2533465Y2119270D02*
D03*
Y1966930D02*
D03*
X519382Y2125180D02*
D03*
D36*
X122275Y1779262D02*
D03*
D37*
X2756668Y1303676D02*
D03*
X2705868D02*
D03*
X2708812Y847312D02*
D03*
X2703653Y1072135D02*
D03*
X2760000Y1500000D02*
D03*
X2700000D02*
D03*
D38*
X2730000Y2096200D02*
D03*
X2780800D02*
D03*
X2755400D02*
D03*
Y1943800D02*
D03*
X2730000D02*
D03*
X2704600Y2096200D02*
D03*
Y1943800D02*
D03*
X2780800D02*
D03*
X2679200Y2096200D02*
D03*
D39*
Y1943800D02*
D03*
D40*
X117652Y937303D02*
D03*
X270052Y886503D02*
D03*
X117652Y962703D02*
D03*
X270052Y1140503D02*
D03*
Y1115103D02*
D03*
Y1089703D02*
D03*
X117652Y861103D02*
D03*
Y810303D02*
D03*
Y784903D02*
D03*
Y835703D02*
D03*
Y886503D02*
D03*
Y911903D02*
D03*
Y988103D02*
D03*
Y1013503D02*
D03*
Y1038903D02*
D03*
Y1064303D02*
D03*
Y1089703D02*
D03*
Y1115103D02*
D03*
Y1140503D02*
D03*
X270052Y1064303D02*
D03*
Y1038903D02*
D03*
Y1013503D02*
D03*
Y988103D02*
D03*
Y962703D02*
D03*
Y937303D02*
D03*
Y911903D02*
D03*
Y861103D02*
D03*
Y835703D02*
D03*
Y810303D02*
D03*
D41*
Y784903D02*
D03*
D42*
X655400Y2090000D02*
D03*
X1045400D02*
D03*
X1435400D02*
D03*
X1825400D02*
D03*
X2215400D02*
D03*
X850400D02*
D03*
X1240400D02*
D03*
X1630400D02*
D03*
X2020400D02*
D03*
X2410400D02*
D03*
D43*
X630000D02*
D03*
X1020000D02*
D03*
X1410000D02*
D03*
X1800000D02*
D03*
X2190000D02*
D03*
X825000D02*
D03*
X1215000D02*
D03*
X1605000D02*
D03*
X1995000D02*
D03*
X2385000D02*
D03*
D44*
X2870000Y80000D02*
D03*
Y2100000D02*
D03*
X100000D02*
D03*
Y80000D02*
D03*
M02*
