M48
;Layer_Color=9474304
;FILE_FORMAT=4:4
METRIC,LZ
;TYPE=PLATED
T01F00S00C0.6500
T02F00S00C0.7000
T03F00S00C0.7100
T04F00S00C0.7112
T05F00S00C0.8000
T06F00S00C0.8890
T07F00S00C0.9000
T08F00S00C0.9140
T09F00S00C1.0000
T10F00S00C1.0200
T11F00S00C1.5000
;TYPE=NON_PLATED
T12F00S00C3.2000
T13F00S00C6.3000
%
T01
X02720953Y00120178
X02770997
X02821042
Y00170178
X02819281Y00216
Y00266
X02769237
Y00216
X02770997Y00170178
X02720953
X02719193Y00216
Y00266
X02704085Y0036138
X02754085
X02793366
X02843366
Y00488414
X02793366
X02754085
X02704085
X02394905Y00344782
X02344905
Y00292904
X02394905
X02283716
X02233716
Y00344782
X02283716
X02001129
X01951129
Y00292904
X02001129
X01889939
X01839939
Y00344782
X01889939
X01644251
X01594251
Y00292904
X01644251
X01533062
X01483062
Y00344782
X01533062
X01243852Y00342791
Y00299881
X01193852
Y00342791
X01134848
Y00299881
X01084848
Y00342791
X00856612
Y00299881
X00806612
Y00342791
X00746524
Y00299881
X00696524
Y00342791
X00247342Y00343619
X00197342
X00199313Y00464138
X00249313
X0023Y00215
X0019
X0015
Y00165
X0019
X0023
X0011
Y00215
X00088884Y00343619
X00138884
X00140855Y00464138
X00090855
X02704085Y0061
X02754085
X02793288
X02843288
X02486075Y01685385
X02544408
X02602742
X02661075
X02719408
X0277774
X0283608
Y01735385
X0277774
X02719408
X02661075
X02602742
X02544408
X0253186Y0191615
X0258186
X02583465Y0196693
X02533465
Y02017712
X02583465
Y0206849
X02533465
Y0211927
X02583465
X02486075Y01735385
X02079487Y0182357
X02029487
Y0187357
X02079487
X01435589Y01873574
Y01823574
X01385589
X01335589
Y01873574
X01385589
X01285589
Y01823574
X00859391Y01825091
X00809391
X00759391
X00709391
Y01875091
X00759391
X00809391
X00859391
X00519382Y0192206
X00469382
Y0197284
X00519382
Y02023621
X00469382
Y020744
X00519382
Y0212518
X00469382
T02
X02704335Y00426031
X02754335
X02793616
X02843616
X0024531Y00404095
X0019531
X00197627Y00524004
X00247627
X0013917
X0008917
X00086853Y00404095
X00136853
X0006Y00215
Y00165
Y00815
Y00865
X0271Y00925
X02704335Y0067
X02754335
X02793538
X02843538
Y00553065
X02793538
X02754335
X02704335
X0271Y00975
Y01165
Y01215
X00319932Y01700964
X00269932
X0271Y0143
Y0138
X0196Y0182357
Y0187357
X00385218Y0184642
Y0182102
Y0179562
X00232298Y017798
X00182298
X0023545Y0186844
X0026085
X0028625
X00286245Y01941386
X00260845
X00235445
X001372Y0194138
X001118
X000864
Y01868644
X001118
X001372
X001372Y02014328
X001118
X000864
T03
X026792Y019438
X027046
X0273
X027554
X027808
Y020962
X027554
X0273
X027046
X026792
T04
X02611645Y00297622
X00050444Y00253006
X00078388Y00599363
X00213056Y00653162
X00243162Y00671517
X00246773Y00700143
X02862536Y00754143
X0063Y0184
T05
X02681678Y00193718
X027978Y00938816
Y00973816
X0279Y01175
Y0121
Y013925
Y014275
T06
X0219Y0209
X022154
X02385
X024104
X020204
X01995
X018254
X018
X016304
X01605
X014354
X0141
X012404
X01215
X010454
X0102
X008504
X00825
X006554
X0063
T07
X00351678Y00093718
X00601678
X00851678
X01101678
X01351678
X01601678
X01851678
X02101678
X02351678
X02601678
X02671678Y00253718
X02635642Y00356198
X02610242
X02584842
X02559442
X02534042
Y00432398
X02559442
X02584842
X02610242
X02635642
X02638203Y00516541
X02612803
X02587403
X02562003
X02536603
X02511203
X02485803
X02483242Y00432398
X02508642
Y00356198
X02483242
X02421678Y00253718
X02171678
X0224Y0045
Y004754
X022654
X022908
X023162
Y0045
X022908
X022654
X019362
Y004754
X019108
X018854
X0186
Y0045
X018854
X019108
X01921678Y00253718
X01671678
X01421678
X0149Y0045
X015154
Y004754
X015408
X015662
Y0045
X015408
X0149Y004754
X011962
X011708
X011454
X0112
Y0045
X011454
X011708
X011962
X01171678Y00253718
X00921678
X00671678
X0075Y0045
X007754
Y004754
X008008
X008262
Y0045
X008008
X0075Y004754
X00523456Y0050501
X00498056
X00472656
X00447256
X00421856
X00396456
X00371056
X00371324Y004324
X00396724
X00422124
X00447524
X00472924
X00498324
X00523724
Y003562
X00498324
X00472924
X00447524
X00422124
X00396724
X00371324
X00421678Y00253718
X00421856Y00581211
X00396456
X00371056
X00447256
X00472656
X00498056
X00523456
X004719Y008357
Y008611
Y008865
Y009119
X005481
Y008865
Y008611
Y008357
X025Y008284
Y008538
Y008792
Y00803
X02511203Y00592742
X02485803
X02536603
X02562003
X02587403
X02612803
X02638203
X025254Y00803
Y008284
Y008538
Y008792
Y009992
Y010246
Y0105
Y010754
Y012454
Y012708
Y012962
Y013216
X025
Y012962
Y012708
Y012454
Y010754
Y0105
Y010246
Y009992
X005481Y009881
Y009627
Y009373
Y010135
Y010389
Y010643
X004719
Y010389
Y010135
Y009881
Y009627
Y009373
X004946Y013
X0052
Y013254
X004946
Y013508
X0052
Y013762
X004946
Y015
Y015254
X0052
Y015508
X004946
Y015762
X0052
Y015
X00340632Y01501355
Y01475955
Y01450555
Y01425155
Y01399755
Y01374355
X00264432
Y01399755
Y01425155
Y01450555
Y01475955
Y01501355
Y01526755
Y01552155
X00340632
Y01526755
X025Y01517
Y014916
Y014662
Y014408
X025254
Y014662
Y014916
Y01517
X023977Y0199
Y020154
X022027
Y0199
X020077
Y020154
X018127
Y0199
X016177Y019896
Y02015
X014227Y020154
Y0199
X012277Y019896
Y02015
X010327Y020154
Y0199
X008377
Y020154
X006427
Y0199
T08
X00117652Y00784903
Y00810303
Y00835703
Y00861103
Y00886503
Y00911903
X00270052
Y00886503
Y00861103
Y00835703
Y00810303
Y00784903
Y00937303
Y00962703
Y00988103
Y01013503
Y01038903
Y01064303
Y01089703
Y01115103
Y01140503
X00117652
Y01115103
Y01089703
Y01064303
Y01038903
Y01013503
Y00988103
Y00962703
Y00937303
T09
X00271678Y00153718
X00787439Y00621443
X02379479Y00647787
X000819Y013838
Y014092
Y014346
Y0146
Y014854
Y015108
Y015362
X001581
Y015108
Y014854
Y0146
Y014346
Y014092
Y013838
X00633602Y01729942
X022184Y0182
X022438
X022692
X022946
X0232
X023454
X023708
Y018962
X023454
X0232
X022946
X022692
X022438
X022184
X02394102Y01743625
X017281Y0182
X017027
X016773
X016519
X016265
X016011
X015757
Y018962
X016011
X016265
X016519
X016773
X017027
X017281
X010854
X0106
X010346
X010092
X009838
X009584
Y0182
X009838
X010092
X010346
X0106
X010854
X00933
Y018962
X00191961Y02125722
T10
X02708812Y00847312
X02703653Y01072135
X02705868Y01303676
X02756668
X0276Y015
X027
X00122275Y01779262
X0008Y0178
T11
X00271384Y00191336
T12
X001Y0008
X0287
Y021
X001
T13
X02601678Y00193718
X02351678
X02101678
X01851678
X01601678
X01351678
X01101678
X00851678
X00601678
X00351678
M30
