G04*
G04 #@! TF.GenerationSoftware,Altium Limited,Altium Designer,26.8.1 (31)*
G04*
G04 Layer_Color=128*
G04 Board_Origin=10000000|10000000*
%FSLAX44Y44*%
%MOMM*%
G71*
G04*
G04 #@! TF.SameCoordinates,386DA3DA-DCAF-4790-80FA-1E2CBEDCECB1*
G04*
G04*
G04 #@! TF.FilePolarity,Positive*
G04*
G01*
G75*
%ADD16C,0.1270*%
D16*
X366824Y432400D02*
X375824D01*
X371324Y427900D02*
Y436900D01*
X519224Y356200D02*
X528224D01*
X523724Y351700D02*
Y360700D01*
X366824Y356200D02*
X375824D01*
X371324Y351700D02*
Y360700D01*
X392224Y432400D02*
X401224D01*
X396724Y427900D02*
Y436900D01*
X468424Y356200D02*
X477424D01*
X472924Y351700D02*
Y360700D01*
X443024Y356200D02*
X452024D01*
X447524Y351700D02*
Y360700D01*
X392224Y356200D02*
X401224D01*
X396724Y351700D02*
Y360700D01*
X417624Y356200D02*
X426624D01*
X422124Y351700D02*
Y360700D01*
X519224Y432400D02*
X528224D01*
X523724Y427900D02*
Y436900D01*
X493824Y432400D02*
X502824D01*
X498324Y427900D02*
Y436900D01*
X468424Y432400D02*
X477424D01*
X472924Y427900D02*
Y436900D01*
X443024Y432400D02*
X452024D01*
X447524Y427900D02*
Y436900D01*
X417624Y432400D02*
X426624D01*
X422124Y427900D02*
Y436900D01*
X493824Y356200D02*
X502824D01*
X498324Y351700D02*
Y360700D01*
X417356Y505010D02*
X426356D01*
X421856Y500510D02*
Y509510D01*
X391956Y505010D02*
X400956D01*
X396456Y500510D02*
Y509510D01*
X442756Y505010D02*
X451756D01*
X447256Y500510D02*
Y509510D01*
X442756Y581211D02*
X451756D01*
X447256Y576711D02*
Y585710D01*
X417356Y581211D02*
X426356D01*
X421856Y576711D02*
Y585710D01*
X518956Y581211D02*
X527956D01*
X523456Y576711D02*
Y585710D01*
X493556Y581211D02*
X502556D01*
X498056Y576711D02*
Y585710D01*
X493556Y505010D02*
X502556D01*
X498056Y500510D02*
Y509510D01*
X468156Y581211D02*
X477156D01*
X472656Y576711D02*
Y585710D01*
X366556Y505010D02*
X375556D01*
X371056Y500510D02*
Y509510D01*
X468156Y505010D02*
X477156D01*
X472656Y500510D02*
Y509510D01*
X391956Y581211D02*
X400956D01*
X396456Y576711D02*
Y585710D01*
X518956Y505010D02*
X527956D01*
X523456Y500510D02*
Y509510D01*
X366556Y581211D02*
X375556D01*
X371056Y576711D02*
Y585710D01*
X2631142Y356198D02*
X2640142D01*
X2635642Y351698D02*
Y360698D01*
X2631142Y432398D02*
X2640142D01*
X2635642Y427898D02*
Y436898D01*
X2605742Y432398D02*
X2614742D01*
X2610242Y427898D02*
Y436898D01*
X2580342Y432398D02*
X2589342D01*
X2584842Y427898D02*
Y436898D01*
X2605742Y356198D02*
X2614742D01*
X2610242Y351698D02*
Y360698D01*
X2580342Y356198D02*
X2589342D01*
X2584842Y351698D02*
Y360698D01*
X2554942Y432398D02*
X2563942D01*
X2559442Y427898D02*
Y436898D01*
X2529542Y432398D02*
X2538542D01*
X2534042Y427898D02*
Y436898D01*
X2504142Y432398D02*
X2513142D01*
X2508642Y427898D02*
Y436898D01*
X2478742Y432398D02*
X2487742D01*
X2483242Y427898D02*
Y436898D01*
X2554942Y356198D02*
X2563942D01*
X2559442Y351698D02*
Y360698D01*
X2529542Y356198D02*
X2538542D01*
X2534042Y351698D02*
Y360698D01*
X2504142Y356198D02*
X2513142D01*
X2508642Y351698D02*
Y360698D01*
X2478742Y356198D02*
X2487742D01*
X2483242Y351698D02*
Y360698D01*
X2633703Y516541D02*
X2642703D01*
X2638203Y512042D02*
Y521041D01*
X2633703Y592742D02*
X2642703D01*
X2638203Y588242D02*
Y597242D01*
X2608303Y592742D02*
X2617303D01*
X2612803Y588242D02*
Y597242D01*
X2582903Y592742D02*
X2591903D01*
X2587403Y588242D02*
Y597242D01*
X2608303Y516541D02*
X2617303D01*
X2612803Y512042D02*
Y521041D01*
X2582903Y516541D02*
X2591903D01*
X2587403Y512042D02*
Y521041D01*
X2557503Y592742D02*
X2566503D01*
X2562003Y588242D02*
Y597242D01*
X2532103Y592742D02*
X2541103D01*
X2536603Y588242D02*
Y597242D01*
X2506703Y592742D02*
X2515703D01*
X2511203Y588242D02*
Y597242D01*
X2481303Y592742D02*
X2490303D01*
X2485803Y588242D02*
Y597242D01*
X2557503Y516541D02*
X2566503D01*
X2562003Y512042D02*
Y521041D01*
X2532103Y516541D02*
X2541103D01*
X2536603Y512042D02*
Y521041D01*
X2506703Y516541D02*
X2515703D01*
X2511203Y512042D02*
Y521041D01*
X2481303Y516541D02*
X2490303D01*
X2485803Y512042D02*
Y521041D01*
X2365800Y1896200D02*
X2375800D01*
X2370800Y1891200D02*
Y1901200D01*
X2315000Y1896200D02*
X2325000D01*
X2320000Y1891200D02*
Y1901200D01*
X2340400Y1896200D02*
X2350400D01*
X2345400Y1891200D02*
Y1901200D01*
X2289600Y1896200D02*
X2299600D01*
X2294600Y1891200D02*
Y1901200D01*
X2365800Y1820000D02*
X2375800D01*
X2370800Y1815000D02*
Y1825000D01*
X2315000Y1820000D02*
X2325000D01*
X2320000Y1815000D02*
Y1825000D01*
X2238800Y1896200D02*
X2248800D01*
X2243800Y1891200D02*
Y1901200D01*
X2213400Y1896200D02*
X2223400D01*
X2218400Y1891200D02*
Y1901200D01*
X2340400Y1820000D02*
X2350400D01*
X2345400Y1815000D02*
Y1825000D01*
X2264200Y1896200D02*
X2274200D01*
X2269200Y1891200D02*
Y1901200D01*
X2213400Y1820000D02*
X2223400D01*
X2218400Y1815000D02*
Y1825000D01*
X2289600Y1820000D02*
X2299600D01*
X2294600Y1815000D02*
Y1825000D01*
X2238800Y1820000D02*
X2248800D01*
X2243800Y1815000D02*
Y1825000D01*
X2264200Y1820000D02*
X2274200D01*
X2269200Y1815000D02*
Y1825000D01*
X1570700Y1896200D02*
X1580700D01*
X1575700Y1891200D02*
Y1901200D01*
X1621500Y1896200D02*
X1631500D01*
X1626500Y1891200D02*
Y1901200D01*
X1596100Y1820000D02*
X1606100D01*
X1601100Y1815000D02*
Y1825000D01*
X1672300Y1896200D02*
X1682300D01*
X1677300Y1891200D02*
Y1901200D01*
X1723100Y1896200D02*
X1733100D01*
X1728100Y1891200D02*
Y1901200D01*
X1596100Y1896200D02*
X1606100D01*
X1601100Y1891200D02*
Y1901200D01*
X1570700Y1820000D02*
X1580700D01*
X1575700Y1815000D02*
Y1825000D01*
X1646900Y1820000D02*
X1656900D01*
X1651900Y1815000D02*
Y1825000D01*
X1697700Y1820000D02*
X1707700D01*
X1702700Y1815000D02*
Y1825000D01*
X1621500Y1820000D02*
X1631500D01*
X1626500Y1815000D02*
Y1825000D01*
X1672300Y1820000D02*
X1682300D01*
X1677300Y1815000D02*
Y1825000D01*
X1646900Y1896200D02*
X1656900D01*
X1651900Y1891200D02*
Y1901200D01*
X1723100Y1820000D02*
X1733100D01*
X1728100Y1815000D02*
Y1825000D01*
X1697700Y1896200D02*
X1707700D01*
X1702700Y1891200D02*
Y1901200D01*
X1029600Y1896200D02*
X1039600D01*
X1034600Y1891200D02*
Y1901200D01*
X953400Y1896200D02*
X963400D01*
X958400Y1891200D02*
Y1901200D01*
X978800Y1896200D02*
X988800D01*
X983800Y1891200D02*
Y1901200D01*
X928000Y1820000D02*
X938000D01*
X933000Y1815000D02*
Y1825000D01*
X1004200Y1820000D02*
X1014200D01*
X1009200Y1815000D02*
Y1825000D01*
X1080400Y1896200D02*
X1090400D01*
X1085400Y1891200D02*
Y1901200D01*
X953400Y1820000D02*
X963400D01*
X958400Y1815000D02*
Y1825000D01*
X1055000Y1820000D02*
X1065000D01*
X1060000Y1815000D02*
Y1825000D01*
X928000Y1896200D02*
X938000D01*
X933000Y1891200D02*
Y1901200D01*
X978800Y1820000D02*
X988800D01*
X983800Y1815000D02*
Y1825000D01*
X1029600Y1820000D02*
X1039600D01*
X1034600Y1815000D02*
Y1825000D01*
X1080400Y1820000D02*
X1090400D01*
X1085400Y1815000D02*
Y1825000D01*
X1004200Y1896200D02*
X1014200D01*
X1009200Y1891200D02*
Y1901200D01*
X1055000Y1896200D02*
X1065000D01*
X1060000Y1891200D02*
Y1901200D01*
X153100Y1409200D02*
X163100D01*
X158100Y1404200D02*
Y1414200D01*
X76900Y1536200D02*
X86900D01*
X81900Y1531200D02*
Y1541200D01*
X76900Y1485400D02*
X86900D01*
X81900Y1480400D02*
Y1490400D01*
X153100Y1536200D02*
X163100D01*
X158100Y1531200D02*
Y1541200D01*
X153100Y1485400D02*
X163100D01*
X158100Y1480400D02*
Y1490400D01*
X153100Y1434600D02*
X163100D01*
X158100Y1429600D02*
Y1439600D01*
X76900Y1434600D02*
X86900D01*
X81900Y1429600D02*
Y1439600D01*
X76900Y1510800D02*
X86900D01*
X81900Y1505800D02*
Y1515800D01*
X153100Y1460000D02*
X163100D01*
X158100Y1455000D02*
Y1465000D01*
X153100Y1510800D02*
X163100D01*
X158100Y1505800D02*
Y1515800D01*
X76900Y1460000D02*
X86900D01*
X81900Y1455000D02*
Y1465000D01*
X76900Y1409200D02*
X86900D01*
X81900Y1404200D02*
Y1414200D01*
X76900Y1383800D02*
X86900D01*
X81900Y1378800D02*
Y1388800D01*
X153100Y1383800D02*
X163100D01*
X158100Y1378800D02*
Y1388800D01*
X259932Y1399755D02*
X268932D01*
X264432Y1395255D02*
Y1404255D01*
X259932Y1475955D02*
X268932D01*
X264432Y1471455D02*
Y1480455D01*
X336132Y1552155D02*
X345132D01*
X340632Y1547655D02*
Y1556655D01*
X336132Y1501355D02*
X345132D01*
X340632Y1496855D02*
Y1505855D01*
X259932Y1374355D02*
X268932D01*
X264432Y1369855D02*
Y1378855D01*
X259932Y1526755D02*
X268932D01*
X264432Y1522255D02*
Y1531255D01*
X336132Y1526755D02*
X345132D01*
X340632Y1522255D02*
Y1531255D01*
X336132Y1475955D02*
X345132D01*
X340632Y1471455D02*
Y1480455D01*
X336132Y1425155D02*
X345132D01*
X340632Y1420655D02*
Y1429655D01*
X336132Y1450555D02*
X345132D01*
X340632Y1446055D02*
Y1455055D01*
X336132Y1399755D02*
X345132D01*
X340632Y1395255D02*
Y1404255D01*
X336132Y1374355D02*
X345132D01*
X340632Y1369855D02*
Y1378855D01*
X259932Y1552155D02*
X268932D01*
X264432Y1547655D02*
Y1556655D01*
X259932Y1501355D02*
X268932D01*
X264432Y1496855D02*
Y1505855D01*
X259932Y1425155D02*
X268932D01*
X264432Y1420655D02*
Y1429655D01*
X259932Y1450555D02*
X268932D01*
X264432Y1446055D02*
Y1455055D01*
X543600Y1013500D02*
X552600D01*
X548100Y1009000D02*
Y1018000D01*
X543600Y911900D02*
X552600D01*
X548100Y907400D02*
Y916400D01*
X543600Y861100D02*
X552600D01*
X548100Y856600D02*
Y865600D01*
X543600Y886500D02*
X552600D01*
X548100Y882000D02*
Y891000D01*
X467400Y1064300D02*
X476400D01*
X471900Y1059800D02*
Y1068800D01*
X467400Y962700D02*
X476400D01*
X471900Y958200D02*
Y967200D01*
X467400Y911900D02*
X476400D01*
X471900Y907400D02*
Y916400D01*
X543600Y1038900D02*
X552600D01*
X548100Y1034400D02*
Y1043400D01*
X543600Y937300D02*
X552600D01*
X548100Y932800D02*
Y941800D01*
X543600Y835700D02*
X552600D01*
X548100Y831200D02*
Y840200D01*
X543600Y1064300D02*
X552600D01*
X548100Y1059800D02*
Y1068800D01*
X467400Y1038900D02*
X476400D01*
X471900Y1034400D02*
Y1043400D01*
X467400Y988100D02*
X476400D01*
X471900Y983600D02*
Y992600D01*
X467400Y937300D02*
X476400D01*
X471900Y932800D02*
Y941800D01*
X543600Y988100D02*
X552600D01*
X548100Y983600D02*
Y992600D01*
X467400Y886500D02*
X476400D01*
X471900Y882000D02*
Y891000D01*
X467400Y861100D02*
X476400D01*
X471900Y856600D02*
Y865600D01*
X467400Y835700D02*
X476400D01*
X471900Y831200D02*
Y840200D01*
X467400Y1013500D02*
X476400D01*
X471900Y1009000D02*
Y1018000D01*
X543600Y962700D02*
X552600D01*
X548100Y958200D02*
Y967200D01*
X56500Y815000D02*
X63500D01*
X60000Y811500D02*
Y818500D01*
X56500Y865000D02*
X63500D01*
X60000Y861500D02*
Y868500D01*
X226750Y215000D02*
X233250D01*
X230000Y211750D02*
Y218250D01*
X226750Y165000D02*
X233250D01*
X230000Y161750D02*
Y168250D01*
X146750Y215000D02*
X153250D01*
X150000Y211750D02*
Y218250D01*
X146750Y165000D02*
X153250D01*
X150000Y161750D02*
Y168250D01*
X2716158Y1685385D02*
X2722658D01*
X2719408Y1682135D02*
Y1688635D01*
X2716158Y1735385D02*
X2722658D01*
X2719408Y1732135D02*
Y1738635D01*
X2786000Y1392500D02*
X2794000D01*
X2790000Y1388500D02*
Y1396500D01*
X2786000Y1427500D02*
X2794000D01*
X2790000Y1423500D02*
Y1431500D01*
X2786000Y1175000D02*
X2794000D01*
X2790000Y1171000D02*
Y1179000D01*
X2786000Y1210000D02*
X2794000D01*
X2790000Y1206000D02*
Y1214000D01*
X2706500Y1165000D02*
X2713500D01*
X2710000Y1161500D02*
Y1168500D01*
X2706500Y1215000D02*
X2713500D01*
X2710000Y1211500D02*
Y1218500D01*
X2599492Y1685385D02*
X2605992D01*
X2602742Y1682135D02*
Y1688635D01*
X2599492Y1735385D02*
X2605992D01*
X2602742Y1732135D02*
Y1738635D01*
X2816031Y266000D02*
X2822531D01*
X2819281Y262750D02*
Y269250D01*
X2816031Y216000D02*
X2822531D01*
X2819281Y212750D02*
Y219250D01*
X2715943Y216000D02*
X2722443D01*
X2719193Y212750D02*
Y219250D01*
X2715943Y266000D02*
X2722443D01*
X2719193Y262750D02*
Y269250D01*
X2767747Y170178D02*
X2774247D01*
X2770997Y166928D02*
Y173428D01*
X2767747Y120178D02*
X2774247D01*
X2770997Y116928D02*
Y123428D01*
X2482825Y1685385D02*
X2489325D01*
X2486075Y1682135D02*
Y1688635D01*
X2482825Y1735385D02*
X2489325D01*
X2486075Y1732135D02*
Y1738635D01*
X1282339Y1823574D02*
X1288839D01*
X1285589Y1820324D02*
Y1826824D01*
X1282339Y1873574D02*
X1288839D01*
X1285589Y1870324D02*
Y1876824D01*
X1382339Y1823574D02*
X1388839D01*
X1385589Y1820324D02*
Y1826824D01*
X1382339Y1873574D02*
X1388839D01*
X1385589Y1870324D02*
Y1876824D01*
X1432339Y1823574D02*
X1438839D01*
X1435589Y1820324D02*
Y1826824D01*
X1432339Y1873574D02*
X1438839D01*
X1435589Y1870324D02*
Y1876824D01*
X1332339Y1823574D02*
X1338839D01*
X1335589Y1820324D02*
Y1826824D01*
X1332339Y1873574D02*
X1338839D01*
X1335589Y1870324D02*
Y1876824D01*
X856141Y1875091D02*
X862641D01*
X859391Y1871841D02*
Y1878341D01*
X856141Y1825091D02*
X862641D01*
X859391Y1821841D02*
Y1828341D01*
X806141Y1825091D02*
X812641D01*
X809391Y1821841D02*
Y1828341D01*
X806141Y1875091D02*
X812641D01*
X809391Y1871841D02*
Y1878341D01*
X257350Y1868440D02*
X264350D01*
X260850Y1864940D02*
Y1871940D01*
X282750Y1868440D02*
X289750D01*
X286250Y1864940D02*
Y1871940D01*
X231950Y1868440D02*
X238950D01*
X235450Y1864940D02*
Y1871940D01*
X133700Y1868644D02*
X140700D01*
X137200Y1865144D02*
Y1872144D01*
X82900Y1868644D02*
X89900D01*
X86400Y1865144D02*
Y1872144D01*
X108300Y1868644D02*
X115300D01*
X111800Y1865144D02*
Y1872144D01*
X108300Y1941380D02*
X115300D01*
X111800Y1937880D02*
Y1944880D01*
X82900Y1941380D02*
X89900D01*
X86400Y1937880D02*
Y1944880D01*
X133700Y1941380D02*
X140700D01*
X137200Y1937880D02*
Y1944880D01*
X108300Y2014328D02*
X115300D01*
X111800Y2010829D02*
Y2017829D01*
X82900Y2014328D02*
X89900D01*
X86400Y2010829D02*
Y2017829D01*
X133700Y2014328D02*
X140700D01*
X137200Y2010829D02*
Y2017829D01*
X266678Y153718D02*
X276678D01*
X271678Y148718D02*
Y158718D01*
X263884Y191336D02*
X278884D01*
X271384Y183836D02*
Y198836D01*
X2677678Y193718D02*
X2685678D01*
X2681678Y189718D02*
Y197718D01*
X515500Y1576200D02*
X524500D01*
X520000Y1571700D02*
Y1580700D01*
X490100Y1550800D02*
X499100D01*
X494600Y1546300D02*
Y1555300D01*
X515500Y1500000D02*
X524500D01*
X520000Y1495500D02*
Y1504500D01*
X515500Y1550800D02*
X524500D01*
X520000Y1546300D02*
Y1555300D01*
X515500Y1525400D02*
X524500D01*
X520000Y1520900D02*
Y1529900D01*
X490100Y1525400D02*
X499100D01*
X494600Y1520900D02*
Y1529900D01*
X490100Y1500000D02*
X499100D01*
X494600Y1495500D02*
Y1504500D01*
X490100Y1576200D02*
X499100D01*
X494600Y1571700D02*
Y1580700D01*
X917178Y253718D02*
X926178D01*
X921678Y249218D02*
Y258218D01*
X847178Y93718D02*
X856178D01*
X851678Y89218D02*
Y98218D01*
X820178Y193718D02*
X883178D01*
X851678Y162218D02*
Y225218D01*
X186750Y215000D02*
X193250D01*
X190000Y211750D02*
Y218250D01*
X186750Y165000D02*
X193250D01*
X190000Y161750D02*
Y168250D01*
X106750Y165000D02*
X113250D01*
X110000Y161750D02*
Y168250D01*
X106750Y215000D02*
X113250D01*
X110000Y211750D02*
Y218250D01*
X56500Y215000D02*
X63500D01*
X60000Y211500D02*
Y218500D01*
X56500Y165000D02*
X63500D01*
X60000Y161500D02*
Y168500D01*
X667178Y253718D02*
X676178D01*
X671678Y249218D02*
Y258218D01*
X597178Y93718D02*
X606178D01*
X601678Y89218D02*
Y98218D01*
X570178Y193718D02*
X633178D01*
X601678Y162218D02*
Y225218D01*
X417178Y253718D02*
X426178D01*
X421678Y249218D02*
Y258218D01*
X347178Y93718D02*
X356178D01*
X351678Y89218D02*
Y98218D01*
X320178Y193718D02*
X383178D01*
X351678Y162218D02*
Y225218D01*
X2667178Y253718D02*
X2676178D01*
X2671678Y249218D02*
Y258218D01*
X2597178Y93718D02*
X2606178D01*
X2601678Y89218D02*
Y98218D01*
X2570178Y193718D02*
X2633178D01*
X2601678Y162218D02*
Y225218D01*
X2026237Y1873570D02*
X2032737D01*
X2029487Y1870320D02*
Y1876820D01*
X2026237Y1823570D02*
X2032737D01*
X2029487Y1820320D02*
Y1826820D01*
X1956500Y1823570D02*
X1963500D01*
X1960000Y1820070D02*
Y1827070D01*
X1956500Y1873570D02*
X1963500D01*
X1960000Y1870070D02*
Y1877070D01*
X2417178Y253718D02*
X2426178D01*
X2421678Y249218D02*
Y258218D01*
X2347178Y93718D02*
X2356178D01*
X2351678Y89218D02*
Y98218D01*
X2320178Y193718D02*
X2383178D01*
X2351678Y162218D02*
Y225218D01*
X2167178Y253718D02*
X2176178D01*
X2171678Y249218D02*
Y258218D01*
X2097178Y93718D02*
X2106178D01*
X2101678Y89218D02*
Y98218D01*
X2070178Y193718D02*
X2133178D01*
X2101678Y162218D02*
Y225218D01*
X1917178Y253718D02*
X1926178D01*
X1921678Y249218D02*
Y258218D01*
X1847178Y93718D02*
X1856178D01*
X1851678Y89218D02*
Y98218D01*
X1820178Y193718D02*
X1883178D01*
X1851678Y162218D02*
Y225218D01*
X1667178Y253718D02*
X1676178D01*
X1671678Y249218D02*
Y258218D01*
X1597178Y93718D02*
X1606178D01*
X1601678Y89218D02*
Y98218D01*
X1570178Y193718D02*
X1633178D01*
X1601678Y162218D02*
Y225218D01*
X1417178Y253718D02*
X1426178D01*
X1421678Y249218D02*
Y258218D01*
X1347178Y93718D02*
X1356178D01*
X1351678Y89218D02*
Y98218D01*
X1320178Y193718D02*
X1383178D01*
X1351678Y162218D02*
Y225218D01*
X1167178Y253718D02*
X1176178D01*
X1171678Y249218D02*
Y258218D01*
X1097178Y93718D02*
X1106178D01*
X1101678Y89218D02*
Y98218D01*
X1070178Y193718D02*
X1133178D01*
X1101678Y162218D02*
Y225218D01*
X316432Y1700964D02*
X323432D01*
X319932Y1697464D02*
Y1704464D01*
X266432Y1700964D02*
X273432D01*
X269932Y1697464D02*
Y1704464D01*
X74900Y1780000D02*
X85100D01*
X80000Y1774900D02*
Y1785100D01*
X2280466Y292904D02*
X2286966D01*
X2283716Y289654D02*
Y296154D01*
X2230466Y292904D02*
X2236966D01*
X2233716Y289654D02*
Y296154D01*
X2280466Y344782D02*
X2286966D01*
X2283716Y341532D02*
Y348032D01*
X2230466Y344782D02*
X2236966D01*
X2233716Y341532D02*
Y348032D01*
X1886689Y292904D02*
X1893189D01*
X1889939Y289654D02*
Y296154D01*
X1836689Y292904D02*
X1843189D01*
X1839939Y289654D02*
Y296154D01*
X1886689Y344782D02*
X1893189D01*
X1889939Y341532D02*
Y348032D01*
X1836689Y344782D02*
X1843189D01*
X1839939Y341532D02*
Y348032D01*
X1529812Y292904D02*
X1536312D01*
X1533062Y289654D02*
Y296154D01*
X1479812Y292904D02*
X1486312D01*
X1483062Y289654D02*
Y296154D01*
X1529812Y344782D02*
X1536312D01*
X1533062Y341532D02*
Y348032D01*
X1479812Y344782D02*
X1486312D01*
X1483062Y341532D02*
Y348032D01*
X117175Y1779262D02*
X127375D01*
X122275Y1774162D02*
Y1784362D01*
X2751568Y1303676D02*
X2761768D01*
X2756668Y1298576D02*
Y1308776D01*
X2700768Y1303676D02*
X2710968D01*
X2705868Y1298576D02*
Y1308776D01*
X2703712Y847312D02*
X2713912D01*
X2708812Y842212D02*
Y852412D01*
X2698553Y1072135D02*
X2708753D01*
X2703653Y1067035D02*
Y1077235D01*
X2754900Y1500000D02*
X2765100D01*
X2760000Y1494900D02*
Y1505100D01*
X2694900Y1500000D02*
X2705100D01*
X2700000Y1494900D02*
Y1505100D01*
X381717Y1795620D02*
X388717D01*
X385218Y1792120D02*
Y1799120D01*
X381717Y1846420D02*
X388717D01*
X385218Y1842920D02*
Y1849920D01*
X381717Y1821020D02*
X388717D01*
X385218Y1817520D02*
Y1824520D01*
X2793800Y973816D02*
X2801800D01*
X2797800Y969816D02*
Y977816D01*
X2793800Y938816D02*
X2801800D01*
X2797800Y934816D02*
Y942816D01*
X2790038Y670000D02*
X2797038D01*
X2793538Y666500D02*
Y673500D01*
X2840038Y670000D02*
X2847038D01*
X2843538Y666500D02*
Y673500D01*
X228798Y1779800D02*
X235798D01*
X232298Y1776300D02*
Y1783300D01*
X178798Y1779800D02*
X185798D01*
X182298Y1776300D02*
Y1783300D01*
X2840116Y426031D02*
X2847116D01*
X2843616Y422531D02*
Y429531D01*
X2790116Y426031D02*
X2797116D01*
X2793616Y422531D02*
Y429531D01*
X244127Y524004D02*
X251127D01*
X247627Y520504D02*
Y527504D01*
X194127Y524004D02*
X201127D01*
X197627Y520504D02*
Y527504D01*
X133353Y404095D02*
X140353D01*
X136853Y400595D02*
Y407595D01*
X83353Y404095D02*
X90353D01*
X86853Y400595D02*
Y407595D01*
X706141Y1875091D02*
X712641D01*
X709391Y1871841D02*
Y1878341D01*
X706141Y1825091D02*
X712641D01*
X709391Y1821841D02*
Y1828341D01*
X2700835Y553065D02*
X2707835D01*
X2704335Y549566D02*
Y556566D01*
X2750835Y553065D02*
X2757835D01*
X2754335Y549566D02*
Y556566D01*
X2495500Y1296200D02*
X2504500D01*
X2500000Y1291700D02*
Y1300700D01*
X2495500Y1245400D02*
X2504500D01*
X2500000Y1240900D02*
Y1249900D01*
X2495500Y1270800D02*
X2504500D01*
X2500000Y1266300D02*
Y1275300D01*
X2520900Y1270800D02*
X2529900D01*
X2525400Y1266300D02*
Y1275300D01*
X2520900Y1296200D02*
X2529900D01*
X2525400Y1291700D02*
Y1300700D01*
X2520900Y1245400D02*
X2529900D01*
X2525400Y1240900D02*
Y1249900D01*
X2495500Y1321600D02*
X2504500D01*
X2500000Y1317100D02*
Y1326100D01*
X2520900Y1321600D02*
X2529900D01*
X2525400Y1317100D02*
Y1326100D01*
X135634Y343619D02*
X142134D01*
X138884Y340369D02*
Y346869D01*
X85634Y343619D02*
X92134D01*
X88884Y340369D02*
Y346869D01*
X244092Y343619D02*
X250592D01*
X247342Y340369D02*
Y346869D01*
X194092Y343619D02*
X200592D01*
X197342Y340369D02*
Y346869D01*
X135670Y524004D02*
X142670D01*
X139170Y520504D02*
Y527504D01*
X85670Y524004D02*
X92670D01*
X89170Y520504D02*
Y527504D01*
X2750835Y426031D02*
X2757835D01*
X2754335Y422531D02*
Y429531D01*
X2700835Y426031D02*
X2707835D01*
X2704335Y422531D02*
Y429531D01*
X137605Y464138D02*
X144105D01*
X140855Y460888D02*
Y467388D01*
X87605Y464138D02*
X94105D01*
X90855Y460888D02*
Y467388D01*
X2076237Y1873570D02*
X2082737D01*
X2079487Y1870320D02*
Y1876820D01*
X2076237Y1823570D02*
X2082737D01*
X2079487Y1820320D02*
Y1826820D01*
X2700835Y670000D02*
X2707835D01*
X2704335Y666500D02*
Y673500D01*
X2750835Y670000D02*
X2757835D01*
X2754335Y666500D02*
Y673500D01*
X2750835Y488414D02*
X2757335D01*
X2754085Y485164D02*
Y491664D01*
X2700835Y488414D02*
X2707335D01*
X2704085Y485164D02*
Y491664D01*
X2790038Y610000D02*
X2796538D01*
X2793288Y606750D02*
Y613250D01*
X2840038Y610000D02*
X2846538D01*
X2843288Y606750D02*
Y613250D01*
X231945Y1941386D02*
X238945D01*
X235445Y1937886D02*
Y1944886D01*
X282745Y1941386D02*
X289745D01*
X286245Y1937886D02*
Y1944886D01*
X257345Y1941386D02*
X264345D01*
X260845Y1937886D02*
Y1944886D01*
X2726450Y2096200D02*
X2733550D01*
X2730000Y2092650D02*
Y2099750D01*
X2777250Y2096200D02*
X2784350D01*
X2780800Y2092650D02*
Y2099750D01*
X2751850Y2096200D02*
X2758950D01*
X2755400Y2092650D02*
Y2099750D01*
X2751850Y1943800D02*
X2758950D01*
X2755400Y1940250D02*
Y1947350D01*
X2726450Y1943800D02*
X2733550D01*
X2730000Y1940250D02*
Y1947350D01*
X2701050Y2096200D02*
X2708150D01*
X2704600Y2092650D02*
Y2099750D01*
X2701050Y1943800D02*
X2708150D01*
X2704600Y1940250D02*
Y1947350D01*
X2777250Y1943800D02*
X2784350D01*
X2780800Y1940250D02*
Y1947350D01*
X2675650Y2096200D02*
X2682750D01*
X2679200Y2092650D02*
Y2099750D01*
X2675650Y1943800D02*
X2682750D01*
X2679200Y1940250D02*
Y1947350D01*
X2700835Y610000D02*
X2707335D01*
X2704085Y606750D02*
Y613250D01*
X2750835Y610000D02*
X2757335D01*
X2754085Y606750D02*
Y613250D01*
X2790038Y553065D02*
X2797038D01*
X2793538Y549566D02*
Y556566D01*
X2840038Y553065D02*
X2847038D01*
X2843538Y549566D02*
Y556566D01*
X2790116Y488414D02*
X2796617D01*
X2793366Y485164D02*
Y491664D01*
X2840116Y488414D02*
X2846617D01*
X2843366Y485164D02*
Y491664D01*
X2840116Y361380D02*
X2846617D01*
X2843366Y358130D02*
Y364630D01*
X2790116Y361380D02*
X2796617D01*
X2793366Y358130D02*
Y364630D01*
X756141Y1875091D02*
X762641D01*
X759391Y1871841D02*
Y1878341D01*
X756141Y1825091D02*
X762641D01*
X759391Y1821841D02*
Y1828341D01*
X113082Y937303D02*
X122222D01*
X117652Y932733D02*
Y941873D01*
X265482Y886503D02*
X274622D01*
X270052Y881933D02*
Y891073D01*
X113082Y962703D02*
X122222D01*
X117652Y958133D02*
Y967273D01*
X265482Y1140503D02*
X274622D01*
X270052Y1135933D02*
Y1145073D01*
X265482Y1115103D02*
X274622D01*
X270052Y1110533D02*
Y1119673D01*
X265482Y1089703D02*
X274622D01*
X270052Y1085133D02*
Y1094273D01*
X113082Y861103D02*
X122222D01*
X117652Y856533D02*
Y865673D01*
X113082Y810303D02*
X122222D01*
X117652Y805733D02*
Y814873D01*
X113082Y784903D02*
X122222D01*
X117652Y780333D02*
Y789473D01*
X113082Y835703D02*
X122222D01*
X117652Y831133D02*
Y840273D01*
X113082Y886503D02*
X122222D01*
X117652Y881933D02*
Y891073D01*
X113082Y911903D02*
X122222D01*
X117652Y907333D02*
Y916473D01*
X113082Y988103D02*
X122222D01*
X117652Y983533D02*
Y992673D01*
X113082Y1013503D02*
X122222D01*
X117652Y1008933D02*
Y1018073D01*
X113082Y1038903D02*
X122222D01*
X117652Y1034333D02*
Y1043473D01*
X113082Y1064303D02*
X122222D01*
X117652Y1059733D02*
Y1068873D01*
X113082Y1089703D02*
X122222D01*
X117652Y1085133D02*
Y1094273D01*
X113082Y1115103D02*
X122222D01*
X117652Y1110533D02*
Y1119673D01*
X113082Y1140503D02*
X122222D01*
X117652Y1135933D02*
Y1145073D01*
X265482Y1064303D02*
X274622D01*
X270052Y1059733D02*
Y1068873D01*
X265482Y1038903D02*
X274622D01*
X270052Y1034333D02*
Y1043473D01*
X265482Y1013503D02*
X274622D01*
X270052Y1008933D02*
Y1018073D01*
X265482Y988103D02*
X274622D01*
X270052Y983533D02*
Y992673D01*
X265482Y962703D02*
X274622D01*
X270052Y958133D02*
Y967273D01*
X265482Y937303D02*
X274622D01*
X270052Y932733D02*
Y941873D01*
X265482Y911903D02*
X274622D01*
X270052Y907333D02*
Y916473D01*
X265482Y861103D02*
X274622D01*
X270052Y856533D02*
Y865673D01*
X265482Y835703D02*
X274622D01*
X270052Y831133D02*
Y840273D01*
X265482Y810303D02*
X274622D01*
X270052Y805733D02*
Y814873D01*
X265482Y784903D02*
X274622D01*
X270052Y780333D02*
Y789473D01*
X2750835Y361380D02*
X2757335D01*
X2754085Y358130D02*
Y364630D01*
X2700835Y361380D02*
X2707335D01*
X2704085Y358130D02*
Y364630D01*
X2706500Y1430000D02*
X2713500D01*
X2710000Y1426500D02*
Y1433500D01*
X2706500Y1380000D02*
X2713500D01*
X2710000Y1376500D02*
Y1383500D01*
X241810Y404095D02*
X248810D01*
X245310Y400595D02*
Y407595D01*
X191810Y404095D02*
X198810D01*
X195310Y400595D02*
Y407595D01*
X246063Y464138D02*
X252563D01*
X249313Y460888D02*
Y467388D01*
X196063Y464138D02*
X202563D01*
X199313Y460888D02*
Y467388D01*
X2706500Y975000D02*
X2713500D01*
X2710000Y971500D02*
Y978500D01*
X2706500Y925000D02*
X2713500D01*
X2710000Y921500D02*
Y928500D01*
X2580215Y2017712D02*
X2586715D01*
X2583465Y2014462D02*
Y2020962D01*
X2580215Y2119270D02*
X2586715D01*
X2583465Y2116020D02*
Y2122520D01*
X2580215Y2068490D02*
X2586715D01*
X2583465Y2065240D02*
Y2071740D01*
X2580215Y1966930D02*
X2586715D01*
X2583465Y1963680D02*
Y1970180D01*
X2578611Y1916150D02*
X2585110D01*
X2581860Y1912900D02*
Y1919400D01*
X2495500Y1517000D02*
X2504500D01*
X2500000Y1512500D02*
Y1521500D01*
X2520900Y1491600D02*
X2529900D01*
X2525400Y1487100D02*
Y1496100D01*
X2520900Y1517000D02*
X2529900D01*
X2525400Y1512500D02*
Y1521500D01*
X2520900Y1466200D02*
X2529900D01*
X2525400Y1461700D02*
Y1470700D01*
X2495500Y1491600D02*
X2504500D01*
X2500000Y1487100D02*
Y1496100D01*
X2495500Y1466200D02*
X2504500D01*
X2500000Y1461700D02*
Y1470700D01*
X2520900Y1440800D02*
X2529900D01*
X2525400Y1436300D02*
Y1445300D01*
X2495500Y1440800D02*
X2504500D01*
X2500000Y1436300D02*
Y1445300D01*
X466132Y2023621D02*
X472632D01*
X469382Y2020371D02*
Y2026871D01*
X466132Y2125180D02*
X472632D01*
X469382Y2121930D02*
Y2128430D01*
X466132Y2074400D02*
X472632D01*
X469382Y2071150D02*
Y2077650D01*
X466132Y1972840D02*
X472632D01*
X469382Y1969590D02*
Y1976090D01*
X466132Y1922060D02*
X472632D01*
X469382Y1918810D02*
Y1925310D01*
X650955Y2090000D02*
X659845D01*
X655400Y2085555D02*
Y2094445D01*
X625555Y2090000D02*
X634445D01*
X630000Y2085555D02*
Y2094445D01*
X1040955Y2090000D02*
X1049845D01*
X1045400Y2085555D02*
Y2094445D01*
X1015555Y2090000D02*
X1024445D01*
X1020000Y2085555D02*
Y2094445D01*
X1430955Y2090000D02*
X1439845D01*
X1435400Y2085555D02*
Y2094445D01*
X1405555Y2090000D02*
X1414445D01*
X1410000Y2085555D02*
Y2094445D01*
X1820955Y2090000D02*
X1829845D01*
X1825400Y2085555D02*
Y2094445D01*
X1795555Y2090000D02*
X1804445D01*
X1800000Y2085555D02*
Y2094445D01*
X2210955Y2090000D02*
X2219845D01*
X2215400Y2085555D02*
Y2094445D01*
X2185555Y2090000D02*
X2194445D01*
X2190000Y2085555D02*
Y2094445D01*
X2520900Y1075400D02*
X2529900D01*
X2525400Y1070900D02*
Y1079900D01*
X2495500Y1050000D02*
X2504500D01*
X2500000Y1045500D02*
Y1054500D01*
X2520900Y999200D02*
X2529900D01*
X2525400Y994700D02*
Y1003700D01*
X2520900Y1050000D02*
X2529900D01*
X2525400Y1045500D02*
Y1054500D01*
X2520900Y1024600D02*
X2529900D01*
X2525400Y1020100D02*
Y1029100D01*
X2495500Y1024600D02*
X2504500D01*
X2500000Y1020100D02*
Y1029100D01*
X2495500Y999200D02*
X2504500D01*
X2500000Y994700D02*
Y1003700D01*
X2495500Y1075400D02*
X2504500D01*
X2500000Y1070900D02*
Y1079900D01*
X2520900Y879200D02*
X2529900D01*
X2525400Y874700D02*
Y883700D01*
X2495500Y853800D02*
X2504500D01*
X2500000Y849300D02*
Y858300D01*
X2520900Y803000D02*
X2529900D01*
X2525400Y798500D02*
Y807500D01*
X2520900Y853800D02*
X2529900D01*
X2525400Y849300D02*
Y858300D01*
X2520900Y828400D02*
X2529900D01*
X2525400Y823900D02*
Y832900D01*
X2495500Y828400D02*
X2504500D01*
X2500000Y823900D02*
Y832900D01*
X2495500Y803000D02*
X2504500D01*
X2500000Y798500D02*
Y807500D01*
X2495500Y879200D02*
X2504500D01*
X2500000Y874700D02*
Y883700D01*
X845955Y2090000D02*
X854845D01*
X850400Y2085555D02*
Y2094445D01*
X820555Y2090000D02*
X829445D01*
X825000Y2085555D02*
Y2094445D01*
X1235955Y2090000D02*
X1244845D01*
X1240400Y2085555D02*
Y2094445D01*
X1210555Y2090000D02*
X1219445D01*
X1215000Y2085555D02*
Y2094445D01*
X1625955Y2090000D02*
X1634845D01*
X1630400Y2085555D02*
Y2094445D01*
X1600555Y2090000D02*
X1609445D01*
X1605000Y2085555D02*
Y2094445D01*
X2015955Y2090000D02*
X2024845D01*
X2020400Y2085555D02*
Y2094445D01*
X1990555Y2090000D02*
X1999445D01*
X1995000Y2085555D02*
Y2094445D01*
X2405955Y2090000D02*
X2414845D01*
X2410400Y2085555D02*
Y2094445D01*
X2380555Y2090000D02*
X2389445D01*
X2385000Y2085555D02*
Y2094445D01*
X2541158Y1735385D02*
X2547658D01*
X2544408Y1732135D02*
Y1738635D01*
X2541158Y1685385D02*
X2547658D01*
X2544408Y1682135D02*
Y1688635D01*
X2774490Y1735385D02*
X2780990D01*
X2777740Y1732135D02*
Y1738635D01*
X2774490Y1685385D02*
X2780990D01*
X2777740Y1682135D02*
Y1688635D01*
X2657825Y1685385D02*
X2664325D01*
X2661075Y1682135D02*
Y1688635D01*
X2657825Y1735385D02*
X2664325D01*
X2661075Y1732135D02*
Y1738635D01*
X2832830Y1735385D02*
X2839330D01*
X2836080Y1732135D02*
Y1738635D01*
X2832830Y1685385D02*
X2839330D01*
X2836080Y1682135D02*
Y1688635D01*
X693274Y299881D02*
X699774D01*
X696524Y296631D02*
Y303131D01*
X743274Y299881D02*
X749774D01*
X746524Y296631D02*
Y303131D01*
X693274Y342791D02*
X699774D01*
X696524Y339541D02*
Y346041D01*
X743274Y342791D02*
X749774D01*
X746524Y339541D02*
Y346041D01*
X853362Y299881D02*
X859862D01*
X856612Y296631D02*
Y303131D01*
X803362Y299881D02*
X809862D01*
X806612Y296631D02*
Y303131D01*
X853362Y342791D02*
X859862D01*
X856612Y339541D02*
Y346041D01*
X803362Y342791D02*
X809862D01*
X806612Y339541D02*
Y346041D01*
X1081598Y299881D02*
X1088098D01*
X1084848Y296631D02*
Y303131D01*
X1131598Y299881D02*
X1138098D01*
X1134848Y296631D02*
Y303131D01*
X1081598Y342791D02*
X1088098D01*
X1084848Y339541D02*
Y346041D01*
X1131598Y342791D02*
X1138098D01*
X1134848Y339541D02*
Y346041D01*
X1240602Y299881D02*
X1247103D01*
X1243852Y296631D02*
Y303131D01*
X1190602Y299881D02*
X1197103D01*
X1193852Y296631D02*
Y303131D01*
X1240602Y342791D02*
X1247103D01*
X1243852Y339541D02*
Y346041D01*
X1190602Y342791D02*
X1197103D01*
X1193852Y339541D02*
Y346041D01*
X1641001Y292904D02*
X1647501D01*
X1644251Y289654D02*
Y296154D01*
X1591001Y292904D02*
X1597501D01*
X1594251Y289654D02*
Y296154D01*
X1641001Y344782D02*
X1647501D01*
X1644251Y341532D02*
Y348032D01*
X1591001Y344782D02*
X1597501D01*
X1594251Y341532D02*
Y348032D01*
X1997879Y292904D02*
X2004379D01*
X2001129Y289654D02*
Y296154D01*
X1947879Y292904D02*
X1954379D01*
X1951129Y289654D02*
Y296154D01*
X1997879Y344782D02*
X2004379D01*
X2001129Y341532D02*
Y348032D01*
X1947879Y344782D02*
X1954379D01*
X1951129Y341532D02*
Y348032D01*
X2341655Y292904D02*
X2348155D01*
X2344905Y289654D02*
Y296154D01*
X2391655Y292904D02*
X2398155D01*
X2394905Y289654D02*
Y296154D01*
X2341655Y344782D02*
X2348155D01*
X2344905Y341532D02*
Y348032D01*
X2391655Y344782D02*
X2398155D01*
X2394905Y341532D02*
Y348032D01*
X2854000Y80000D02*
X2886000D01*
X2870000Y64000D02*
Y96000D01*
X2854000Y2100000D02*
X2886000D01*
X2870000Y2084000D02*
Y2116000D01*
X84000Y2100000D02*
X116000D01*
X100000Y2084000D02*
Y2116000D01*
X84000Y80000D02*
X116000D01*
X100000Y64000D02*
Y96000D01*
X2393200Y1990000D02*
X2402200D01*
X2397700Y1985500D02*
Y1994500D01*
X2393200Y2015400D02*
X2402200D01*
X2397700Y2010900D02*
Y2019900D01*
X2530215Y2068490D02*
X2536715D01*
X2533465Y2065240D02*
Y2071740D01*
X2528610Y1916150D02*
X2535110D01*
X2531860Y1912900D02*
Y1919400D01*
X516132Y1922060D02*
X522632D01*
X519382Y1918810D02*
Y1925310D01*
X516132Y1972840D02*
X522632D01*
X519382Y1969590D02*
Y1976090D01*
X516132Y2074400D02*
X522632D01*
X519382Y2071150D02*
Y2077650D01*
X1906300Y475400D02*
X1915300D01*
X1910800Y470900D02*
Y479900D01*
X1931700Y475400D02*
X1940700D01*
X1936200Y470900D02*
Y479900D01*
X1855500Y475400D02*
X1864500D01*
X1860000Y470900D02*
Y479900D01*
X1880900Y475400D02*
X1889900D01*
X1885400Y470900D02*
Y479900D01*
X1931700Y450000D02*
X1940700D01*
X1936200Y445500D02*
Y454500D01*
X1880900Y450000D02*
X1889900D01*
X1885400Y445500D02*
Y454500D01*
X1906300Y450000D02*
X1915300D01*
X1910800Y445500D02*
Y454500D01*
X1855500Y450000D02*
X1864500D01*
X1860000Y445500D02*
Y454500D01*
X1536300Y475400D02*
X1545300D01*
X1540800Y470900D02*
Y479900D01*
X1561700Y475400D02*
X1570700D01*
X1566200Y470900D02*
Y479900D01*
X1510900Y475400D02*
X1519900D01*
X1515400Y470900D02*
Y479900D01*
X1485500Y450000D02*
X1494500D01*
X1490000Y445500D02*
Y454500D01*
X1561700Y450000D02*
X1570700D01*
X1566200Y445500D02*
Y454500D01*
X1510900Y450000D02*
X1519900D01*
X1515400Y445500D02*
Y454500D01*
X1536300Y450000D02*
X1545300D01*
X1540800Y445500D02*
Y454500D01*
X1485500Y475400D02*
X1494500D01*
X1490000Y470900D02*
Y479900D01*
X515500Y1376200D02*
X524500D01*
X520000Y1371700D02*
Y1380700D01*
X490100Y1350800D02*
X499100D01*
X494600Y1346300D02*
Y1355300D01*
X515500Y1300000D02*
X524500D01*
X520000Y1295500D02*
Y1304500D01*
X515500Y1350800D02*
X524500D01*
X520000Y1346300D02*
Y1355300D01*
X515500Y1325400D02*
X524500D01*
X520000Y1320900D02*
Y1329900D01*
X490100Y1325400D02*
X499100D01*
X494600Y1320900D02*
Y1329900D01*
X490100Y1300000D02*
X499100D01*
X494600Y1295500D02*
Y1304500D01*
X490100Y1376200D02*
X499100D01*
X494600Y1371700D02*
Y1380700D01*
X796300Y475400D02*
X805300D01*
X800800Y470900D02*
Y479900D01*
X821700Y475400D02*
X830700D01*
X826200Y470900D02*
Y479900D01*
X770900Y475400D02*
X779900D01*
X775400Y470900D02*
Y479900D01*
X745500Y450000D02*
X754500D01*
X750000Y445500D02*
Y454500D01*
X821700Y450000D02*
X830700D01*
X826200Y445500D02*
Y454500D01*
X770900Y450000D02*
X779900D01*
X775400Y445500D02*
Y454500D01*
X796300Y450000D02*
X805300D01*
X800800Y445500D02*
Y454500D01*
X745500Y475400D02*
X754500D01*
X750000Y470900D02*
Y479900D01*
X2003200Y2015400D02*
X2012200D01*
X2007700Y2010900D02*
Y2019900D01*
X2003200Y1990000D02*
X2012200D01*
X2007700Y1985500D02*
Y1994500D01*
X1613200Y2015000D02*
X1622200D01*
X1617700Y2010500D02*
Y2019500D01*
X1613200Y1989600D02*
X1622200D01*
X1617700Y1985100D02*
Y1994100D01*
X2198200Y2015400D02*
X2207200D01*
X2202700Y2010900D02*
Y2019900D01*
X2198200Y1990000D02*
X2207200D01*
X2202700Y1985500D02*
Y1994500D01*
X1808200Y2015400D02*
X1817200D01*
X1812700Y2010900D02*
Y2019900D01*
X1808200Y1990000D02*
X1817200D01*
X1812700Y1985500D02*
Y1994500D01*
X638200Y2015400D02*
X647200D01*
X642700Y2010900D02*
Y2019900D01*
X638200Y1990000D02*
X647200D01*
X642700Y1985500D02*
Y1994500D01*
X1028200Y2015400D02*
X1037200D01*
X1032700Y2010900D02*
Y2019900D01*
X1028200Y1990000D02*
X1037200D01*
X1032700Y1985500D02*
Y1994500D01*
X1418200Y2015400D02*
X1427200D01*
X1422700Y2010900D02*
Y2019900D01*
X1418200Y1990000D02*
X1427200D01*
X1422700Y1985500D02*
Y1994500D01*
X2286300Y475400D02*
X2295300D01*
X2290800Y470900D02*
Y479900D01*
X2311700Y475400D02*
X2320700D01*
X2316200Y470900D02*
Y479900D01*
X2235500Y475400D02*
X2244500D01*
X2240000Y470900D02*
Y479900D01*
X2260900Y475400D02*
X2269900D01*
X2265400Y470900D02*
Y479900D01*
X2311700Y450000D02*
X2320700D01*
X2316200Y445500D02*
Y454500D01*
X2260900Y450000D02*
X2269900D01*
X2265400Y445500D02*
Y454500D01*
X2286300Y450000D02*
X2295300D01*
X2290800Y445500D02*
Y454500D01*
X2235500Y450000D02*
X2244500D01*
X2240000Y445500D02*
Y454500D01*
X1223200Y2015000D02*
X1232200D01*
X1227700Y2010500D02*
Y2019500D01*
X1223200Y1989600D02*
X1232200D01*
X1227700Y1985100D02*
Y1994100D01*
X1166300Y475400D02*
X1175300D01*
X1170800Y470900D02*
Y479900D01*
X1191700Y475400D02*
X1200700D01*
X1196200Y470900D02*
Y479900D01*
X1115500Y475400D02*
X1124500D01*
X1120000Y470900D02*
Y479900D01*
X1140900Y475400D02*
X1149900D01*
X1145400Y470900D02*
Y479900D01*
X1191700Y450000D02*
X1200700D01*
X1196200Y445500D02*
Y454500D01*
X1140900Y450000D02*
X1149900D01*
X1145400Y445500D02*
Y454500D01*
X1166300Y450000D02*
X1175300D01*
X1170800Y445500D02*
Y454500D01*
X1115500Y450000D02*
X1124500D01*
X1120000Y445500D02*
Y454500D01*
X833200Y2015400D02*
X842200D01*
X837700Y2010900D02*
Y2019900D01*
X833200Y1990000D02*
X842200D01*
X837700Y1985500D02*
Y1994500D01*
X2765987Y266000D02*
X2772487D01*
X2769237Y262750D02*
Y269250D01*
X2530215Y2017712D02*
X2536715D01*
X2533465Y2014462D02*
Y2020962D01*
X2817791Y120178D02*
X2824292D01*
X2821042Y116928D02*
Y123428D01*
X516132Y2023621D02*
X522632D01*
X519382Y2020371D02*
Y2026871D01*
X2530215Y2119270D02*
X2536715D01*
X2533465Y2116020D02*
Y2122520D01*
X2530215Y1966930D02*
X2536715D01*
X2533465Y1963680D02*
Y1970180D01*
X2717703Y120178D02*
X2724203D01*
X2720953Y116928D02*
Y123428D01*
X2765987Y216000D02*
X2772487D01*
X2769237Y212750D02*
Y219250D01*
X516132Y2125180D02*
X522632D01*
X519382Y2121930D02*
Y2128430D01*
X2717703Y170178D02*
X2724203D01*
X2720953Y166928D02*
Y173428D01*
X2817791Y170178D02*
X2824292D01*
X2821042Y166928D02*
Y173428D01*
X782439Y621443D02*
X792439D01*
X787439Y616443D02*
Y626443D01*
X628602Y1729942D02*
X638602D01*
X633602Y1724942D02*
Y1734942D01*
X46888Y253006D02*
X54000D01*
X50444Y249450D02*
Y256562D01*
X2389102Y1743625D02*
X2399102D01*
X2394102Y1738625D02*
Y1748625D01*
X2374479Y647787D02*
X2384479D01*
X2379479Y642787D02*
Y652787D01*
X186961Y2125722D02*
X196961D01*
X191961Y2120722D02*
Y2130722D01*
X2858980Y754143D02*
X2866092D01*
X2862536Y750587D02*
Y757699D01*
X2608089Y297622D02*
X2615201D01*
X2611645Y294066D02*
Y301178D01*
X626444Y1840000D02*
X633556D01*
X630000Y1836444D02*
Y1843556D01*
X74832Y599363D02*
X81944D01*
X78388Y595807D02*
Y602919D01*
X209500Y653162D02*
X216612D01*
X213056Y649606D02*
Y656718D01*
X239606Y671517D02*
X246718D01*
X243162Y667961D02*
Y675073D01*
X243218Y700143D02*
X250329D01*
X246773Y696587D02*
Y703699D01*
M02*
