G04*
G04 #@! TF.GenerationSoftware,Altium Limited,Altium Designer,26.8.1 (31)*
G04*
G04 Layer_Color=0*
G04 Board_Origin=10000000|10000000*
%FSLAX44Y44*%
%MOMM*%
G71*
G04*
G04 #@! TF.SameCoordinates,386DA3DA-DCAF-4790-80FA-1E2CBEDCECB1*
G04*
G04*
G04 #@! TF.FilePolarity,Positive*
G04*
G01*
G75*
%ADD65C,0.1000*%
D65*
X60000Y835000D02*
Y845000D01*
X55000Y840000D02*
X65000D01*
X230000Y185000D02*
Y195000D01*
X225000Y190000D02*
X235000D01*
X150000Y185000D02*
Y195000D01*
X145000Y190000D02*
X155000D01*
X2714408Y1710385D02*
X2724408D01*
X2719408Y1705385D02*
Y1715385D01*
X2790000Y1405000D02*
Y1415000D01*
X2785000Y1410000D02*
X2795000D01*
X2790000Y1187500D02*
Y1197500D01*
X2785000Y1192500D02*
X2795000D01*
X2710000Y1185000D02*
Y1195000D01*
X2705000Y1190000D02*
X2715000D01*
X2597742Y1710385D02*
X2607742D01*
X2602742Y1705385D02*
Y1715385D01*
X2819281Y236000D02*
Y246000D01*
X2814281Y241000D02*
X2824281D01*
X2719193Y236000D02*
Y246000D01*
X2714193Y241000D02*
X2724193D01*
X2770997Y140178D02*
Y150178D01*
X2765997Y145178D02*
X2775997D01*
X2481075Y1710385D02*
X2491075D01*
X2486075Y1705385D02*
Y1715385D01*
X1280589Y1848574D02*
X1290589D01*
X1285589Y1843574D02*
Y1853574D01*
X1380589Y1848574D02*
X1390589D01*
X1385589Y1843574D02*
Y1853574D01*
X1430589Y1848574D02*
X1440589D01*
X1435589Y1843574D02*
Y1853574D01*
X1330589Y1848574D02*
X1340589D01*
X1335589Y1843574D02*
Y1853574D01*
X854391Y1850091D02*
X864391D01*
X859391Y1845091D02*
Y1855091D01*
X804391Y1850091D02*
X814391D01*
X809391Y1845091D02*
Y1855091D01*
X255850Y1868390D02*
X265850D01*
X260850Y1863390D02*
Y1873390D01*
X111800Y1863594D02*
Y1873594D01*
X106800Y1868594D02*
X116800D01*
X106800Y1941430D02*
X116800D01*
X111800Y1936430D02*
Y1946430D01*
X106800Y2014379D02*
X116800D01*
X111800Y2009379D02*
Y2019379D01*
X190000Y185000D02*
Y195000D01*
X185000Y190000D02*
X195000D01*
X105000D02*
X115000D01*
X110000Y185000D02*
Y195000D01*
X60000Y185000D02*
Y195000D01*
X55000Y190000D02*
X65000D01*
X2024487Y1848570D02*
X2034487D01*
X2029487Y1843570D02*
Y1853570D01*
X1960000Y1843570D02*
Y1853570D01*
X1955000Y1848570D02*
X1965000D01*
X289932Y1700964D02*
X299932D01*
X294932Y1695965D02*
Y1705964D01*
X80000Y1775000D02*
Y1785000D01*
X75000Y1780000D02*
X85000D01*
X2258716Y287904D02*
Y297904D01*
X2253716Y292904D02*
X2263716D01*
X2258716Y339782D02*
Y349782D01*
X2253716Y344782D02*
X2263716D01*
X1864939Y287904D02*
Y297904D01*
X1859939Y292904D02*
X1869939D01*
X1864939Y339782D02*
Y349782D01*
X1859939Y344782D02*
X1869939D01*
X1508062Y287904D02*
Y297904D01*
X1503062Y292904D02*
X1513062D01*
X1508062Y339782D02*
Y349782D01*
X1503062Y344782D02*
X1513062D01*
X117275Y1779262D02*
X127275D01*
X122275Y1774262D02*
Y1784262D01*
X2756668Y1298676D02*
Y1308676D01*
X2751668Y1303676D02*
X2761668D01*
X2705868Y1298676D02*
Y1308676D01*
X2700868Y1303676D02*
X2710868D01*
X2708812Y842312D02*
Y852312D01*
X2703812Y847312D02*
X2713812D01*
X2703653Y1067135D02*
Y1077135D01*
X2698653Y1072135D02*
X2708653D01*
X2760000Y1495000D02*
Y1505000D01*
X2755000Y1500000D02*
X2765000D01*
X2700000Y1495000D02*
Y1505000D01*
X2695000Y1500000D02*
X2705000D01*
X385268Y1816020D02*
Y1826020D01*
X380268Y1821020D02*
X390267D01*
X2792800Y956316D02*
X2802800D01*
X2797800Y951316D02*
Y961316D01*
X2813538Y670000D02*
X2823538D01*
X2818538Y665000D02*
Y675000D01*
X202298Y1779800D02*
X212298D01*
X207298Y1774800D02*
Y1784800D01*
X2818616Y421031D02*
Y431031D01*
X2813616Y426031D02*
X2823616D01*
X222627Y519004D02*
Y529004D01*
X217627Y524004D02*
X227627D01*
X111853Y399095D02*
Y409095D01*
X106853Y404095D02*
X116853D01*
X709391Y1845091D02*
Y1855091D01*
X704391Y1850091D02*
X714391D01*
X2724335Y553065D02*
X2734335D01*
X2729335Y548065D02*
Y558065D01*
X113884Y338619D02*
Y348619D01*
X108884Y343619D02*
X118884D01*
X222342Y338619D02*
Y348619D01*
X217342Y343619D02*
X227342D01*
X109170Y524004D02*
X119170D01*
X114170Y519004D02*
Y529004D01*
X2724335Y426031D02*
X2734335D01*
X2729335Y421031D02*
Y431031D01*
X110855Y464138D02*
X120855D01*
X115855Y459138D02*
Y469138D01*
X2079487Y1843570D02*
Y1853570D01*
X2074487Y1848570D02*
X2084487D01*
X2724335Y670000D02*
X2734335D01*
X2729335Y665000D02*
Y675000D01*
X2724085Y488414D02*
X2734085D01*
X2729085Y483414D02*
Y493414D01*
X2813288Y610000D02*
X2823288D01*
X2818288Y605000D02*
Y615000D01*
X260845Y1936336D02*
Y1946336D01*
X255845Y1941336D02*
X265845D01*
X2724085Y610000D02*
X2734085D01*
X2729085Y605000D02*
Y615000D01*
X2813538Y553065D02*
X2823538D01*
X2818538Y548065D02*
Y558065D01*
X2813366Y488414D02*
X2823366D01*
X2818366Y483414D02*
Y493414D01*
X2813366Y361380D02*
X2823366D01*
X2818366Y356380D02*
Y366380D01*
X759391Y1845091D02*
Y1855091D01*
X754391Y1850091D02*
X764391D01*
X193852Y967228D02*
Y977228D01*
X188852Y972228D02*
X198852D01*
X2724085Y361380D02*
X2734085D01*
X2729085Y356380D02*
Y366380D01*
X2705000Y1405000D02*
X2715000D01*
X2710000Y1400000D02*
Y1410000D01*
X220310Y399095D02*
Y409095D01*
X215310Y404095D02*
X225310D01*
X224313Y459138D02*
Y469138D01*
X219313Y464138D02*
X229313D01*
X2705000Y950000D02*
X2715000D01*
X2710000Y945000D02*
Y955000D01*
X2544408Y1705385D02*
Y1715385D01*
X2539408Y1710385D02*
X2549408D01*
X2772740D02*
X2782740D01*
X2777740Y1705385D02*
Y1715385D01*
X2661075Y1705385D02*
Y1715385D01*
X2656075Y1710385D02*
X2666075D01*
X2836080Y1705385D02*
Y1715385D01*
X2831080Y1710385D02*
X2841080D01*
X716524Y299881D02*
X726524D01*
X721524Y294881D02*
Y304881D01*
X716524Y342791D02*
X726524D01*
X721524Y337791D02*
Y347791D01*
X826612Y299881D02*
X836612D01*
X831612Y294881D02*
Y304881D01*
X826612Y342791D02*
X836612D01*
X831612Y337791D02*
Y347791D01*
X1104848Y299881D02*
X1114848D01*
X1109848Y294881D02*
Y304881D01*
X1104848Y342791D02*
X1114848D01*
X1109848Y337791D02*
Y347791D01*
X1213852Y299881D02*
X1223852D01*
X1218852Y294881D02*
Y304881D01*
X1213852Y342791D02*
X1223852D01*
X1218852Y337791D02*
Y347791D01*
X1619251Y287904D02*
Y297904D01*
X1614251Y292904D02*
X1624251D01*
X1619251Y339782D02*
Y349782D01*
X1614251Y344782D02*
X1624251D01*
X1976129Y287904D02*
Y297904D01*
X1971129Y292904D02*
X1981129D01*
X1976129Y339782D02*
Y349782D01*
X1971129Y344782D02*
X1981129D01*
X2369905Y287904D02*
Y297904D01*
X2364905Y292904D02*
X2374905D01*
X2369905Y339782D02*
Y349782D01*
X2364905Y344782D02*
X2374905D01*
X2553465Y2068490D02*
X2563465D01*
X2558465Y2063490D02*
Y2073490D01*
X2551861Y1916150D02*
X2561860D01*
X2556860Y1911150D02*
Y1921150D01*
X494382Y1917060D02*
Y1927060D01*
X489382Y1922060D02*
X499382D01*
X494382Y1967840D02*
Y1977840D01*
X489382Y1972840D02*
X499382D01*
X494382Y2069400D02*
Y2079400D01*
X489382Y2074400D02*
X499382D01*
X2715953Y145178D02*
X2725953D01*
X2720953Y140178D02*
Y150178D01*
X2764237Y241000D02*
X2774237D01*
X2769237Y236000D02*
Y246000D01*
X2816042Y145178D02*
X2826042D01*
X2821042Y140178D02*
Y150178D01*
X2558465Y1961930D02*
Y1971930D01*
X2553465Y1966930D02*
X2563465D01*
X2558465Y2012712D02*
Y2022712D01*
X2553465Y2017712D02*
X2563465D01*
X2558465Y2114270D02*
Y2124270D01*
X2553465Y2119270D02*
X2563465D01*
X489382Y2023621D02*
X499382D01*
X494382Y2018621D02*
Y2028621D01*
X489382Y2125180D02*
X499382D01*
X494382Y2120180D02*
Y2130180D01*
M02*
