G04*
G04 #@! TF.GenerationSoftware,Altium Limited,Altium Designer,26.8.1 (31)*
G04*
G04 Layer_Color=16711935*
G04 Board_Origin=10000000|10000000*
%FSLAX44Y44*%
%MOMM*%
G71*
G04*
G04 #@! TF.SameCoordinates,DA11699C-CE95-47DB-B12C-EE45FBE0FC68*
G04*
G04*
G04 #@! TF.FilePolarity,Positive*
G04*
G01*
G75*
%ADD14C,0.1500*%
%ADD15C,0.5000*%
D14*
X537940Y941814D02*
Y953810D01*
X531942D01*
X529943Y951811D01*
Y949811D01*
Y947812D01*
X531942Y945813D01*
X537940D01*
X525944D02*
Y951811D01*
X523945Y953810D01*
X517947D01*
Y945813D01*
X511948Y953810D02*
Y943813D01*
Y947812D01*
X513948D01*
X509949D01*
X511948D01*
Y943813D01*
X509949Y941814D01*
X501952Y953810D02*
Y943813D01*
Y947812D01*
X503951D01*
X499952D01*
X501952D01*
Y943813D01*
X499952Y941814D01*
X487956Y953810D02*
X491955D01*
X493954Y951811D01*
Y947812D01*
X491955Y945813D01*
X487956D01*
X485957Y947812D01*
Y949811D01*
X493954D01*
X481958Y945813D02*
Y953810D01*
Y949811D01*
X479959Y947812D01*
X477959Y945813D01*
X475960D01*
X469962Y953810D02*
X465963D01*
X467963D01*
Y941814D01*
X469962Y943813D01*
X452336Y512631D02*
Y516629D01*
Y514630D01*
X444338D01*
Y512631D01*
X452336Y522627D02*
X444338D01*
Y528625D01*
X446338Y530625D01*
X452336D01*
X444338Y534623D02*
X452336Y538622D01*
X444338Y542621D01*
X452336Y554617D02*
Y546619D01*
X444338Y554617D01*
X442339D01*
X440340Y552617D01*
Y548619D01*
X442339Y546619D01*
X1655710Y1827620D02*
Y1831619D01*
Y1829619D01*
X1643714D01*
Y1827620D01*
X1655710Y1837617D02*
X1647713D01*
Y1839616D01*
X1649712Y1841615D01*
X1655710D01*
X1649712D01*
X1647713Y1843615D01*
X1649712Y1845614D01*
X1655710D01*
X1645713Y1849613D02*
X1643714Y1851612D01*
Y1855611D01*
X1645713Y1857610D01*
X1647713D01*
X1649712Y1855611D01*
Y1853612D01*
Y1855611D01*
X1651711Y1857610D01*
X1653711D01*
X1655710Y1855611D01*
Y1851612D01*
X1653711Y1849613D01*
X2298410Y1827620D02*
Y1831619D01*
Y1829619D01*
X2286414D01*
Y1827620D01*
X2298410Y1837617D02*
X2290413D01*
Y1839616D01*
X2292412Y1841615D01*
X2298410D01*
X2292412D01*
X2290413Y1843615D01*
X2292412Y1845614D01*
X2298410D01*
Y1855611D02*
X2286414D01*
X2292412Y1849613D01*
Y1857610D01*
X2554362Y424778D02*
Y420780D01*
Y422779D01*
X2562359D01*
Y424778D01*
X2554362Y414781D02*
X2562359D01*
Y408783D01*
X2560360Y406784D01*
X2554362D01*
X2562359Y402785D02*
X2554362Y398787D01*
X2562359Y394788D01*
X2564359Y390789D02*
X2566358Y388790D01*
Y384791D01*
X2564359Y382792D01*
X2562359D01*
X2560360Y384791D01*
Y386791D01*
Y384791D01*
X2558361Y382792D01*
X2556361D01*
X2554362Y384791D01*
Y388790D01*
X2556361Y390789D01*
X281320Y1470171D02*
Y1458175D01*
X275322D01*
X273322Y1460174D01*
Y1464173D01*
X275322Y1466172D01*
X281320D01*
X285318Y1458175D02*
X289317D01*
X287318D01*
Y1466172D01*
X285318D01*
X295315D02*
X299314Y1458175D01*
X303313Y1466172D01*
X307311Y1458175D02*
X311310D01*
X309311D01*
Y1466172D01*
X307311D01*
X317308Y1458175D02*
X321307D01*
X319307D01*
Y1470171D01*
X317308Y1468172D01*
X2556923Y585121D02*
Y581123D01*
Y583122D01*
X2564920D01*
Y585121D01*
X2556923Y575125D02*
X2564920D01*
Y569127D01*
X2562921Y567127D01*
X2556923D01*
X2564920Y563129D02*
X2556923Y559130D01*
X2564920Y555131D01*
X2556923Y545134D02*
X2568919D01*
X2562921Y551133D01*
Y543135D01*
X452604Y363820D02*
Y367819D01*
Y365819D01*
X444606D01*
Y363820D01*
X452604Y373817D02*
X444606D01*
Y379815D01*
X446606Y381814D01*
X452604D01*
X444606Y385813D02*
X452604Y389812D01*
X444606Y393810D01*
X452604Y397809D02*
Y401808D01*
Y399808D01*
X440608D01*
X442607Y397809D01*
X1013010Y1827620D02*
Y1831619D01*
Y1829619D01*
X1001014D01*
Y1827620D01*
X1013010Y1837617D02*
X1005013D01*
Y1839616D01*
X1007012Y1841615D01*
X1013010D01*
X1007012D01*
X1005013Y1843615D01*
X1007012Y1845614D01*
X1013010D01*
Y1857610D02*
Y1849613D01*
X1005013Y1857610D01*
X1003013D01*
X1001014Y1855611D01*
Y1851612D01*
X1003013Y1849613D01*
X150480Y1463810D02*
X146481D01*
X148481D01*
Y1451814D01*
X150480D01*
X140483Y1463810D02*
Y1455813D01*
X138484D01*
X136484Y1457812D01*
Y1463810D01*
Y1457812D01*
X134485Y1455813D01*
X132486Y1457812D01*
Y1463810D01*
X128487D02*
X124488D01*
X126488D01*
Y1451814D01*
X128487Y1453813D01*
D15*
X0Y0D02*
Y2200000D01*
X2950000D01*
X2950000Y0D02*
X2950000Y2200000D01*
X0Y0D02*
X2950000D01*
M02*
