G04*
G04 #@! TF.GenerationSoftware,Altium Limited,Altium Designer,26.8.1 (31)*
G04*
G04 Layer_Color=16711935*
G04 Board_Origin=10000000|10000000*
%FSLAX44Y44*%
%MOMM*%
G71*
G04*
G04 #@! TF.SameCoordinates,386DA3DA-DCAF-4790-80FA-1E2CBEDCECB1*
G04*
G04*
G04 #@! TF.FilePolarity,Positive*
G04*
G01*
G75*
%ADD12C,0.2000*%
%ADD13C,0.1500*%
%ADD16C,0.1270*%
%ADD65C,0.1000*%
D12*
X2680200Y1917500D02*
G03*
X2680200Y1917500I-1000J0D01*
G01*
X40000Y812500D02*
Y867500D01*
X80000D01*
Y812500D02*
Y867500D01*
X40000Y812500D02*
X80000D01*
X222000Y172000D02*
Y208000D01*
X238000D01*
Y172000D02*
Y208000D01*
X222000Y172000D02*
X238000D01*
X142000D02*
Y208000D01*
X158000D01*
Y172000D02*
Y208000D01*
X142000Y172000D02*
X158000D01*
X2711408Y1692385D02*
X2727408D01*
Y1728385D01*
X2711408D02*
X2727408D01*
X2711408Y1692385D02*
Y1728385D01*
X2690000Y1217500D02*
X2730000D01*
X2690000Y1162500D02*
X2730000D01*
Y1217500D01*
X2690000Y1162500D02*
Y1217500D01*
X2594742Y1692385D02*
X2610742D01*
Y1728385D01*
X2594742D02*
X2610742D01*
X2594742Y1692385D02*
Y1728385D01*
X2811281Y223000D02*
Y259000D01*
X2827281D01*
X2811281Y223000D02*
X2827281D01*
Y259000D01*
X2711193Y223000D02*
Y259000D01*
X2727193D01*
X2711193Y223000D02*
X2727193D01*
Y259000D01*
X2762997Y127178D02*
Y163178D01*
X2778997D01*
X2762997Y127178D02*
X2778997D01*
Y163178D01*
X2478075Y1692385D02*
X2494075D01*
Y1728385D01*
X2478075D02*
X2494075D01*
X2478075Y1692385D02*
Y1728385D01*
X1277589Y1866574D02*
X1293589D01*
X1277589Y1830574D02*
Y1866574D01*
Y1830574D02*
X1293589D01*
Y1866574D01*
X1377589D02*
X1393589D01*
X1377589Y1830574D02*
Y1866574D01*
Y1830574D02*
X1393589D01*
Y1866574D01*
X1427589D02*
X1443589D01*
X1427589Y1830574D02*
Y1866574D01*
Y1830574D02*
X1443589D01*
Y1866574D01*
X1327589D02*
X1343589D01*
X1327589Y1830574D02*
Y1866574D01*
Y1830574D02*
X1343589D01*
Y1866574D01*
X851391Y1868091D02*
X867391D01*
X851391Y1832091D02*
Y1868091D01*
Y1832091D02*
X867391D01*
Y1868091D01*
X801391D02*
X817391D01*
X801391Y1832091D02*
Y1868091D01*
Y1832091D02*
X817391D01*
Y1868091D01*
X211950Y1843590D02*
X309750D01*
Y1893190D01*
X211950D02*
X309750D01*
X211950Y1843590D02*
Y1893190D01*
X62900Y1843794D02*
Y1893394D01*
X160700D01*
Y1843794D02*
Y1893394D01*
X62900Y1843794D02*
X160700D01*
X62900Y1966230D02*
X160700D01*
X62900Y1916630D02*
Y1966230D01*
Y1916630D02*
X160700D01*
Y1966230D01*
X62900Y2039178D02*
X160700D01*
X62900Y1989579D02*
Y2039178D01*
Y1989579D02*
X160700D01*
Y2039178D01*
X182000Y172000D02*
Y208000D01*
X198000D01*
Y172000D02*
Y208000D01*
X182000Y172000D02*
X198000D01*
X102000D02*
X118000D01*
Y208000D01*
X102000D02*
X118000D01*
X102000Y172000D02*
Y208000D01*
X80000Y162500D02*
Y217500D01*
X40000Y162500D02*
X80000D01*
X40000D02*
Y217500D01*
X80000D01*
X2021487Y1866570D02*
X2037487D01*
X2021487Y1830570D02*
Y1866570D01*
Y1830570D02*
X2037487D01*
Y1866570D01*
X1940000Y1821070D02*
Y1876070D01*
X1980000D01*
Y1821070D02*
Y1876070D01*
X1940000Y1821070D02*
X1980000D01*
X267432Y1680964D02*
X322432D01*
X267432D02*
Y1720965D01*
X322432D01*
Y1680964D02*
Y1720965D01*
X66650Y1765400D02*
Y1794600D01*
X93350D01*
Y1765400D02*
Y1794600D01*
X66650Y1765400D02*
X93350D01*
X2240716Y284904D02*
Y300904D01*
Y284904D02*
X2276716D01*
Y300904D01*
X2240716D02*
X2276716D01*
X2240716Y336782D02*
Y352782D01*
Y336782D02*
X2276716D01*
Y352782D01*
X2240716D02*
X2276716D01*
X1846939Y284904D02*
Y300904D01*
Y284904D02*
X1882939D01*
Y300904D01*
X1846939D02*
X1882939D01*
X1846939Y336782D02*
Y352782D01*
Y336782D02*
X1882939D01*
Y352782D01*
X1846939D02*
X1882939D01*
X1490062Y284904D02*
Y300904D01*
Y284904D02*
X1526062D01*
Y300904D01*
X1490062D02*
X1526062D01*
X1490062Y336782D02*
Y352782D01*
Y336782D02*
X1526062D01*
Y352782D01*
X1490062D02*
X1526062D01*
X108925Y1764662D02*
X135625D01*
Y1793862D01*
X108925D02*
X135625D01*
X108925Y1764662D02*
Y1793862D01*
X2771268Y1290326D02*
Y1317026D01*
X2742068D02*
X2771268D01*
X2742068Y1290326D02*
Y1317026D01*
Y1290326D02*
X2771268D01*
X2720468D02*
Y1317026D01*
X2691268D02*
X2720468D01*
X2691268Y1290326D02*
Y1317026D01*
Y1290326D02*
X2720468D01*
X2723412Y833962D02*
Y860662D01*
X2694212D02*
X2723412D01*
X2694212Y833962D02*
Y860662D01*
Y833962D02*
X2723412D01*
X2718253Y1058785D02*
Y1085485D01*
X2689053D02*
X2718253D01*
X2689053Y1058785D02*
Y1085485D01*
Y1058785D02*
X2718253D01*
X2774600Y1486650D02*
Y1513350D01*
X2745400D02*
X2774600D01*
X2745400Y1486650D02*
Y1513350D01*
Y1486650D02*
X2774600D01*
X2714600D02*
Y1513350D01*
X2685400D02*
X2714600D01*
X2685400Y1486650D02*
Y1513350D01*
Y1486650D02*
X2714600D01*
X410068Y1772120D02*
Y1869920D01*
X360468D02*
X410068D01*
X360468Y1772120D02*
Y1869920D01*
Y1772120D02*
X410068D01*
X2791038Y650000D02*
X2846038D01*
X2791038D02*
Y690000D01*
X2846038Y650000D02*
Y690000D01*
X2791038D02*
X2846038D01*
X179798Y1759800D02*
X234798D01*
X179798D02*
Y1799800D01*
X234798D01*
Y1759800D02*
Y1799800D01*
X2791116Y406031D02*
Y446031D01*
Y406031D02*
X2846116D01*
Y446031D01*
X2791116D02*
X2846116D01*
X250127Y504004D02*
Y544004D01*
X195127D02*
X250127D01*
X195127Y504004D02*
Y544004D01*
Y504004D02*
X250127D01*
X139353Y384095D02*
Y424095D01*
X84353D02*
X139353D01*
X84353Y384095D02*
Y424095D01*
Y384095D02*
X139353D01*
X717391Y1832091D02*
Y1868091D01*
X701391Y1832091D02*
X717391D01*
X701391D02*
Y1868091D01*
X717391D01*
X2701835Y533065D02*
X2756835D01*
X2701835D02*
Y573065D01*
X2756835Y533065D02*
Y573065D01*
X2701835D02*
X2756835D01*
X131884Y335619D02*
Y351619D01*
X95884D02*
X131884D01*
X95884Y335619D02*
Y351619D01*
Y335619D02*
X131884D01*
X240342D02*
Y351619D01*
X204342D02*
X240342D01*
X204342Y335619D02*
Y351619D01*
Y335619D02*
X240342D01*
X86670Y504004D02*
X141670D01*
X86670D02*
Y544004D01*
X141670D01*
Y504004D02*
Y544004D01*
X2701835Y406031D02*
X2756835D01*
X2701835D02*
Y446031D01*
X2756835Y406031D02*
Y446031D01*
X2701835D02*
X2756835D01*
X97855Y456138D02*
X133855D01*
X97855D02*
Y472138D01*
X133855D01*
Y456138D02*
Y472138D01*
X2087487Y1830570D02*
Y1866570D01*
X2071487Y1830570D02*
X2087487D01*
X2071487D02*
Y1866570D01*
X2087487D01*
X2701835Y650000D02*
X2756835D01*
X2701835D02*
Y690000D01*
X2756835Y650000D02*
Y690000D01*
X2701835D02*
X2756835D01*
X2711085Y480414D02*
Y496414D01*
X2747085D01*
X2711085Y480414D02*
X2747085D01*
Y496414D01*
X2800288Y602000D02*
Y618000D01*
X2836288D01*
X2800288Y602000D02*
X2836288D01*
Y618000D01*
X211945Y1916536D02*
Y1966136D01*
X309745D01*
Y1916536D02*
Y1966136D01*
X211945Y1916536D02*
X309745D01*
X2711085Y602000D02*
Y618000D01*
X2747085D01*
X2711085Y602000D02*
X2747085D01*
Y618000D01*
X2791038Y533065D02*
X2846038D01*
X2791038D02*
Y573065D01*
X2846038Y533065D02*
Y573065D01*
X2791038D02*
X2846038D01*
X2800367Y496414D02*
X2836366D01*
Y480414D02*
Y496414D01*
X2800367Y480414D02*
X2836366D01*
X2800367D02*
Y496414D01*
Y369380D02*
X2836366D01*
Y353380D02*
Y369380D01*
X2800367Y353380D02*
X2836366D01*
X2800367D02*
Y369380D01*
X767391Y1832091D02*
Y1868091D01*
X751391Y1832091D02*
X767391D01*
X751391D02*
Y1868091D01*
X767391D01*
X282752Y746803D02*
Y1197653D01*
X104952D02*
X282752D01*
X104952Y746803D02*
Y1197653D01*
Y746803D02*
X282752D01*
X2711085Y369380D02*
X2747085D01*
Y353380D02*
Y369380D01*
X2711085Y353380D02*
X2747085D01*
X2711085D02*
Y369380D01*
X2730000Y1377500D02*
Y1432500D01*
X2690000Y1377500D02*
X2730000D01*
X2690000Y1432500D02*
X2730000D01*
X2690000Y1377500D02*
Y1432500D01*
X247810Y384095D02*
Y424095D01*
X192810D02*
X247810D01*
X192810Y384095D02*
Y424095D01*
Y384095D02*
X247810D01*
X242313Y456138D02*
Y472138D01*
X206313D02*
X242313D01*
X206313Y456138D02*
Y472138D01*
Y456138D02*
X242313D01*
X2690000Y922500D02*
Y977500D01*
X2730000Y922500D02*
Y977500D01*
X2690000Y922500D02*
X2730000D01*
X2690000Y977500D02*
X2730000D01*
X2536408Y1692385D02*
Y1728385D01*
X2552408D01*
Y1692385D02*
Y1728385D01*
X2536408Y1692385D02*
X2552408D01*
X2769740D02*
X2785740D01*
Y1728385D01*
X2769740D02*
X2785740D01*
X2769740Y1692385D02*
Y1728385D01*
X2653075Y1692385D02*
Y1728385D01*
X2669075D01*
Y1692385D02*
Y1728385D01*
X2653075Y1692385D02*
X2669075D01*
X2828080D02*
Y1728385D01*
X2844080D01*
Y1692385D02*
Y1728385D01*
X2828080Y1692385D02*
X2844080D01*
X703524Y307881D02*
X739524D01*
Y291881D02*
Y307881D01*
X703524Y291881D02*
X739524D01*
X703524D02*
Y307881D01*
Y350791D02*
X739524D01*
Y334791D02*
Y350791D01*
X703524Y334791D02*
X739524D01*
X703524D02*
Y350791D01*
X813612Y291881D02*
X849612D01*
X813612D02*
Y307881D01*
X849612D01*
Y291881D02*
Y307881D01*
X813612Y334791D02*
X849612D01*
X813612D02*
Y350791D01*
X849612D01*
Y334791D02*
Y350791D01*
X1091848Y307881D02*
X1127848D01*
Y291881D02*
Y307881D01*
X1091848Y291881D02*
X1127848D01*
X1091848D02*
Y307881D01*
Y350791D02*
X1127848D01*
Y334791D02*
Y350791D01*
X1091848Y334791D02*
X1127848D01*
X1091848D02*
Y350791D01*
X1200853Y291881D02*
X1236852D01*
X1200853D02*
Y307881D01*
X1236852D01*
Y291881D02*
Y307881D01*
Y334791D02*
Y350791D01*
X1200853Y334791D02*
X1236852D01*
X1200853Y350791D02*
X1236852D01*
X1200853Y334791D02*
Y350791D01*
X1637251Y284904D02*
Y300904D01*
X1601251D02*
X1637251D01*
X1601251Y284904D02*
Y300904D01*
Y284904D02*
X1637251D01*
Y336782D02*
Y352782D01*
X1601251D02*
X1637251D01*
X1601251Y336782D02*
Y352782D01*
Y336782D02*
X1637251D01*
X1994129Y284904D02*
Y300904D01*
X1958129D02*
X1994129D01*
X1958129Y284904D02*
Y300904D01*
Y284904D02*
X1994129D01*
Y336782D02*
Y352782D01*
X1958129D02*
X1994129D01*
X1958129Y336782D02*
Y352782D01*
Y336782D02*
X1994129D01*
X2387905Y284904D02*
Y300904D01*
X2351905D02*
X2387905D01*
X2351905Y284904D02*
Y300904D01*
Y284904D02*
X2387905D01*
Y336782D02*
Y352782D01*
X2351905D02*
X2387905D01*
X2351905Y336782D02*
Y352782D01*
Y336782D02*
X2387905D01*
X2540465Y2076490D02*
X2576465D01*
Y2060490D02*
Y2076490D01*
X2540465Y2060490D02*
X2576465D01*
X2540465D02*
Y2076490D01*
X2538860Y1924150D02*
X2574861D01*
Y1908150D02*
Y1924150D01*
X2538860Y1908150D02*
X2574861D01*
X2538860D02*
Y1924150D01*
X512382Y1914060D02*
Y1930060D01*
X476382D02*
X512382D01*
X476382Y1914060D02*
Y1930060D01*
Y1914060D02*
X512382D01*
Y1964840D02*
Y1980840D01*
X476382D02*
X512382D01*
X476382Y1964840D02*
Y1980840D01*
Y1964840D02*
X512382D01*
Y2066400D02*
Y2082400D01*
X476382D02*
X512382D01*
X476382Y2066400D02*
Y2082400D01*
Y2066400D02*
X512382D01*
X2728953Y127178D02*
Y163178D01*
X2712953Y127178D02*
X2728953D01*
X2712953Y163178D02*
X2728953D01*
X2712953Y127178D02*
Y163178D01*
X2777237Y223000D02*
Y259000D01*
X2761237Y223000D02*
X2777237D01*
X2761237Y259000D02*
X2777237D01*
X2761237Y223000D02*
Y259000D01*
X2829042Y127178D02*
Y163178D01*
X2813041Y127178D02*
X2829042D01*
X2813041Y163178D02*
X2829042D01*
X2813041Y127178D02*
Y163178D01*
X2540465Y1958930D02*
Y1974930D01*
Y1958930D02*
X2576465D01*
Y1974930D01*
X2540465D02*
X2576465D01*
X2540465Y2009712D02*
Y2025712D01*
Y2009712D02*
X2576465D01*
Y2025712D01*
X2540465D02*
X2576465D01*
X2540465Y2111270D02*
Y2127270D01*
Y2111270D02*
X2576465D01*
Y2127270D01*
X2540465D02*
X2576465D01*
X476382Y2015621D02*
X512382D01*
X476382D02*
Y2031621D01*
X512382D01*
Y2015621D02*
Y2031621D01*
X476382Y2117180D02*
X512382D01*
X476382D02*
Y2133180D01*
X512382D01*
Y2117180D02*
Y2133180D01*
D13*
X2832500Y1410000D02*
G03*
X2832500Y1410000I-42500J0D01*
G01*
Y1192500D02*
G03*
X2832500Y1192500I-42500J0D01*
G01*
X2840300Y956316D02*
G03*
X2840300Y956316I-42500J0D01*
G01*
D16*
X2793000Y1925000D02*
Y2115000D01*
X2667000D02*
X2793000D01*
X2667000Y1925000D02*
X2793000D01*
X2667000D02*
Y2115000D01*
D65*
X363024Y370300D02*
G03*
X363024Y370300I-5000J0D01*
G01*
X362756Y519110D02*
G03*
X362756Y519110I-5000J0D01*
G01*
X2653942Y418298D02*
G03*
X2653942Y418298I-5000J0D01*
G01*
X2656503Y578642D02*
G03*
X2656503Y578642I-5000J0D01*
G01*
X2208850Y1831100D02*
G03*
X2208850Y1831100I-5000J0D01*
G01*
X1566150D02*
G03*
X1566150Y1831100I-5000J0D01*
G01*
X923450D02*
G03*
X923450Y1831100I-5000J0D01*
G01*
X152000Y1369250D02*
G03*
X152000Y1369250I-5000J0D01*
G01*
X283532Y1552755D02*
G03*
X283532Y1552755I-5000J0D01*
G01*
X539000Y824500D02*
G03*
X539000Y824500I-5000J0D01*
G01*
X672200Y2090000D02*
G03*
X672200Y2090000I-29500J0D01*
G01*
X1062200D02*
G03*
X1062200Y2090000I-29500J0D01*
G01*
X1452200D02*
G03*
X1452200Y2090000I-29500J0D01*
G01*
X1842200D02*
G03*
X1842200Y2090000I-29500J0D01*
G01*
X2232200D02*
G03*
X2232200Y2090000I-29500J0D01*
G01*
X867200D02*
G03*
X867200Y2090000I-29500J0D01*
G01*
X1257200D02*
G03*
X1257200Y2090000I-29500J0D01*
G01*
X1647200D02*
G03*
X1647200Y2090000I-29500J0D01*
G01*
X2037200D02*
G03*
X2037200Y2090000I-29500J0D01*
G01*
X2427200D02*
G03*
X2427200Y2090000I-29500J0D01*
G01*
X546024Y361300D02*
Y427300D01*
X349024Y361300D02*
Y427300D01*
X546024D01*
X349024Y361300D02*
X546024D01*
X348756Y510111D02*
Y576110D01*
Y510111D02*
X545756D01*
X348756Y576110D02*
X545756D01*
Y510111D02*
Y576110D01*
X2657942Y361298D02*
Y427298D01*
X2460942D02*
X2657942D01*
X2460942Y361298D02*
X2657942D01*
X2460942D02*
Y427298D01*
X2660503Y521642D02*
Y587641D01*
X2463503D02*
X2660503D01*
X2463503Y521642D02*
X2660503D01*
X2463503D02*
Y587641D01*
X2394350Y1822100D02*
Y1894100D01*
X2194850D02*
X2394350D01*
X2194850Y1822100D02*
X2394350D01*
X2194850D02*
Y1894100D01*
X1751650Y1822100D02*
Y1894100D01*
X1552150D02*
X1751650D01*
X1552150Y1822100D02*
X1751650D01*
X1552150D02*
Y1894100D01*
X1108950Y1822100D02*
Y1894100D01*
X909450D02*
X1108950D01*
X909450Y1822100D02*
X1108950D01*
X909450D02*
Y1894100D01*
X84000Y1559750D02*
X156000D01*
X84000Y1360250D02*
X156000D01*
X84000D02*
Y1559750D01*
X156000Y1360250D02*
Y1559750D01*
X335532Y1364755D02*
Y1561755D01*
X269532D02*
X335532D01*
X269532Y1364755D02*
Y1561755D01*
Y1364755D02*
X335532D01*
X477000Y1084500D02*
X543000D01*
Y815500D02*
Y1084500D01*
X477000Y815500D02*
X543000D01*
X477000D02*
Y1084500D01*
M02*
