G04*
G04 #@! TF.GenerationSoftware,Altium Limited,Altium Designer,26.8.1 (31)*
G04*
G04 Layer_Color=65535*
G04 Board_Origin=10000000|10000000*
%FSLAX44Y44*%
%MOMM*%
G71*
G04*
G04 #@! TF.SameCoordinates,386DA3DA-DCAF-4790-80FA-1E2CBEDCECB1*
G04*
G04*
G04 #@! TF.FilePolarity,Positive*
G04*
G01*
G75*
G36*
X243543Y2151745D02*
X243187D01*
Y2152102D01*
X243543D01*
Y2151745D01*
D02*
G37*
G36*
X1529683Y906413D02*
X1528885D01*
Y907212D01*
X1529683D01*
Y906413D01*
D02*
G37*
G36*
X1802826Y893635D02*
X1806021D01*
Y892836D01*
X1808416D01*
Y892037D01*
X1810812D01*
Y891239D01*
X1812410D01*
Y890440D01*
X1814007D01*
Y889641D01*
X1814806D01*
Y888843D01*
X1816403D01*
Y888044D01*
X1817202D01*
Y887245D01*
X1818000D01*
Y886447D01*
X1819598D01*
Y885648D01*
X1820396D01*
Y884051D01*
X1821195D01*
Y883252D01*
X1821994D01*
Y882454D01*
X1822792D01*
Y881655D01*
X1823591D01*
Y880856D01*
X1824390D01*
Y880058D01*
X1825188D01*
Y879259D01*
X1825987D01*
Y877662D01*
X1826786D01*
Y875266D01*
X1825188D01*
Y874467D01*
X1824390D01*
Y873668D01*
X1822792D01*
Y872869D01*
X1820396D01*
Y872071D01*
X1819598D01*
Y871272D01*
X1818000D01*
Y870473D01*
X1816403D01*
Y869675D01*
X1814806D01*
Y868876D01*
X1812410D01*
Y868077D01*
X1811611D01*
Y867279D01*
X1810014D01*
Y866480D01*
X1808416D01*
Y865682D01*
X1805222D01*
Y866480D01*
X1804423D01*
Y867279D01*
X1803625D01*
Y868077D01*
X1802826D01*
Y868876D01*
X1802027D01*
Y869675D01*
X1801228D01*
Y870473D01*
X1800430D01*
Y871272D01*
X1798833D01*
Y872071D01*
X1798034D01*
Y872869D01*
X1793242D01*
Y873668D01*
X1790047D01*
Y872869D01*
X1785255D01*
Y872071D01*
X1783658D01*
Y871272D01*
X1782061D01*
Y870473D01*
X1780463D01*
Y869675D01*
X1779665D01*
Y868876D01*
X1778866D01*
Y868077D01*
X1778067D01*
Y867279D01*
X1777269D01*
Y865682D01*
X1776470D01*
Y864883D01*
X1775671D01*
Y862487D01*
X1774873D01*
Y860890D01*
X1774074D01*
Y848910D01*
X1774873D01*
Y845715D01*
X1775671D01*
Y840923D01*
X1776470D01*
Y839326D01*
X1777269D01*
Y836930D01*
X1778067D01*
Y834534D01*
X1778866D01*
Y832936D01*
X1779665D01*
Y831339D01*
X1780463D01*
Y829742D01*
X1781262D01*
Y828144D01*
X1782061D01*
Y827346D01*
X1782859D01*
Y826547D01*
X1783658D01*
Y825748D01*
X1784457D01*
Y824950D01*
X1785255D01*
Y824151D01*
X1786853D01*
Y823353D01*
X1788450D01*
Y822554D01*
X1790846D01*
Y821755D01*
X1797235D01*
Y822554D01*
X1800430D01*
Y823353D01*
X1802027D01*
Y824151D01*
X1804423D01*
Y824950D01*
X1805222D01*
Y825748D01*
X1806819D01*
Y826547D01*
X1807618D01*
Y827346D01*
X1808416D01*
Y828144D01*
X1809215D01*
Y829742D01*
X1810014D01*
Y831339D01*
X1810812D01*
Y833735D01*
X1811611D01*
Y836930D01*
X1812410D01*
Y843319D01*
X1835571D01*
Y842520D01*
X1836370D01*
Y841722D01*
X1837168D01*
Y837728D01*
X1836370D01*
Y831339D01*
X1835571D01*
Y828144D01*
X1834772D01*
Y826547D01*
X1833974D01*
Y824151D01*
X1833175D01*
Y822554D01*
X1832376D01*
Y820956D01*
X1831578D01*
Y820158D01*
X1830779D01*
Y818560D01*
X1829980D01*
Y816963D01*
X1829182D01*
Y816164D01*
X1828383D01*
Y815366D01*
X1827584D01*
Y814567D01*
X1826786D01*
Y813768D01*
X1825987D01*
Y812970D01*
X1825188D01*
Y812171D01*
X1824390D01*
Y811373D01*
X1823591D01*
Y810574D01*
X1821994D01*
Y809775D01*
X1820396D01*
Y808977D01*
X1819598D01*
Y808178D01*
X1817202D01*
Y807379D01*
X1816403D01*
Y806581D01*
X1814007D01*
Y805782D01*
X1812410D01*
Y804983D01*
X1810014D01*
Y804184D01*
X1806819D01*
Y803386D01*
X1804423D01*
Y802587D01*
X1799631D01*
Y801789D01*
X1796436D01*
Y800990D01*
X1782061D01*
Y801789D01*
X1779665D01*
Y802587D01*
X1775671D01*
Y803386D01*
X1774873D01*
Y804184D01*
X1772477D01*
Y804983D01*
X1771678D01*
Y805782D01*
X1770081D01*
Y806581D01*
X1768483D01*
Y807379D01*
X1767685D01*
Y808178D01*
X1766886D01*
Y808977D01*
X1765289D01*
Y809775D01*
X1764490D01*
Y810574D01*
X1763691D01*
Y811373D01*
X1762893D01*
Y812171D01*
X1762094D01*
Y812970D01*
X1761295D01*
Y813768D01*
X1760497D01*
Y814567D01*
X1759698D01*
Y815366D01*
X1758899D01*
Y816164D01*
X1758101D01*
Y817762D01*
X1757302D01*
Y818560D01*
X1756503D01*
Y820158D01*
X1755705D01*
Y821755D01*
X1754906D01*
Y822554D01*
X1754107D01*
Y824950D01*
X1753309D01*
Y825748D01*
X1752510D01*
Y828144D01*
X1751711D01*
Y829742D01*
X1750913D01*
Y832138D01*
X1750114D01*
Y835332D01*
X1749315D01*
Y837728D01*
X1748517D01*
Y842520D01*
X1747718D01*
Y846514D01*
X1746920D01*
Y857695D01*
X1747718D01*
Y860890D01*
X1748517D01*
Y865682D01*
X1749315D01*
Y867279D01*
X1750114D01*
Y869675D01*
X1750913D01*
Y871272D01*
X1751711D01*
Y872071D01*
X1752510D01*
Y873668D01*
X1753309D01*
Y874467D01*
X1754107D01*
Y876064D01*
X1754906D01*
Y876863D01*
X1755705D01*
Y877662D01*
X1756503D01*
Y879259D01*
X1757302D01*
Y880058D01*
X1758101D01*
Y880856D01*
X1759698D01*
Y881655D01*
X1760497D01*
Y882454D01*
X1761295D01*
Y883252D01*
X1762094D01*
Y884051D01*
X1763691D01*
Y884849D01*
X1764490D01*
Y885648D01*
X1766087D01*
Y886447D01*
X1767685D01*
Y887245D01*
X1768483D01*
Y888044D01*
X1770879D01*
Y888843D01*
X1771678D01*
Y889641D01*
X1774074D01*
Y890440D01*
X1776470D01*
Y891239D01*
X1778866D01*
Y892037D01*
X1782061D01*
Y892836D01*
X1785255D01*
Y893635D01*
X1789249D01*
Y894433D01*
X1802826D01*
Y893635D01*
D02*
G37*
G36*
X1712577Y869675D02*
X1714174D01*
Y868876D01*
X1716570D01*
Y868077D01*
X1718168D01*
Y867279D01*
X1719765D01*
Y866480D01*
X1720564D01*
Y865682D01*
X1721362D01*
Y864883D01*
X1722960D01*
Y863286D01*
X1724557D01*
Y861688D01*
X1725356D01*
Y860890D01*
X1726154D01*
Y860091D01*
X1726953D01*
Y858494D01*
X1727752D01*
Y857695D01*
X1728550D01*
Y855299D01*
X1729349D01*
Y854500D01*
X1730148D01*
Y852104D01*
X1728550D01*
Y851306D01*
X1725356D01*
Y850507D01*
X1723758D01*
Y849708D01*
X1720564D01*
Y848910D01*
X1718168D01*
Y848111D01*
X1716570D01*
Y847312D01*
X1712577D01*
Y846514D01*
X1710980D01*
Y845715D01*
X1706986D01*
Y844916D01*
X1706188D01*
Y845715D01*
X1705389D01*
Y847312D01*
X1704590D01*
Y848111D01*
X1703792D01*
Y848910D01*
X1702993D01*
Y849708D01*
X1702194D01*
Y850507D01*
X1701396D01*
Y851306D01*
X1699798D01*
Y852104D01*
X1698201D01*
Y852903D01*
X1690215D01*
Y852104D01*
X1688617D01*
Y851306D01*
X1686221D01*
Y850507D01*
X1684624D01*
Y849708D01*
X1683825D01*
Y848111D01*
X1683026D01*
Y847312D01*
X1682228D01*
Y841722D01*
X1683026D01*
Y840923D01*
X1683825D01*
Y840124D01*
X1684624D01*
Y839326D01*
X1687020D01*
Y838527D01*
X1714174D01*
Y837728D01*
X1722161D01*
Y836930D01*
X1724557D01*
Y836131D01*
X1726953D01*
Y835332D01*
X1729349D01*
Y834534D01*
X1730148D01*
Y833735D01*
X1731745D01*
Y832936D01*
X1732544D01*
Y832138D01*
X1734141D01*
Y831339D01*
X1734940D01*
Y830540D01*
X1735738D01*
Y829742D01*
X1736537D01*
Y828943D01*
X1737336D01*
Y828144D01*
X1738134D01*
Y826547D01*
X1738933D01*
Y825748D01*
X1739731D01*
Y824151D01*
X1740530D01*
Y821755D01*
X1741329D01*
Y820158D01*
X1742128D01*
Y816164D01*
X1742926D01*
Y806581D01*
X1742128D01*
Y802587D01*
X1741329D01*
Y800990D01*
X1740530D01*
Y798594D01*
X1739731D01*
Y797795D01*
X1738933D01*
Y796198D01*
X1738134D01*
Y794601D01*
X1737336D01*
Y793802D01*
X1736537D01*
Y793003D01*
X1735738D01*
Y792205D01*
X1734940D01*
Y791406D01*
X1734141D01*
Y790607D01*
X1733342D01*
Y789809D01*
X1732544D01*
Y789010D01*
X1731745D01*
Y788211D01*
X1730946D01*
Y787413D01*
X1729349D01*
Y786614D01*
X1728550D01*
Y785815D01*
X1726953D01*
Y785017D01*
X1725356D01*
Y784218D01*
X1724557D01*
Y783419D01*
X1722161D01*
Y782621D01*
X1720564D01*
Y781822D01*
X1718966D01*
Y781023D01*
X1714973D01*
Y780225D01*
X1713376D01*
Y779426D01*
X1709382D01*
Y778627D01*
X1706986D01*
Y777829D01*
X1706188D01*
Y777030D01*
X1703792D01*
Y776231D01*
X1697402D01*
Y775433D01*
X1689416D01*
Y776231D01*
X1684624D01*
Y777030D01*
X1681429D01*
Y777829D01*
X1680630D01*
Y778627D01*
X1678235D01*
Y779426D01*
X1677436D01*
Y780225D01*
X1675838D01*
Y781023D01*
X1675040D01*
Y781822D01*
X1674241D01*
Y782621D01*
X1672644D01*
Y783419D01*
X1671845D01*
Y784218D01*
X1671046D01*
Y785017D01*
X1670248D01*
Y785815D01*
X1669449D01*
Y786614D01*
X1668651D01*
Y788211D01*
X1667852D01*
Y789809D01*
X1667053D01*
Y790607D01*
X1666255D01*
Y791406D01*
X1665456D01*
Y793802D01*
X1664657D01*
Y794601D01*
X1663859D01*
Y800191D01*
X1664657D01*
Y800990D01*
X1668651D01*
Y801789D01*
X1670248D01*
Y802587D01*
X1677436D01*
Y803386D01*
X1678235D01*
Y804184D01*
X1682228D01*
Y804983D01*
X1683825D01*
Y805782D01*
X1686221D01*
Y806581D01*
X1687818D01*
Y805782D01*
X1689416D01*
Y804184D01*
X1690215D01*
Y802587D01*
X1691013D01*
Y801789D01*
X1691812D01*
Y800191D01*
X1692610D01*
Y799393D01*
X1693409D01*
Y798594D01*
X1695006D01*
Y797795D01*
X1695805D01*
Y796997D01*
X1697402D01*
Y796198D01*
X1699798D01*
Y795399D01*
X1706188D01*
Y796198D01*
X1709382D01*
Y796997D01*
X1711778D01*
Y797795D01*
X1712577D01*
Y798594D01*
X1714174D01*
Y799393D01*
X1714973D01*
Y800191D01*
X1715772D01*
Y800990D01*
X1716570D01*
Y802587D01*
X1717369D01*
Y809775D01*
X1716570D01*
Y811373D01*
X1715772D01*
Y812171D01*
X1714973D01*
Y812970D01*
X1714174D01*
Y813768D01*
X1712577D01*
Y814567D01*
X1707785D01*
Y815366D01*
X1687818D01*
Y816164D01*
X1679033D01*
Y816963D01*
X1675838D01*
Y817762D01*
X1673443D01*
Y818560D01*
X1671046D01*
Y819359D01*
X1670248D01*
Y820158D01*
X1668651D01*
Y820956D01*
X1667053D01*
Y821755D01*
X1666255D01*
Y822554D01*
X1664657D01*
Y824151D01*
X1663060D01*
Y825748D01*
X1662261D01*
Y826547D01*
X1661463D01*
Y827346D01*
X1660664D01*
Y828144D01*
Y828943D01*
Y829742D01*
X1659865D01*
Y830540D01*
X1659067D01*
Y832936D01*
X1658268D01*
Y837728D01*
X1657469D01*
Y841722D01*
X1658268D01*
Y846514D01*
X1659067D01*
Y848910D01*
X1659865D01*
Y850507D01*
X1660664D01*
Y852104D01*
X1661463D01*
Y852903D01*
X1662261D01*
Y854500D01*
X1663060D01*
Y855299D01*
X1663859D01*
Y856098D01*
X1664657D01*
Y856896D01*
X1665456D01*
Y857695D01*
X1666255D01*
Y858494D01*
X1667053D01*
Y859292D01*
X1667852D01*
Y860091D01*
X1668651D01*
Y860890D01*
X1670248D01*
Y861688D01*
X1671845D01*
Y862487D01*
X1672644D01*
Y863286D01*
X1675040D01*
Y864084D01*
X1675838D01*
Y864883D01*
X1678235D01*
Y865682D01*
X1679832D01*
Y866480D01*
X1682228D01*
Y867279D01*
X1685423D01*
Y868077D01*
X1687020D01*
Y868876D01*
X1691812D01*
Y869675D01*
X1694208D01*
Y870473D01*
X1712577D01*
Y869675D01*
D02*
G37*
G36*
X1633509Y850507D02*
X1634308D01*
Y849708D01*
X1635107D01*
Y848111D01*
X1635905D01*
Y846514D01*
X1636704D01*
Y844916D01*
X1637503D01*
Y843319D01*
X1638301D01*
Y841722D01*
X1639100D01*
Y840124D01*
X1639899D01*
Y839326D01*
X1640697D01*
Y836131D01*
X1639899D01*
Y835332D01*
X1637503D01*
Y834534D01*
X1636704D01*
Y833735D01*
X1635107D01*
Y832936D01*
X1632711D01*
Y832138D01*
X1631113D01*
Y831339D01*
X1625523D01*
Y830540D01*
X1624724D01*
Y829742D01*
X1621530D01*
Y828943D01*
X1617536D01*
Y828144D01*
X1615939D01*
Y827346D01*
X1610348D01*
Y826547D01*
X1609550D01*
Y825748D01*
X1604758D01*
Y824950D01*
X1602362D01*
Y824151D01*
X1600764D01*
Y823353D01*
X1599167D01*
Y819359D01*
X1599966D01*
Y817762D01*
X1600764D01*
Y812970D01*
X1602362D01*
Y812171D01*
X1603160D01*
Y812970D01*
X1608751D01*
Y813768D01*
X1609550D01*
Y814567D01*
X1615140D01*
Y815366D01*
X1616738D01*
Y816164D01*
X1619133D01*
Y816963D01*
X1624724D01*
Y817762D01*
X1625523D01*
Y818560D01*
X1631113D01*
Y819359D01*
X1632711D01*
Y820158D01*
X1635107D01*
Y820956D01*
X1639899D01*
Y821755D01*
X1641496D01*
Y822554D01*
X1642295D01*
Y821755D01*
X1643093D01*
Y819359D01*
X1643892D01*
Y815366D01*
X1644691D01*
Y812970D01*
X1645489D01*
Y802587D01*
X1644691D01*
Y801789D01*
X1640697D01*
Y800990D01*
X1639100D01*
Y800191D01*
X1634308D01*
Y799393D01*
X1632711D01*
Y798594D01*
X1629516D01*
Y797795D01*
X1625523D01*
Y796997D01*
X1624724D01*
Y796198D01*
X1619133D01*
Y795399D01*
X1618335D01*
Y794601D01*
X1614341D01*
Y793802D01*
X1611945D01*
Y793003D01*
X1610348D01*
Y792205D01*
X1606355D01*
Y789809D01*
X1607154D01*
Y789010D01*
X1607952D01*
Y785815D01*
X1608751D01*
Y781822D01*
X1609550D01*
Y779426D01*
X1610348D01*
Y777030D01*
X1611147D01*
Y777829D01*
X1616738D01*
Y778627D01*
X1617536D01*
Y779426D01*
X1622328D01*
Y780225D01*
X1624724D01*
Y781023D01*
X1626322D01*
Y781822D01*
X1631912D01*
Y782621D01*
X1632711D01*
Y783419D01*
X1637503D01*
Y784218D01*
X1639100D01*
Y785017D01*
X1642295D01*
Y785815D01*
X1646288D01*
Y786614D01*
X1647885D01*
Y787413D01*
X1652677D01*
Y788211D01*
X1654275D01*
Y789010D01*
X1658268D01*
Y788211D01*
X1659067D01*
Y784218D01*
X1659865D01*
Y781822D01*
X1660664D01*
Y774634D01*
X1661463D01*
Y767446D01*
X1660664D01*
Y766647D01*
X1655872D01*
Y765849D01*
X1653476D01*
Y765050D01*
X1644691D01*
Y764251D01*
X1642295D01*
Y763453D01*
X1638301D01*
Y762654D01*
X1633509D01*
Y761855D01*
X1631912D01*
Y761057D01*
X1625523D01*
Y760258D01*
X1624724D01*
Y759460D01*
X1620731D01*
Y758661D01*
X1617536D01*
Y757862D01*
X1615939D01*
Y757064D01*
X1611147D01*
Y756265D01*
X1610348D01*
Y755466D01*
X1607154D01*
Y754668D01*
X1604758D01*
Y753869D01*
X1603160D01*
Y753070D01*
X1599167D01*
Y752271D01*
X1598368D01*
Y751473D01*
X1595972D01*
Y750674D01*
X1593576D01*
Y749875D01*
X1591979D01*
Y749077D01*
X1587187D01*
Y749875D01*
X1586388D01*
Y752271D01*
X1585590D01*
Y764251D01*
X1584791D01*
Y765849D01*
X1583992D01*
Y773835D01*
X1583194D01*
Y776231D01*
X1582395D01*
Y780225D01*
X1581596D01*
Y785815D01*
X1580798D01*
Y786614D01*
X1579999D01*
Y793003D01*
X1579200D01*
Y793802D01*
X1578402D01*
Y796997D01*
X1577603D01*
Y800191D01*
X1576804D01*
Y802587D01*
X1576006D01*
Y806581D01*
X1575207D01*
Y807379D01*
X1574408D01*
Y810574D01*
X1573610D01*
Y813768D01*
X1572811D01*
Y814567D01*
X1572012D01*
Y818560D01*
X1571214D01*
Y819359D01*
X1570415D01*
Y823353D01*
X1569616D01*
Y824151D01*
X1568818D01*
Y825748D01*
X1568019D01*
Y828943D01*
X1567220D01*
Y829742D01*
X1566422D01*
Y832936D01*
X1565623D01*
Y833735D01*
X1564825D01*
Y836131D01*
X1565623D01*
Y836930D01*
X1566422D01*
Y837728D01*
X1568019D01*
Y838527D01*
X1573610D01*
Y839326D01*
X1575207D01*
Y840124D01*
X1580798D01*
Y840923D01*
X1582395D01*
Y841722D01*
X1585590D01*
Y842520D01*
X1590382D01*
Y843319D01*
X1591979D01*
Y844118D01*
X1597570D01*
Y844916D01*
X1599167D01*
Y845715D01*
X1603959D01*
Y846514D01*
X1606355D01*
Y847312D01*
X1607952D01*
Y848111D01*
X1616738D01*
Y848910D01*
X1622328D01*
Y849708D01*
X1625523D01*
Y850507D01*
X1627919D01*
Y851306D01*
X1633509D01*
Y850507D01*
D02*
G37*
G36*
X1500133Y931172D02*
X1500932D01*
Y930373D01*
X1502529D01*
Y929575D01*
X1503327D01*
Y927977D01*
X1504925D01*
Y925581D01*
X1505724D01*
Y924783D01*
X1506522D01*
Y923185D01*
X1507321D01*
Y921588D01*
X1508120D01*
Y920789D01*
X1508918D01*
Y919192D01*
X1509717D01*
Y918393D01*
X1510515D01*
Y917595D01*
X1511314D01*
Y915997D01*
X1512113D01*
Y914400D01*
X1512911D01*
Y912803D01*
X1513710D01*
Y912004D01*
X1514509D01*
Y910407D01*
X1515307D01*
Y908809D01*
X1516106D01*
Y908011D01*
X1516905D01*
Y906413D01*
X1517703D01*
Y905615D01*
X1518502D01*
Y902420D01*
X1520099D01*
Y900823D01*
X1520898D01*
Y899225D01*
X1521697D01*
Y897628D01*
X1522495D01*
Y895232D01*
X1523294D01*
Y894433D01*
X1524093D01*
Y892836D01*
X1524891D01*
Y891239D01*
X1525690D01*
Y889641D01*
X1526489D01*
Y887245D01*
X1528086D01*
Y884849D01*
X1528885D01*
Y883252D01*
X1529683D01*
Y882454D01*
X1530482D01*
Y879259D01*
X1531281D01*
Y878460D01*
X1532079D01*
Y876863D01*
X1532878D01*
Y875266D01*
X1533677D01*
Y873668D01*
X1534475D01*
Y871272D01*
X1535274D01*
Y870473D01*
X1536073D01*
Y867279D01*
X1536871D01*
Y865682D01*
X1537670D01*
Y864084D01*
X1538469D01*
Y861688D01*
X1539267D01*
Y860890D01*
X1540066D01*
Y856896D01*
X1540865D01*
Y856098D01*
X1541663D01*
Y853702D01*
X1542462D01*
Y851306D01*
X1543261D01*
Y850507D01*
X1544059D01*
Y846514D01*
X1544858D01*
Y845715D01*
X1545657D01*
Y842520D01*
X1546455D01*
Y840124D01*
X1547254D01*
Y838527D01*
X1548053D01*
Y834534D01*
X1548851D01*
Y833735D01*
X1549650D01*
Y829742D01*
X1550449D01*
Y828144D01*
X1551247D01*
Y825748D01*
X1552046D01*
Y821755D01*
X1552845D01*
Y820158D01*
X1553643D01*
Y814567D01*
X1554442D01*
Y812970D01*
X1555240D01*
Y810574D01*
X1556039D01*
Y805782D01*
X1556838D01*
Y804184D01*
X1557637D01*
Y796997D01*
X1558435D01*
Y796198D01*
X1559234D01*
Y790607D01*
X1560033D01*
Y785815D01*
X1560831D01*
Y783419D01*
X1561630D01*
Y773835D01*
X1562428D01*
Y772238D01*
X1563227D01*
Y761855D01*
X1564026D01*
Y756265D01*
X1564825D01*
Y751473D01*
X1565623D01*
Y713137D01*
X1568019D01*
Y713936D01*
X1569616D01*
Y714734D01*
X1571214D01*
Y715533D01*
X1573610D01*
Y716332D01*
X1574408D01*
Y717130D01*
X1577603D01*
Y717929D01*
X1578402D01*
Y718728D01*
X1579999D01*
Y719526D01*
X1582395D01*
Y720325D01*
X1583194D01*
Y721124D01*
X1585590D01*
Y721922D01*
X1587187D01*
Y722721D01*
X1589583D01*
Y723520D01*
X1591180D01*
Y724318D01*
X1592778D01*
Y725117D01*
X1595972D01*
Y725916D01*
X1596771D01*
Y726714D01*
X1599966D01*
Y727513D01*
X1601563D01*
Y728312D01*
X1603160D01*
Y729110D01*
X1607154D01*
Y729909D01*
X1607952D01*
Y730708D01*
X1611147D01*
Y731506D01*
X1613543D01*
Y732305D01*
X1615939D01*
Y733104D01*
X1619133D01*
Y733902D01*
X1620731D01*
Y734701D01*
X1626322D01*
Y735500D01*
X1627120D01*
Y736298D01*
X1630315D01*
Y737097D01*
X1634308D01*
Y737896D01*
X1635905D01*
Y738694D01*
X1642295D01*
Y739493D01*
X1643892D01*
Y740292D01*
X1650281D01*
Y741090D01*
X1653476D01*
Y741889D01*
X1656671D01*
Y742688D01*
X1666255D01*
Y743486D01*
X1667852D01*
Y744285D01*
X1679832D01*
Y745083D01*
X1687818D01*
Y745882D01*
X1730946D01*
Y745083D01*
X1737336D01*
Y744285D01*
X1741329D01*
Y743486D01*
X1742128D01*
Y742688D01*
X1738134D01*
Y741889D01*
X1730946D01*
Y741090D01*
X1728550D01*
Y740292D01*
X1721362D01*
Y739493D01*
X1718168D01*
Y738694D01*
X1714174D01*
Y737896D01*
X1709382D01*
Y737097D01*
X1706986D01*
Y736298D01*
X1701396D01*
Y735500D01*
X1699000D01*
Y734701D01*
X1695006D01*
Y733902D01*
X1691013D01*
Y733104D01*
X1688617D01*
Y732305D01*
X1684624D01*
Y731506D01*
X1682228D01*
Y730708D01*
X1679033D01*
Y729909D01*
X1675838D01*
Y729110D01*
X1673443D01*
Y728312D01*
X1670248D01*
Y727513D01*
X1668651D01*
Y726714D01*
X1664657D01*
Y725916D01*
X1662261D01*
Y725117D01*
X1659865D01*
Y724318D01*
X1656671D01*
Y723520D01*
X1655872D01*
Y722721D01*
X1651879D01*
Y721922D01*
X1650281D01*
Y721124D01*
X1647885D01*
Y720325D01*
X1644691D01*
Y719526D01*
X1643892D01*
Y718728D01*
X1640697D01*
Y717929D01*
X1639100D01*
Y717130D01*
X1636704D01*
Y716332D01*
X1634308D01*
Y715533D01*
X1632711D01*
Y714734D01*
X1629516D01*
Y713936D01*
X1628717D01*
Y713137D01*
X1625523D01*
Y712338D01*
X1623925D01*
Y711540D01*
X1622328D01*
Y710741D01*
X1619932D01*
Y709942D01*
X1618335D01*
Y709144D01*
X1615939D01*
Y708345D01*
X1614341D01*
Y707546D01*
X1612744D01*
Y706748D01*
X1610348D01*
Y705949D01*
X1609550D01*
Y705150D01*
X1607154D01*
Y704352D01*
X1605556D01*
Y703553D01*
X1603959D01*
Y702754D01*
X1601563D01*
Y701956D01*
X1599966D01*
Y701157D01*
X1598368D01*
Y700359D01*
X1596771D01*
Y699560D01*
X1595174D01*
Y698761D01*
X1593576D01*
Y697962D01*
X1591979D01*
Y697164D01*
X1589583D01*
Y696365D01*
X1588784D01*
Y695566D01*
X1586388D01*
Y694768D01*
X1584791D01*
Y693969D01*
X1583992D01*
Y693170D01*
X1581596D01*
Y692372D01*
X1580798D01*
Y691573D01*
X1579200D01*
Y690775D01*
X1577603D01*
Y689976D01*
X1576006D01*
Y689177D01*
X1574408D01*
Y688379D01*
X1572811D01*
Y687580D01*
X1571214D01*
Y686781D01*
X1570415D01*
Y685983D01*
X1568818D01*
Y685184D01*
X1567220D01*
Y684385D01*
X1565623D01*
Y683587D01*
X1564026D01*
Y682788D01*
X1562428D01*
Y681989D01*
X1560831D01*
Y681191D01*
X1560033D01*
Y680392D01*
X1558435D01*
Y679593D01*
X1556838D01*
Y678795D01*
X1556039D01*
Y677996D01*
X1554442D01*
Y677197D01*
X1552845D01*
Y676399D01*
X1552046D01*
Y675600D01*
X1549650D01*
Y674801D01*
X1548851D01*
Y674003D01*
X1547254D01*
Y673204D01*
X1546455D01*
Y672405D01*
X1544858D01*
Y671607D01*
X1544059D01*
Y670808D01*
X1542462D01*
Y670009D01*
X1540865D01*
Y669211D01*
X1540066D01*
Y670009D01*
X1539267D01*
Y707546D01*
X1538469D01*
Y721124D01*
X1537670D01*
Y741090D01*
X1536871D01*
Y748278D01*
X1536073D01*
Y757862D01*
X1535274D01*
Y766647D01*
X1534475D01*
Y772238D01*
X1533677D01*
Y781822D01*
X1532878D01*
Y785815D01*
X1532079D01*
Y793802D01*
X1531281D01*
Y796198D01*
Y796997D01*
Y798594D01*
X1530482D01*
Y802587D01*
X1529683D01*
Y810574D01*
X1528885D01*
Y812970D01*
X1528086D01*
Y819359D01*
X1527287D01*
Y823353D01*
X1526489D01*
Y827346D01*
X1525690D01*
Y832936D01*
X1524891D01*
Y835332D01*
X1524093D01*
Y840923D01*
X1523294D01*
Y844118D01*
X1522495D01*
Y847312D01*
X1521697D01*
Y852104D01*
X1520898D01*
Y854500D01*
X1520099D01*
Y859292D01*
X1519301D01*
Y861688D01*
X1518502D01*
Y865682D01*
X1517703D01*
Y868876D01*
X1516905D01*
Y871272D01*
X1516106D01*
Y876064D01*
X1515307D01*
Y877662D01*
X1514509D01*
Y881655D01*
X1513710D01*
Y884849D01*
X1512911D01*
Y887245D01*
X1512113D01*
Y891239D01*
X1511314D01*
Y892836D01*
X1510515D01*
Y896829D01*
X1509717D01*
Y898427D01*
X1508918D01*
Y900823D01*
X1508120D01*
Y904816D01*
X1507321D01*
Y906413D01*
X1506522D01*
Y910407D01*
X1505724D01*
Y912004D01*
X1504925D01*
Y914400D01*
X1504126D01*
Y917595D01*
X1503327D01*
Y919192D01*
X1502529D01*
Y922386D01*
X1501730D01*
Y924783D01*
X1500932D01*
Y927178D01*
X1500133D01*
Y930373D01*
X1499334D01*
Y932769D01*
X1500133D01*
Y931172D01*
D02*
G37*
G36*
X1765289Y718728D02*
X1764490D01*
Y717929D01*
X1763691D01*
Y717130D01*
X1762893D01*
Y716332D01*
X1762094D01*
Y715533D01*
X1761295D01*
Y714734D01*
X1760497D01*
Y713936D01*
X1759698D01*
Y713137D01*
X1758899D01*
Y712338D01*
X1758101D01*
Y711540D01*
X1757302D01*
Y710741D01*
X1756503D01*
Y709942D01*
X1755705D01*
Y709144D01*
X1754107D01*
Y707546D01*
X1752510D01*
Y706748D01*
X1751711D01*
Y705949D01*
X1750913D01*
Y705150D01*
X1750114D01*
Y704352D01*
X1749315D01*
Y703553D01*
X1747718D01*
Y702754D01*
X1746920D01*
Y701956D01*
X1746121D01*
Y701157D01*
X1744523D01*
Y700359D01*
X1743725D01*
Y699560D01*
X1742128D01*
Y697962D01*
X1740530D01*
Y697164D01*
X1738933D01*
Y696365D01*
X1738134D01*
Y695566D01*
X1736537D01*
Y694768D01*
X1735738D01*
Y693969D01*
X1734141D01*
Y693170D01*
X1733342D01*
Y692372D01*
X1731745D01*
Y691573D01*
X1730148D01*
Y690775D01*
X1729349D01*
Y689976D01*
X1727752D01*
Y689177D01*
X1726154D01*
Y688379D01*
X1725356D01*
Y687580D01*
X1723758D01*
Y686781D01*
X1722960D01*
Y685983D01*
X1721362D01*
Y685184D01*
X1719765D01*
Y684385D01*
X1718168D01*
Y683587D01*
X1716570D01*
Y682788D01*
X1715772D01*
Y681989D01*
X1713376D01*
Y681191D01*
X1712577D01*
Y680392D01*
X1710980D01*
Y679593D01*
X1709382D01*
Y678795D01*
X1707785D01*
Y677996D01*
X1706188D01*
Y677197D01*
X1704590D01*
Y676399D01*
X1702993D01*
Y675600D01*
X1700597D01*
Y674801D01*
X1699798D01*
Y674003D01*
X1697402D01*
Y673204D01*
X1696604D01*
Y672405D01*
X1693409D01*
Y671607D01*
X1691812D01*
Y670808D01*
X1690215D01*
Y670009D01*
X1688617D01*
Y669211D01*
X1687020D01*
Y668412D01*
X1684624D01*
Y667613D01*
X1683026D01*
Y666815D01*
X1681429D01*
Y666016D01*
X1678235D01*
Y665217D01*
X1676637D01*
Y664419D01*
X1674241D01*
Y663620D01*
X1672644D01*
Y662821D01*
X1670248D01*
Y662023D01*
X1667053D01*
Y661224D01*
X1666255D01*
Y660425D01*
X1663060D01*
Y659627D01*
X1661463D01*
Y658828D01*
X1658268D01*
Y658029D01*
X1655872D01*
Y657231D01*
X1654275D01*
Y656432D01*
X1650281D01*
Y655633D01*
X1649483D01*
Y654835D01*
X1645489D01*
Y654036D01*
X1643093D01*
Y653237D01*
X1641496D01*
Y652439D01*
X1637503D01*
Y651640D01*
X1635905D01*
Y650841D01*
X1631113D01*
Y650043D01*
X1628717D01*
Y649244D01*
X1626322D01*
Y648445D01*
X1621530D01*
Y647647D01*
X1619932D01*
Y646848D01*
X1614341D01*
Y646049D01*
X1611945D01*
Y645251D01*
X1607952D01*
Y644452D01*
X1603160D01*
Y643653D01*
X1600764D01*
Y642855D01*
X1593576D01*
Y642056D01*
X1591180D01*
Y641257D01*
X1585590D01*
Y640459D01*
X1579200D01*
Y639660D01*
X1574408D01*
Y638862D01*
X1564026D01*
Y638063D01*
X1557637D01*
Y637264D01*
X1520898D01*
Y638063D01*
X1516106D01*
Y638862D01*
X1507321D01*
Y639660D01*
X1504925D01*
Y640459D01*
X1500133D01*
Y641257D01*
X1496938D01*
Y642056D01*
X1495341D01*
Y642855D01*
X1492146D01*
Y643653D01*
X1491348D01*
Y644452D01*
X1488153D01*
Y645251D01*
X1486556D01*
Y646049D01*
X1485757D01*
Y646848D01*
X1483361D01*
Y647647D01*
X1482562D01*
Y648445D01*
X1480965D01*
Y649244D01*
X1479368D01*
Y650043D01*
X1478569D01*
Y650841D01*
X1477770D01*
Y651640D01*
X1476972D01*
Y652439D01*
X1475374D01*
Y654036D01*
X1473777D01*
Y655633D01*
X1472978D01*
Y656432D01*
X1472180D01*
Y657231D01*
X1473777D01*
Y658029D01*
X1496140D01*
Y658828D01*
X1501730D01*
Y659627D01*
X1520099D01*
Y660425D01*
X1528885D01*
Y661224D01*
X1540066D01*
Y662023D01*
X1550449D01*
Y662821D01*
X1555240D01*
Y663620D01*
X1565623D01*
Y664419D01*
X1572012D01*
Y665217D01*
X1578402D01*
Y666016D01*
X1584791D01*
Y666815D01*
X1587986D01*
Y667613D01*
X1596771D01*
Y668412D01*
X1599167D01*
Y669211D01*
X1605556D01*
Y670009D01*
X1609550D01*
Y670808D01*
X1612744D01*
Y671607D01*
X1618335D01*
Y672405D01*
X1620731D01*
Y673204D01*
X1626322D01*
Y674003D01*
X1629516D01*
Y674801D01*
X1631912D01*
Y675600D01*
X1636704D01*
Y676399D01*
X1638301D01*
Y677197D01*
X1643093D01*
Y677996D01*
X1645489D01*
Y678795D01*
X1648684D01*
Y679593D01*
X1651080D01*
Y680392D01*
X1653476D01*
Y681191D01*
X1658268D01*
Y681989D01*
X1659865D01*
Y682788D01*
X1662261D01*
Y683587D01*
X1665456D01*
Y684385D01*
X1667053D01*
Y685184D01*
X1671046D01*
Y685983D01*
X1672644D01*
Y686781D01*
X1675838D01*
Y687580D01*
X1678235D01*
Y688379D01*
X1679832D01*
Y689177D01*
X1683026D01*
Y689976D01*
X1684624D01*
Y690775D01*
X1687818D01*
Y691573D01*
X1690215D01*
Y692372D01*
X1691812D01*
Y693170D01*
X1695006D01*
Y693969D01*
X1696604D01*
Y694768D01*
X1699798D01*
Y695566D01*
X1701396D01*
Y696365D01*
X1703792D01*
Y697164D01*
X1706188D01*
Y697962D01*
X1707785D01*
Y698761D01*
X1710181D01*
Y699560D01*
X1712577D01*
Y700359D01*
X1714973D01*
Y701157D01*
X1716570D01*
Y701956D01*
X1718168D01*
Y702754D01*
X1721362D01*
Y703553D01*
X1722960D01*
Y704352D01*
X1725356D01*
Y705150D01*
X1727752D01*
Y705949D01*
X1728550D01*
Y706748D01*
X1731745D01*
Y707546D01*
X1733342D01*
Y708345D01*
X1735738D01*
Y709144D01*
X1737336D01*
Y709942D01*
X1739731D01*
Y710741D01*
X1742128D01*
Y711540D01*
X1743725D01*
Y712338D01*
X1746121D01*
Y713137D01*
X1747718D01*
Y713936D01*
X1750114D01*
Y714734D01*
X1752510D01*
Y715533D01*
X1753309D01*
Y716332D01*
X1756503D01*
Y717130D01*
X1757302D01*
Y717929D01*
X1759698D01*
Y718728D01*
X1762094D01*
Y719526D01*
X1763691D01*
Y720325D01*
X1765289D01*
Y718728D01*
D02*
G37*
G36*
X1867144Y700245D02*
X1867440D01*
X1868144Y700171D01*
X1868922Y700060D01*
X1869736Y699875D01*
X1870625Y699652D01*
X1871477Y699356D01*
X1871514D01*
X1871588Y699319D01*
X1871699Y699282D01*
X1871847Y699208D01*
X1872255Y698986D01*
X1872773Y698727D01*
X1873329Y698356D01*
X1873921Y697912D01*
X1874477Y697430D01*
X1874995Y696838D01*
X1875069Y696764D01*
X1875217Y696542D01*
X1875439Y696208D01*
X1875736Y695727D01*
X1876032Y695135D01*
X1876365Y694394D01*
X1876699Y693579D01*
X1876958Y692653D01*
X1873884Y691839D01*
Y691876D01*
X1873847Y691913D01*
X1873810Y692024D01*
X1873773Y692172D01*
X1873662Y692505D01*
X1873514Y692950D01*
X1873292Y693468D01*
X1873032Y693949D01*
X1872773Y694468D01*
X1872440Y694912D01*
X1872403Y694949D01*
X1872292Y695097D01*
X1872070Y695283D01*
X1871810Y695542D01*
X1871477Y695838D01*
X1871033Y696134D01*
X1870551Y696431D01*
X1869996Y696690D01*
X1869922Y696727D01*
X1869736Y696801D01*
X1869403Y696912D01*
X1868959Y697060D01*
X1868440Y697171D01*
X1867848Y697282D01*
X1867181Y697356D01*
X1866478Y697393D01*
X1866070D01*
X1865885Y697356D01*
X1865663D01*
X1865107Y697319D01*
X1864478Y697208D01*
X1863774Y697097D01*
X1863107Y696912D01*
X1862441Y696653D01*
X1862367Y696616D01*
X1862145Y696542D01*
X1861848Y696357D01*
X1861478Y696171D01*
X1861034Y695875D01*
X1860552Y695579D01*
X1860108Y695209D01*
X1859700Y694801D01*
X1859663Y694764D01*
X1859515Y694616D01*
X1859330Y694357D01*
X1859108Y694061D01*
X1858849Y693690D01*
X1858589Y693246D01*
X1858330Y692764D01*
X1858071Y692246D01*
Y692209D01*
X1858034Y692135D01*
X1857997Y692024D01*
X1857923Y691839D01*
X1857849Y691616D01*
X1857775Y691357D01*
X1857664Y691061D01*
X1857590Y690727D01*
X1857404Y689950D01*
X1857256Y689061D01*
X1857145Y688135D01*
X1857108Y687098D01*
Y687061D01*
Y686950D01*
Y686765D01*
X1857145Y686543D01*
Y686246D01*
X1857182Y685876D01*
X1857219Y685506D01*
X1857256Y685098D01*
X1857404Y684173D01*
X1857590Y683210D01*
X1857886Y682247D01*
X1858256Y681321D01*
Y681284D01*
X1858330Y681210D01*
X1858367Y681099D01*
X1858478Y680951D01*
X1858738Y680543D01*
X1859145Y680025D01*
X1859626Y679469D01*
X1860219Y678914D01*
X1860923Y678395D01*
X1861700Y677914D01*
X1861737D01*
X1861811Y677877D01*
X1861922Y677803D01*
X1862108Y677729D01*
X1862293Y677655D01*
X1862552Y677581D01*
X1863145Y677358D01*
X1863885Y677173D01*
X1864700Y676988D01*
X1865589Y676840D01*
X1866514Y676803D01*
X1866885D01*
X1867107Y676840D01*
X1867329D01*
X1867885Y676914D01*
X1868551Y676988D01*
X1869255Y677136D01*
X1870033Y677358D01*
X1870810Y677618D01*
X1870847D01*
X1870921Y677655D01*
X1870995Y677692D01*
X1871144Y677766D01*
X1871551Y677951D01*
X1871995Y678173D01*
X1872514Y678432D01*
X1873069Y678729D01*
X1873588Y679062D01*
X1874032Y679432D01*
Y684247D01*
X1866478D01*
Y687283D01*
X1877365D01*
Y677766D01*
X1877328Y677729D01*
X1877254Y677692D01*
X1877106Y677581D01*
X1876921Y677433D01*
X1876699Y677284D01*
X1876439Y677099D01*
X1876106Y676877D01*
X1875773Y676655D01*
X1874995Y676173D01*
X1874106Y675655D01*
X1873181Y675174D01*
X1872181Y674766D01*
X1872144D01*
X1872070Y674729D01*
X1871921Y674692D01*
X1871736Y674618D01*
X1871477Y674544D01*
X1871181Y674433D01*
X1870847Y674359D01*
X1870514Y674285D01*
X1869699Y674100D01*
X1868774Y673914D01*
X1867774Y673803D01*
X1866737Y673766D01*
X1866366D01*
X1866107Y673803D01*
X1865774D01*
X1865367Y673840D01*
X1864922Y673914D01*
X1864441Y673951D01*
X1863367Y674174D01*
X1862219Y674433D01*
X1861034Y674840D01*
X1860441Y675062D01*
X1859849Y675359D01*
X1859812Y675396D01*
X1859700Y675433D01*
X1859552Y675544D01*
X1859330Y675655D01*
X1859071Y675840D01*
X1858812Y676025D01*
X1858108Y676544D01*
X1857367Y677210D01*
X1856590Y678025D01*
X1855849Y678951D01*
X1855182Y680025D01*
Y680062D01*
X1855108Y680173D01*
X1855034Y680321D01*
X1854923Y680580D01*
X1854812Y680840D01*
X1854701Y681210D01*
X1854553Y681580D01*
X1854405Y682025D01*
X1854256Y682506D01*
X1854108Y683062D01*
X1853997Y683617D01*
X1853886Y684210D01*
X1853701Y685506D01*
X1853627Y686876D01*
Y686913D01*
Y687061D01*
Y687246D01*
X1853664Y687506D01*
Y687839D01*
X1853701Y688246D01*
X1853775Y688654D01*
X1853812Y689135D01*
X1853923Y689654D01*
X1853997Y690209D01*
X1854294Y691394D01*
X1854664Y692616D01*
X1855182Y693838D01*
X1855219Y693875D01*
X1855256Y693986D01*
X1855331Y694135D01*
X1855479Y694357D01*
X1855627Y694653D01*
X1855812Y694949D01*
X1856330Y695653D01*
X1856960Y696468D01*
X1857738Y697245D01*
X1858627Y698023D01*
X1859145Y698356D01*
X1859663Y698690D01*
X1859700Y698727D01*
X1859812Y698764D01*
X1859960Y698838D01*
X1860182Y698949D01*
X1860478Y699060D01*
X1860811Y699208D01*
X1861182Y699356D01*
X1861626Y699504D01*
X1862108Y699652D01*
X1862626Y699764D01*
X1863181Y699912D01*
X1863774Y700023D01*
X1865070Y700208D01*
X1865737Y700282D01*
X1866922D01*
X1867144Y700245D01*
D02*
G37*
G36*
X2082603Y693172D02*
X2083011Y693098D01*
X2083492Y692950D01*
X2084010Y692764D01*
X2084603Y692505D01*
X2085233Y692172D01*
X2084085Y689283D01*
X2084048Y689320D01*
X2083899Y689394D01*
X2083677Y689505D01*
X2083381Y689616D01*
X2083048Y689728D01*
X2082640Y689839D01*
X2082233Y689913D01*
X2081826Y689950D01*
X2081640D01*
X2081455Y689913D01*
X2081196Y689876D01*
X2080937Y689802D01*
X2080603Y689691D01*
X2080270Y689542D01*
X2079974Y689320D01*
X2079937Y689283D01*
X2079826Y689209D01*
X2079715Y689061D01*
X2079530Y688876D01*
X2079344Y688617D01*
X2079159Y688320D01*
X2078974Y687987D01*
X2078826Y687580D01*
X2078789Y687506D01*
X2078752Y687283D01*
X2078678Y686950D01*
X2078567Y686506D01*
X2078456Y685950D01*
X2078382Y685321D01*
X2078344Y684654D01*
X2078307Y683913D01*
Y674211D01*
X2075160D01*
Y692801D01*
X2078011D01*
Y689987D01*
X2078048Y690024D01*
X2078196Y690283D01*
X2078382Y690616D01*
X2078678Y691024D01*
X2078974Y691431D01*
X2079307Y691876D01*
X2079641Y692246D01*
X2079974Y692542D01*
X2080011Y692579D01*
X2080122Y692653D01*
X2080344Y692764D01*
X2080566Y692875D01*
X2080863Y692987D01*
X2081233Y693098D01*
X2081603Y693172D01*
X2082011Y693209D01*
X2082270D01*
X2082603Y693172D01*
D02*
G37*
G36*
X2004352D02*
X2004908Y693135D01*
X2005500Y693061D01*
X2006130Y692913D01*
X2006796Y692764D01*
X2007426Y692542D01*
X2007463D01*
X2007500Y692505D01*
X2007685Y692431D01*
X2007981Y692283D01*
X2008352Y692098D01*
X2008759Y691839D01*
X2009166Y691542D01*
X2009537Y691209D01*
X2009870Y690839D01*
X2009907Y690802D01*
X2009981Y690654D01*
X2010129Y690394D01*
X2010314Y690098D01*
X2010500Y689654D01*
X2010685Y689172D01*
X2010833Y688617D01*
X2010981Y687987D01*
X2007907Y687580D01*
Y687654D01*
X2007870Y687802D01*
X2007796Y688061D01*
X2007685Y688394D01*
X2007500Y688728D01*
X2007278Y689098D01*
X2007018Y689468D01*
X2006648Y689802D01*
X2006611Y689839D01*
X2006463Y689913D01*
X2006241Y690061D01*
X2005907Y690209D01*
X2005537Y690357D01*
X2005056Y690505D01*
X2004463Y690579D01*
X2003834Y690616D01*
X2003463D01*
X2003093Y690579D01*
X2002612Y690542D01*
X2002130Y690431D01*
X2001612Y690320D01*
X2001130Y690135D01*
X2000723Y689876D01*
X2000686Y689839D01*
X2000575Y689765D01*
X2000427Y689616D01*
X2000278Y689394D01*
X2000093Y689172D01*
X1999945Y688876D01*
X1999834Y688543D01*
X1999797Y688209D01*
Y688172D01*
Y688098D01*
X1999834Y687987D01*
Y687839D01*
X1999945Y687469D01*
X2000167Y687098D01*
X2000204Y687061D01*
X2000241Y687024D01*
X2000316Y686913D01*
X2000464Y686802D01*
X2000612Y686691D01*
X2000834Y686543D01*
X2001093Y686432D01*
X2001389Y686283D01*
X2001427D01*
X2001501Y686246D01*
X2001649Y686209D01*
X2001908Y686098D01*
X2002278Y685987D01*
X2002760Y685876D01*
X2003056Y685765D01*
X2003389Y685691D01*
X2003760Y685580D01*
X2004167Y685469D01*
X2004204D01*
X2004315Y685432D01*
X2004500Y685395D01*
X2004722Y685321D01*
X2004982Y685247D01*
X2005315Y685173D01*
X2006019Y684950D01*
X2006796Y684728D01*
X2007574Y684469D01*
X2008278Y684210D01*
X2008574Y684099D01*
X2008833Y683988D01*
X2008907Y683950D01*
X2009055Y683876D01*
X2009277Y683765D01*
X2009611Y683580D01*
X2009944Y683358D01*
X2010277Y683062D01*
X2010611Y682728D01*
X2010907Y682358D01*
X2010944Y682321D01*
X2011018Y682173D01*
X2011166Y681951D01*
X2011314Y681617D01*
X2011425Y681210D01*
X2011574Y680766D01*
X2011648Y680247D01*
X2011685Y679655D01*
Y679581D01*
Y679395D01*
X2011648Y679099D01*
X2011574Y678692D01*
X2011463Y678247D01*
X2011277Y677766D01*
X2011055Y677210D01*
X2010759Y676692D01*
X2010722Y676618D01*
X2010574Y676470D01*
X2010388Y676210D01*
X2010092Y675914D01*
X2009685Y675581D01*
X2009241Y675211D01*
X2008722Y674877D01*
X2008092Y674544D01*
X2008055D01*
X2008018Y674507D01*
X2007796Y674433D01*
X2007426Y674322D01*
X2006944Y674174D01*
X2006352Y674026D01*
X2005685Y673914D01*
X2004982Y673840D01*
X2004167Y673803D01*
X2003834D01*
X2003574Y673840D01*
X2003278D01*
X2002908Y673877D01*
X2002538Y673914D01*
X2002130Y673988D01*
X2001241Y674174D01*
X2000316Y674433D01*
X1999427Y674803D01*
X1999019Y675025D01*
X1998649Y675285D01*
X1998612Y675322D01*
X1998575Y675359D01*
X1998353Y675581D01*
X1998019Y675914D01*
X1997649Y676433D01*
X1997242Y677062D01*
X1996834Y677803D01*
X1996501Y678729D01*
X1996242Y679766D01*
X1999353Y680247D01*
Y680210D01*
Y680173D01*
X1999427Y679951D01*
X1999501Y679581D01*
X1999649Y679173D01*
X1999834Y678729D01*
X2000056Y678247D01*
X2000390Y677766D01*
X2000797Y677358D01*
X2000871Y677321D01*
X2001019Y677210D01*
X2001315Y677062D01*
X2001686Y676877D01*
X2002167Y676692D01*
X2002723Y676544D01*
X2003389Y676433D01*
X2004167Y676396D01*
X2004537D01*
X2004908Y676433D01*
X2005389Y676507D01*
X2005907Y676618D01*
X2006463Y676766D01*
X2006944Y676951D01*
X2007389Y677247D01*
X2007426Y677284D01*
X2007574Y677396D01*
X2007722Y677581D01*
X2007944Y677840D01*
X2008129Y678136D01*
X2008315Y678507D01*
X2008426Y678877D01*
X2008463Y679321D01*
Y679358D01*
Y679507D01*
X2008426Y679692D01*
X2008352Y679951D01*
X2008241Y680210D01*
X2008055Y680469D01*
X2007833Y680766D01*
X2007500Y680988D01*
X2007463Y681025D01*
X2007352Y681062D01*
X2007167Y681173D01*
X2006870Y681284D01*
X2006426Y681432D01*
X2006167Y681543D01*
X2005871Y681617D01*
X2005537Y681729D01*
X2005167Y681840D01*
X2004760Y681951D01*
X2004278Y682062D01*
X2004241D01*
X2004130Y682099D01*
X2003945Y682136D01*
X2003723Y682210D01*
X2003426Y682284D01*
X2003093Y682395D01*
X2002389Y682580D01*
X2001575Y682840D01*
X2000797Y683062D01*
X2000056Y683321D01*
X1999723Y683469D01*
X1999464Y683580D01*
X1999390Y683617D01*
X1999241Y683691D01*
X1999019Y683839D01*
X1998723Y684025D01*
X1998390Y684284D01*
X1998056Y684580D01*
X1997723Y684913D01*
X1997427Y685321D01*
X1997390Y685358D01*
X1997316Y685506D01*
X1997205Y685765D01*
X1997094Y686061D01*
X1996983Y686432D01*
X1996871Y686876D01*
X1996797Y687320D01*
X1996760Y687839D01*
Y687913D01*
Y688061D01*
X1996797Y688283D01*
X1996834Y688617D01*
X1996908Y688950D01*
X1996983Y689357D01*
X1997131Y689728D01*
X1997316Y690135D01*
X1997353Y690172D01*
X1997427Y690320D01*
X1997538Y690505D01*
X1997723Y690765D01*
X1997945Y691024D01*
X1998205Y691357D01*
X1998501Y691653D01*
X1998871Y691913D01*
X1998908Y691950D01*
X1999019Y691987D01*
X1999167Y692098D01*
X1999390Y692209D01*
X1999686Y692357D01*
X2000019Y692505D01*
X2000427Y692653D01*
X2000871Y692801D01*
X2000945Y692838D01*
X2001093Y692875D01*
X2001352Y692950D01*
X2001686Y693024D01*
X2002093Y693098D01*
X2002538Y693135D01*
X2003056Y693209D01*
X2003945D01*
X2004352Y693172D01*
D02*
G37*
G36*
X1908732D02*
X1909288Y693135D01*
X1909880Y693061D01*
X1910510Y692913D01*
X1911177Y692764D01*
X1911806Y692542D01*
X1911843D01*
X1911880Y692505D01*
X1912065Y692431D01*
X1912362Y692283D01*
X1912732Y692098D01*
X1913139Y691839D01*
X1913547Y691542D01*
X1913917Y691209D01*
X1914250Y690839D01*
X1914287Y690802D01*
X1914361Y690654D01*
X1914510Y690394D01*
X1914695Y690098D01*
X1914880Y689654D01*
X1915065Y689172D01*
X1915213Y688617D01*
X1915361Y687987D01*
X1912288Y687580D01*
Y687654D01*
X1912251Y687802D01*
X1912177Y688061D01*
X1912065Y688394D01*
X1911880Y688728D01*
X1911658Y689098D01*
X1911399Y689468D01*
X1911028Y689802D01*
X1910991Y689839D01*
X1910843Y689913D01*
X1910621Y690061D01*
X1910288Y690209D01*
X1909917Y690357D01*
X1909436Y690505D01*
X1908844Y690579D01*
X1908214Y690616D01*
X1907844D01*
X1907473Y690579D01*
X1906992Y690542D01*
X1906510Y690431D01*
X1905992Y690320D01*
X1905511Y690135D01*
X1905103Y689876D01*
X1905066Y689839D01*
X1904955Y689765D01*
X1904807Y689616D01*
X1904659Y689394D01*
X1904474Y689172D01*
X1904325Y688876D01*
X1904214Y688543D01*
X1904177Y688209D01*
Y688172D01*
Y688098D01*
X1904214Y687987D01*
Y687839D01*
X1904325Y687469D01*
X1904548Y687098D01*
X1904585Y687061D01*
X1904622Y687024D01*
X1904696Y686913D01*
X1904844Y686802D01*
X1904992Y686691D01*
X1905214Y686543D01*
X1905473Y686432D01*
X1905770Y686283D01*
X1905807D01*
X1905881Y686246D01*
X1906029Y686209D01*
X1906288Y686098D01*
X1906658Y685987D01*
X1907140Y685876D01*
X1907436Y685765D01*
X1907769Y685691D01*
X1908140Y685580D01*
X1908547Y685469D01*
X1908584D01*
X1908695Y685432D01*
X1908880Y685395D01*
X1909103Y685321D01*
X1909362Y685247D01*
X1909695Y685173D01*
X1910399Y684950D01*
X1911177Y684728D01*
X1911954Y684469D01*
X1912658Y684210D01*
X1912954Y684099D01*
X1913213Y683988D01*
X1913288Y683950D01*
X1913436Y683876D01*
X1913658Y683765D01*
X1913991Y683580D01*
X1914324Y683358D01*
X1914658Y683062D01*
X1914991Y682728D01*
X1915287Y682358D01*
X1915324Y682321D01*
X1915398Y682173D01*
X1915547Y681951D01*
X1915695Y681617D01*
X1915806Y681210D01*
X1915954Y680766D01*
X1916028Y680247D01*
X1916065Y679655D01*
Y679581D01*
Y679395D01*
X1916028Y679099D01*
X1915954Y678692D01*
X1915843Y678247D01*
X1915658Y677766D01*
X1915435Y677210D01*
X1915139Y676692D01*
X1915102Y676618D01*
X1914954Y676470D01*
X1914769Y676210D01*
X1914473Y675914D01*
X1914065Y675581D01*
X1913621Y675211D01*
X1913102Y674877D01*
X1912473Y674544D01*
X1912436D01*
X1912399Y674507D01*
X1912177Y674433D01*
X1911806Y674322D01*
X1911325Y674174D01*
X1910732Y674026D01*
X1910066Y673914D01*
X1909362Y673840D01*
X1908547Y673803D01*
X1908214D01*
X1907955Y673840D01*
X1907658D01*
X1907288Y673877D01*
X1906918Y673914D01*
X1906510Y673988D01*
X1905622Y674174D01*
X1904696Y674433D01*
X1903807Y674803D01*
X1903400Y675025D01*
X1903029Y675285D01*
X1902992Y675322D01*
X1902955Y675359D01*
X1902733Y675581D01*
X1902400Y675914D01*
X1902029Y676433D01*
X1901622Y677062D01*
X1901215Y677803D01*
X1900881Y678729D01*
X1900622Y679766D01*
X1903733Y680247D01*
Y680210D01*
Y680173D01*
X1903807Y679951D01*
X1903881Y679581D01*
X1904029Y679173D01*
X1904214Y678729D01*
X1904436Y678247D01*
X1904770Y677766D01*
X1905177Y677358D01*
X1905251Y677321D01*
X1905399Y677210D01*
X1905696Y677062D01*
X1906066Y676877D01*
X1906547Y676692D01*
X1907103Y676544D01*
X1907769Y676433D01*
X1908547Y676396D01*
X1908918D01*
X1909288Y676433D01*
X1909769Y676507D01*
X1910288Y676618D01*
X1910843Y676766D01*
X1911325Y676951D01*
X1911769Y677247D01*
X1911806Y677284D01*
X1911954Y677396D01*
X1912102Y677581D01*
X1912325Y677840D01*
X1912510Y678136D01*
X1912695Y678507D01*
X1912806Y678877D01*
X1912843Y679321D01*
Y679358D01*
Y679507D01*
X1912806Y679692D01*
X1912732Y679951D01*
X1912621Y680210D01*
X1912436Y680469D01*
X1912213Y680766D01*
X1911880Y680988D01*
X1911843Y681025D01*
X1911732Y681062D01*
X1911547Y681173D01*
X1911251Y681284D01*
X1910806Y681432D01*
X1910547Y681543D01*
X1910251Y681617D01*
X1909917Y681729D01*
X1909547Y681840D01*
X1909140Y681951D01*
X1908658Y682062D01*
X1908621D01*
X1908510Y682099D01*
X1908325Y682136D01*
X1908103Y682210D01*
X1907807Y682284D01*
X1907473Y682395D01*
X1906770Y682580D01*
X1905955Y682840D01*
X1905177Y683062D01*
X1904436Y683321D01*
X1904103Y683469D01*
X1903844Y683580D01*
X1903770Y683617D01*
X1903622Y683691D01*
X1903400Y683839D01*
X1903103Y684025D01*
X1902770Y684284D01*
X1902437Y684580D01*
X1902103Y684913D01*
X1901807Y685321D01*
X1901770Y685358D01*
X1901696Y685506D01*
X1901585Y685765D01*
X1901474Y686061D01*
X1901363Y686432D01*
X1901252Y686876D01*
X1901178Y687320D01*
X1901141Y687839D01*
Y687913D01*
Y688061D01*
X1901178Y688283D01*
X1901215Y688617D01*
X1901289Y688950D01*
X1901363Y689357D01*
X1901511Y689728D01*
X1901696Y690135D01*
X1901733Y690172D01*
X1901807Y690320D01*
X1901918Y690505D01*
X1902103Y690765D01*
X1902326Y691024D01*
X1902585Y691357D01*
X1902881Y691653D01*
X1903251Y691913D01*
X1903289Y691950D01*
X1903400Y691987D01*
X1903548Y692098D01*
X1903770Y692209D01*
X1904066Y692357D01*
X1904400Y692505D01*
X1904807Y692653D01*
X1905251Y692801D01*
X1905325Y692838D01*
X1905473Y692875D01*
X1905733Y692950D01*
X1906066Y693024D01*
X1906473Y693098D01*
X1906918Y693135D01*
X1907436Y693209D01*
X1908325D01*
X1908732Y693172D01*
D02*
G37*
G36*
X1957727Y674211D02*
X1954728D01*
X1947728Y692801D01*
X1951061D01*
X1955061Y681654D01*
Y681617D01*
X1955098Y681580D01*
X1955135Y681469D01*
X1955172Y681358D01*
X1955283Y680988D01*
X1955431Y680506D01*
X1955616Y679951D01*
X1955839Y679321D01*
X1956024Y678618D01*
X1956246Y677914D01*
X1956283Y677988D01*
X1956320Y678173D01*
X1956431Y678469D01*
X1956542Y678914D01*
X1956727Y679395D01*
X1956913Y680025D01*
X1957172Y680692D01*
X1957431Y681432D01*
X1961542Y692801D01*
X1964801D01*
X1957727Y674211D01*
D02*
G37*
G36*
X1896956D02*
X1894141D01*
Y676914D01*
X1894104Y676877D01*
X1894030Y676766D01*
X1893919Y676618D01*
X1893734Y676433D01*
X1893512Y676210D01*
X1893253Y675914D01*
X1892956Y675655D01*
X1892586Y675359D01*
X1892178Y675062D01*
X1891734Y674803D01*
X1891253Y674544D01*
X1890734Y674285D01*
X1890142Y674100D01*
X1889549Y673951D01*
X1888883Y673840D01*
X1888216Y673803D01*
X1887957D01*
X1887623Y673840D01*
X1887216Y673877D01*
X1886735Y673951D01*
X1886216Y674063D01*
X1885698Y674211D01*
X1885142Y674433D01*
X1885068Y674470D01*
X1884920Y674544D01*
X1884661Y674692D01*
X1884364Y674877D01*
X1883994Y675099D01*
X1883661Y675359D01*
X1883328Y675655D01*
X1883031Y675988D01*
X1882994Y676025D01*
X1882920Y676173D01*
X1882809Y676359D01*
X1882661Y676655D01*
X1882476Y676988D01*
X1882328Y677396D01*
X1882180Y677840D01*
X1882068Y678321D01*
Y678358D01*
X1882031Y678507D01*
X1881994Y678729D01*
Y679025D01*
X1881957Y679469D01*
X1881920Y679951D01*
X1881883Y680580D01*
Y681284D01*
Y692801D01*
X1885031D01*
Y682469D01*
Y682432D01*
Y682358D01*
Y682247D01*
Y682062D01*
Y681654D01*
X1885068Y681136D01*
Y680580D01*
X1885105Y680025D01*
X1885142Y679544D01*
X1885216Y679136D01*
Y679099D01*
X1885290Y678951D01*
X1885364Y678729D01*
X1885475Y678432D01*
X1885661Y678136D01*
X1885883Y677803D01*
X1886142Y677507D01*
X1886475Y677210D01*
X1886512Y677173D01*
X1886661Y677099D01*
X1886846Y676988D01*
X1887142Y676877D01*
X1887475Y676729D01*
X1887883Y676618D01*
X1888327Y676544D01*
X1888846Y676507D01*
X1889105D01*
X1889364Y676544D01*
X1889697Y676581D01*
X1890105Y676692D01*
X1890549Y676803D01*
X1891030Y676988D01*
X1891512Y677210D01*
X1891586Y677247D01*
X1891734Y677358D01*
X1891956Y677507D01*
X1892216Y677729D01*
X1892512Y678025D01*
X1892808Y678358D01*
X1893067Y678729D01*
X1893289Y679173D01*
X1893327Y679247D01*
X1893364Y679395D01*
X1893438Y679692D01*
X1893549Y680099D01*
X1893660Y680618D01*
X1893734Y681247D01*
X1893771Y681988D01*
X1893808Y682840D01*
Y692801D01*
X1896956D01*
Y674211D01*
D02*
G37*
G36*
X2095787Y693172D02*
X2096343Y693135D01*
X2096972Y693061D01*
X2097602Y692950D01*
X2098231Y692801D01*
X2098824Y692616D01*
X2098898Y692579D01*
X2099083Y692505D01*
X2099342Y692394D01*
X2099676Y692246D01*
X2100046Y692024D01*
X2100416Y691802D01*
X2100750Y691505D01*
X2101046Y691209D01*
X2101083Y691172D01*
X2101157Y691061D01*
X2101268Y690876D01*
X2101416Y690654D01*
X2101601Y690320D01*
X2101749Y689987D01*
X2101897Y689579D01*
X2102009Y689098D01*
Y689061D01*
X2102046Y688950D01*
X2102083Y688728D01*
X2102120Y688431D01*
Y688024D01*
X2102157Y687543D01*
X2102194Y686913D01*
Y686209D01*
Y681988D01*
Y681951D01*
Y681803D01*
Y681580D01*
Y681284D01*
Y680951D01*
Y680543D01*
X2102231Y679655D01*
Y678729D01*
X2102268Y677803D01*
X2102305Y677396D01*
Y677025D01*
X2102342Y676692D01*
X2102379Y676433D01*
Y676396D01*
X2102416Y676247D01*
X2102453Y676025D01*
X2102564Y675729D01*
X2102638Y675396D01*
X2102786Y675025D01*
X2102971Y674618D01*
X2103157Y674211D01*
X2099861D01*
X2099824Y674248D01*
X2099787Y674396D01*
X2099713Y674581D01*
X2099601Y674877D01*
X2099490Y675211D01*
X2099416Y675618D01*
X2099342Y676062D01*
X2099268Y676544D01*
X2099231D01*
X2099194Y676470D01*
X2098972Y676285D01*
X2098639Y676025D01*
X2098194Y675692D01*
X2097639Y675359D01*
X2097083Y674988D01*
X2096491Y674655D01*
X2095861Y674396D01*
X2095787Y674359D01*
X2095565Y674322D01*
X2095232Y674211D01*
X2094824Y674100D01*
X2094306Y673988D01*
X2093713Y673914D01*
X2093047Y673840D01*
X2092380Y673803D01*
X2092084D01*
X2091862Y673840D01*
X2091602D01*
X2091306Y673877D01*
X2090639Y673988D01*
X2089899Y674174D01*
X2089084Y674433D01*
X2088343Y674803D01*
X2087677Y675285D01*
X2087603Y675359D01*
X2087418Y675544D01*
X2087158Y675877D01*
X2086862Y676322D01*
X2086566Y676877D01*
X2086307Y677507D01*
X2086121Y678284D01*
X2086084Y678655D01*
X2086047Y679099D01*
Y679173D01*
Y679321D01*
X2086084Y679581D01*
X2086121Y679914D01*
X2086196Y680321D01*
X2086307Y680729D01*
X2086455Y681173D01*
X2086640Y681580D01*
X2086677Y681617D01*
X2086751Y681766D01*
X2086899Y681988D01*
X2087084Y682247D01*
X2087307Y682543D01*
X2087603Y682840D01*
X2087899Y683136D01*
X2088269Y683395D01*
X2088306Y683432D01*
X2088454Y683506D01*
X2088640Y683654D01*
X2088936Y683802D01*
X2089269Y683950D01*
X2089677Y684136D01*
X2090084Y684284D01*
X2090565Y684432D01*
X2090602D01*
X2090751Y684469D01*
X2090973Y684543D01*
X2091269Y684580D01*
X2091639Y684654D01*
X2092121Y684728D01*
X2092676Y684839D01*
X2093343Y684913D01*
X2093380D01*
X2093528Y684950D01*
X2093713D01*
X2093972Y684987D01*
X2094269Y685024D01*
X2094639Y685098D01*
X2095046Y685135D01*
X2095491Y685210D01*
X2096380Y685395D01*
X2097343Y685580D01*
X2098194Y685802D01*
X2098602Y685913D01*
X2098972Y686024D01*
Y686061D01*
Y686135D01*
X2099009Y686358D01*
Y686617D01*
Y686765D01*
Y686839D01*
Y686876D01*
Y686913D01*
Y687135D01*
X2098972Y687506D01*
X2098898Y687913D01*
X2098787Y688357D01*
X2098602Y688802D01*
X2098379Y689209D01*
X2098083Y689542D01*
X2098046Y689579D01*
X2097861Y689728D01*
X2097565Y689876D01*
X2097194Y690098D01*
X2096676Y690283D01*
X2096083Y690468D01*
X2095343Y690579D01*
X2094491Y690616D01*
X2094121D01*
X2093750Y690579D01*
X2093232Y690505D01*
X2092713Y690431D01*
X2092158Y690283D01*
X2091639Y690098D01*
X2091195Y689839D01*
X2091158Y689802D01*
X2091010Y689691D01*
X2090825Y689505D01*
X2090602Y689209D01*
X2090380Y688839D01*
X2090121Y688357D01*
X2089899Y687765D01*
X2089677Y687098D01*
X2086603Y687506D01*
Y687543D01*
X2086640Y687580D01*
Y687691D01*
X2086677Y687839D01*
X2086788Y688172D01*
X2086936Y688654D01*
X2087121Y689135D01*
X2087343Y689654D01*
X2087640Y690172D01*
X2087973Y690654D01*
X2088010Y690691D01*
X2088158Y690839D01*
X2088380Y691061D01*
X2088677Y691357D01*
X2089084Y691653D01*
X2089565Y691950D01*
X2090121Y692283D01*
X2090751Y692542D01*
X2090788D01*
X2090825Y692579D01*
X2090936Y692616D01*
X2091084Y692653D01*
X2091454Y692764D01*
X2091973Y692875D01*
X2092565Y692987D01*
X2093306Y693098D01*
X2094084Y693172D01*
X2094972Y693209D01*
X2095380D01*
X2095787Y693172D01*
D02*
G37*
G36*
X2044015D02*
X2044570Y693135D01*
X2045200Y693061D01*
X2045829Y692950D01*
X2046459Y692801D01*
X2047051Y692616D01*
X2047125Y692579D01*
X2047311Y692505D01*
X2047570Y692394D01*
X2047903Y692246D01*
X2048273Y692024D01*
X2048644Y691802D01*
X2048977Y691505D01*
X2049273Y691209D01*
X2049310Y691172D01*
X2049384Y691061D01*
X2049496Y690876D01*
X2049644Y690654D01*
X2049829Y690320D01*
X2049977Y689987D01*
X2050125Y689579D01*
X2050236Y689098D01*
Y689061D01*
X2050273Y688950D01*
X2050310Y688728D01*
X2050347Y688431D01*
Y688024D01*
X2050384Y687543D01*
X2050421Y686913D01*
Y686209D01*
Y681988D01*
Y681951D01*
Y681803D01*
Y681580D01*
Y681284D01*
Y680951D01*
Y680543D01*
X2050458Y679655D01*
Y678729D01*
X2050495Y677803D01*
X2050533Y677396D01*
Y677025D01*
X2050569Y676692D01*
X2050607Y676433D01*
Y676396D01*
X2050644Y676247D01*
X2050681Y676025D01*
X2050792Y675729D01*
X2050866Y675396D01*
X2051014Y675025D01*
X2051199Y674618D01*
X2051384Y674211D01*
X2048088D01*
X2048051Y674248D01*
X2048014Y674396D01*
X2047940Y674581D01*
X2047829Y674877D01*
X2047718Y675211D01*
X2047644Y675618D01*
X2047570Y676062D01*
X2047496Y676544D01*
X2047459D01*
X2047422Y676470D01*
X2047200Y676285D01*
X2046866Y676025D01*
X2046422Y675692D01*
X2045866Y675359D01*
X2045311Y674988D01*
X2044718Y674655D01*
X2044089Y674396D01*
X2044015Y674359D01*
X2043793Y674322D01*
X2043459Y674211D01*
X2043052Y674100D01*
X2042533Y673988D01*
X2041941Y673914D01*
X2041274Y673840D01*
X2040608Y673803D01*
X2040311D01*
X2040089Y673840D01*
X2039830D01*
X2039534Y673877D01*
X2038867Y673988D01*
X2038126Y674174D01*
X2037312Y674433D01*
X2036571Y674803D01*
X2035904Y675285D01*
X2035830Y675359D01*
X2035645Y675544D01*
X2035386Y675877D01*
X2035090Y676322D01*
X2034793Y676877D01*
X2034534Y677507D01*
X2034349Y678284D01*
X2034312Y678655D01*
X2034275Y679099D01*
Y679173D01*
Y679321D01*
X2034312Y679581D01*
X2034349Y679914D01*
X2034423Y680321D01*
X2034534Y680729D01*
X2034682Y681173D01*
X2034868Y681580D01*
X2034904Y681617D01*
X2034979Y681766D01*
X2035127Y681988D01*
X2035312Y682247D01*
X2035534Y682543D01*
X2035830Y682840D01*
X2036127Y683136D01*
X2036497Y683395D01*
X2036534Y683432D01*
X2036682Y683506D01*
X2036867Y683654D01*
X2037164Y683802D01*
X2037497Y683950D01*
X2037904Y684136D01*
X2038311Y684284D01*
X2038793Y684432D01*
X2038830D01*
X2038978Y684469D01*
X2039200Y684543D01*
X2039497Y684580D01*
X2039867Y684654D01*
X2040348Y684728D01*
X2040904Y684839D01*
X2041570Y684913D01*
X2041608D01*
X2041756Y684950D01*
X2041941D01*
X2042200Y684987D01*
X2042496Y685024D01*
X2042867Y685098D01*
X2043274Y685135D01*
X2043718Y685210D01*
X2044607Y685395D01*
X2045570Y685580D01*
X2046422Y685802D01*
X2046829Y685913D01*
X2047200Y686024D01*
Y686061D01*
Y686135D01*
X2047236Y686358D01*
Y686617D01*
Y686765D01*
Y686839D01*
Y686876D01*
Y686913D01*
Y687135D01*
X2047200Y687506D01*
X2047125Y687913D01*
X2047014Y688357D01*
X2046829Y688802D01*
X2046607Y689209D01*
X2046311Y689542D01*
X2046274Y689579D01*
X2046089Y689728D01*
X2045792Y689876D01*
X2045422Y690098D01*
X2044904Y690283D01*
X2044311Y690468D01*
X2043570Y690579D01*
X2042719Y690616D01*
X2042348D01*
X2041978Y690579D01*
X2041459Y690505D01*
X2040941Y690431D01*
X2040385Y690283D01*
X2039867Y690098D01*
X2039422Y689839D01*
X2039386Y689802D01*
X2039237Y689691D01*
X2039052Y689505D01*
X2038830Y689209D01*
X2038608Y688839D01*
X2038349Y688357D01*
X2038126Y687765D01*
X2037904Y687098D01*
X2034830Y687506D01*
Y687543D01*
X2034868Y687580D01*
Y687691D01*
X2034904Y687839D01*
X2035016Y688172D01*
X2035164Y688654D01*
X2035349Y689135D01*
X2035571Y689654D01*
X2035867Y690172D01*
X2036201Y690654D01*
X2036238Y690691D01*
X2036386Y690839D01*
X2036608Y691061D01*
X2036904Y691357D01*
X2037312Y691653D01*
X2037793Y691950D01*
X2038349Y692283D01*
X2038978Y692542D01*
X2039015D01*
X2039052Y692579D01*
X2039163Y692616D01*
X2039311Y692653D01*
X2039682Y692764D01*
X2040200Y692875D01*
X2040793Y692987D01*
X2041533Y693098D01*
X2042311Y693172D01*
X2043200Y693209D01*
X2043607D01*
X2044015Y693172D01*
D02*
G37*
G36*
X1938433D02*
X1938988Y693135D01*
X1939618Y693061D01*
X1940248Y692950D01*
X1940877Y692801D01*
X1941470Y692616D01*
X1941544Y692579D01*
X1941729Y692505D01*
X1941988Y692394D01*
X1942321Y692246D01*
X1942692Y692024D01*
X1943062Y691802D01*
X1943396Y691505D01*
X1943692Y691209D01*
X1943729Y691172D01*
X1943803Y691061D01*
X1943914Y690876D01*
X1944062Y690654D01*
X1944247Y690320D01*
X1944395Y689987D01*
X1944543Y689579D01*
X1944655Y689098D01*
Y689061D01*
X1944692Y688950D01*
X1944729Y688728D01*
X1944766Y688431D01*
Y688024D01*
X1944803Y687543D01*
X1944840Y686913D01*
Y686209D01*
Y681988D01*
Y681951D01*
Y681803D01*
Y681580D01*
Y681284D01*
Y680951D01*
Y680543D01*
X1944877Y679655D01*
Y678729D01*
X1944914Y677803D01*
X1944951Y677396D01*
Y677025D01*
X1944988Y676692D01*
X1945025Y676433D01*
Y676396D01*
X1945062Y676247D01*
X1945099Y676025D01*
X1945210Y675729D01*
X1945284Y675396D01*
X1945432Y675025D01*
X1945617Y674618D01*
X1945803Y674211D01*
X1942507D01*
X1942470Y674248D01*
X1942433Y674396D01*
X1942359Y674581D01*
X1942247Y674877D01*
X1942136Y675211D01*
X1942062Y675618D01*
X1941988Y676062D01*
X1941914Y676544D01*
X1941877D01*
X1941840Y676470D01*
X1941618Y676285D01*
X1941285Y676025D01*
X1940840Y675692D01*
X1940285Y675359D01*
X1939729Y674988D01*
X1939137Y674655D01*
X1938507Y674396D01*
X1938433Y674359D01*
X1938211Y674322D01*
X1937878Y674211D01*
X1937470Y674100D01*
X1936952Y673988D01*
X1936359Y673914D01*
X1935692Y673840D01*
X1935026Y673803D01*
X1934730D01*
X1934507Y673840D01*
X1934248D01*
X1933952Y673877D01*
X1933285Y673988D01*
X1932545Y674174D01*
X1931730Y674433D01*
X1930989Y674803D01*
X1930323Y675285D01*
X1930249Y675359D01*
X1930063Y675544D01*
X1929804Y675877D01*
X1929508Y676322D01*
X1929212Y676877D01*
X1928952Y677507D01*
X1928767Y678284D01*
X1928730Y678655D01*
X1928693Y679099D01*
Y679173D01*
Y679321D01*
X1928730Y679581D01*
X1928767Y679914D01*
X1928841Y680321D01*
X1928952Y680729D01*
X1929101Y681173D01*
X1929286Y681580D01*
X1929323Y681617D01*
X1929397Y681766D01*
X1929545Y681988D01*
X1929730Y682247D01*
X1929952Y682543D01*
X1930249Y682840D01*
X1930545Y683136D01*
X1930915Y683395D01*
X1930952Y683432D01*
X1931100Y683506D01*
X1931286Y683654D01*
X1931582Y683802D01*
X1931915Y683950D01*
X1932323Y684136D01*
X1932730Y684284D01*
X1933211Y684432D01*
X1933248D01*
X1933396Y684469D01*
X1933619Y684543D01*
X1933915Y684580D01*
X1934285Y684654D01*
X1934767Y684728D01*
X1935322Y684839D01*
X1935989Y684913D01*
X1936026D01*
X1936174Y684950D01*
X1936359D01*
X1936618Y684987D01*
X1936915Y685024D01*
X1937285Y685098D01*
X1937692Y685135D01*
X1938137Y685210D01*
X1939026Y685395D01*
X1939988Y685580D01*
X1940840Y685802D01*
X1941248Y685913D01*
X1941618Y686024D01*
Y686061D01*
Y686135D01*
X1941655Y686358D01*
Y686617D01*
Y686765D01*
Y686839D01*
Y686876D01*
Y686913D01*
Y687135D01*
X1941618Y687506D01*
X1941544Y687913D01*
X1941433Y688357D01*
X1941248Y688802D01*
X1941025Y689209D01*
X1940729Y689542D01*
X1940692Y689579D01*
X1940507Y689728D01*
X1940211Y689876D01*
X1939840Y690098D01*
X1939322Y690283D01*
X1938729Y690468D01*
X1937989Y690579D01*
X1937137Y690616D01*
X1936767D01*
X1936396Y690579D01*
X1935878Y690505D01*
X1935359Y690431D01*
X1934804Y690283D01*
X1934285Y690098D01*
X1933841Y689839D01*
X1933804Y689802D01*
X1933656Y689691D01*
X1933471Y689505D01*
X1933248Y689209D01*
X1933026Y688839D01*
X1932767Y688357D01*
X1932545Y687765D01*
X1932323Y687098D01*
X1929249Y687506D01*
Y687543D01*
X1929286Y687580D01*
Y687691D01*
X1929323Y687839D01*
X1929434Y688172D01*
X1929582Y688654D01*
X1929767Y689135D01*
X1929989Y689654D01*
X1930286Y690172D01*
X1930619Y690654D01*
X1930656Y690691D01*
X1930804Y690839D01*
X1931026Y691061D01*
X1931323Y691357D01*
X1931730Y691653D01*
X1932211Y691950D01*
X1932767Y692283D01*
X1933396Y692542D01*
X1933434D01*
X1933471Y692579D01*
X1933582Y692616D01*
X1933730Y692653D01*
X1934100Y692764D01*
X1934619Y692875D01*
X1935211Y692987D01*
X1935952Y693098D01*
X1936729Y693172D01*
X1937618Y693209D01*
X1938026D01*
X1938433Y693172D01*
D02*
G37*
G36*
X1923472Y692801D02*
X1926656D01*
Y690357D01*
X1923472D01*
Y679432D01*
Y679358D01*
Y679210D01*
Y678988D01*
X1923509Y678729D01*
X1923546Y678136D01*
X1923583Y677877D01*
X1923620Y677692D01*
X1923657Y677618D01*
X1923768Y677470D01*
X1923916Y677284D01*
X1924175Y677099D01*
X1924249Y677062D01*
X1924435Y676988D01*
X1924768Y676914D01*
X1925249Y676877D01*
X1925620D01*
X1925805Y676914D01*
X1926064D01*
X1926360Y676951D01*
X1926656Y676988D01*
X1927064Y674211D01*
X1926990D01*
X1926842Y674174D01*
X1926582Y674137D01*
X1926249Y674100D01*
X1925879Y674026D01*
X1925471Y673988D01*
X1924657Y673951D01*
X1924360D01*
X1924064Y673988D01*
X1923694Y674026D01*
X1923249Y674063D01*
X1922805Y674174D01*
X1922398Y674285D01*
X1921990Y674470D01*
X1921953Y674507D01*
X1921842Y674581D01*
X1921694Y674692D01*
X1921472Y674877D01*
X1921287Y675062D01*
X1921064Y675322D01*
X1920842Y675581D01*
X1920694Y675914D01*
Y675951D01*
X1920620Y676099D01*
X1920583Y676359D01*
X1920509Y676729D01*
X1920435Y677210D01*
X1920398Y677507D01*
Y677840D01*
X1920361Y678247D01*
X1920324Y678655D01*
Y679099D01*
Y679618D01*
Y690357D01*
X1917991D01*
Y692801D01*
X1920324D01*
Y697393D01*
X1923472Y699282D01*
Y692801D01*
D02*
G37*
G36*
X2058347Y690691D02*
X2058383Y690727D01*
X2058421Y690802D01*
X2058532Y690913D01*
X2058717Y691098D01*
X2058902Y691283D01*
X2059124Y691505D01*
X2059420Y691727D01*
X2059717Y691950D01*
X2060457Y692431D01*
X2061309Y692801D01*
X2061791Y692987D01*
X2062309Y693098D01*
X2062865Y693172D01*
X2063420Y693209D01*
X2063716D01*
X2064050Y693172D01*
X2064457Y693135D01*
X2064938Y693024D01*
X2065494Y692913D01*
X2066086Y692727D01*
X2066642Y692505D01*
X2066716Y692468D01*
X2066901Y692394D01*
X2067197Y692209D01*
X2067531Y691987D01*
X2067938Y691727D01*
X2068345Y691394D01*
X2068790Y690987D01*
X2069160Y690542D01*
X2069197Y690505D01*
X2069308Y690320D01*
X2069494Y690061D01*
X2069716Y689728D01*
X2069975Y689283D01*
X2070234Y688765D01*
X2070493Y688172D01*
X2070716Y687543D01*
Y687506D01*
X2070753Y687469D01*
X2070790Y687357D01*
X2070827Y687246D01*
X2070901Y686876D01*
X2071012Y686395D01*
X2071123Y685839D01*
X2071234Y685210D01*
X2071271Y684506D01*
X2071308Y683765D01*
Y683728D01*
Y683543D01*
Y683321D01*
X2071271Y682988D01*
X2071234Y682580D01*
X2071197Y682136D01*
X2071123Y681617D01*
X2071012Y681062D01*
X2070716Y679877D01*
X2070530Y679247D01*
X2070308Y678655D01*
X2070049Y678025D01*
X2069716Y677470D01*
X2069345Y676914D01*
X2068938Y676396D01*
X2068901Y676359D01*
X2068827Y676285D01*
X2068716Y676173D01*
X2068531Y675988D01*
X2068271Y675803D01*
X2068012Y675581D01*
X2067716Y675359D01*
X2067346Y675099D01*
X2066938Y674877D01*
X2066531Y674618D01*
X2065531Y674211D01*
X2065013Y674026D01*
X2064457Y673914D01*
X2063864Y673840D01*
X2063272Y673803D01*
X2063124D01*
X2062939Y673840D01*
X2062716D01*
X2062457Y673877D01*
X2062124Y673951D01*
X2061383Y674137D01*
X2060976Y674285D01*
X2060569Y674470D01*
X2060124Y674692D01*
X2059717Y674951D01*
X2059272Y675285D01*
X2058865Y675655D01*
X2058495Y676062D01*
X2058124Y676544D01*
Y674211D01*
X2055199D01*
Y699838D01*
X2058347D01*
Y690691D01*
D02*
G37*
G36*
X2023646Y693172D02*
X2023943Y693135D01*
X2024313Y693061D01*
X2024720Y692987D01*
X2025202Y692875D01*
X2025646Y692764D01*
X2026165Y692579D01*
X2026646Y692394D01*
X2027165Y692135D01*
X2027683Y691839D01*
X2028201Y691505D01*
X2028683Y691098D01*
X2029127Y690654D01*
X2029164Y690616D01*
X2029238Y690542D01*
X2029350Y690394D01*
X2029498Y690172D01*
X2029683Y689913D01*
X2029868Y689616D01*
X2030090Y689246D01*
X2030312Y688802D01*
X2030535Y688320D01*
X2030757Y687802D01*
X2030942Y687209D01*
X2031127Y686580D01*
X2031275Y685876D01*
X2031386Y685135D01*
X2031460Y684358D01*
X2031497Y683506D01*
Y683469D01*
Y683321D01*
Y683062D01*
X2031460Y682691D01*
X2017573D01*
Y682654D01*
Y682543D01*
X2017610Y682395D01*
Y682173D01*
X2017647Y681914D01*
X2017721Y681617D01*
X2017832Y680951D01*
X2018054Y680210D01*
X2018351Y679395D01*
X2018758Y678655D01*
X2019276Y677988D01*
X2019314D01*
X2019350Y677914D01*
X2019573Y677729D01*
X2019906Y677470D01*
X2020350Y677210D01*
X2020943Y676914D01*
X2021610Y676655D01*
X2022350Y676470D01*
X2022758Y676433D01*
X2023202Y676396D01*
X2023498D01*
X2023832Y676433D01*
X2024239Y676507D01*
X2024683Y676618D01*
X2025202Y676766D01*
X2025683Y676988D01*
X2026165Y677284D01*
X2026202Y677321D01*
X2026387Y677470D01*
X2026609Y677692D01*
X2026868Y677988D01*
X2027165Y678395D01*
X2027498Y678914D01*
X2027831Y679507D01*
X2028127Y680210D01*
X2031386Y679803D01*
Y679766D01*
X2031349Y679692D01*
X2031312Y679544D01*
X2031238Y679321D01*
X2031127Y679099D01*
X2031016Y678803D01*
X2030720Y678173D01*
X2030349Y677470D01*
X2029831Y676729D01*
X2029238Y676025D01*
X2028498Y675359D01*
X2028461D01*
X2028387Y675285D01*
X2028275Y675211D01*
X2028127Y675099D01*
X2027905Y674988D01*
X2027683Y674877D01*
X2027387Y674729D01*
X2027054Y674581D01*
X2026683Y674433D01*
X2026313Y674285D01*
X2025387Y674063D01*
X2024350Y673877D01*
X2023202Y673803D01*
X2022795D01*
X2022535Y673840D01*
X2022202Y673877D01*
X2021795Y673951D01*
X2021350Y674026D01*
X2020869Y674100D01*
X2019832Y674396D01*
X2019276Y674618D01*
X2018758Y674840D01*
X2018203Y675136D01*
X2017684Y675470D01*
X2017203Y675840D01*
X2016721Y676285D01*
X2016684Y676322D01*
X2016610Y676396D01*
X2016499Y676544D01*
X2016351Y676766D01*
X2016166Y677025D01*
X2015981Y677321D01*
X2015758Y677692D01*
X2015536Y678099D01*
X2015314Y678581D01*
X2015092Y679099D01*
X2014907Y679692D01*
X2014721Y680321D01*
X2014573Y680988D01*
X2014462Y681729D01*
X2014388Y682506D01*
X2014351Y683321D01*
Y683358D01*
Y683543D01*
Y683765D01*
X2014388Y684099D01*
X2014425Y684506D01*
X2014462Y684950D01*
X2014536Y685469D01*
X2014647Y685987D01*
X2014944Y687172D01*
X2015129Y687765D01*
X2015351Y688394D01*
X2015647Y688987D01*
X2015981Y689542D01*
X2016351Y690098D01*
X2016758Y690616D01*
X2016795Y690654D01*
X2016869Y690727D01*
X2017018Y690839D01*
X2017203Y691024D01*
X2017425Y691209D01*
X2017721Y691431D01*
X2018054Y691690D01*
X2018462Y691913D01*
X2018869Y692172D01*
X2019350Y692394D01*
X2019869Y692616D01*
X2020424Y692801D01*
X2021017Y692987D01*
X2021647Y693098D01*
X2022313Y693172D01*
X2023017Y693209D01*
X2023387D01*
X2023646Y693172D01*
D02*
G37*
G36*
X1975762D02*
X1976096Y693135D01*
X1976466Y693061D01*
X1976873Y692987D01*
X1977355Y692913D01*
X1978355Y692579D01*
X1978873Y692394D01*
X1979392Y692135D01*
X1979910Y691876D01*
X1980429Y691505D01*
X1980910Y691135D01*
X1981391Y690691D01*
X1981429Y690654D01*
X1981503Y690579D01*
X1981614Y690431D01*
X1981762Y690246D01*
X1981947Y689987D01*
X1982169Y689654D01*
X1982391Y689283D01*
X1982614Y688876D01*
X1982836Y688431D01*
X1983058Y687876D01*
X1983280Y687320D01*
X1983465Y686691D01*
X1983613Y686024D01*
X1983725Y685321D01*
X1983799Y684580D01*
X1983836Y683765D01*
Y683728D01*
Y683617D01*
Y683432D01*
Y683173D01*
X1983799Y682877D01*
X1983762Y682506D01*
Y682136D01*
X1983688Y681729D01*
X1983577Y680803D01*
X1983354Y679877D01*
X1983095Y678951D01*
X1982725Y678099D01*
Y678062D01*
X1982688Y678025D01*
X1982614Y677914D01*
X1982540Y677766D01*
X1982280Y677396D01*
X1981947Y676951D01*
X1981503Y676433D01*
X1980947Y675914D01*
X1980318Y675396D01*
X1979577Y674914D01*
X1979540D01*
X1979503Y674877D01*
X1979392Y674803D01*
X1979207Y674729D01*
X1979021Y674655D01*
X1978799Y674581D01*
X1978244Y674359D01*
X1977614Y674174D01*
X1976836Y673988D01*
X1976022Y673840D01*
X1975133Y673803D01*
X1974763D01*
X1974466Y673840D01*
X1974133Y673877D01*
X1973763Y673951D01*
X1973318Y674026D01*
X1972874Y674100D01*
X1971874Y674396D01*
X1971319Y674618D01*
X1970800Y674840D01*
X1970282Y675136D01*
X1969763Y675470D01*
X1969282Y675840D01*
X1968800Y676285D01*
X1968763Y676322D01*
X1968689Y676396D01*
X1968578Y676544D01*
X1968430Y676766D01*
X1968245Y677025D01*
X1968060Y677321D01*
X1967837Y677692D01*
X1967615Y678136D01*
X1967393Y678618D01*
X1967171Y679173D01*
X1966986Y679766D01*
X1966800Y680395D01*
X1966652Y681099D01*
X1966541Y681840D01*
X1966467Y682654D01*
X1966430Y683506D01*
Y683580D01*
Y683728D01*
X1966467Y683988D01*
Y684358D01*
X1966504Y684765D01*
X1966578Y685284D01*
X1966652Y685802D01*
X1966800Y686395D01*
X1966949Y686987D01*
X1967134Y687617D01*
X1967356Y688283D01*
X1967652Y688913D01*
X1967948Y689505D01*
X1968356Y690098D01*
X1968763Y690654D01*
X1969282Y691135D01*
X1969319Y691172D01*
X1969393Y691209D01*
X1969541Y691320D01*
X1969726Y691468D01*
X1969948Y691616D01*
X1970244Y691802D01*
X1970541Y691987D01*
X1970911Y692172D01*
X1971319Y692357D01*
X1971763Y692542D01*
X1972763Y692875D01*
X1973911Y693135D01*
X1974503Y693172D01*
X1975133Y693209D01*
X1975503D01*
X1975762Y693172D01*
D02*
G37*
G36*
X2124155Y661975D02*
X2124562Y661938D01*
X2125043Y661864D01*
X2125562Y661753D01*
X2126117Y661605D01*
X2126636Y661382D01*
X2126710Y661345D01*
X2126858Y661271D01*
X2127117Y661160D01*
X2127413Y660975D01*
X2127784Y660753D01*
X2128117Y660457D01*
X2128450Y660160D01*
X2128747Y659790D01*
X2128784Y659753D01*
X2128858Y659605D01*
X2128969Y659420D01*
X2129154Y659160D01*
X2129302Y658790D01*
X2129450Y658420D01*
X2129635Y657975D01*
X2129747Y657494D01*
Y657457D01*
X2129783Y657309D01*
X2129821Y657087D01*
X2129858Y656790D01*
Y656346D01*
X2129895Y655827D01*
X2129932Y655198D01*
Y654420D01*
Y643014D01*
X2126784D01*
Y654272D01*
Y654309D01*
Y654346D01*
Y654605D01*
Y654939D01*
X2126747Y655346D01*
X2126710Y655827D01*
X2126636Y656309D01*
X2126525Y656753D01*
X2126414Y657161D01*
Y657198D01*
X2126340Y657309D01*
X2126228Y657494D01*
X2126117Y657716D01*
X2125932Y657938D01*
X2125710Y658198D01*
X2125414Y658457D01*
X2125080Y658679D01*
X2125043Y658716D01*
X2124932Y658790D01*
X2124710Y658864D01*
X2124451Y658975D01*
X2124155Y659086D01*
X2123784Y659197D01*
X2123340Y659234D01*
X2122895Y659271D01*
X2122710D01*
X2122562Y659234D01*
X2122192Y659197D01*
X2121710Y659123D01*
X2121192Y658938D01*
X2120599Y658716D01*
X2120007Y658420D01*
X2119451Y657975D01*
X2119377Y657901D01*
X2119229Y657716D01*
X2119118Y657568D01*
X2119007Y657383D01*
X2118859Y657161D01*
X2118748Y656901D01*
X2118600Y656605D01*
X2118451Y656235D01*
X2118340Y655827D01*
X2118229Y655383D01*
X2118155Y654902D01*
X2118081Y654383D01*
X2118007Y653754D01*
Y653124D01*
Y643014D01*
X2114859D01*
Y661605D01*
X2117674D01*
Y658938D01*
X2117711Y658975D01*
X2117785Y659086D01*
X2117896Y659234D01*
X2118044Y659420D01*
X2118266Y659642D01*
X2118526Y659901D01*
X2118822Y660197D01*
X2119192Y660494D01*
X2119562Y660753D01*
X2120007Y661049D01*
X2120488Y661308D01*
X2121007Y661531D01*
X2121599Y661716D01*
X2122192Y661864D01*
X2122858Y661975D01*
X2123562Y662012D01*
X2123858D01*
X2124155Y661975D01*
D02*
G37*
G36*
X1949061D02*
X1949469Y661901D01*
X1949950Y661753D01*
X1950469Y661568D01*
X1951061Y661308D01*
X1951691Y660975D01*
X1950543Y658086D01*
X1950506Y658123D01*
X1950358Y658198D01*
X1950135Y658309D01*
X1949839Y658420D01*
X1949506Y658531D01*
X1949099Y658642D01*
X1948691Y658716D01*
X1948284Y658753D01*
X1948099D01*
X1947914Y658716D01*
X1947654Y658679D01*
X1947395Y658605D01*
X1947062Y658494D01*
X1946728Y658346D01*
X1946432Y658123D01*
X1946395Y658086D01*
X1946284Y658012D01*
X1946173Y657864D01*
X1945988Y657679D01*
X1945803Y657420D01*
X1945617Y657124D01*
X1945432Y656790D01*
X1945284Y656383D01*
X1945247Y656309D01*
X1945210Y656087D01*
X1945136Y655753D01*
X1945025Y655309D01*
X1944914Y654753D01*
X1944840Y654124D01*
X1944803Y653457D01*
X1944766Y652717D01*
Y643014D01*
X1941618D01*
Y661605D01*
X1944469D01*
Y658790D01*
X1944506Y658827D01*
X1944655Y659086D01*
X1944840Y659420D01*
X1945136Y659827D01*
X1945432Y660234D01*
X1945766Y660679D01*
X1946099Y661049D01*
X1946432Y661345D01*
X1946469Y661382D01*
X1946580Y661457D01*
X1946803Y661568D01*
X1947025Y661679D01*
X1947321Y661790D01*
X1947691Y661901D01*
X1948062Y661975D01*
X1948469Y662012D01*
X1948728D01*
X1949061Y661975D01*
D02*
G37*
G36*
X1887327D02*
X1887735Y661901D01*
X1888216Y661753D01*
X1888734Y661568D01*
X1889327Y661308D01*
X1889957Y660975D01*
X1888808Y658086D01*
X1888772Y658123D01*
X1888623Y658198D01*
X1888401Y658309D01*
X1888105Y658420D01*
X1887772Y658531D01*
X1887364Y658642D01*
X1886957Y658716D01*
X1886550Y658753D01*
X1886364D01*
X1886179Y658716D01*
X1885920Y658679D01*
X1885661Y658605D01*
X1885327Y658494D01*
X1884994Y658346D01*
X1884698Y658123D01*
X1884661Y658086D01*
X1884550Y658012D01*
X1884439Y657864D01*
X1884253Y657679D01*
X1884068Y657420D01*
X1883883Y657124D01*
X1883698Y656790D01*
X1883550Y656383D01*
X1883513Y656309D01*
X1883476Y656087D01*
X1883402Y655753D01*
X1883291Y655309D01*
X1883179Y654753D01*
X1883105Y654124D01*
X1883068Y653457D01*
X1883031Y652717D01*
Y643014D01*
X1879884D01*
Y661605D01*
X1882735D01*
Y658790D01*
X1882772Y658827D01*
X1882920Y659086D01*
X1883105Y659420D01*
X1883402Y659827D01*
X1883698Y660234D01*
X1884031Y660679D01*
X1884364Y661049D01*
X1884698Y661345D01*
X1884735Y661382D01*
X1884846Y661457D01*
X1885068Y661568D01*
X1885290Y661679D01*
X1885587Y661790D01*
X1885957Y661901D01*
X1886327Y661975D01*
X1886735Y662012D01*
X1886994D01*
X1887327Y661975D01*
D02*
G37*
G36*
X2029201D02*
X2029461D01*
X2029720Y661938D01*
X2030349Y661827D01*
X2031016Y661642D01*
X2031720Y661345D01*
X2032423Y660975D01*
X2033016Y660457D01*
X2033090Y660383D01*
X2033238Y660160D01*
X2033497Y659827D01*
X2033608Y659568D01*
X2033757Y659309D01*
X2033905Y658975D01*
X2034016Y658642D01*
X2034164Y658272D01*
X2034275Y657827D01*
X2034349Y657383D01*
X2034423Y656864D01*
X2034497Y656346D01*
Y655753D01*
Y643014D01*
X2031349D01*
Y654679D01*
Y654716D01*
Y654753D01*
Y654976D01*
Y655309D01*
X2031312Y655716D01*
X2031275Y656161D01*
X2031238Y656605D01*
X2031164Y657049D01*
X2031053Y657383D01*
Y657420D01*
X2030979Y657531D01*
X2030905Y657679D01*
X2030794Y657864D01*
X2030646Y658086D01*
X2030461Y658309D01*
X2030238Y658531D01*
X2029942Y658753D01*
X2029905Y658790D01*
X2029794Y658827D01*
X2029646Y658901D01*
X2029386Y659012D01*
X2029127Y659123D01*
X2028794Y659197D01*
X2028461Y659234D01*
X2028053Y659271D01*
X2027868D01*
X2027720Y659234D01*
X2027350Y659197D01*
X2026905Y659123D01*
X2026387Y658938D01*
X2025831Y658716D01*
X2025276Y658383D01*
X2024757Y657938D01*
X2024720Y657864D01*
X2024572Y657679D01*
X2024350Y657383D01*
X2024128Y656938D01*
X2023869Y656346D01*
X2023683Y655642D01*
X2023535Y654790D01*
X2023461Y653791D01*
Y643014D01*
X2020313D01*
Y655050D01*
Y655087D01*
Y655161D01*
Y655235D01*
Y655383D01*
X2020276Y655790D01*
X2020202Y656235D01*
X2020128Y656753D01*
X2019980Y657272D01*
X2019795Y657753D01*
X2019536Y658198D01*
X2019499Y658235D01*
X2019388Y658383D01*
X2019202Y658531D01*
X2018943Y658753D01*
X2018610Y658938D01*
X2018165Y659123D01*
X2017647Y659234D01*
X2017018Y659271D01*
X2016795D01*
X2016536Y659234D01*
X2016240Y659197D01*
X2015869Y659086D01*
X2015425Y658975D01*
X2015018Y658790D01*
X2014573Y658568D01*
X2014536Y658531D01*
X2014388Y658420D01*
X2014203Y658272D01*
X2013944Y658049D01*
X2013685Y657753D01*
X2013425Y657383D01*
X2013166Y656975D01*
X2012944Y656494D01*
X2012907Y656420D01*
X2012870Y656235D01*
X2012796Y655938D01*
X2012685Y655531D01*
X2012574Y654976D01*
X2012499Y654309D01*
X2012462Y653531D01*
X2012425Y652643D01*
Y643014D01*
X2009277D01*
Y661605D01*
X2012092D01*
Y658938D01*
X2012129Y659012D01*
X2012240Y659160D01*
X2012462Y659420D01*
X2012722Y659716D01*
X2013055Y660086D01*
X2013462Y660457D01*
X2013907Y660827D01*
X2014425Y661160D01*
X2014499Y661197D01*
X2014684Y661308D01*
X2014981Y661420D01*
X2015388Y661605D01*
X2015869Y661753D01*
X2016425Y661864D01*
X2017054Y661975D01*
X2017721Y662012D01*
X2018054D01*
X2018462Y661975D01*
X2018906Y661901D01*
X2019462Y661790D01*
X2020017Y661642D01*
X2020573Y661420D01*
X2021091Y661123D01*
X2021165Y661086D01*
X2021313Y660975D01*
X2021535Y660790D01*
X2021832Y660494D01*
X2022128Y660160D01*
X2022461Y659753D01*
X2022758Y659271D01*
X2022980Y658716D01*
X2023017Y658753D01*
X2023091Y658864D01*
X2023202Y659012D01*
X2023387Y659234D01*
X2023609Y659494D01*
X2023869Y659753D01*
X2024165Y660049D01*
X2024535Y660383D01*
X2024943Y660679D01*
X2025350Y660975D01*
X2025831Y661234D01*
X2026350Y661494D01*
X2026905Y661716D01*
X2027498Y661864D01*
X2028090Y661975D01*
X2028757Y662012D01*
X2029016D01*
X2029201Y661975D01*
D02*
G37*
G36*
X2065938D02*
X2066494Y661938D01*
X2067086Y661864D01*
X2067716Y661716D01*
X2068383Y661568D01*
X2069012Y661345D01*
X2069049D01*
X2069086Y661308D01*
X2069271Y661234D01*
X2069568Y661086D01*
X2069938Y660901D01*
X2070345Y660642D01*
X2070753Y660346D01*
X2071123Y660012D01*
X2071456Y659642D01*
X2071493Y659605D01*
X2071567Y659457D01*
X2071716Y659197D01*
X2071901Y658901D01*
X2072086Y658457D01*
X2072271Y657975D01*
X2072419Y657420D01*
X2072567Y656790D01*
X2069494Y656383D01*
Y656457D01*
X2069456Y656605D01*
X2069382Y656864D01*
X2069271Y657198D01*
X2069086Y657531D01*
X2068864Y657901D01*
X2068605Y658272D01*
X2068234Y658605D01*
X2068197Y658642D01*
X2068049Y658716D01*
X2067827Y658864D01*
X2067494Y659012D01*
X2067123Y659160D01*
X2066642Y659309D01*
X2066049Y659383D01*
X2065420Y659420D01*
X2065049D01*
X2064679Y659383D01*
X2064198Y659346D01*
X2063716Y659234D01*
X2063198Y659123D01*
X2062716Y658938D01*
X2062309Y658679D01*
X2062272Y658642D01*
X2062161Y658568D01*
X2062013Y658420D01*
X2061865Y658198D01*
X2061680Y657975D01*
X2061531Y657679D01*
X2061420Y657346D01*
X2061383Y657012D01*
Y656975D01*
Y656901D01*
X2061420Y656790D01*
Y656642D01*
X2061531Y656272D01*
X2061754Y655901D01*
X2061791Y655864D01*
X2061828Y655827D01*
X2061902Y655716D01*
X2062050Y655605D01*
X2062198Y655494D01*
X2062420Y655346D01*
X2062679Y655235D01*
X2062976Y655087D01*
X2063013D01*
X2063087Y655050D01*
X2063235Y655013D01*
X2063494Y654902D01*
X2063864Y654790D01*
X2064346Y654679D01*
X2064642Y654568D01*
X2064975Y654494D01*
X2065346Y654383D01*
X2065753Y654272D01*
X2065790D01*
X2065901Y654235D01*
X2066086Y654198D01*
X2066309Y654124D01*
X2066568Y654050D01*
X2066901Y653976D01*
X2067605Y653754D01*
X2068383Y653531D01*
X2069160Y653272D01*
X2069864Y653013D01*
X2070160Y652902D01*
X2070419Y652791D01*
X2070493Y652754D01*
X2070641Y652680D01*
X2070864Y652569D01*
X2071197Y652383D01*
X2071530Y652161D01*
X2071864Y651865D01*
X2072197Y651532D01*
X2072493Y651161D01*
X2072530Y651124D01*
X2072604Y650976D01*
X2072752Y650754D01*
X2072901Y650421D01*
X2073012Y650013D01*
X2073160Y649569D01*
X2073234Y649050D01*
X2073271Y648458D01*
Y648384D01*
Y648199D01*
X2073234Y647902D01*
X2073160Y647495D01*
X2073049Y647051D01*
X2072863Y646569D01*
X2072641Y646014D01*
X2072345Y645495D01*
X2072308Y645421D01*
X2072160Y645273D01*
X2071975Y645014D01*
X2071678Y644717D01*
X2071271Y644384D01*
X2070827Y644014D01*
X2070308Y643681D01*
X2069679Y643347D01*
X2069642D01*
X2069605Y643310D01*
X2069382Y643236D01*
X2069012Y643125D01*
X2068531Y642977D01*
X2067938Y642829D01*
X2067272Y642718D01*
X2066568Y642644D01*
X2065753Y642607D01*
X2065420D01*
X2065161Y642644D01*
X2064864D01*
X2064494Y642681D01*
X2064124Y642718D01*
X2063716Y642792D01*
X2062827Y642977D01*
X2061902Y643236D01*
X2061013Y643606D01*
X2060605Y643829D01*
X2060235Y644088D01*
X2060198Y644125D01*
X2060161Y644162D01*
X2059939Y644384D01*
X2059606Y644717D01*
X2059235Y645236D01*
X2058828Y645865D01*
X2058421Y646606D01*
X2058087Y647532D01*
X2057828Y648569D01*
X2060939Y649050D01*
Y649013D01*
Y648976D01*
X2061013Y648754D01*
X2061087Y648384D01*
X2061235Y647976D01*
X2061420Y647532D01*
X2061642Y647051D01*
X2061976Y646569D01*
X2062383Y646162D01*
X2062457Y646125D01*
X2062605Y646014D01*
X2062902Y645865D01*
X2063272Y645680D01*
X2063753Y645495D01*
X2064309Y645347D01*
X2064975Y645236D01*
X2065753Y645199D01*
X2066124D01*
X2066494Y645236D01*
X2066975Y645310D01*
X2067494Y645421D01*
X2068049Y645569D01*
X2068531Y645754D01*
X2068975Y646051D01*
X2069012Y646088D01*
X2069160Y646199D01*
X2069308Y646384D01*
X2069530Y646643D01*
X2069716Y646939D01*
X2069901Y647310D01*
X2070012Y647680D01*
X2070049Y648124D01*
Y648162D01*
Y648310D01*
X2070012Y648495D01*
X2069938Y648754D01*
X2069827Y649013D01*
X2069642Y649273D01*
X2069419Y649569D01*
X2069086Y649791D01*
X2069049Y649828D01*
X2068938Y649865D01*
X2068753Y649976D01*
X2068457Y650087D01*
X2068012Y650235D01*
X2067753Y650347D01*
X2067457Y650421D01*
X2067123Y650532D01*
X2066753Y650643D01*
X2066346Y650754D01*
X2065864Y650865D01*
X2065827D01*
X2065716Y650902D01*
X2065531Y650939D01*
X2065309Y651013D01*
X2065013Y651087D01*
X2064679Y651198D01*
X2063976Y651384D01*
X2063161Y651643D01*
X2062383Y651865D01*
X2061642Y652124D01*
X2061309Y652272D01*
X2061050Y652383D01*
X2060976Y652420D01*
X2060828Y652495D01*
X2060605Y652643D01*
X2060309Y652828D01*
X2059976Y653087D01*
X2059643Y653383D01*
X2059309Y653717D01*
X2059013Y654124D01*
X2058976Y654161D01*
X2058902Y654309D01*
X2058791Y654568D01*
X2058680Y654865D01*
X2058569Y655235D01*
X2058458Y655679D01*
X2058383Y656124D01*
X2058347Y656642D01*
Y656716D01*
Y656864D01*
X2058383Y657087D01*
X2058421Y657420D01*
X2058495Y657753D01*
X2058569Y658160D01*
X2058717Y658531D01*
X2058902Y658938D01*
X2058939Y658975D01*
X2059013Y659123D01*
X2059124Y659309D01*
X2059309Y659568D01*
X2059532Y659827D01*
X2059791Y660160D01*
X2060087Y660457D01*
X2060457Y660716D01*
X2060494Y660753D01*
X2060605Y660790D01*
X2060754Y660901D01*
X2060976Y661012D01*
X2061272Y661160D01*
X2061605Y661308D01*
X2062013Y661457D01*
X2062457Y661605D01*
X2062531Y661642D01*
X2062679Y661679D01*
X2062939Y661753D01*
X2063272Y661827D01*
X2063679Y661901D01*
X2064124Y661938D01*
X2064642Y662012D01*
X2065531D01*
X2065938Y661975D01*
D02*
G37*
G36*
X2085047D02*
X2085270D01*
X2085566Y661938D01*
X2086270Y661827D01*
X2087047Y661642D01*
X2087862Y661345D01*
X2088677Y660975D01*
X2089454Y660457D01*
X2089491D01*
X2089529Y660383D01*
X2089751Y660160D01*
X2090084Y659827D01*
X2090491Y659346D01*
X2090899Y658753D01*
X2091306Y658012D01*
X2091676Y657161D01*
X2091936Y656161D01*
X2088862Y655679D01*
Y655716D01*
X2088825Y655753D01*
X2088788Y655976D01*
X2088677Y656309D01*
X2088492Y656716D01*
X2088306Y657161D01*
X2088010Y657642D01*
X2087677Y658086D01*
X2087307Y658457D01*
X2087269Y658494D01*
X2087121Y658605D01*
X2086862Y658753D01*
X2086566Y658938D01*
X2086158Y659123D01*
X2085714Y659271D01*
X2085196Y659383D01*
X2084640Y659420D01*
X2084418D01*
X2084233Y659383D01*
X2083825Y659346D01*
X2083270Y659197D01*
X2082677Y659012D01*
X2082011Y658716D01*
X2081381Y658272D01*
X2081085Y658012D01*
X2080789Y657716D01*
Y657679D01*
X2080715Y657642D01*
X2080641Y657531D01*
X2080566Y657383D01*
X2080455Y657198D01*
X2080307Y656975D01*
X2080196Y656716D01*
X2080048Y656420D01*
X2079900Y656050D01*
X2079789Y655642D01*
X2079641Y655198D01*
X2079530Y654716D01*
X2079455Y654198D01*
X2079381Y653605D01*
X2079307Y652976D01*
Y652309D01*
Y652272D01*
Y652161D01*
Y651939D01*
X2079344Y651717D01*
Y651384D01*
X2079381Y651050D01*
X2079492Y650235D01*
X2079641Y649347D01*
X2079900Y648421D01*
X2080233Y647606D01*
X2080455Y647199D01*
X2080715Y646865D01*
X2080789Y646791D01*
X2080974Y646606D01*
X2081307Y646347D01*
X2081714Y646051D01*
X2082270Y645717D01*
X2082899Y645458D01*
X2083640Y645273D01*
X2084048Y645236D01*
X2084455Y645199D01*
X2084529D01*
X2084751Y645236D01*
X2085121Y645273D01*
X2085529Y645347D01*
X2086010Y645458D01*
X2086529Y645680D01*
X2087047Y645940D01*
X2087529Y646310D01*
X2087603Y646347D01*
X2087714Y646532D01*
X2087936Y646791D01*
X2088195Y647199D01*
X2088454Y647680D01*
X2088751Y648273D01*
X2088973Y649013D01*
X2089121Y649828D01*
X2092232Y649421D01*
Y649384D01*
X2092195Y649273D01*
X2092158Y649124D01*
X2092121Y648902D01*
X2092047Y648606D01*
X2091973Y648310D01*
X2091713Y647569D01*
X2091380Y646791D01*
X2090899Y645940D01*
X2090306Y645125D01*
X2089973Y644754D01*
X2089603Y644384D01*
X2089565Y644347D01*
X2089491Y644310D01*
X2089380Y644236D01*
X2089232Y644125D01*
X2089047Y643977D01*
X2088788Y643829D01*
X2088492Y643681D01*
X2088195Y643495D01*
X2087455Y643162D01*
X2086566Y642903D01*
X2085603Y642681D01*
X2085047Y642644D01*
X2084492Y642607D01*
X2084122D01*
X2083862Y642644D01*
X2083529Y642681D01*
X2083159Y642755D01*
X2082751Y642829D01*
X2082307Y642903D01*
X2081307Y643199D01*
X2080826Y643421D01*
X2080307Y643643D01*
X2079789Y643940D01*
X2079307Y644273D01*
X2078826Y644643D01*
X2078382Y645088D01*
X2078344Y645125D01*
X2078270Y645199D01*
X2078159Y645347D01*
X2078011Y645532D01*
X2077863Y645791D01*
X2077641Y646125D01*
X2077456Y646495D01*
X2077233Y646902D01*
X2077011Y647384D01*
X2076826Y647939D01*
X2076604Y648495D01*
X2076456Y649162D01*
X2076308Y649828D01*
X2076196Y650606D01*
X2076122Y651384D01*
X2076085Y652235D01*
Y652272D01*
Y652383D01*
Y652532D01*
Y652754D01*
X2076122Y653013D01*
Y653309D01*
X2076160Y653643D01*
X2076196Y654013D01*
X2076308Y654827D01*
X2076493Y655716D01*
X2076715Y656605D01*
X2077048Y657494D01*
Y657531D01*
X2077085Y657605D01*
X2077159Y657716D01*
X2077233Y657864D01*
X2077456Y658272D01*
X2077789Y658753D01*
X2078233Y659309D01*
X2078752Y659864D01*
X2079381Y660420D01*
X2080085Y660864D01*
X2080122D01*
X2080196Y660901D01*
X2080307Y660975D01*
X2080455Y661049D01*
X2080641Y661123D01*
X2080863Y661234D01*
X2081418Y661457D01*
X2082048Y661642D01*
X2082825Y661827D01*
X2083640Y661975D01*
X2084529Y662012D01*
X2084825D01*
X2085047Y661975D01*
D02*
G37*
G36*
X1936729Y643014D02*
X1933915D01*
Y645717D01*
X1933878Y645680D01*
X1933804Y645569D01*
X1933693Y645421D01*
X1933508Y645236D01*
X1933285Y645014D01*
X1933026Y644717D01*
X1932730Y644458D01*
X1932360Y644162D01*
X1931952Y643866D01*
X1931508Y643606D01*
X1931026Y643347D01*
X1930508Y643088D01*
X1929915Y642903D01*
X1929323Y642755D01*
X1928656Y642644D01*
X1927990Y642607D01*
X1927730D01*
X1927397Y642644D01*
X1926990Y642681D01*
X1926508Y642755D01*
X1925990Y642866D01*
X1925471Y643014D01*
X1924916Y643236D01*
X1924842Y643273D01*
X1924694Y643347D01*
X1924435Y643495D01*
X1924138Y643681D01*
X1923768Y643903D01*
X1923435Y644162D01*
X1923101Y644458D01*
X1922805Y644791D01*
X1922768Y644829D01*
X1922694Y644977D01*
X1922583Y645162D01*
X1922435Y645458D01*
X1922249Y645791D01*
X1922101Y646199D01*
X1921953Y646643D01*
X1921842Y647125D01*
Y647162D01*
X1921805Y647310D01*
X1921768Y647532D01*
Y647828D01*
X1921731Y648273D01*
X1921694Y648754D01*
X1921657Y649384D01*
Y650087D01*
Y661605D01*
X1924805D01*
Y651272D01*
Y651235D01*
Y651161D01*
Y651050D01*
Y650865D01*
Y650458D01*
X1924842Y649939D01*
Y649384D01*
X1924879Y648828D01*
X1924916Y648347D01*
X1924990Y647939D01*
Y647902D01*
X1925064Y647754D01*
X1925138Y647532D01*
X1925249Y647236D01*
X1925434Y646939D01*
X1925656Y646606D01*
X1925916Y646310D01*
X1926249Y646014D01*
X1926286Y645977D01*
X1926434Y645902D01*
X1926619Y645791D01*
X1926916Y645680D01*
X1927249Y645532D01*
X1927656Y645421D01*
X1928101Y645347D01*
X1928619Y645310D01*
X1928878D01*
X1929138Y645347D01*
X1929471Y645384D01*
X1929878Y645495D01*
X1930323Y645606D01*
X1930804Y645791D01*
X1931286Y646014D01*
X1931360Y646051D01*
X1931508Y646162D01*
X1931730Y646310D01*
X1931989Y646532D01*
X1932285Y646828D01*
X1932582Y647162D01*
X1932841Y647532D01*
X1933063Y647976D01*
X1933100Y648051D01*
X1933137Y648199D01*
X1933211Y648495D01*
X1933322Y648902D01*
X1933434Y649421D01*
X1933508Y650050D01*
X1933545Y650791D01*
X1933582Y651643D01*
Y661605D01*
X1936729D01*
Y643014D01*
D02*
G37*
G36*
X2047829Y661975D02*
X2048385Y661938D01*
X2049014Y661864D01*
X2049644Y661753D01*
X2050273Y661605D01*
X2050866Y661420D01*
X2050940Y661382D01*
X2051125Y661308D01*
X2051384Y661197D01*
X2051718Y661049D01*
X2052088Y660827D01*
X2052458Y660605D01*
X2052791Y660309D01*
X2053088Y660012D01*
X2053125Y659975D01*
X2053199Y659864D01*
X2053310Y659679D01*
X2053458Y659457D01*
X2053643Y659123D01*
X2053791Y658790D01*
X2053940Y658383D01*
X2054051Y657901D01*
Y657864D01*
X2054088Y657753D01*
X2054125Y657531D01*
X2054162Y657235D01*
Y656827D01*
X2054199Y656346D01*
X2054236Y655716D01*
Y655013D01*
Y650791D01*
Y650754D01*
Y650606D01*
Y650384D01*
Y650087D01*
Y649754D01*
Y649347D01*
X2054273Y648458D01*
Y647532D01*
X2054310Y646606D01*
X2054347Y646199D01*
Y645828D01*
X2054384Y645495D01*
X2054421Y645236D01*
Y645199D01*
X2054458Y645051D01*
X2054495Y644829D01*
X2054606Y644532D01*
X2054680Y644199D01*
X2054828Y643829D01*
X2055013Y643421D01*
X2055199Y643014D01*
X2051903D01*
X2051866Y643051D01*
X2051829Y643199D01*
X2051755Y643384D01*
X2051644Y643681D01*
X2051532Y644014D01*
X2051458Y644421D01*
X2051384Y644866D01*
X2051310Y645347D01*
X2051273D01*
X2051236Y645273D01*
X2051014Y645088D01*
X2050681Y644829D01*
X2050236Y644495D01*
X2049681Y644162D01*
X2049125Y643792D01*
X2048533Y643458D01*
X2047903Y643199D01*
X2047829Y643162D01*
X2047607Y643125D01*
X2047274Y643014D01*
X2046866Y642903D01*
X2046348Y642792D01*
X2045755Y642718D01*
X2045089Y642644D01*
X2044422Y642607D01*
X2044126D01*
X2043904Y642644D01*
X2043644D01*
X2043348Y642681D01*
X2042681Y642792D01*
X2041941Y642977D01*
X2041126Y643236D01*
X2040385Y643606D01*
X2039719Y644088D01*
X2039645Y644162D01*
X2039460Y644347D01*
X2039200Y644680D01*
X2038904Y645125D01*
X2038608Y645680D01*
X2038349Y646310D01*
X2038163Y647088D01*
X2038126Y647458D01*
X2038089Y647902D01*
Y647976D01*
Y648124D01*
X2038126Y648384D01*
X2038163Y648717D01*
X2038237Y649124D01*
X2038349Y649532D01*
X2038497Y649976D01*
X2038682Y650384D01*
X2038719Y650421D01*
X2038793Y650569D01*
X2038941Y650791D01*
X2039126Y651050D01*
X2039348Y651346D01*
X2039645Y651643D01*
X2039941Y651939D01*
X2040311Y652198D01*
X2040348Y652235D01*
X2040497Y652309D01*
X2040682Y652457D01*
X2040978Y652606D01*
X2041311Y652754D01*
X2041719Y652939D01*
X2042126Y653087D01*
X2042607Y653235D01*
X2042644D01*
X2042793Y653272D01*
X2043015Y653346D01*
X2043311Y653383D01*
X2043681Y653457D01*
X2044163Y653531D01*
X2044718Y653643D01*
X2045385Y653717D01*
X2045422D01*
X2045570Y653754D01*
X2045755D01*
X2046014Y653791D01*
X2046311Y653828D01*
X2046681Y653902D01*
X2047088Y653939D01*
X2047533Y654013D01*
X2048422Y654198D01*
X2049384Y654383D01*
X2050236Y654605D01*
X2050644Y654716D01*
X2051014Y654827D01*
Y654865D01*
Y654939D01*
X2051051Y655161D01*
Y655420D01*
Y655568D01*
Y655642D01*
Y655679D01*
Y655716D01*
Y655938D01*
X2051014Y656309D01*
X2050940Y656716D01*
X2050829Y657161D01*
X2050644Y657605D01*
X2050421Y658012D01*
X2050125Y658346D01*
X2050088Y658383D01*
X2049903Y658531D01*
X2049607Y658679D01*
X2049236Y658901D01*
X2048718Y659086D01*
X2048125Y659271D01*
X2047385Y659383D01*
X2046533Y659420D01*
X2046163D01*
X2045792Y659383D01*
X2045274Y659309D01*
X2044755Y659234D01*
X2044200Y659086D01*
X2043681Y658901D01*
X2043237Y658642D01*
X2043200Y658605D01*
X2043052Y658494D01*
X2042867Y658309D01*
X2042644Y658012D01*
X2042422Y657642D01*
X2042163Y657161D01*
X2041941Y656568D01*
X2041719Y655901D01*
X2038645Y656309D01*
Y656346D01*
X2038682Y656383D01*
Y656494D01*
X2038719Y656642D01*
X2038830Y656975D01*
X2038978Y657457D01*
X2039163Y657938D01*
X2039386Y658457D01*
X2039682Y658975D01*
X2040015Y659457D01*
X2040052Y659494D01*
X2040200Y659642D01*
X2040422Y659864D01*
X2040719Y660160D01*
X2041126Y660457D01*
X2041608Y660753D01*
X2042163Y661086D01*
X2042793Y661345D01*
X2042830D01*
X2042867Y661382D01*
X2042978Y661420D01*
X2043126Y661457D01*
X2043496Y661568D01*
X2044015Y661679D01*
X2044607Y661790D01*
X2045348Y661901D01*
X2046125Y661975D01*
X2047014Y662012D01*
X2047422D01*
X2047829Y661975D01*
D02*
G37*
G36*
X1998056D02*
X1998612Y661938D01*
X1999241Y661864D01*
X1999871Y661753D01*
X2000501Y661605D01*
X2001093Y661420D01*
X2001167Y661382D01*
X2001352Y661308D01*
X2001612Y661197D01*
X2001945Y661049D01*
X2002315Y660827D01*
X2002686Y660605D01*
X2003019Y660309D01*
X2003315Y660012D01*
X2003352Y659975D01*
X2003426Y659864D01*
X2003537Y659679D01*
X2003685Y659457D01*
X2003871Y659123D01*
X2004019Y658790D01*
X2004167Y658383D01*
X2004278Y657901D01*
Y657864D01*
X2004315Y657753D01*
X2004352Y657531D01*
X2004389Y657235D01*
Y656827D01*
X2004426Y656346D01*
X2004463Y655716D01*
Y655013D01*
Y650791D01*
Y650754D01*
Y650606D01*
Y650384D01*
Y650087D01*
Y649754D01*
Y649347D01*
X2004500Y648458D01*
Y647532D01*
X2004537Y646606D01*
X2004574Y646199D01*
Y645828D01*
X2004611Y645495D01*
X2004648Y645236D01*
Y645199D01*
X2004685Y645051D01*
X2004722Y644829D01*
X2004834Y644532D01*
X2004908Y644199D01*
X2005056Y643829D01*
X2005241Y643421D01*
X2005426Y643014D01*
X2002130D01*
X2002093Y643051D01*
X2002056Y643199D01*
X2001982Y643384D01*
X2001871Y643681D01*
X2001760Y644014D01*
X2001686Y644421D01*
X2001612Y644866D01*
X2001538Y645347D01*
X2001501D01*
X2001463Y645273D01*
X2001241Y645088D01*
X2000908Y644829D01*
X2000464Y644495D01*
X1999908Y644162D01*
X1999353Y643792D01*
X1998760Y643458D01*
X1998130Y643199D01*
X1998056Y643162D01*
X1997834Y643125D01*
X1997501Y643014D01*
X1997094Y642903D01*
X1996575Y642792D01*
X1995983Y642718D01*
X1995316Y642644D01*
X1994649Y642607D01*
X1994353D01*
X1994131Y642644D01*
X1993872D01*
X1993575Y642681D01*
X1992909Y642792D01*
X1992168Y642977D01*
X1991353Y643236D01*
X1990613Y643606D01*
X1989946Y644088D01*
X1989872Y644162D01*
X1989687Y644347D01*
X1989428Y644680D01*
X1989131Y645125D01*
X1988835Y645680D01*
X1988576Y646310D01*
X1988391Y647088D01*
X1988354Y647458D01*
X1988317Y647902D01*
Y647976D01*
Y648124D01*
X1988354Y648384D01*
X1988391Y648717D01*
X1988465Y649124D01*
X1988576Y649532D01*
X1988724Y649976D01*
X1988909Y650384D01*
X1988946Y650421D01*
X1989020Y650569D01*
X1989169Y650791D01*
X1989354Y651050D01*
X1989576Y651346D01*
X1989872Y651643D01*
X1990168Y651939D01*
X1990539Y652198D01*
X1990576Y652235D01*
X1990724Y652309D01*
X1990909Y652457D01*
X1991205Y652606D01*
X1991539Y652754D01*
X1991946Y652939D01*
X1992353Y653087D01*
X1992835Y653235D01*
X1992872D01*
X1993020Y653272D01*
X1993242Y653346D01*
X1993538Y653383D01*
X1993909Y653457D01*
X1994390Y653531D01*
X1994946Y653643D01*
X1995612Y653717D01*
X1995649D01*
X1995797Y653754D01*
X1995983D01*
X1996242Y653791D01*
X1996538Y653828D01*
X1996908Y653902D01*
X1997316Y653939D01*
X1997760Y654013D01*
X1998649Y654198D01*
X1999612Y654383D01*
X2000464Y654605D01*
X2000871Y654716D01*
X2001241Y654827D01*
Y654865D01*
Y654939D01*
X2001278Y655161D01*
Y655420D01*
Y655568D01*
Y655642D01*
Y655679D01*
Y655716D01*
Y655938D01*
X2001241Y656309D01*
X2001167Y656716D01*
X2001056Y657161D01*
X2000871Y657605D01*
X2000649Y658012D01*
X2000352Y658346D01*
X2000316Y658383D01*
X2000130Y658531D01*
X1999834Y658679D01*
X1999464Y658901D01*
X1998945Y659086D01*
X1998353Y659271D01*
X1997612Y659383D01*
X1996760Y659420D01*
X1996390D01*
X1996020Y659383D01*
X1995501Y659309D01*
X1994983Y659234D01*
X1994427Y659086D01*
X1993909Y658901D01*
X1993464Y658642D01*
X1993427Y658605D01*
X1993279Y658494D01*
X1993094Y658309D01*
X1992872Y658012D01*
X1992650Y657642D01*
X1992390Y657161D01*
X1992168Y656568D01*
X1991946Y655901D01*
X1988872Y656309D01*
Y656346D01*
X1988909Y656383D01*
Y656494D01*
X1988946Y656642D01*
X1989057Y656975D01*
X1989205Y657457D01*
X1989391Y657938D01*
X1989613Y658457D01*
X1989909Y658975D01*
X1990242Y659457D01*
X1990280Y659494D01*
X1990428Y659642D01*
X1990650Y659864D01*
X1990946Y660160D01*
X1991353Y660457D01*
X1991835Y660753D01*
X1992390Y661086D01*
X1993020Y661345D01*
X1993057D01*
X1993094Y661382D01*
X1993205Y661420D01*
X1993353Y661457D01*
X1993724Y661568D01*
X1994242Y661679D01*
X1994835Y661790D01*
X1995575Y661901D01*
X1996353Y661975D01*
X1997242Y662012D01*
X1997649D01*
X1998056Y661975D01*
D02*
G37*
G36*
X1974466Y668604D02*
X1975207Y668567D01*
X1975948Y668493D01*
X1976688Y668382D01*
X1977318Y668271D01*
X1977355D01*
X1977429Y668234D01*
X1977540D01*
X1977688Y668159D01*
X1978096Y668048D01*
X1978614Y667863D01*
X1979207Y667604D01*
X1979836Y667271D01*
X1980466Y666900D01*
X1981058Y666419D01*
X1981095Y666382D01*
X1981132Y666345D01*
X1981243Y666234D01*
X1981391Y666123D01*
X1981762Y665752D01*
X1982206Y665234D01*
X1982688Y664604D01*
X1983206Y663864D01*
X1983688Y663012D01*
X1984095Y662049D01*
Y662012D01*
X1984132Y661938D01*
X1984206Y661790D01*
X1984243Y661568D01*
X1984354Y661308D01*
X1984428Y661012D01*
X1984502Y660679D01*
X1984613Y660271D01*
X1984724Y659864D01*
X1984799Y659383D01*
X1984984Y658346D01*
X1985095Y657198D01*
X1985132Y655938D01*
Y655901D01*
Y655827D01*
Y655642D01*
Y655457D01*
X1985095Y655198D01*
Y654902D01*
X1985058Y654198D01*
X1984947Y653383D01*
X1984836Y652532D01*
X1984650Y651643D01*
X1984428Y650754D01*
Y650717D01*
X1984391Y650643D01*
X1984354Y650532D01*
X1984317Y650384D01*
X1984169Y649976D01*
X1983947Y649458D01*
X1983725Y648865D01*
X1983428Y648273D01*
X1983058Y647643D01*
X1982688Y647051D01*
X1982651Y646976D01*
X1982502Y646791D01*
X1982280Y646532D01*
X1981984Y646199D01*
X1981651Y645828D01*
X1981243Y645458D01*
X1980836Y645051D01*
X1980355Y644717D01*
X1980280Y644680D01*
X1980132Y644569D01*
X1979873Y644421D01*
X1979503Y644236D01*
X1979058Y644014D01*
X1978540Y643829D01*
X1977947Y643606D01*
X1977281Y643421D01*
X1977207D01*
X1977096Y643384D01*
X1976985Y643347D01*
X1976614Y643310D01*
X1976096Y643236D01*
X1975503Y643162D01*
X1974800Y643088D01*
X1974022Y643051D01*
X1973170Y643014D01*
X1963949D01*
Y668641D01*
X1973800D01*
X1974466Y668604D01*
D02*
G37*
G36*
X1904955Y659457D02*
X1904992Y659494D01*
X1905066Y659568D01*
X1905177Y659679D01*
X1905362Y659864D01*
X1905547Y660049D01*
X1905807Y660271D01*
X1906140Y660494D01*
X1906473Y660753D01*
X1906844Y660975D01*
X1907251Y661197D01*
X1908214Y661605D01*
X1908732Y661790D01*
X1909288Y661901D01*
X1909880Y661975D01*
X1910473Y662012D01*
X1910806D01*
X1911214Y661975D01*
X1911695Y661901D01*
X1912251Y661827D01*
X1912843Y661679D01*
X1913436Y661457D01*
X1914028Y661197D01*
X1914102Y661160D01*
X1914287Y661049D01*
X1914547Y660864D01*
X1914880Y660605D01*
X1915213Y660271D01*
X1915583Y659901D01*
X1915917Y659457D01*
X1916213Y658938D01*
X1916250Y658864D01*
X1916324Y658679D01*
X1916435Y658346D01*
X1916546Y657864D01*
X1916658Y657272D01*
X1916769Y656568D01*
X1916843Y655716D01*
X1916880Y654753D01*
Y643014D01*
X1913732D01*
Y654790D01*
Y654827D01*
Y654902D01*
Y655013D01*
Y655161D01*
X1913695Y655568D01*
X1913621Y656087D01*
X1913473Y656642D01*
X1913288Y657198D01*
X1913028Y657753D01*
X1912695Y658198D01*
X1912658Y658235D01*
X1912510Y658383D01*
X1912288Y658568D01*
X1911954Y658753D01*
X1911547Y658975D01*
X1911066Y659123D01*
X1910473Y659271D01*
X1909806Y659309D01*
X1909584D01*
X1909325Y659271D01*
X1908955Y659234D01*
X1908584Y659123D01*
X1908140Y659012D01*
X1907695Y658827D01*
X1907214Y658568D01*
X1907177Y658531D01*
X1907029Y658420D01*
X1906807Y658272D01*
X1906547Y658049D01*
X1906251Y657753D01*
X1905955Y657420D01*
X1905696Y657012D01*
X1905473Y656568D01*
X1905436Y656494D01*
X1905399Y656346D01*
X1905325Y656050D01*
X1905214Y655679D01*
X1905103Y655198D01*
X1905029Y654605D01*
X1904992Y653939D01*
X1904955Y653161D01*
Y643014D01*
X1901807D01*
Y668641D01*
X1904955D01*
Y659457D01*
D02*
G37*
G36*
X1877587Y643014D02*
X1873736D01*
X1870736Y650791D01*
X1859997D01*
X1857219Y643014D01*
X1853627D01*
X1863404Y668641D01*
X1867107D01*
X1877587Y643014D01*
D02*
G37*
G36*
X1895511Y661605D02*
X1898696D01*
Y659160D01*
X1895511D01*
Y648236D01*
Y648162D01*
Y648013D01*
Y647791D01*
X1895549Y647532D01*
X1895586Y646939D01*
X1895623Y646680D01*
X1895660Y646495D01*
X1895697Y646421D01*
X1895808Y646273D01*
X1895956Y646088D01*
X1896215Y645902D01*
X1896289Y645865D01*
X1896474Y645791D01*
X1896808Y645717D01*
X1897289Y645680D01*
X1897659D01*
X1897845Y645717D01*
X1898104D01*
X1898400Y645754D01*
X1898696Y645791D01*
X1899104Y643014D01*
X1899030D01*
X1898882Y642977D01*
X1898622Y642940D01*
X1898289Y642903D01*
X1897919Y642829D01*
X1897511Y642792D01*
X1896697Y642755D01*
X1896400D01*
X1896104Y642792D01*
X1895734Y642829D01*
X1895289Y642866D01*
X1894845Y642977D01*
X1894438Y643088D01*
X1894030Y643273D01*
X1893993Y643310D01*
X1893882Y643384D01*
X1893734Y643495D01*
X1893512Y643681D01*
X1893327Y643866D01*
X1893104Y644125D01*
X1892882Y644384D01*
X1892734Y644717D01*
Y644754D01*
X1892660Y644903D01*
X1892623Y645162D01*
X1892549Y645532D01*
X1892475Y646014D01*
X1892438Y646310D01*
Y646643D01*
X1892401Y647051D01*
X1892364Y647458D01*
Y647902D01*
Y648421D01*
Y659160D01*
X1890031D01*
Y661605D01*
X1892364D01*
Y666197D01*
X1895511Y668085D01*
Y661605D01*
D02*
G37*
G36*
X2142930Y661975D02*
X2143264Y661938D01*
X2143634Y661864D01*
X2144041Y661790D01*
X2144523Y661716D01*
X2145523Y661382D01*
X2146041Y661197D01*
X2146560Y660938D01*
X2147078Y660679D01*
X2147596Y660309D01*
X2148078Y659938D01*
X2148559Y659494D01*
X2148596Y659457D01*
X2148671Y659383D01*
X2148782Y659234D01*
X2148930Y659049D01*
X2149115Y658790D01*
X2149337Y658457D01*
X2149559Y658086D01*
X2149781Y657679D01*
X2150004Y657235D01*
X2150226Y656679D01*
X2150448Y656124D01*
X2150633Y655494D01*
X2150781Y654827D01*
X2150892Y654124D01*
X2150966Y653383D01*
X2151004Y652569D01*
Y652532D01*
Y652420D01*
Y652235D01*
Y651976D01*
X2150966Y651680D01*
X2150930Y651309D01*
Y650939D01*
X2150855Y650532D01*
X2150744Y649606D01*
X2150522Y648680D01*
X2150263Y647754D01*
X2149893Y646902D01*
Y646865D01*
X2149855Y646828D01*
X2149781Y646717D01*
X2149707Y646569D01*
X2149448Y646199D01*
X2149115Y645754D01*
X2148671Y645236D01*
X2148115Y644717D01*
X2147485Y644199D01*
X2146745Y643718D01*
X2146708D01*
X2146671Y643681D01*
X2146560Y643606D01*
X2146374Y643532D01*
X2146189Y643458D01*
X2145967Y643384D01*
X2145412Y643162D01*
X2144782Y642977D01*
X2144004Y642792D01*
X2143190Y642644D01*
X2142301Y642607D01*
X2141930D01*
X2141634Y642644D01*
X2141301Y642681D01*
X2140930Y642755D01*
X2140486Y642829D01*
X2140042Y642903D01*
X2139042Y643199D01*
X2138486Y643421D01*
X2137968Y643643D01*
X2137449Y643940D01*
X2136931Y644273D01*
X2136449Y644643D01*
X2135968Y645088D01*
X2135931Y645125D01*
X2135857Y645199D01*
X2135746Y645347D01*
X2135598Y645569D01*
X2135413Y645828D01*
X2135227Y646125D01*
X2135005Y646495D01*
X2134783Y646939D01*
X2134561Y647421D01*
X2134339Y647976D01*
X2134153Y648569D01*
X2133968Y649199D01*
X2133820Y649902D01*
X2133709Y650643D01*
X2133635Y651458D01*
X2133598Y652309D01*
Y652383D01*
Y652532D01*
X2133635Y652791D01*
Y653161D01*
X2133672Y653568D01*
X2133746Y654087D01*
X2133820Y654605D01*
X2133968Y655198D01*
X2134116Y655790D01*
X2134302Y656420D01*
X2134524Y657087D01*
X2134820Y657716D01*
X2135116Y658309D01*
X2135524Y658901D01*
X2135931Y659457D01*
X2136449Y659938D01*
X2136487Y659975D01*
X2136561Y660012D01*
X2136709Y660123D01*
X2136894Y660271D01*
X2137116Y660420D01*
X2137412Y660605D01*
X2137709Y660790D01*
X2138079Y660975D01*
X2138486Y661160D01*
X2138931Y661345D01*
X2139931Y661679D01*
X2141079Y661938D01*
X2141671Y661975D01*
X2142301Y662012D01*
X2142671D01*
X2142930Y661975D01*
D02*
G37*
G36*
X2103157D02*
X2103453Y661938D01*
X2103823Y661864D01*
X2104231Y661790D01*
X2104712Y661679D01*
X2105157Y661568D01*
X2105675Y661382D01*
X2106156Y661197D01*
X2106675Y660938D01*
X2107193Y660642D01*
X2107712Y660309D01*
X2108193Y659901D01*
X2108638Y659457D01*
X2108675Y659420D01*
X2108749Y659346D01*
X2108860Y659197D01*
X2109008Y658975D01*
X2109193Y658716D01*
X2109378Y658420D01*
X2109601Y658049D01*
X2109823Y657605D01*
X2110045Y657124D01*
X2110267Y656605D01*
X2110452Y656013D01*
X2110637Y655383D01*
X2110786Y654679D01*
X2110897Y653939D01*
X2110971Y653161D01*
X2111008Y652309D01*
Y652272D01*
Y652124D01*
Y651865D01*
X2110971Y651495D01*
X2097083D01*
Y651458D01*
Y651346D01*
X2097120Y651198D01*
Y650976D01*
X2097157Y650717D01*
X2097231Y650421D01*
X2097343Y649754D01*
X2097565Y649013D01*
X2097861Y648199D01*
X2098268Y647458D01*
X2098787Y646791D01*
X2098824D01*
X2098861Y646717D01*
X2099083Y646532D01*
X2099416Y646273D01*
X2099861Y646014D01*
X2100453Y645717D01*
X2101120Y645458D01*
X2101861Y645273D01*
X2102268Y645236D01*
X2102712Y645199D01*
X2103009D01*
X2103342Y645236D01*
X2103749Y645310D01*
X2104194Y645421D01*
X2104712Y645569D01*
X2105193Y645791D01*
X2105675Y646088D01*
X2105712Y646125D01*
X2105897Y646273D01*
X2106119Y646495D01*
X2106379Y646791D01*
X2106675Y647199D01*
X2107008Y647717D01*
X2107341Y648310D01*
X2107638Y649013D01*
X2110897Y648606D01*
Y648569D01*
X2110860Y648495D01*
X2110822Y648347D01*
X2110748Y648124D01*
X2110637Y647902D01*
X2110526Y647606D01*
X2110230Y646976D01*
X2109860Y646273D01*
X2109341Y645532D01*
X2108749Y644829D01*
X2108008Y644162D01*
X2107971D01*
X2107897Y644088D01*
X2107786Y644014D01*
X2107638Y643903D01*
X2107415Y643792D01*
X2107193Y643681D01*
X2106897Y643532D01*
X2106564Y643384D01*
X2106193Y643236D01*
X2105823Y643088D01*
X2104897Y642866D01*
X2103860Y642681D01*
X2102712Y642607D01*
X2102305D01*
X2102046Y642644D01*
X2101712Y642681D01*
X2101305Y642755D01*
X2100861Y642829D01*
X2100379Y642903D01*
X2099342Y643199D01*
X2098787Y643421D01*
X2098268Y643643D01*
X2097713Y643940D01*
X2097194Y644273D01*
X2096713Y644643D01*
X2096232Y645088D01*
X2096194Y645125D01*
X2096120Y645199D01*
X2096009Y645347D01*
X2095861Y645569D01*
X2095676Y645828D01*
X2095491Y646125D01*
X2095269Y646495D01*
X2095046Y646902D01*
X2094824Y647384D01*
X2094602Y647902D01*
X2094417Y648495D01*
X2094232Y649124D01*
X2094084Y649791D01*
X2093972Y650532D01*
X2093898Y651309D01*
X2093861Y652124D01*
Y652161D01*
Y652346D01*
Y652569D01*
X2093898Y652902D01*
X2093935Y653309D01*
X2093972Y653754D01*
X2094046Y654272D01*
X2094158Y654790D01*
X2094454Y655976D01*
X2094639Y656568D01*
X2094861Y657198D01*
X2095157Y657790D01*
X2095491Y658346D01*
X2095861Y658901D01*
X2096268Y659420D01*
X2096306Y659457D01*
X2096380Y659531D01*
X2096528Y659642D01*
X2096713Y659827D01*
X2096935Y660012D01*
X2097231Y660234D01*
X2097565Y660494D01*
X2097972Y660716D01*
X2098379Y660975D01*
X2098861Y661197D01*
X2099379Y661420D01*
X2099935Y661605D01*
X2100527Y661790D01*
X2101157Y661901D01*
X2101823Y661975D01*
X2102527Y662012D01*
X2102897D01*
X2103157Y661975D01*
D02*
G37*
G36*
X1881922Y722612D02*
X1880348D01*
Y724408D01*
X1881922D01*
Y722612D01*
D02*
G37*
G36*
X1919899Y721075D02*
X1920103Y721038D01*
X1920344Y720964D01*
X1920603Y720871D01*
X1920899Y720742D01*
X1921214Y720575D01*
X1920640Y719130D01*
X1920622Y719149D01*
X1920548Y719186D01*
X1920437Y719242D01*
X1920288Y719297D01*
X1920122Y719353D01*
X1919918Y719408D01*
X1919714Y719445D01*
X1919511Y719464D01*
X1919418D01*
X1919326Y719445D01*
X1919196Y719427D01*
X1919066Y719390D01*
X1918900Y719334D01*
X1918733Y719260D01*
X1918585Y719149D01*
X1918566Y719130D01*
X1918511Y719093D01*
X1918455Y719019D01*
X1918363Y718927D01*
X1918270Y718797D01*
X1918177Y718649D01*
X1918085Y718483D01*
X1918011Y718279D01*
X1917992Y718242D01*
X1917974Y718131D01*
X1917937Y717964D01*
X1917881Y717742D01*
X1917826Y717464D01*
X1917789Y717149D01*
X1917770Y716816D01*
X1917752Y716446D01*
Y711594D01*
X1916178D01*
Y720890D01*
X1917603D01*
Y719482D01*
X1917622Y719501D01*
X1917696Y719631D01*
X1917789Y719797D01*
X1917937Y720001D01*
X1918085Y720204D01*
X1918251Y720427D01*
X1918418Y720612D01*
X1918585Y720760D01*
X1918603Y720779D01*
X1918659Y720816D01*
X1918770Y720871D01*
X1918881Y720927D01*
X1919029Y720982D01*
X1919214Y721038D01*
X1919400Y721075D01*
X1919603Y721093D01*
X1919733D01*
X1919899Y721075D01*
D02*
G37*
G36*
X1934342Y719093D02*
X1932546D01*
Y720890D01*
X1934342D01*
Y719093D01*
D02*
G37*
G36*
Y711594D02*
X1932546D01*
Y713390D01*
X1934342D01*
Y711594D01*
D02*
G37*
G36*
X1909993Y724389D02*
X1910308Y724371D01*
X1910641Y724352D01*
X1910956Y724315D01*
X1911234Y724278D01*
X1911271D01*
X1911400Y724241D01*
X1911567Y724204D01*
X1911789Y724148D01*
X1912030Y724056D01*
X1912289Y723945D01*
X1912567Y723815D01*
X1912808Y723667D01*
X1912845Y723649D01*
X1912919Y723593D01*
X1913030Y723482D01*
X1913178Y723352D01*
X1913345Y723186D01*
X1913511Y722963D01*
X1913696Y722723D01*
X1913845Y722445D01*
X1913863Y722408D01*
X1913900Y722315D01*
X1913974Y722149D01*
X1914048Y721926D01*
X1914104Y721667D01*
X1914178Y721371D01*
X1914215Y721038D01*
X1914233Y720686D01*
Y720667D01*
Y720612D01*
Y720538D01*
X1914215Y720408D01*
X1914196Y720279D01*
X1914178Y720112D01*
X1914141Y719927D01*
X1914104Y719723D01*
X1913974Y719297D01*
X1913900Y719075D01*
X1913789Y718834D01*
X1913659Y718594D01*
X1913530Y718371D01*
X1913363Y718149D01*
X1913178Y717927D01*
X1913159Y717908D01*
X1913122Y717871D01*
X1913067Y717816D01*
X1912974Y717760D01*
X1912863Y717668D01*
X1912715Y717575D01*
X1912530Y717464D01*
X1912326Y717372D01*
X1912086Y717260D01*
X1911808Y717149D01*
X1911512Y717057D01*
X1911160Y716983D01*
X1910789Y716908D01*
X1910382Y716853D01*
X1909919Y716816D01*
X1909438Y716797D01*
X1906160D01*
Y711594D01*
X1904457D01*
Y724408D01*
X1909715D01*
X1909993Y724389D01*
D02*
G37*
G36*
X1881922Y711594D02*
X1880348D01*
Y720890D01*
X1881922D01*
Y711594D01*
D02*
G37*
G36*
X1868386Y722889D02*
X1861424D01*
Y718927D01*
X1867442D01*
Y717409D01*
X1861424D01*
Y711594D01*
X1859720D01*
Y724408D01*
X1868386D01*
Y722889D01*
D02*
G37*
G36*
X1886162Y720890D02*
X1887755D01*
Y719668D01*
X1886162D01*
Y714205D01*
Y714168D01*
Y714094D01*
Y713983D01*
X1886181Y713853D01*
X1886199Y713557D01*
X1886218Y713427D01*
X1886236Y713335D01*
X1886255Y713298D01*
X1886310Y713224D01*
X1886384Y713131D01*
X1886514Y713039D01*
X1886551Y713020D01*
X1886644Y712983D01*
X1886810Y712946D01*
X1887051Y712927D01*
X1887236D01*
X1887329Y712946D01*
X1887458D01*
X1887607Y712964D01*
X1887755Y712983D01*
X1887958Y711594D01*
X1887921D01*
X1887847Y711576D01*
X1887718Y711557D01*
X1887551Y711539D01*
X1887366Y711502D01*
X1887162Y711483D01*
X1886755Y711465D01*
X1886607D01*
X1886458Y711483D01*
X1886273Y711502D01*
X1886051Y711520D01*
X1885829Y711576D01*
X1885625Y711631D01*
X1885422Y711724D01*
X1885403Y711742D01*
X1885347Y711779D01*
X1885273Y711835D01*
X1885162Y711928D01*
X1885070Y712020D01*
X1884959Y712150D01*
X1884848Y712279D01*
X1884774Y712446D01*
Y712465D01*
X1884736Y712539D01*
X1884718Y712668D01*
X1884681Y712853D01*
X1884644Y713094D01*
X1884625Y713242D01*
Y713409D01*
X1884607Y713613D01*
X1884588Y713816D01*
Y714038D01*
Y714298D01*
Y719668D01*
X1883422D01*
Y720890D01*
X1884588D01*
Y723186D01*
X1886162Y724130D01*
Y720890D01*
D02*
G37*
G36*
X1926232Y721075D02*
X1926399Y721056D01*
X1926584Y721019D01*
X1926788Y720982D01*
X1927028Y720945D01*
X1927528Y720779D01*
X1927788Y720686D01*
X1928047Y720556D01*
X1928306Y720427D01*
X1928565Y720241D01*
X1928806Y720056D01*
X1929047Y719834D01*
X1929065Y719816D01*
X1929102Y719779D01*
X1929158Y719705D01*
X1929232Y719612D01*
X1929324Y719482D01*
X1929435Y719316D01*
X1929547Y719130D01*
X1929658Y718927D01*
X1929769Y718705D01*
X1929880Y718427D01*
X1929991Y718149D01*
X1930084Y717834D01*
X1930158Y717501D01*
X1930213Y717149D01*
X1930250Y716779D01*
X1930269Y716372D01*
Y716353D01*
Y716298D01*
Y716205D01*
Y716075D01*
X1930250Y715927D01*
X1930232Y715742D01*
Y715557D01*
X1930195Y715353D01*
X1930139Y714890D01*
X1930028Y714427D01*
X1929899Y713964D01*
X1929713Y713539D01*
Y713520D01*
X1929695Y713502D01*
X1929658Y713446D01*
X1929621Y713372D01*
X1929491Y713187D01*
X1929324Y712964D01*
X1929102Y712705D01*
X1928824Y712446D01*
X1928510Y712187D01*
X1928139Y711946D01*
X1928121D01*
X1928102Y711928D01*
X1928047Y711890D01*
X1927954Y711853D01*
X1927862Y711816D01*
X1927751Y711779D01*
X1927473Y711668D01*
X1927158Y711576D01*
X1926769Y711483D01*
X1926362Y711409D01*
X1925917Y711391D01*
X1925732D01*
X1925584Y711409D01*
X1925417Y711428D01*
X1925232Y711465D01*
X1925010Y711502D01*
X1924788Y711539D01*
X1924288Y711687D01*
X1924010Y711798D01*
X1923751Y711909D01*
X1923492Y712057D01*
X1923233Y712224D01*
X1922992Y712409D01*
X1922751Y712631D01*
X1922733Y712650D01*
X1922695Y712687D01*
X1922640Y712761D01*
X1922566Y712872D01*
X1922473Y713001D01*
X1922381Y713150D01*
X1922270Y713335D01*
X1922159Y713557D01*
X1922047Y713798D01*
X1921936Y714075D01*
X1921844Y714372D01*
X1921751Y714687D01*
X1921677Y715038D01*
X1921622Y715409D01*
X1921584Y715816D01*
X1921566Y716242D01*
Y716279D01*
Y716353D01*
X1921584Y716483D01*
Y716668D01*
X1921603Y716871D01*
X1921640Y717131D01*
X1921677Y717390D01*
X1921751Y717686D01*
X1921825Y717982D01*
X1921918Y718297D01*
X1922029Y718631D01*
X1922177Y718945D01*
X1922325Y719242D01*
X1922529Y719538D01*
X1922733Y719816D01*
X1922992Y720056D01*
X1923010Y720075D01*
X1923047Y720093D01*
X1923121Y720149D01*
X1923214Y720223D01*
X1923325Y720297D01*
X1923473Y720390D01*
X1923621Y720482D01*
X1923806Y720575D01*
X1924010Y720667D01*
X1924232Y720760D01*
X1924732Y720927D01*
X1925306Y721056D01*
X1925603Y721075D01*
X1925917Y721093D01*
X1926102D01*
X1926232Y721075D01*
D02*
G37*
G36*
X1893384D02*
X1893550Y721056D01*
X1893736Y721019D01*
X1893939Y720982D01*
X1894180Y720945D01*
X1894680Y720779D01*
X1894939Y720686D01*
X1895198Y720556D01*
X1895458Y720427D01*
X1895717Y720241D01*
X1895957Y720056D01*
X1896198Y719834D01*
X1896217Y719816D01*
X1896254Y719779D01*
X1896309Y719705D01*
X1896383Y719612D01*
X1896476Y719482D01*
X1896587Y719316D01*
X1896698Y719130D01*
X1896809Y718927D01*
X1896920Y718705D01*
X1897032Y718427D01*
X1897143Y718149D01*
X1897235Y717834D01*
X1897309Y717501D01*
X1897365Y717149D01*
X1897402Y716779D01*
X1897420Y716372D01*
Y716353D01*
Y716298D01*
Y716205D01*
Y716075D01*
X1897402Y715927D01*
X1897383Y715742D01*
Y715557D01*
X1897346Y715353D01*
X1897291Y714890D01*
X1897180Y714427D01*
X1897050Y713964D01*
X1896865Y713539D01*
Y713520D01*
X1896846Y713502D01*
X1896809Y713446D01*
X1896772Y713372D01*
X1896643Y713187D01*
X1896476Y712964D01*
X1896254Y712705D01*
X1895976Y712446D01*
X1895661Y712187D01*
X1895291Y711946D01*
X1895272D01*
X1895254Y711928D01*
X1895198Y711890D01*
X1895106Y711853D01*
X1895013Y711816D01*
X1894902Y711779D01*
X1894624Y711668D01*
X1894310Y711576D01*
X1893921Y711483D01*
X1893513Y711409D01*
X1893069Y711391D01*
X1892884D01*
X1892736Y711409D01*
X1892569Y711428D01*
X1892384Y711465D01*
X1892162Y711502D01*
X1891939Y711539D01*
X1891440Y711687D01*
X1891162Y711798D01*
X1890903Y711909D01*
X1890643Y712057D01*
X1890384Y712224D01*
X1890143Y712409D01*
X1889903Y712631D01*
X1889884Y712650D01*
X1889847Y712687D01*
X1889792Y712761D01*
X1889717Y712872D01*
X1889625Y713001D01*
X1889532Y713150D01*
X1889421Y713335D01*
X1889310Y713557D01*
X1889199Y713798D01*
X1889088Y714075D01*
X1888995Y714372D01*
X1888903Y714687D01*
X1888829Y715038D01*
X1888773Y715409D01*
X1888736Y715816D01*
X1888717Y716242D01*
Y716279D01*
Y716353D01*
X1888736Y716483D01*
Y716668D01*
X1888755Y716871D01*
X1888792Y717131D01*
X1888829Y717390D01*
X1888903Y717686D01*
X1888977Y717982D01*
X1889069Y718297D01*
X1889180Y718631D01*
X1889329Y718945D01*
X1889477Y719242D01*
X1889680Y719538D01*
X1889884Y719816D01*
X1890143Y720056D01*
X1890162Y720075D01*
X1890199Y720093D01*
X1890273Y720149D01*
X1890365Y720223D01*
X1890477Y720297D01*
X1890625Y720390D01*
X1890773Y720482D01*
X1890958Y720575D01*
X1891162Y720667D01*
X1891384Y720760D01*
X1891884Y720927D01*
X1892458Y721056D01*
X1892754Y721075D01*
X1893069Y721093D01*
X1893254D01*
X1893384Y721075D01*
D02*
G37*
G36*
X1874497D02*
X1874645Y721056D01*
X1874830Y721019D01*
X1875034Y720982D01*
X1875275Y720927D01*
X1875497Y720871D01*
X1875756Y720779D01*
X1875997Y720686D01*
X1876256Y720556D01*
X1876515Y720408D01*
X1876774Y720241D01*
X1877015Y720038D01*
X1877237Y719816D01*
X1877256Y719797D01*
X1877293Y719760D01*
X1877348Y719686D01*
X1877422Y719575D01*
X1877515Y719445D01*
X1877608Y719297D01*
X1877719Y719112D01*
X1877830Y718890D01*
X1877941Y718649D01*
X1878052Y718390D01*
X1878145Y718094D01*
X1878237Y717779D01*
X1878311Y717427D01*
X1878367Y717057D01*
X1878404Y716668D01*
X1878422Y716242D01*
Y716223D01*
Y716149D01*
Y716020D01*
X1878404Y715835D01*
X1871460D01*
Y715816D01*
Y715760D01*
X1871479Y715686D01*
Y715575D01*
X1871497Y715446D01*
X1871534Y715298D01*
X1871590Y714964D01*
X1871701Y714594D01*
X1871849Y714187D01*
X1872053Y713816D01*
X1872312Y713483D01*
X1872330D01*
X1872349Y713446D01*
X1872460Y713353D01*
X1872627Y713224D01*
X1872849Y713094D01*
X1873145Y712946D01*
X1873478Y712816D01*
X1873849Y712724D01*
X1874052Y712705D01*
X1874275Y712687D01*
X1874423D01*
X1874589Y712705D01*
X1874793Y712742D01*
X1875015Y712798D01*
X1875275Y712872D01*
X1875515Y712983D01*
X1875756Y713131D01*
X1875774Y713150D01*
X1875867Y713224D01*
X1875978Y713335D01*
X1876108Y713483D01*
X1876256Y713687D01*
X1876422Y713946D01*
X1876589Y714242D01*
X1876737Y714594D01*
X1878367Y714390D01*
Y714372D01*
X1878348Y714335D01*
X1878330Y714261D01*
X1878293Y714150D01*
X1878237Y714038D01*
X1878182Y713890D01*
X1878033Y713576D01*
X1877848Y713224D01*
X1877589Y712853D01*
X1877293Y712502D01*
X1876922Y712168D01*
X1876904D01*
X1876867Y712131D01*
X1876811Y712094D01*
X1876737Y712039D01*
X1876626Y711983D01*
X1876515Y711928D01*
X1876367Y711853D01*
X1876200Y711779D01*
X1876015Y711705D01*
X1875830Y711631D01*
X1875367Y711520D01*
X1874849Y711428D01*
X1874275Y711391D01*
X1874071D01*
X1873941Y711409D01*
X1873775Y711428D01*
X1873571Y711465D01*
X1873349Y711502D01*
X1873108Y711539D01*
X1872590Y711687D01*
X1872312Y711798D01*
X1872053Y711909D01*
X1871775Y712057D01*
X1871516Y712224D01*
X1871275Y712409D01*
X1871034Y712631D01*
X1871016Y712650D01*
X1870979Y712687D01*
X1870923Y712761D01*
X1870849Y712872D01*
X1870756Y713001D01*
X1870664Y713150D01*
X1870553Y713335D01*
X1870442Y713539D01*
X1870331Y713779D01*
X1870219Y714038D01*
X1870127Y714335D01*
X1870034Y714650D01*
X1869960Y714983D01*
X1869905Y715353D01*
X1869868Y715742D01*
X1869849Y716149D01*
Y716168D01*
Y716261D01*
Y716372D01*
X1869868Y716538D01*
X1869886Y716742D01*
X1869905Y716964D01*
X1869942Y717223D01*
X1869997Y717483D01*
X1870145Y718075D01*
X1870238Y718371D01*
X1870349Y718686D01*
X1870497Y718982D01*
X1870664Y719260D01*
X1870849Y719538D01*
X1871053Y719797D01*
X1871071Y719816D01*
X1871108Y719853D01*
X1871182Y719908D01*
X1871275Y720001D01*
X1871386Y720093D01*
X1871534Y720204D01*
X1871701Y720334D01*
X1871904Y720445D01*
X1872108Y720575D01*
X1872349Y720686D01*
X1872608Y720797D01*
X1872886Y720890D01*
X1873182Y720982D01*
X1873497Y721038D01*
X1873830Y721075D01*
X1874182Y721093D01*
X1874367D01*
X1874497Y721075D01*
D02*
G37*
%LPC*%
G36*
X2099009Y683543D02*
X2098972D01*
X2098935Y683506D01*
X2098824Y683469D01*
X2098676Y683432D01*
X2098490Y683358D01*
X2098268Y683284D01*
X2098009Y683210D01*
X2097713Y683136D01*
X2097379Y683025D01*
X2096972Y682951D01*
X2096565Y682840D01*
X2096083Y682728D01*
X2095565Y682617D01*
X2095046Y682506D01*
X2094454Y682432D01*
X2093824Y682321D01*
X2093750D01*
X2093528Y682284D01*
X2093158Y682210D01*
X2092750Y682136D01*
X2092306Y682062D01*
X2091862Y681951D01*
X2091454Y681840D01*
X2091084Y681691D01*
X2091047D01*
X2090936Y681617D01*
X2090788Y681543D01*
X2090639Y681432D01*
X2090195Y681136D01*
X2089825Y680692D01*
Y680655D01*
X2089751Y680580D01*
X2089714Y680432D01*
X2089640Y680247D01*
X2089565Y680025D01*
X2089491Y679803D01*
X2089454Y679507D01*
X2089417Y679210D01*
Y679173D01*
Y678988D01*
X2089454Y678766D01*
X2089529Y678469D01*
X2089640Y678136D01*
X2089825Y677803D01*
X2090047Y677433D01*
X2090343Y677099D01*
X2090380Y677062D01*
X2090528Y676988D01*
X2090751Y676840D01*
X2091047Y676692D01*
X2091454Y676544D01*
X2091936Y676396D01*
X2092491Y676322D01*
X2093158Y676285D01*
X2093454D01*
X2093824Y676322D01*
X2094232Y676396D01*
X2094750Y676470D01*
X2095269Y676618D01*
X2095824Y676803D01*
X2096380Y677062D01*
X2096454Y677099D01*
X2096602Y677210D01*
X2096861Y677396D01*
X2097157Y677655D01*
X2097491Y677951D01*
X2097861Y678321D01*
X2098157Y678766D01*
X2098454Y679247D01*
X2098490Y679284D01*
X2098528Y679432D01*
X2098602Y679692D01*
X2098713Y680025D01*
X2098824Y680469D01*
X2098898Y680988D01*
X2098935Y681617D01*
X2098972Y682358D01*
X2099009Y683543D01*
D02*
G37*
G36*
X2047236D02*
X2047200D01*
X2047162Y683506D01*
X2047051Y683469D01*
X2046903Y683432D01*
X2046718Y683358D01*
X2046496Y683284D01*
X2046237Y683210D01*
X2045940Y683136D01*
X2045607Y683025D01*
X2045200Y682951D01*
X2044792Y682840D01*
X2044311Y682728D01*
X2043793Y682617D01*
X2043274Y682506D01*
X2042681Y682432D01*
X2042052Y682321D01*
X2041978D01*
X2041756Y682284D01*
X2041385Y682210D01*
X2040978Y682136D01*
X2040533Y682062D01*
X2040089Y681951D01*
X2039682Y681840D01*
X2039311Y681691D01*
X2039274D01*
X2039163Y681617D01*
X2039015Y681543D01*
X2038867Y681432D01*
X2038423Y681136D01*
X2038052Y680692D01*
Y680655D01*
X2037978Y680580D01*
X2037941Y680432D01*
X2037867Y680247D01*
X2037793Y680025D01*
X2037719Y679803D01*
X2037682Y679507D01*
X2037645Y679210D01*
Y679173D01*
Y678988D01*
X2037682Y678766D01*
X2037756Y678469D01*
X2037867Y678136D01*
X2038052Y677803D01*
X2038275Y677433D01*
X2038571Y677099D01*
X2038608Y677062D01*
X2038756Y676988D01*
X2038978Y676840D01*
X2039274Y676692D01*
X2039682Y676544D01*
X2040163Y676396D01*
X2040719Y676322D01*
X2041385Y676285D01*
X2041682D01*
X2042052Y676322D01*
X2042459Y676396D01*
X2042978Y676470D01*
X2043496Y676618D01*
X2044052Y676803D01*
X2044607Y677062D01*
X2044681Y677099D01*
X2044829Y677210D01*
X2045089Y677396D01*
X2045385Y677655D01*
X2045718Y677951D01*
X2046089Y678321D01*
X2046385Y678766D01*
X2046681Y679247D01*
X2046718Y679284D01*
X2046755Y679432D01*
X2046829Y679692D01*
X2046940Y680025D01*
X2047051Y680469D01*
X2047125Y680988D01*
X2047162Y681617D01*
X2047200Y682358D01*
X2047236Y683543D01*
D02*
G37*
G36*
X1941655D02*
X1941618D01*
X1941581Y683506D01*
X1941470Y683469D01*
X1941322Y683432D01*
X1941136Y683358D01*
X1940914Y683284D01*
X1940655Y683210D01*
X1940359Y683136D01*
X1940025Y683025D01*
X1939618Y682951D01*
X1939211Y682840D01*
X1938729Y682728D01*
X1938211Y682617D01*
X1937692Y682506D01*
X1937100Y682432D01*
X1936470Y682321D01*
X1936396D01*
X1936174Y682284D01*
X1935804Y682210D01*
X1935396Y682136D01*
X1934952Y682062D01*
X1934507Y681951D01*
X1934100Y681840D01*
X1933730Y681691D01*
X1933693D01*
X1933582Y681617D01*
X1933434Y681543D01*
X1933285Y681432D01*
X1932841Y681136D01*
X1932471Y680692D01*
Y680655D01*
X1932397Y680580D01*
X1932360Y680432D01*
X1932285Y680247D01*
X1932211Y680025D01*
X1932137Y679803D01*
X1932100Y679507D01*
X1932063Y679210D01*
Y679173D01*
Y678988D01*
X1932100Y678766D01*
X1932174Y678469D01*
X1932285Y678136D01*
X1932471Y677803D01*
X1932693Y677433D01*
X1932989Y677099D01*
X1933026Y677062D01*
X1933174Y676988D01*
X1933396Y676840D01*
X1933693Y676692D01*
X1934100Y676544D01*
X1934582Y676396D01*
X1935137Y676322D01*
X1935804Y676285D01*
X1936100D01*
X1936470Y676322D01*
X1936878Y676396D01*
X1937396Y676470D01*
X1937914Y676618D01*
X1938470Y676803D01*
X1939026Y677062D01*
X1939100Y677099D01*
X1939248Y677210D01*
X1939507Y677396D01*
X1939803Y677655D01*
X1940137Y677951D01*
X1940507Y678321D01*
X1940803Y678766D01*
X1941099Y679247D01*
X1941136Y679284D01*
X1941174Y679432D01*
X1941248Y679692D01*
X1941359Y680025D01*
X1941470Y680469D01*
X1941544Y680988D01*
X1941581Y681617D01*
X1941618Y682358D01*
X1941655Y683543D01*
D02*
G37*
G36*
X2063494Y690616D02*
X2062939D01*
X2062791Y690579D01*
X2062383Y690505D01*
X2061902Y690394D01*
X2061346Y690172D01*
X2060754Y689839D01*
X2060457Y689654D01*
X2060161Y689394D01*
X2059865Y689135D01*
X2059569Y688802D01*
Y688765D01*
X2059494Y688728D01*
X2059420Y688617D01*
X2059346Y688468D01*
X2059235Y688283D01*
X2059087Y688061D01*
X2058976Y687802D01*
X2058828Y687506D01*
X2058680Y687135D01*
X2058569Y686765D01*
X2058421Y686321D01*
X2058309Y685876D01*
X2058235Y685358D01*
X2058161Y684802D01*
X2058087Y684247D01*
Y683617D01*
Y683580D01*
Y683469D01*
Y683284D01*
Y683062D01*
X2058124Y682802D01*
Y682469D01*
X2058198Y681766D01*
X2058309Y680988D01*
X2058458Y680173D01*
X2058680Y679432D01*
X2058828Y679099D01*
X2058976Y678803D01*
Y678766D01*
X2059050Y678692D01*
X2059124Y678581D01*
X2059235Y678432D01*
X2059569Y678025D01*
X2060050Y677618D01*
X2060605Y677173D01*
X2061309Y676766D01*
X2061680Y676618D01*
X2062124Y676507D01*
X2062531Y676433D01*
X2063013Y676396D01*
X2063198D01*
X2063346Y676433D01*
X2063753Y676507D01*
X2064235Y676618D01*
X2064790Y676840D01*
X2065383Y677136D01*
X2065975Y677581D01*
X2066272Y677877D01*
X2066568Y678173D01*
Y678210D01*
X2066642Y678247D01*
X2066716Y678358D01*
X2066790Y678507D01*
X2066938Y678692D01*
X2067049Y678914D01*
X2067197Y679210D01*
X2067346Y679507D01*
X2067457Y679877D01*
X2067605Y680247D01*
X2067753Y680692D01*
X2067864Y681173D01*
X2067938Y681691D01*
X2068012Y682247D01*
X2068086Y682877D01*
Y683506D01*
Y683543D01*
Y683654D01*
Y683839D01*
X2068049Y684099D01*
Y684395D01*
X2068012Y684765D01*
X2067901Y685543D01*
X2067753Y686395D01*
X2067494Y687320D01*
X2067123Y688135D01*
X2066901Y688543D01*
X2066642Y688876D01*
Y688913D01*
X2066568Y688950D01*
X2066383Y689135D01*
X2066086Y689431D01*
X2065679Y689765D01*
X2065161Y690061D01*
X2064568Y690357D01*
X2063864Y690542D01*
X2063494Y690616D01*
D02*
G37*
G36*
X2023054D02*
X2022832D01*
X2022684Y690579D01*
X2022276Y690542D01*
X2021795Y690431D01*
X2021202Y690246D01*
X2020573Y689987D01*
X2019980Y689616D01*
X2019388Y689135D01*
X2019314Y689061D01*
X2019165Y688876D01*
X2018906Y688543D01*
X2018647Y688098D01*
X2018351Y687580D01*
X2018091Y686913D01*
X2017869Y686135D01*
X2017758Y685284D01*
X2028164D01*
Y685321D01*
Y685395D01*
X2028127Y685506D01*
Y685654D01*
X2028053Y686098D01*
X2027942Y686580D01*
X2027757Y687172D01*
X2027572Y687728D01*
X2027276Y688283D01*
X2026942Y688765D01*
Y688802D01*
X2026868Y688839D01*
X2026683Y689061D01*
X2026350Y689357D01*
X2025905Y689691D01*
X2025350Y690024D01*
X2024683Y690320D01*
X2023906Y690542D01*
X2023498Y690579D01*
X2023054Y690616D01*
D02*
G37*
G36*
X1975133D02*
X1974911D01*
X1974725Y690579D01*
X1974318Y690542D01*
X1973763Y690394D01*
X1973133Y690172D01*
X1972466Y689876D01*
X1971837Y689431D01*
X1971504Y689135D01*
X1971207Y688839D01*
Y688802D01*
X1971133Y688765D01*
X1971059Y688654D01*
X1970948Y688505D01*
X1970837Y688320D01*
X1970726Y688098D01*
X1970578Y687802D01*
X1970430Y687506D01*
X1970282Y687135D01*
X1970133Y686765D01*
X1970022Y686321D01*
X1969911Y685839D01*
X1969800Y685321D01*
X1969726Y684765D01*
X1969689Y684136D01*
X1969652Y683506D01*
Y683469D01*
Y683358D01*
Y683173D01*
X1969689Y682914D01*
Y682617D01*
X1969726Y682284D01*
X1969837Y681506D01*
X1970022Y680618D01*
X1970319Y679729D01*
X1970689Y678877D01*
X1970948Y678507D01*
X1971207Y678136D01*
X1971244D01*
X1971281Y678062D01*
X1971504Y677877D01*
X1971837Y677581D01*
X1972281Y677284D01*
X1972837Y676951D01*
X1973503Y676655D01*
X1974281Y676470D01*
X1974689Y676433D01*
X1975133Y676396D01*
X1975355D01*
X1975540Y676433D01*
X1975948Y676507D01*
X1976503Y676618D01*
X1977096Y676840D01*
X1977762Y677136D01*
X1978392Y677581D01*
X1978725Y677877D01*
X1979021Y678173D01*
X1979058Y678210D01*
X1979095Y678247D01*
X1979169Y678358D01*
X1979281Y678507D01*
X1979392Y678692D01*
X1979540Y678914D01*
X1979688Y679210D01*
X1979836Y679507D01*
X1979984Y679877D01*
X1980095Y680284D01*
X1980244Y680729D01*
X1980355Y681210D01*
X1980466Y681766D01*
X1980540Y682321D01*
X1980614Y682951D01*
Y683617D01*
Y683654D01*
Y683765D01*
Y683950D01*
X1980577Y684173D01*
Y684469D01*
X1980540Y684802D01*
X1980429Y685580D01*
X1980244Y686395D01*
X1979947Y687283D01*
X1979540Y688098D01*
X1979318Y688505D01*
X1979021Y688839D01*
Y688876D01*
X1978947Y688913D01*
X1978725Y689135D01*
X1978392Y689394D01*
X1977947Y689728D01*
X1977392Y690061D01*
X1976725Y690357D01*
X1975985Y690542D01*
X1975577Y690579D01*
X1975133Y690616D01*
D02*
G37*
G36*
X2051051Y652346D02*
X2051014D01*
X2050977Y652309D01*
X2050866Y652272D01*
X2050718Y652235D01*
X2050533Y652161D01*
X2050310Y652087D01*
X2050051Y652013D01*
X2049755Y651939D01*
X2049422Y651828D01*
X2049014Y651754D01*
X2048607Y651643D01*
X2048125Y651532D01*
X2047607Y651421D01*
X2047088Y651309D01*
X2046496Y651235D01*
X2045866Y651124D01*
X2045792D01*
X2045570Y651087D01*
X2045200Y651013D01*
X2044792Y650939D01*
X2044348Y650865D01*
X2043904Y650754D01*
X2043496Y650643D01*
X2043126Y650495D01*
X2043089D01*
X2042978Y650421D01*
X2042830Y650347D01*
X2042681Y650235D01*
X2042237Y649939D01*
X2041867Y649495D01*
Y649458D01*
X2041793Y649384D01*
X2041756Y649236D01*
X2041682Y649050D01*
X2041608Y648828D01*
X2041533Y648606D01*
X2041496Y648310D01*
X2041459Y648013D01*
Y647976D01*
Y647791D01*
X2041496Y647569D01*
X2041570Y647273D01*
X2041682Y646939D01*
X2041867Y646606D01*
X2042089Y646236D01*
X2042385Y645902D01*
X2042422Y645865D01*
X2042570Y645791D01*
X2042793Y645643D01*
X2043089Y645495D01*
X2043496Y645347D01*
X2043978Y645199D01*
X2044533Y645125D01*
X2045200Y645088D01*
X2045496D01*
X2045866Y645125D01*
X2046274Y645199D01*
X2046792Y645273D01*
X2047311Y645421D01*
X2047866Y645606D01*
X2048422Y645865D01*
X2048496Y645902D01*
X2048644Y646014D01*
X2048903Y646199D01*
X2049199Y646458D01*
X2049533Y646754D01*
X2049903Y647125D01*
X2050199Y647569D01*
X2050495Y648051D01*
X2050533Y648087D01*
X2050569Y648236D01*
X2050644Y648495D01*
X2050755Y648828D01*
X2050866Y649273D01*
X2050940Y649791D01*
X2050977Y650421D01*
X2051014Y651161D01*
X2051051Y652346D01*
D02*
G37*
G36*
X2001278D02*
X2001241D01*
X2001204Y652309D01*
X2001093Y652272D01*
X2000945Y652235D01*
X2000760Y652161D01*
X2000538Y652087D01*
X2000278Y652013D01*
X1999982Y651939D01*
X1999649Y651828D01*
X1999241Y651754D01*
X1998834Y651643D01*
X1998353Y651532D01*
X1997834Y651421D01*
X1997316Y651309D01*
X1996723Y651235D01*
X1996094Y651124D01*
X1996020D01*
X1995797Y651087D01*
X1995427Y651013D01*
X1995020Y650939D01*
X1994575Y650865D01*
X1994131Y650754D01*
X1993724Y650643D01*
X1993353Y650495D01*
X1993316D01*
X1993205Y650421D01*
X1993057Y650347D01*
X1992909Y650235D01*
X1992464Y649939D01*
X1992094Y649495D01*
Y649458D01*
X1992020Y649384D01*
X1991983Y649236D01*
X1991909Y649050D01*
X1991835Y648828D01*
X1991761Y648606D01*
X1991724Y648310D01*
X1991687Y648013D01*
Y647976D01*
Y647791D01*
X1991724Y647569D01*
X1991798Y647273D01*
X1991909Y646939D01*
X1992094Y646606D01*
X1992316Y646236D01*
X1992613Y645902D01*
X1992650Y645865D01*
X1992798Y645791D01*
X1993020Y645643D01*
X1993316Y645495D01*
X1993724Y645347D01*
X1994205Y645199D01*
X1994760Y645125D01*
X1995427Y645088D01*
X1995723D01*
X1996094Y645125D01*
X1996501Y645199D01*
X1997020Y645273D01*
X1997538Y645421D01*
X1998094Y645606D01*
X1998649Y645865D01*
X1998723Y645902D01*
X1998871Y646014D01*
X1999130Y646199D01*
X1999427Y646458D01*
X1999760Y646754D01*
X2000130Y647125D01*
X2000427Y647569D01*
X2000723Y648051D01*
X2000760Y648087D01*
X2000797Y648236D01*
X2000871Y648495D01*
X2000982Y648828D01*
X2001093Y649273D01*
X2001167Y649791D01*
X2001204Y650421D01*
X2001241Y651161D01*
X2001278Y652346D01*
D02*
G37*
G36*
X1973281Y665604D02*
X1967356D01*
Y646051D01*
X1973429D01*
X1973689Y646088D01*
X1974244Y646125D01*
X1974874Y646162D01*
X1975540Y646236D01*
X1976207Y646347D01*
X1976762Y646495D01*
X1976836Y646532D01*
X1977022Y646569D01*
X1977281Y646680D01*
X1977614Y646828D01*
X1977984Y647051D01*
X1978355Y647273D01*
X1978725Y647532D01*
X1979095Y647828D01*
X1979133Y647902D01*
X1979281Y648051D01*
X1979503Y648310D01*
X1979762Y648680D01*
X1980058Y649162D01*
X1980392Y649717D01*
X1980688Y650347D01*
X1980947Y651050D01*
Y651087D01*
X1980984Y651161D01*
X1981021Y651272D01*
X1981058Y651421D01*
X1981095Y651606D01*
X1981169Y651865D01*
X1981243Y652124D01*
X1981317Y652420D01*
X1981429Y653161D01*
X1981540Y654013D01*
X1981614Y654976D01*
X1981651Y656013D01*
Y656050D01*
Y656198D01*
Y656383D01*
X1981614Y656679D01*
Y657012D01*
X1981577Y657383D01*
X1981540Y657827D01*
X1981503Y658272D01*
X1981317Y659271D01*
X1981095Y660309D01*
X1980762Y661271D01*
X1980540Y661753D01*
X1980318Y662160D01*
Y662197D01*
X1980244Y662271D01*
X1980169Y662382D01*
X1980095Y662531D01*
X1979799Y662901D01*
X1979429Y663345D01*
X1978947Y663827D01*
X1978392Y664308D01*
X1977762Y664715D01*
X1977096Y665049D01*
X1977022Y665086D01*
X1976836Y665123D01*
X1976503Y665234D01*
X1976022Y665345D01*
X1975429Y665419D01*
X1974689Y665530D01*
X1974244Y665567D01*
X1973763D01*
X1973281Y665604D01*
D02*
G37*
G36*
X1865181Y665975D02*
Y665938D01*
X1865144Y665863D01*
Y665715D01*
X1865070Y665567D01*
X1865033Y665308D01*
X1864959Y665049D01*
X1864811Y664419D01*
X1864626Y663679D01*
X1864367Y662864D01*
X1864107Y661975D01*
X1863774Y661049D01*
X1860997Y653568D01*
X1869662D01*
X1866996Y660605D01*
Y660642D01*
X1866959Y660753D01*
X1866885Y660938D01*
X1866811Y661160D01*
X1866700Y661420D01*
X1866589Y661753D01*
X1866478Y662123D01*
X1866329Y662493D01*
X1866033Y663345D01*
X1865737Y664234D01*
X1865441Y665123D01*
X1865181Y665975D01*
D02*
G37*
G36*
X2142301Y659420D02*
X2142079D01*
X2141893Y659383D01*
X2141486Y659346D01*
X2140930Y659197D01*
X2140301Y658975D01*
X2139634Y658679D01*
X2139005Y658235D01*
X2138672Y657938D01*
X2138375Y657642D01*
Y657605D01*
X2138301Y657568D01*
X2138227Y657457D01*
X2138116Y657309D01*
X2138005Y657124D01*
X2137894Y656901D01*
X2137746Y656605D01*
X2137598Y656309D01*
X2137449Y655938D01*
X2137301Y655568D01*
X2137190Y655124D01*
X2137079Y654642D01*
X2136968Y654124D01*
X2136894Y653568D01*
X2136857Y652939D01*
X2136820Y652309D01*
Y652272D01*
Y652161D01*
Y651976D01*
X2136857Y651717D01*
Y651421D01*
X2136894Y651087D01*
X2137005Y650310D01*
X2137190Y649421D01*
X2137487Y648532D01*
X2137857Y647680D01*
X2138116Y647310D01*
X2138375Y646939D01*
X2138412D01*
X2138449Y646865D01*
X2138672Y646680D01*
X2139005Y646384D01*
X2139449Y646088D01*
X2140005Y645754D01*
X2140671Y645458D01*
X2141449Y645273D01*
X2141856Y645236D01*
X2142301Y645199D01*
X2142523D01*
X2142708Y645236D01*
X2143116Y645310D01*
X2143671Y645421D01*
X2144263Y645643D01*
X2144930Y645940D01*
X2145560Y646384D01*
X2145893Y646680D01*
X2146189Y646976D01*
X2146226Y647013D01*
X2146263Y647051D01*
X2146337Y647162D01*
X2146449Y647310D01*
X2146560Y647495D01*
X2146708Y647717D01*
X2146856Y648013D01*
X2147004Y648310D01*
X2147152Y648680D01*
X2147263Y649087D01*
X2147411Y649532D01*
X2147522Y650013D01*
X2147634Y650569D01*
X2147708Y651124D01*
X2147782Y651754D01*
Y652420D01*
Y652457D01*
Y652569D01*
Y652754D01*
X2147745Y652976D01*
Y653272D01*
X2147708Y653605D01*
X2147596Y654383D01*
X2147411Y655198D01*
X2147115Y656087D01*
X2146708Y656901D01*
X2146485Y657309D01*
X2146189Y657642D01*
Y657679D01*
X2146115Y657716D01*
X2145893Y657938D01*
X2145560Y658198D01*
X2145115Y658531D01*
X2144560Y658864D01*
X2143893Y659160D01*
X2143152Y659346D01*
X2142745Y659383D01*
X2142301Y659420D01*
D02*
G37*
G36*
X2102564D02*
X2102342D01*
X2102194Y659383D01*
X2101786Y659346D01*
X2101305Y659234D01*
X2100712Y659049D01*
X2100083Y658790D01*
X2099490Y658420D01*
X2098898Y657938D01*
X2098824Y657864D01*
X2098676Y657679D01*
X2098416Y657346D01*
X2098157Y656901D01*
X2097861Y656383D01*
X2097602Y655716D01*
X2097379Y654939D01*
X2097268Y654087D01*
X2107675D01*
Y654124D01*
Y654198D01*
X2107638Y654309D01*
Y654457D01*
X2107564Y654902D01*
X2107453Y655383D01*
X2107267Y655976D01*
X2107082Y656531D01*
X2106786Y657087D01*
X2106453Y657568D01*
Y657605D01*
X2106379Y657642D01*
X2106193Y657864D01*
X2105860Y658160D01*
X2105416Y658494D01*
X2104860Y658827D01*
X2104194Y659123D01*
X2103416Y659346D01*
X2103009Y659383D01*
X2102564Y659420D01*
D02*
G37*
G36*
X1909827Y722889D02*
X1906160D01*
Y718316D01*
X1909604D01*
X1909734Y718334D01*
X1909863D01*
X1910012Y718353D01*
X1910363Y718390D01*
X1910752Y718464D01*
X1911141Y718575D01*
X1911493Y718723D01*
X1911660Y718816D01*
X1911789Y718927D01*
X1911826Y718964D01*
X1911900Y719038D01*
X1912011Y719186D01*
X1912141Y719371D01*
X1912271Y719612D01*
X1912382Y719908D01*
X1912456Y720241D01*
X1912493Y720630D01*
Y720649D01*
Y720667D01*
Y720760D01*
X1912474Y720927D01*
X1912437Y721112D01*
X1912400Y721316D01*
X1912326Y721556D01*
X1912215Y721778D01*
X1912086Y722001D01*
X1912067Y722019D01*
X1912011Y722093D01*
X1911919Y722186D01*
X1911808Y722315D01*
X1911641Y722445D01*
X1911456Y722556D01*
X1911252Y722667D01*
X1911012Y722760D01*
X1910993D01*
X1910919Y722778D01*
X1910808Y722797D01*
X1910660Y722834D01*
X1910437Y722852D01*
X1910160Y722871D01*
X1909827Y722889D01*
D02*
G37*
G36*
X1925917Y719797D02*
X1925806D01*
X1925714Y719779D01*
X1925510Y719760D01*
X1925232Y719686D01*
X1924917Y719575D01*
X1924584Y719427D01*
X1924269Y719205D01*
X1924103Y719056D01*
X1923955Y718908D01*
Y718890D01*
X1923918Y718871D01*
X1923881Y718816D01*
X1923825Y718742D01*
X1923770Y718649D01*
X1923714Y718538D01*
X1923640Y718390D01*
X1923566Y718242D01*
X1923492Y718057D01*
X1923418Y717871D01*
X1923362Y717649D01*
X1923306Y717409D01*
X1923251Y717149D01*
X1923214Y716871D01*
X1923195Y716557D01*
X1923177Y716242D01*
Y716223D01*
Y716168D01*
Y716075D01*
X1923195Y715946D01*
Y715798D01*
X1923214Y715631D01*
X1923270Y715242D01*
X1923362Y714798D01*
X1923510Y714353D01*
X1923695Y713927D01*
X1923825Y713742D01*
X1923955Y713557D01*
X1923973D01*
X1923992Y713520D01*
X1924103Y713427D01*
X1924269Y713279D01*
X1924492Y713131D01*
X1924769Y712964D01*
X1925103Y712816D01*
X1925491Y712724D01*
X1925695Y712705D01*
X1925917Y712687D01*
X1926028D01*
X1926121Y712705D01*
X1926325Y712742D01*
X1926602Y712798D01*
X1926899Y712909D01*
X1927232Y713057D01*
X1927547Y713279D01*
X1927713Y713427D01*
X1927862Y713576D01*
X1927880Y713594D01*
X1927899Y713613D01*
X1927936Y713668D01*
X1927991Y713742D01*
X1928047Y713835D01*
X1928121Y713946D01*
X1928195Y714094D01*
X1928269Y714242D01*
X1928343Y714427D01*
X1928399Y714631D01*
X1928473Y714853D01*
X1928528Y715094D01*
X1928584Y715372D01*
X1928621Y715649D01*
X1928658Y715964D01*
Y716298D01*
Y716316D01*
Y716372D01*
Y716464D01*
X1928639Y716575D01*
Y716723D01*
X1928621Y716890D01*
X1928565Y717279D01*
X1928473Y717686D01*
X1928324Y718131D01*
X1928121Y718538D01*
X1928010Y718742D01*
X1927862Y718908D01*
Y718927D01*
X1927825Y718945D01*
X1927713Y719056D01*
X1927547Y719186D01*
X1927325Y719353D01*
X1927047Y719519D01*
X1926714Y719668D01*
X1926343Y719760D01*
X1926140Y719779D01*
X1925917Y719797D01*
D02*
G37*
G36*
X1893069D02*
X1892958D01*
X1892865Y719779D01*
X1892662Y719760D01*
X1892384Y719686D01*
X1892069Y719575D01*
X1891736Y719427D01*
X1891421Y719205D01*
X1891254Y719056D01*
X1891106Y718908D01*
Y718890D01*
X1891069Y718871D01*
X1891032Y718816D01*
X1890977Y718742D01*
X1890921Y718649D01*
X1890865Y718538D01*
X1890791Y718390D01*
X1890717Y718242D01*
X1890643Y718057D01*
X1890569Y717871D01*
X1890514Y717649D01*
X1890458Y717409D01*
X1890403Y717149D01*
X1890365Y716871D01*
X1890347Y716557D01*
X1890329Y716242D01*
Y716223D01*
Y716168D01*
Y716075D01*
X1890347Y715946D01*
Y715798D01*
X1890365Y715631D01*
X1890421Y715242D01*
X1890514Y714798D01*
X1890662Y714353D01*
X1890847Y713927D01*
X1890977Y713742D01*
X1891106Y713557D01*
X1891125D01*
X1891143Y713520D01*
X1891254Y713427D01*
X1891421Y713279D01*
X1891643Y713131D01*
X1891921Y712964D01*
X1892254Y712816D01*
X1892643Y712724D01*
X1892847Y712705D01*
X1893069Y712687D01*
X1893180D01*
X1893273Y712705D01*
X1893476Y712742D01*
X1893754Y712798D01*
X1894050Y712909D01*
X1894384Y713057D01*
X1894698Y713279D01*
X1894865Y713427D01*
X1895013Y713576D01*
X1895032Y713594D01*
X1895050Y713613D01*
X1895087Y713668D01*
X1895143Y713742D01*
X1895198Y713835D01*
X1895272Y713946D01*
X1895347Y714094D01*
X1895421Y714242D01*
X1895495Y714427D01*
X1895550Y714631D01*
X1895624Y714853D01*
X1895680Y715094D01*
X1895735Y715372D01*
X1895772Y715649D01*
X1895809Y715964D01*
Y716298D01*
Y716316D01*
Y716372D01*
Y716464D01*
X1895791Y716575D01*
Y716723D01*
X1895772Y716890D01*
X1895717Y717279D01*
X1895624Y717686D01*
X1895476Y718131D01*
X1895272Y718538D01*
X1895161Y718742D01*
X1895013Y718908D01*
Y718927D01*
X1894976Y718945D01*
X1894865Y719056D01*
X1894698Y719186D01*
X1894476Y719353D01*
X1894198Y719519D01*
X1893865Y719668D01*
X1893495Y719760D01*
X1893291Y719779D01*
X1893069Y719797D01*
D02*
G37*
G36*
X1874200D02*
X1874089D01*
X1874015Y719779D01*
X1873812Y719760D01*
X1873571Y719705D01*
X1873275Y719612D01*
X1872960Y719482D01*
X1872664Y719297D01*
X1872367Y719056D01*
X1872330Y719019D01*
X1872256Y718927D01*
X1872127Y718760D01*
X1871997Y718538D01*
X1871849Y718279D01*
X1871719Y717945D01*
X1871608Y717557D01*
X1871553Y717131D01*
X1876756D01*
Y717149D01*
Y717186D01*
X1876737Y717242D01*
Y717316D01*
X1876700Y717538D01*
X1876645Y717779D01*
X1876552Y718075D01*
X1876460Y718353D01*
X1876311Y718631D01*
X1876145Y718871D01*
Y718890D01*
X1876108Y718908D01*
X1876015Y719019D01*
X1875849Y719168D01*
X1875626Y719334D01*
X1875349Y719501D01*
X1875015Y719649D01*
X1874626Y719760D01*
X1874423Y719779D01*
X1874200Y719797D01*
D02*
G37*
%LPD*%
M02*
