ISO-10303-21;
HEADER;
FILE_DESCRIPTION (( 'STEP AP214' ),
    '1' );
FILE_NAME ('CD26C6E7-0A3F-4281-9F10-F8D1275DEA1F.STEP',
    '2026-07-17T11:10:13',
    ( '' ),
    ( '' ),
    'SwSTEP 2.0',
    'SolidWorks 2022',
    '' );
FILE_SCHEMA (( 'AUTOMOTIVE_DESIGN' ));
ENDSEC;

DATA;
#1 = LINE ( 'NONE', #1257, #351 ) ;
#2 = VERTEX_POINT ( 'NONE', #918 ) ;
#3 = FACE_OUTER_BOUND ( 'NONE', #683, .T. ) ;
#4 = VECTOR ( 'NONE', #311, 1000.000000000000000 ) ;
#5 = CARTESIAN_POINT ( 'NONE',  ( 0.7500000000000000000, 12.69999999999999929, -5.837287255412931941E-15 ) ) ;
#6 = ORIENTED_EDGE ( 'NONE', *, *, #1183, .F. ) ;
#7 = VECTOR ( 'NONE', #1010, 1000.000000000000000 ) ;
#8 = CARTESIAN_POINT ( 'NONE',  ( -0.7999999999999996003, 8.089999999999999858, 8.400000000000000355 ) ) ;
#9 = COLOUR_RGB ( '',0.1294117647058823373, 0.1294117647058823373, 0.1294117647058823373 ) ;
#10 = ADVANCED_FACE ( 'PartBody', ( #1326 ), #212, .F. ) ;
#11 = CARTESIAN_POINT ( 'NONE',  ( 0.4000000000000000222, 11.02999999999999936, 0.5000000000000004441 ) ) ;
#12 = VERTEX_POINT ( 'NONE', #838 ) ;
#13 = CARTESIAN_POINT ( 'NONE',  ( -0.2999999999999999889, 0.0000000000000000000, 1.053775882719999890 ) ) ;
#14 = UNCERTAINTY_MEASURE_WITH_UNIT (LENGTH_MEASURE( 1.000000000000000082E-05 ), #107, 'distance_accuracy_value', 'NONE');
#15 = LINE ( 'NONE', #806, #776 ) ;
#16 = VERTEX_POINT ( 'NONE', #425 ) ;
#17 = DIRECTION ( 'NONE',  ( -0.0000000000000000000, 1.000000000000000000, 0.0000000000000000000 ) ) ;
#18 = LINE ( 'NONE', #1044, #1147 ) ;
#19 = VERTEX_POINT ( 'NONE', #1150 ) ;
#20 = ADVANCED_FACE ( 'NONE', ( #337 ), #1279, .T. ) ;
#21 = FILL_AREA_STYLE_COLOUR ( '', #285 ) ;
#22 = ORIENTED_EDGE ( 'NONE', *, *, #507, .F. ) ;
#23 = CARTESIAN_POINT ( 'NONE',  ( -0.3000000000000000999, 11.13000000000000078, -2.899999999999999911 ) ) ;
#24 = CARTESIAN_POINT ( 'NONE',  ( -0.3000000000000000999, 11.73000000000000043, -2.899999999999999911 ) ) ;
#25 = ORIENTED_EDGE ( 'NONE', *, *, #490, .T. ) ;
#26 = EDGE_CURVE ( 'NONE', #316, #801, #342, .T. ) ;
#27 = DIRECTION ( 'NONE',  ( 0.0000000000000000000, 0.7071067811865475727, -0.7071067811865475727 ) ) ;
#28 = COLOUR_RGB ( '',0.8313725490196077761, 0.8313725490196077761, 0.0000000000000000000 ) ;
#29 = CARTESIAN_POINT ( 'NONE',  ( 0.3999999999999998557, 11.83000000000000007, 8.000000000000000000 ) ) ;
#30 = VECTOR ( 'NONE', #1206, 1000.000000000000000 ) ;
#31 = AXIS2_PLACEMENT_3D ( 'NONE', #152, #238, #246 ) ;
#32 = CARTESIAN_POINT ( 'NONE',  ( 0.2999999999999999889, 8.589999999999999858, -3.046446609406725958 ) ) ;
#33 = VERTEX_POINT ( 'NONE', #1156 ) ;
#34 = DIRECTION ( 'NONE',  ( 0.0000000000000000000, 0.0000000000000000000, -1.000000000000000000 ) ) ;
#35 = FACE_OUTER_BOUND ( 'NONE', #1225, .T. ) ;
#36 = CARTESIAN_POINT ( 'NONE',  ( 1.250000000000000000, 7.620000000000000107, 8.400000000000000355 ) ) ;
#37 = ORIENTED_EDGE ( 'NONE', *, *, #354, .T. ) ;
#38 = CARTESIAN_POINT ( 'NONE',  ( 0.7500000000000000000, 7.620000000000000107, 0.5000000000000001110 ) ) ;
#39 = CARTESIAN_POINT ( 'NONE',  ( -0.8000000000000002665, 8.089999999999999858, 8.400000000000000355 ) ) ;
#40 = EDGE_CURVE ( 'NONE', #308, #1132, #649, .T. ) ;
#41 = CARTESIAN_POINT ( 'NONE',  ( -0.4000000000000000222, 11.83000000000000007, 8.000000000000000000 ) ) ;
#42 = ORIENTED_EDGE ( 'NONE', *, *, #99, .F. ) ;
#43 =( NAMED_UNIT ( * ) SI_UNIT ( $, .STERADIAN. ) SOLID_ANGLE_UNIT ( ) );
#44 = CARTESIAN_POINT ( 'NONE',  ( 0.0000000000000000000, 12.69999999999999929, 0.0000000000000000000 ) ) ;
#45 = FACE_OUTER_BOUND ( 'NONE', #679, .T. ) ;
#46 = VECTOR ( 'NONE', #470, 1000.000000000000000 ) ;
#47 = ADVANCED_FACE ( 'NONE', ( #228 ), #538, .F. ) ;
#48 = CYLINDRICAL_SURFACE ( 'NONE', #669, 0.2500000000000002220 ) ;
#49 = VECTOR ( 'NONE', #1265, 1000.000000000000000 ) ;
#50 = VECTOR ( 'NONE', #593, 1000.000000000000000 ) ;
#51 = EDGE_CURVE ( 'NONE', #1251, #1117, #437, .T. ) ;
#52 = ADVANCED_FACE ( 'NONE', ( #863 ), #245, .F. ) ;
#53 = VERTEX_POINT ( 'NONE', #764 ) ;
#54 = CARTESIAN_POINT ( 'NONE',  ( 0.0000000000000000000, 11.38000000000000078, -3.149999999999999911 ) ) ;
#55 = DIRECTION ( 'NONE',  ( -0.0000000000000000000, -1.000000000000000000, -0.0000000000000000000 ) ) ;
#56 = ORIENTED_EDGE ( 'NONE', *, *, #287, .T. ) ;
#57 = EDGE_CURVE ( 'NONE', #96, #1117, #151, .T. ) ;
#58 = CARTESIAN_POINT ( 'NONE',  ( 0.8000000000000000444, 7.620000000000000107, 8.400000000000000355 ) ) ;
#59 = MANIFOLD_SOLID_BREP ( 'Body.2.2', #309 ) ;
#60 = CARTESIAN_POINT ( 'NONE',  ( -0.7500000000000000000, 11.83000000000000007, 0.5000000000000000000 ) ) ;
#61 = DIRECTION ( 'NONE',  ( -0.0000000000000000000, 1.000000000000000000, 0.0000000000000000000 ) ) ;
#62 = EDGE_LOOP ( 'NONE', ( #199, #796, #1144, #481 ) ) ;
#63 = CARTESIAN_POINT ( 'NONE',  ( 0.0000000000000000000, 7.620000000000000107, -5.831485763410000748E-15 ) ) ;
#64 = DIRECTION ( 'NONE',  ( 0.0000000000000000000, 0.0000000000000000000, -1.000000000000000000 ) ) ;
#65 = ORIENTED_EDGE ( 'NONE', *, *, #192, .T. ) ;
#66 = CARTESIAN_POINT ( 'NONE',  ( -0.8000000000000000444, 7.620000000000000107, 8.400000000000000355 ) ) ;
#67 = VECTOR ( 'NONE', #719, 1000.000000000000000 ) ;
#68 =( NAMED_UNIT ( * ) SI_UNIT ( $, .STERADIAN. ) SOLID_ANGLE_UNIT ( ) );
#69 = ORIENTED_EDGE ( 'NONE', *, *, #250, .F. ) ;
#70 = VECTOR ( 'NONE', #475, 1000.000000000000000 ) ;
#71 = AXIS2_PLACEMENT_3D ( 'NONE', #742, #847, #426 ) ;
#72 = DIRECTION ( 'NONE',  ( 1.000000000000000000, 0.0000000000000000000, 0.0000000000000000000 ) ) ;
#73 = PLANE ( 'NONE',  #692 ) ;
#74 = EDGE_LOOP ( 'NONE', ( #699, #1323, #1258, #6 ) ) ;
#75 = ADVANCED_FACE ( 'NONE', ( #1175 ), #1259, .F. ) ;
#76 =( BOUNDED_CURVE ( )  B_SPLINE_CURVE ( 3, ( #625, #919, #706, #1017 ),
 .UNSPECIFIED., .F., .T. ) 
 B_SPLINE_CURVE_WITH_KNOTS ( ( 4, 4 ),
 ( 3.141592653589793116, 4.712388980384689674 ),
 .UNSPECIFIED. ) 
 CURVE ( )  GEOMETRIC_REPRESENTATION_ITEM ( )  RATIONAL_B_SPLINE_CURVE ( ( 1.000000000000000000, 0.8047378541243649375, 0.8047378541243649375, 1.000000000000000000 ) ) 
 REPRESENTATION_ITEM ( '' )  );
#77 = LINE ( 'NONE', #1118, #990 ) ;
#78 = LINE ( 'NONE', #897, #1290 ) ;
#79 = VERTEX_POINT ( 'NONE', #1163 ) ;
#80 = CARTESIAN_POINT ( 'NONE',  ( 0.0000000000000000000, 7.620000000000000107, -5.831485763410000748E-15 ) ) ;
#81 = DIRECTION ( 'NONE',  ( 1.000000000000000000, 0.0000000000000000000, 0.0000000000000000000 ) ) ;
#82 = ORIENTED_EDGE ( 'NONE', *, *, #1091, .F. ) ;
#83 = LINE ( 'NONE', #489, #926 ) ;
#84 = LINE ( 'NONE', #301, #497 ) ;
#85 = ORIENTED_EDGE ( 'NONE', *, *, #763, .T. ) ;
#86 = CARTESIAN_POINT ( 'NONE',  ( -0.8000000000000000444, 7.620000000000000107, 8.400000000000000355 ) ) ;
#87 = CARTESIAN_POINT ( 'NONE',  ( 0.8000000000000000444, 9.689999999999997726, 8.400000000000000355 ) ) ;
#88 = VERTEX_POINT ( 'NONE', #254 ) ;
#89 = LINE ( 'NONE', #280, #30 ) ;
#90 = DIRECTION ( 'NONE',  ( 1.000000000000000000, 0.0000000000000000000, 0.0000000000000000000 ) ) ;
#91 = EDGE_LOOP ( 'NONE', ( #718, #1249, #274, #169 ) ) ;
#92 = VECTOR ( 'NONE', #884, 1000.000000000000000 ) ;
#93 = EDGE_CURVE ( 'NONE', #1251, #849, #668, .T. ) ;
#94 = VECTOR ( 'NONE', #1001, 1000.000000000000000 ) ;
#95 = LINE ( 'NONE', #521, #67 ) ;
#96 = VERTEX_POINT ( 'NONE', #236 ) ;
#97 = CARTESIAN_POINT ( 'NONE',  ( -0.1964466094067261748, 11.62644660940672914, -3.149999999999999023 ) ) ;
#98 = ORIENTED_EDGE ( 'NONE', *, *, #99, .T. ) ;
#99 = EDGE_CURVE ( 'NONE', #1047, #428, #545, .T. ) ;
#100 = DIRECTION ( 'NONE',  ( -1.000000000000000000, -0.0000000000000000000, -0.0000000000000000000 ) ) ;
#101 = DIRECTION ( 'NONE',  ( -0.0000000000000000000, 0.0000000000000000000, 1.000000000000000000 ) ) ;
#102 = ORIENTED_EDGE ( 'NONE', *, *, #125, .F. ) ;
#103 = LINE ( 'NONE', #1328, #799 ) ;
#104 = CARTESIAN_POINT ( 'NONE',  ( 0.05000000000000000278, 11.38000000000000078, -3.149999999999999911 ) ) ;
#105 = ORIENTED_EDGE ( 'NONE', *, *, #882, .F. ) ;
#106 = DIRECTION ( 'NONE',  ( -0.0000000000000000000, 0.0000000000000000000, -1.000000000000000000 ) ) ;
#107 =( LENGTH_UNIT ( ) NAMED_UNIT ( * ) SI_UNIT ( .MILLI., .METRE. ) );
#108 = APPLICATION_CONTEXT ( 'automotive_design' ) ;
#109 = ORIENTED_EDGE ( 'NONE', *, *, #966, .F. ) ;
#110 = LINE ( 'NONE', #326, #906 ) ;
#111 = DIRECTION ( 'NONE',  ( -1.000000000000000000, 0.0000000000000000000, 0.0000000000000000000 ) ) ;
#112 = ORIENTED_EDGE ( 'NONE', *, *, #432, .T. ) ;
#113 = FACE_OUTER_BOUND ( 'NONE', #819, .T. ) ;
#114 = VECTOR ( 'NONE', #1065, 1000.000000000000000 ) ;
#115 = VECTOR ( 'NONE', #934, 1000.000000000000000 ) ;
#116 = ORIENTED_EDGE ( 'NONE', *, *, #291, .F. ) ;
#117 = AXIS2_PLACEMENT_3D ( 'NONE', #362, #81, #168 ) ;
#118 = CARTESIAN_POINT ( 'NONE',  ( -0.05000000000000000278, 11.42999999999999972, -2.899999999999999911 ) ) ;
#119 = AXIS2_PLACEMENT_3D ( 'NONE', #752, #1162, #855 ) ;
#120 = CARTESIAN_POINT ( 'NONE',  ( 0.2999999999999999889, 11.73000000000000043, 0.0000000000000000000 ) ) ;
#121 = VERTEX_POINT ( 'NONE', #38 ) ;
#122 =( LENGTH_UNIT ( ) NAMED_UNIT ( * ) SI_UNIT ( .MILLI., .METRE. ) );
#123 = EDGE_LOOP ( 'NONE', ( #1195, #406, #666, #1094 ) ) ;
#124 = DIRECTION ( 'NONE',  ( 1.000000000000000000, 0.0000000000000000000, 0.0000000000000000000 ) ) ;
#125 = EDGE_CURVE ( 'NONE', #209, #121, #348, .T. ) ;
#126 = ORIENTED_EDGE ( 'NONE', *, *, #614, .F. ) ;
#127 = ORIENTED_EDGE ( 'NONE', *, *, #873, .T. ) ;
#128 =( NAMED_UNIT ( * ) PLANE_ANGLE_UNIT ( ) SI_UNIT ( $, .RADIAN. ) );
#129 = DIRECTION ( 'NONE',  ( 0.0000000000000000000, 0.7071067811865474617, 0.7071067811865474617 ) ) ;
#130 = LINE ( 'NONE', #857, #1273 ) ;
#131 = PLANE ( 'NONE',  #629 ) ;
#132 = EDGE_LOOP ( 'NONE', ( #644, #859, #1059, #921 ) ) ;
#133 = ADVANCED_FACE ( 'NONE', ( #262 ), #571, .F. ) ;
#134 = EDGE_CURVE ( 'NONE', #576, #150, #479, .T. ) ;
#135 = VECTOR ( 'NONE', #585, 1000.000000000000000 ) ;
#136 = DIRECTION ( 'NONE',  ( 0.0000000000000000000, 1.000000000000000000, 0.0000000000000000000 ) ) ;
#137 = VECTOR ( 'NONE', #798, 999.9999999999998863 ) ;
#138 = VECTOR ( 'NONE', #998, 1000.000000000000000 ) ;
#139 = CARTESIAN_POINT ( 'NONE',  ( 0.05000000000000000278, 8.839999999999999858, -3.149999999999999911 ) ) ;
#140 = ORIENTED_EDGE ( 'NONE', *, *, #93, .F. ) ;
#141 = EDGE_LOOP ( 'NONE', ( #549, #601, #976, #357 ) ) ;
#142 = DIRECTION ( 'NONE',  ( 1.000000000000000000, 0.0000000000000000000, 0.0000000000000000000 ) ) ;
#143 = CARTESIAN_POINT ( 'NONE',  ( 0.0000000000000000000, 7.620000000000000107, 8.400000000000000355 ) ) ;
#144 = LINE ( 'NONE', #747, #739 ) ;
#145 = VERTEX_POINT ( 'NONE', #486 ) ;
#146 =( NAMED_UNIT ( * ) SI_UNIT ( $, .STERADIAN. ) SOLID_ANGLE_UNIT ( ) );
#147 = DIRECTION ( 'NONE',  ( -1.000000000000000000, 0.0000000000000000000, -0.0000000000000000000 ) ) ;
#148 = EDGE_CURVE ( 'NONE', #150, #1149, #1313, .T. ) ;
#149 = PLANE ( 'NONE',  #387 ) ;
#150 = VERTEX_POINT ( 'NONE', #1092 ) ;
#151 = LINE ( 'NONE', #443, #114 ) ;
#152 = CARTESIAN_POINT ( 'NONE',  ( -0.4000000000000000222, 11.83000000000000007, 8.400000000000000355 ) ) ;
#153 = VECTOR ( 'NONE', #1263, 1000.000000000000000 ) ;
#154 = DIRECTION ( 'NONE',  ( 1.000000000000000000, 0.0000000000000000000, 0.0000000000000000000 ) ) ;
#155 = AXIS2_PLACEMENT_3D ( 'NONE', #551, #224, #964 ) ;
#156 = ORIENTED_EDGE ( 'NONE', *, *, #266, .T. ) ;
#157 = CARTESIAN_POINT ( 'NONE',  ( -1.250000000000000000, 0.0000000000000000000, 0.0000000000000000000 ) ) ;
#158 = CARTESIAN_POINT ( 'NONE',  ( 1.250000000000000000, 7.620000000000000107, -3.793512960549202444E-15 ) ) ;
#159 = DIRECTION ( 'NONE',  ( 0.0000000000000000000, -1.000000000000000000, -0.0000000000000000000 ) ) ;
#160 = EDGE_CURVE ( 'NONE', #940, #1137, #465, .T. ) ;
#161 = ORIENTED_EDGE ( 'NONE', *, *, #57, .T. ) ;
#162 = DIRECTION ( 'NONE',  ( -1.000000000000000000, 0.0000000000000000000, -0.0000000000000000000 ) ) ;
#163 = CARTESIAN_POINT ( 'NONE',  ( -0.8000000000000013767, 12.23000000000000043, 8.400000000000000355 ) ) ;
#164 = ORIENTED_EDGE ( 'NONE', *, *, #908, .F. ) ;
#165 = DIRECTION ( 'NONE',  ( 1.000000000000000000, 0.0000000000000000000, 0.0000000000000000000 ) ) ;
#166 = ORIENTED_EDGE ( 'NONE', *, *, #431, .F. ) ;
#167 = CYLINDRICAL_SURFACE ( 'NONE', #474, 0.2500000000000002220 ) ;
#168 = DIRECTION ( 'NONE',  ( 0.0000000000000000000, 0.0000000000000000000, -1.000000000000000000 ) ) ;
#169 = ORIENTED_EDGE ( 'NONE', *, *, #134, .F. ) ;
#170 = DIRECTION ( 'NONE',  ( 0.0000000000000000000, -0.0000000000000000000, -1.000000000000000000 ) ) ;
#171 = AXIS2_PLACEMENT_3D ( 'NONE', #44, #660, #850 ) ;
#172 = CARTESIAN_POINT ( 'NONE',  ( 0.0000000000000000000, 11.48000000000000043, -3.149999999999999911 ) ) ;
#173 = EDGE_LOOP ( 'NONE', ( #775, #1320, #1208, #37 ) ) ;
#174 = VECTOR ( 'NONE', #482, 1000.000000000000000 ) ;
#175 = AXIS2_PLACEMENT_3D ( 'NONE', #1304, #1182, #255 ) ;
#176 = CARTESIAN_POINT ( 'NONE',  ( -0.4000000000000000222, 11.83000000000000185, 8.000000000000000000 ) ) ;
#177 = ORIENTED_EDGE ( 'NONE', *, *, #471, .F. ) ;
#178 = CARTESIAN_POINT ( 'NONE',  ( 0.0000000000000000000, 9.189999999999999503, -3.149999999999999911 ) ) ;
#179 = DIRECTION ( 'NONE',  ( 1.000000000000000000, -0.0000000000000000000, 0.0000000000000000000 ) ) ;
#180 = ORIENTED_EDGE ( 'NONE', *, *, #1278, .F. ) ;
#181 = PRODUCT ( 'CD26C6E7-0A3F-4281-9F10-F8D1275DEA1F', 'CD26C6E7-0A3F-4281-9F10-F8D1275DEA1F', '', ( #537 ) ) ;
#182 = LINE ( 'NONE', #63, #46 ) ;
#183 = CARTESIAN_POINT ( 'NONE',  ( -0.4000000000000000222, 11.83000000000000007, 0.5000000000000004441 ) ) ;
#184 = ORIENTED_EDGE ( 'NONE', *, *, #749, .F. ) ;
#185 = DIRECTION ( 'NONE',  ( -0.0000000000000000000, -1.000000000000000000, -0.0000000000000000000 ) ) ;
#186 = DIRECTION ( 'NONE',  ( -0.0000000000000000000, -1.000000000000000000, 0.0000000000000000000 ) ) ;
#187 = ORIENTED_EDGE ( 'NONE', *, *, #813, .F. ) ;
#188 = LINE ( 'NONE', #323, #1166 ) ;
#189 = DIRECTION ( 'NONE',  ( 1.000000000000000000, -0.0000000000000000000, 0.0000000000000000000 ) ) ;
#190 = ORIENTED_EDGE ( 'NONE', *, *, #732, .T. ) ;
#191 = CYLINDRICAL_SURFACE ( 'NONE', #650, 0.2500000000000002220 ) ;
#192 = EDGE_CURVE ( 'NONE', #907, #1132, #1005, .T. ) ;
#193 = CARTESIAN_POINT ( 'NONE',  ( 0.3000000000000000999, 9.189999999999999503, -2.899999999999999911 ) ) ;
#194 = ORIENTED_EDGE ( 'NONE', *, *, #1173, .T. ) ;
#195 = VECTOR ( 'NONE', #1112, 1000.000000000000000 ) ;
#196 = DIRECTION ( 'NONE',  ( 0.0000000000000000000, 0.7071067811865475727, -0.7071067811865475727 ) ) ;
#197 = AXIS2_PLACEMENT_3D ( 'NONE', #726, #1231, #1131 ) ;
#198 = LINE ( 'NONE', #419, #630 ) ;
#199 = ORIENTED_EDGE ( 'NONE', *, *, #490, .F. ) ;
#200 = PLANE ( 'NONE',  #607 ) ;
#201 = CARTESIAN_POINT ( 'NONE',  ( 0.05000000000000000278, 8.939999999999999503, -3.149999999999999911 ) ) ;
#202 = EDGE_LOOP ( 'NONE', ( #640, #82, #1232, #1041 ) ) ;
#203 = ADVANCED_FACE ( 'NONE', ( #592 ), #277, .F. ) ;
#204 = CARTESIAN_POINT ( 'NONE',  ( 0.4000000000000001887, 8.490000000000000213, 8.000000000000000000 ) ) ;
#205 = CARTESIAN_POINT ( 'NONE',  ( -0.7500000000000000000, 12.69999999999999929, 0.5000000000000000000 ) ) ;
#206 = ORIENTED_EDGE ( 'NONE', *, *, #792, .F. ) ;
#207 = DIRECTION ( 'NONE',  ( 0.0000000000000000000, 1.000000000000000000, 0.0000000000000000000 ) ) ;
#208 = DIRECTION ( 'NONE',  ( 0.0000000000000000000, -0.7071067811865475727, -0.7071067811865475727 ) ) ;
#209 = VERTEX_POINT ( 'NONE', #680 ) ;
#210 =( BOUNDED_CURVE ( )  B_SPLINE_CURVE ( 3, ( #23, #1171, #865, #642 ),
 .UNSPECIFIED., .F., .T. ) 
 B_SPLINE_CURVE_WITH_KNOTS ( ( 4, 4 ),
 ( 3.141592653589793116, 4.712388980384689674 ),
 .UNSPECIFIED. ) 
 CURVE ( )  GEOMETRIC_REPRESENTATION_ITEM ( )  RATIONAL_B_SPLINE_CURVE ( ( 1.000000000000000000, 0.8047378541243649375, 0.8047378541243649375, 1.000000000000000000 ) ) 
 REPRESENTATION_ITEM ( '' )  );
#211 = DIRECTION ( 'NONE',  ( 1.000000000000000000, 0.0000000000000000000, 0.0000000000000000000 ) ) ;
#212 = PLANE ( 'NONE',  #737 ) ;
#213 = CARTESIAN_POINT ( 'NONE',  ( -0.3000000000000000999, 11.13000000000000078, -2.899999999999999911 ) ) ;
#214 = PLANE ( 'NONE',  #281 ) ;
#215 = ORIENTED_EDGE ( 'NONE', *, *, #1278, .T. ) ;
#216 = AXIS2_PLACEMENT_3D ( 'NONE', #599, #1115, #1246 ) ;
#217 = CARTESIAN_POINT ( 'NONE',  ( 0.4000000000000000222, 8.490000000000000213, 8.400000000000000355 ) ) ;
#218 = STYLED_ITEM ( 'NONE', ( #1025 ), #936 ) ;
#219 = EDGE_CURVE ( 'NONE', #1117, #1070, #1079, .T. ) ;
#220 = EDGE_CURVE ( 'NONE', #807, #1120, #1085, .T. ) ;
#221 = CARTESIAN_POINT ( 'NONE',  ( 0.7500000000000000000, 12.69999999999999929, 0.5000000000000000000 ) ) ;
#222 = ORIENTED_EDGE ( 'NONE', *, *, #845, .T. ) ;
#223 = ORIENTED_EDGE ( 'NONE', *, *, #439, .F. ) ;
#224 = DIRECTION ( 'NONE',  ( 1.000000000000000000, 0.0000000000000000000, 0.0000000000000000000 ) ) ;
#225 = CARTESIAN_POINT ( 'NONE',  ( -0.4000000000000000222, 9.289999999999999147, 8.400000000000000355 ) ) ;
#226 = ORIENTED_EDGE ( 'NONE', *, *, #266, .F. ) ;
#227 = FILL_AREA_STYLE ('',( #21 ) ) ;
#228 = FACE_OUTER_BOUND ( 'NONE', #956, .T. ) ;
#229 = FACE_BOUND ( 'NONE', #598, .T. ) ;
#230 = LINE ( 'NONE', #41, #581 ) ;
#231 = ORIENTED_EDGE ( 'NONE', *, *, #455, .F. ) ;
#232 = ADVANCED_FACE ( 'NONE', ( #1100, #566, #1109 ), #269, .F. ) ;
#233 = VERTEX_POINT ( 'NONE', #901 ) ;
#234 = UNCERTAINTY_MEASURE_WITH_UNIT (LENGTH_MEASURE( 1.000000000000000082E-05 ), #122, 'distance_accuracy_value', 'NONE');
#235 = SURFACE_STYLE_USAGE ( .BOTH. , #424 ) ;
#236 = CARTESIAN_POINT ( 'NONE',  ( -0.4000000000000001887, 9.289999999999999147, 8.000000000000000000 ) ) ;
#237 =( GEOMETRIC_REPRESENTATION_CONTEXT ( 3 ) GLOBAL_UNCERTAINTY_ASSIGNED_CONTEXT ( ( #1240 ) ) GLOBAL_UNIT_ASSIGNED_CONTEXT ( ( #753, #458, #146 ) ) REPRESENTATION_CONTEXT ( 'NONE', 'WORKASPACE' ) );
#238 = DIRECTION ( 'NONE',  ( 1.000000000000000000, 0.0000000000000000000, 0.0000000000000000000 ) ) ;
#239 = VECTOR ( 'NONE', #684, 1000.000000000000000 ) ;
#240 = AXIS2_PLACEMENT_3D ( 'NONE', #1006, #923, #1248 ) ;
#241 = LINE ( 'NONE', #652, #310 ) ;
#242 = ORIENTED_EDGE ( 'NONE', *, *, #1310, .T. ) ;
#243 = EDGE_CURVE ( 'NONE', #209, #1124, #182, .T. ) ;
#244 = ADVANCED_FACE ( 'NONE', ( #804 ), #167, .T. ) ;
#245 = PLANE ( 'NONE',  #347 ) ;
#246 = DIRECTION ( 'NONE',  ( 0.0000000000000000000, 0.0000000000000000000, -1.000000000000000000 ) ) ;
#247 = CARTESIAN_POINT ( 'NONE',  ( -0.4000000000000000222, 11.02999999999999936, 8.400000000000000355 ) ) ;
#248 = DIRECTION ( 'NONE',  ( -1.000000000000000000, -0.0000000000000000000, 0.0000000000000000000 ) ) ;
#249 = ADVANCED_FACE ( 'NONE', ( #989 ), #886, .T. ) ;
#250 = EDGE_CURVE ( 'NONE', #801, #1087, #696, .T. ) ;
#251 = DIRECTION ( 'NONE',  ( 1.000000000000000000, 0.0000000000000000000, 0.0000000000000000000 ) ) ;
#252 = DIRECTION ( 'NONE',  ( -0.0000000000000000000, -0.0000000000000000000, 1.000000000000000000 ) ) ;
#253 = ORIENTED_EDGE ( 'NONE', *, *, #160, .F. ) ;
#254 = CARTESIAN_POINT ( 'NONE',  ( -0.05000000000000000278, 11.48000000000000043, -3.149999999999999911 ) ) ;
#255 = DIRECTION ( 'NONE',  ( 0.7071067811865474617, 0.0000000000000000000, -0.7071067811865474617 ) ) ;
#256 = VECTOR ( 'NONE', #1267, 1000.000000000000000 ) ;
#257 =( BOUNDED_CURVE ( )  B_SPLINE_CURVE ( 3, ( #139, #359, #32, #562 ),
 .UNSPECIFIED., .F., .T. ) 
 B_SPLINE_CURVE_WITH_KNOTS ( ( 4, 4 ),
 ( 4.712388980384689674, 6.283185307179586232 ),
 .UNSPECIFIED. ) 
 CURVE ( )  GEOMETRIC_REPRESENTATION_ITEM ( )  RATIONAL_B_SPLINE_CURVE ( ( 1.000000000000000000, 0.8047378541243649375, 0.8047378541243649375, 1.000000000000000000 ) ) 
 REPRESENTATION_ITEM ( '' )  );
#258 = CARTESIAN_POINT ( 'NONE',  ( 0.05000000000000000278, 11.48000000000000043, -3.149999999999999911 ) ) ;
#259 = VECTOR ( 'NONE', #405, 1000.000000000000000 ) ;
#260 = VECTOR ( 'NONE', #480, 1000.000000000000000 ) ;
#261 = ORIENTED_EDGE ( 'NONE', *, *, #1000, .T. ) ;
#262 = FACE_OUTER_BOUND ( 'NONE', #789, .T. ) ;
#263 = DIRECTION ( 'NONE',  ( 0.0000000000000000000, 0.0000000000000000000, -1.000000000000000000 ) ) ;
#264 = EDGE_LOOP ( 'NONE', ( #1253, #1186, #617, #318 ) ) ;
#265 = PLANE ( 'NONE',  #648 ) ;
#266 = EDGE_CURVE ( 'NONE', #624, #783, #1203, .T. ) ;
#267 = DIRECTION ( 'NONE',  ( -1.000000000000000000, -0.0000000000000000000, -0.0000000000000000000 ) ) ;
#268 = ORIENTED_EDGE ( 'NONE', *, *, #673, .T. ) ;
#269 = PLANE ( 'NONE',  #1055 ) ;
#270 = CARTESIAN_POINT ( 'NONE',  ( 1.250000000000000000, 12.69999999999999929, -4.817703532407500463E-15 ) ) ;
#271 = VERTEX_POINT ( 'NONE', #1211 ) ;
#272 = FACE_OUTER_BOUND ( 'NONE', #509, .T. ) ;
#273 = LINE ( 'NONE', #1107, #1312 ) ;
#274 = ORIENTED_EDGE ( 'NONE', *, *, #663, .F. ) ;
#275 = EDGE_CURVE ( 'NONE', #1056, #53, #832, .T. ) ;
#276 = EDGE_CURVE ( 'NONE', #518, #1056, #409, .T. ) ;
#277 = PLANE ( 'NONE',  #407 ) ;
#278 = DIRECTION ( 'NONE',  ( 0.0000000000000000000, -1.000000000000000000, 0.0000000000000000000 ) ) ;
#279 = EDGE_LOOP ( 'NONE', ( #1222, #305, #751, #744 ) ) ;
#280 = CARTESIAN_POINT ( 'NONE',  ( 0.0000000000000000000, 8.589999999999999858, 1.053775882719999890 ) ) ;
#281 = AXIS2_PLACEMENT_3D ( 'NONE', #221, #626, #1026 ) ;
#282 = CARTESIAN_POINT ( 'NONE',  ( 0.7500000000000000000, 12.69999999999999929, -5.831485763410000748E-15 ) ) ;
#283 = VERTEX_POINT ( 'NONE', #395 ) ;
#284 = VECTOR ( 'NONE', #343, 1000.000000000000000 ) ;
#285 = COLOUR_RGB ( '',0.8313725490196077761, 0.8313725490196077761, 0.0000000000000000000 ) ;
#286 = ADVANCED_FACE ( 'NONE', ( #113 ), #1012, .F. ) ;
#287 = EDGE_CURVE ( 'NONE', #1262, #518, #609, .T. ) ;
#288 = DIRECTION ( 'NONE',  ( -1.000000000000000000, 0.0000000000000000000, -0.0000000000000000000 ) ) ;
#289 = ADVANCED_FACE ( 'NONE', ( #3 ), #817, .F. ) ;
#290 = DIRECTION ( 'NONE',  ( 0.0000000000000000000, -1.000000000000000000, -0.0000000000000000000 ) ) ;
#291 = EDGE_CURVE ( 'NONE', #1305, #767, #188, .T. ) ;
#292 = ORIENTED_EDGE ( 'NONE', *, *, #697, .F. ) ;
#293 = LINE ( 'NONE', #568, #1125 ) ;
#294 = LINE ( 'NONE', #701, #1270 ) ;
#295 = ORIENTED_EDGE ( 'NONE', *, *, #396, .F. ) ;
#296 = DIRECTION ( 'NONE',  ( -0.0000000000000000000, 1.000000000000000000, 0.0000000000000000000 ) ) ;
#297 = CARTESIAN_POINT ( 'NONE',  ( -0.7500000000000000000, 12.69999999999999929, -3.803921301405000178E-15 ) ) ;
#298 = ORIENTED_EDGE ( 'NONE', *, *, #438, .T. ) ;
#299 = EDGE_CURVE ( 'NONE', #993, #914, #95, .T. ) ;
#300 = CARTESIAN_POINT ( 'NONE',  ( 0.0000000000000000000, 11.13000000000000078, 1.053775882719999890 ) ) ;
#301 = CARTESIAN_POINT ( 'NONE',  ( -0.7500000000000000000, 12.69999999999999929, 0.5000000000000000000 ) ) ;
#302 = EDGE_LOOP ( 'NONE', ( #1011, #126, #727, #611 ) ) ;
#303 = LINE ( 'NONE', #1121, #92 ) ;
#304 = FACE_OUTER_BOUND ( 'NONE', #62, .T. ) ;
#305 = ORIENTED_EDGE ( 'NONE', *, *, #588, .T. ) ;
#306 = CARTESIAN_POINT ( 'NONE',  ( 0.7999999999999998224, 12.23000000000000043, 8.400000000000000355 ) ) ;
#307 = CARTESIAN_POINT ( 'NONE',  ( -0.05000000000000000278, 8.939999999999999503, -3.149999999999999911 ) ) ;
#308 = VERTEX_POINT ( 'NONE', #811 ) ;
#309 = CLOSED_SHELL ( 'NONE', ( #1158, #1002, #446, #1327, #249, #861, #991, #959, #830, #1009 ) ) ;
#310 = VECTOR ( 'NONE', #1261, 999.9999999999998863 ) ;
#311 = DIRECTION ( 'NONE',  ( 0.0000000000000000000, -1.000000000000000000, -0.0000000000000000000 ) ) ;
#312 = DIRECTION ( 'NONE',  ( -0.0000000000000000000, -1.000000000000000000, -0.0000000000000000000 ) ) ;
#313 = VERTEX_POINT ( 'NONE', #204 ) ;
#314 = FILL_AREA_STYLE ('',( #612 ) ) ;
#315 = DIRECTION ( 'NONE',  ( 0.7071067811865474617, 0.0000000000000000000, 0.7071067811865474617 ) ) ;
#316 = VERTEX_POINT ( 'NONE', #317 ) ;
#317 = CARTESIAN_POINT ( 'NONE',  ( -1.250000000000000000, 7.620000000000000107, 8.400000000000000355 ) ) ;
#318 = ORIENTED_EDGE ( 'NONE', *, *, #965, .T. ) ;
#319 = PLANE ( 'NONE',  #410 ) ;
#320 = CARTESIAN_POINT ( 'NONE',  ( 0.4000000000000000222, 11.02999999999999936, 8.400000000000000355 ) ) ;
#321 = ORIENTED_EDGE ( 'NONE', *, *, #975, .F. ) ;
#322 = ADVANCED_FACE ( 'NONE', ( #615 ), #731, .T. ) ;
#323 = CARTESIAN_POINT ( 'NONE',  ( 0.0000000000000000000, 12.69999999999999929, -5.831485763410000748E-15 ) ) ;
#324 = LINE ( 'NONE', #833, #1038 ) ;
#325 = ORIENTED_EDGE ( 'NONE', *, *, #563, .T. ) ;
#326 = CARTESIAN_POINT ( 'NONE',  ( 0.2999999999999999889, 0.0000000000000000000, -2.899999999999999911 ) ) ;
#327 = CARTESIAN_POINT ( 'NONE',  ( -0.1964466094067261748, 9.086446609406726438, -3.149999999999999023 ) ) ;
#328 = ORIENTED_EDGE ( 'NONE', *, *, #762, .T. ) ;
#329 = VECTOR ( 'NONE', #1283, 1000.000000000000000 ) ;
#330 = VECTOR ( 'NONE', #252, 1000.000000000000000 ) ;
#331 = ORIENTED_EDGE ( 'NONE', *, *, #952, .F. ) ;
#332 = AXIS2_PLACEMENT_3D ( 'NONE', #487, #1110, #459 ) ;
#333 = DIRECTION ( 'NONE',  ( 1.000000000000000000, 0.0000000000000000000, 0.0000000000000000000 ) ) ;
#334 = CARTESIAN_POINT ( 'NONE',  ( 0.4000000000000000222, 8.490000000000000213, 8.000000000000000000 ) ) ;
#335 = ORIENTED_EDGE ( 'NONE', *, *, #471, .T. ) ;
#336 = PRESENTATION_STYLE_ASSIGNMENT (( #235 ) ) ;
#337 = FACE_OUTER_BOUND ( 'NONE', #1241, .T. ) ;
#338 = CARTESIAN_POINT ( 'NONE',  ( 0.0000000000000000000, 8.839999999999999858, -2.899999999999999911 ) ) ;
#339 = ADVANCED_FACE ( 'NONE', ( #1229 ), #1135, .F. ) ;
#340 = CARTESIAN_POINT ( 'NONE',  ( 0.7500000000000000000, 12.69999999999999929, 0.5000000000000000000 ) ) ;
#341 = VERTEX_POINT ( 'NONE', #930 ) ;
#342 = LINE ( 'NONE', #1071, #860 ) ;
#343 = DIRECTION ( 'NONE',  ( -1.000000000000000000, 0.0000000000000000000, -0.0000000000000000000 ) ) ;
#344 = DIRECTION ( 'NONE',  ( 0.7071067811865474617, 0.0000000000000000000, -0.7071067811865474617 ) ) ;
#345 = EDGE_LOOP ( 'NONE', ( #888, #872, #321, #65 ) ) ;
#346 = PRODUCT_DEFINITION_CONTEXT ( 'detailed design', #108, 'design' ) ;
#347 = AXIS2_PLACEMENT_3D ( 'NONE', #869, #1061, #142 ) ;
#348 = LINE ( 'NONE', #1170, #988 ) ;
#349 = VECTOR ( 'NONE', #1133, 1000.000000000000000 ) ;
#350 = DIRECTION ( 'NONE',  ( -1.000000000000000000, 0.0000000000000000000, -0.0000000000000000000 ) ) ;
#351 = VECTOR ( 'NONE', #913, 1000.000000000000114 ) ;
#352 = AXIS2_PLACEMENT_3D ( 'NONE', #1220, #711, #1023 ) ;
#353 = CARTESIAN_POINT ( 'NONE',  ( 0.3999999999999999667, 8.490000000000000213, 0.5000000000000003331 ) ) ;
#354 = EDGE_CURVE ( 'NONE', #1024, #1047, #710, .T. ) ;
#355 = CARTESIAN_POINT ( 'NONE',  ( -0.7500000000000000000, 7.620000000000000107, 8.400000000000000355 ) ) ;
#356 = FACE_OUTER_BOUND ( 'NONE', #565, .T. ) ;
#357 = ORIENTED_EDGE ( 'NONE', *, *, #526, .F. ) ;
#358 = CARTESIAN_POINT ( 'NONE',  ( 0.4000000000000000222, 11.02999999999999936, 8.400000000000000355 ) ) ;
#359 = CARTESIAN_POINT ( 'NONE',  ( 0.1964466094067261748, 8.693553390593274699, -3.149999999999999023 ) ) ;
#360 = EDGE_LOOP ( 'NONE', ( #295, #1040, #253, #1244 ) ) ;
#361 = CARTESIAN_POINT ( 'NONE',  ( 0.0000000000000000000, 7.620000000000000107, 8.400000000000000355 ) ) ;
#362 = CARTESIAN_POINT ( 'NONE',  ( 0.0000000000000000000, 11.48000000000000043, -2.899999999999999911 ) ) ;
#363 = ORIENTED_EDGE ( 'NONE', *, *, #868, .T. ) ;
#364 = EDGE_CURVE ( 'NONE', #1149, #1199, #418, .T. ) ;
#365 = LINE ( 'NONE', #1008, #1233 ) ;
#366 = AXIS2_PLACEMENT_3D ( 'NONE', #178, #589, #1200 ) ;
#367 = VECTOR ( 'NONE', #251, 1000.000000000000000 ) ;
#368 = FILL_AREA_STYLE_COLOUR ( '', #1077 ) ;
#369 = ORIENTED_EDGE ( 'NONE', *, *, #748, .T. ) ;
#370 = CARTESIAN_POINT ( 'NONE',  ( -0.2999999999999999889, 0.0000000000000000000, -2.899999999999999911 ) ) ;
#371 = CARTESIAN_POINT ( 'NONE',  ( -0.7500000000000000000, 7.620000000000000107, -2.769322388690903636E-15 ) ) ;
#372 = VERTEX_POINT ( 'NONE', #1022 ) ;
#373 = LINE ( 'NONE', #778, #174 ) ;
#374 = EDGE_CURVE ( 'NONE', #385, #341, #1141, .T. ) ;
#375 = CARTESIAN_POINT ( 'NONE',  ( 0.4000000000000000222, 13.71599999999999930, 8.000000000000000000 ) ) ;
#376 = ORIENTED_EDGE ( 'NONE', *, *, #26, .T. ) ;
#377 = DIRECTION ( 'NONE',  ( 1.000000000000000000, 0.0000000000000000000, 0.0000000000000000000 ) ) ;
#378 = FACE_OUTER_BOUND ( 'NONE', #529, .T. ) ;
#379 = ORIENTED_EDGE ( 'NONE', *, *, #1051, .T. ) ;
#380 = CARTESIAN_POINT ( 'NONE',  ( -0.4000000000000000222, 11.83000000000000007, 8.400000000000000355 ) ) ;
#381 =( NAMED_UNIT ( * ) PLANE_ANGLE_UNIT ( ) SI_UNIT ( $, .RADIAN. ) );
#382 = ORIENTED_EDGE ( 'NONE', *, *, #1309, .T. ) ;
#383 = DIRECTION ( 'NONE',  ( 0.0000000000000000000, 1.000000000000000000, -0.0000000000000000000 ) ) ;
#384 = CARTESIAN_POINT ( 'NONE',  ( 0.8000000000000000444, 7.620000000000000107, 8.400000000000000355 ) ) ;
#385 = VERTEX_POINT ( 'NONE', #1319 ) ;
#386 = LINE ( 'NONE', #691, #94 ) ;
#387 = AXIS2_PLACEMENT_3D ( 'NONE', #1281, #866, #344 ) ;
#388 = LINE ( 'NONE', #877, #7 ) ;
#389 = ORIENTED_EDGE ( 'NONE', *, *, #803, .T. ) ;
#390 = CARTESIAN_POINT ( 'NONE',  ( 0.0000000000000000000, 12.69999999999999929, 8.400000000000000355 ) ) ;
#391 = APPLICATION_PROTOCOL_DEFINITION ( 'draft international standard', 'automotive_design', 1998, #1297 ) ;
#392 = EDGE_LOOP ( 'NONE', ( #1178, #1160, #935, #999 ) ) ;
#393 = LINE ( 'NONE', #172, #430 ) ;
#394 = VERTEX_POINT ( 'NONE', #1223 ) ;
#395 = CARTESIAN_POINT ( 'NONE',  ( -0.05000000000000000278, 11.38000000000000078, -3.149999999999999911 ) ) ;
#396 = EDGE_CURVE ( 'NONE', #33, #19, #303, .T. ) ;
#397 = DIRECTION ( 'NONE',  ( -1.000000000000000000, 0.0000000000000000000, -0.0000000000000000000 ) ) ;
#398 = VERTEX_POINT ( 'NONE', #1296 ) ;
#399 = LINE ( 'NONE', #300, #520 ) ;
#400 = PLANE ( 'NONE',  #1101 ) ;
#401 = ORIENTED_EDGE ( 'NONE', *, *, #637, .T. ) ;
#402 = CARTESIAN_POINT ( 'NONE',  ( -0.2999999999999999889, 0.0000000000000000000, 0.0000000000000000000 ) ) ;
#403 = VERTEX_POINT ( 'NONE', #597 ) ;
#404 = FACE_OUTER_BOUND ( 'NONE', #345, .T. ) ;
#405 = DIRECTION ( 'NONE',  ( -1.000000000000000000, -0.0000000000000000000, 0.0000000000000000000 ) ) ;
#406 = ORIENTED_EDGE ( 'NONE', *, *, #1000, .F. ) ;
#407 = AXIS2_PLACEMENT_3D ( 'NONE', #781, #1197, #874 ) ;
#408 =( GEOMETRIC_REPRESENTATION_CONTEXT ( 3 ) GLOBAL_UNCERTAINTY_ASSIGNED_CONTEXT ( ( #522 ) ) GLOBAL_UNIT_ASSIGNED_CONTEXT ( ( #590, #381, #68 ) ) REPRESENTATION_CONTEXT ( 'NONE', 'WORKASPACE' ) );
#409 = LINE ( 'NONE', #506, #646 ) ;
#410 = AXIS2_PLACEMENT_3D ( 'NONE', #933, #1126, #124 ) ;
#411 = CARTESIAN_POINT ( 'NONE',  ( 0.3000000000000000999, 11.73000000000000043, -2.899999999999999911 ) ) ;
#412 = EDGE_LOOP ( 'NONE', ( #109, #494, #447, #1282 ) ) ;
#413 = DIRECTION ( 'NONE',  ( 0.5773502691896248429, 0.5773502691896261751, -0.5773502691896261751 ) ) ;
#414 = ADVANCED_FACE ( 'NONE', ( #809 ), #1201, .T. ) ;
#415 = EDGE_CURVE ( 'NONE', #783, #88, #393, .T. ) ;
#416 = FACE_OUTER_BOUND ( 'NONE', #492, .T. ) ;
#417 = ORIENTED_EDGE ( 'NONE', *, *, #622, .T. ) ;
#418 = LINE ( 'NONE', #621, #579 ) ;
#419 = CARTESIAN_POINT ( 'NONE',  ( 0.2999999999999999889, 11.13000000000000078, 1.053775882719999890 ) ) ;
#420 = ORIENTED_EDGE ( 'NONE', *, *, #1226, .F. ) ;
#421 =( LENGTH_UNIT ( ) NAMED_UNIT ( * ) SI_UNIT ( .MILLI., .METRE. ) );
#422 = CARTESIAN_POINT ( 'NONE',  ( -1.250000000000000000, 12.69999999999999929, 8.400000000000000355 ) ) ;
#423 = EDGE_LOOP ( 'NONE', ( #331, #709, #127, #837 ) ) ;
#424 = SURFACE_SIDE_STYLE ('',( #963 ) ) ;
#425 = CARTESIAN_POINT ( 'NONE',  ( 0.2999999999999999889, 11.72999999999999865, 1.053775882719999890 ) ) ;
#426 = DIRECTION ( 'NONE',  ( 0.0000000000000000000, 0.0000000000000000000, 1.000000000000000000 ) ) ;
#427 = CARTESIAN_POINT ( 'NONE',  ( -0.05000000000000000278, 8.939999999999999503, -3.149999999999999911 ) ) ;
#428 = VERTEX_POINT ( 'NONE', #785 ) ;
#429 = ORIENTED_EDGE ( 'NONE', *, *, #364, .T. ) ;
#430 = VECTOR ( 'NONE', #267, 1000.000000000000000 ) ;
#431 = EDGE_CURVE ( 'NONE', #33, #394, #1119, .T. ) ;
#432 = EDGE_CURVE ( 'NONE', #801, #767, #980, .T. ) ;
#433 = CARTESIAN_POINT ( 'NONE',  ( 1.750000000000000000, 9.289999999999999147, 8.000000000000000000 ) ) ;
#434 = CARTESIAN_POINT ( 'NONE',  ( -0.7500000000000000000, 12.69999999999999929, -5.831485763410000748E-15 ) ) ;
#435 = LINE ( 'NONE', #247, #49 ) ;
#436 = ORIENTED_EDGE ( 'NONE', *, *, #287, .F. ) ;
#437 = LINE ( 'NONE', #971, #153 ) ;
#438 = EDGE_CURVE ( 'NONE', #1289, #1228, #84, .T. ) ;
#439 = EDGE_CURVE ( 'NONE', #1228, #121, #491, .T. ) ;
#440 = CARTESIAN_POINT ( 'NONE',  ( 1.250000000000000000, 0.0000000000000000000, -1.776356839400000199E-15 ) ) ;
#441 = DIRECTION ( 'NONE',  ( 0.0000000000000000000, -0.0000000000000000000, 1.000000000000000000 ) ) ;
#442 = ORIENTED_EDGE ( 'NONE', *, *, #1081, .T. ) ;
#443 = CARTESIAN_POINT ( 'NONE',  ( -0.4000000000000008549, 9.289999999999999147, 8.000000000000000000 ) ) ;
#444 = DIRECTION ( 'NONE',  ( 0.0000000000000000000, 0.0000000000000000000, 1.000000000000000000 ) ) ;
#445 = DIRECTION ( 'NONE',  ( 0.0000000000000000000, 1.000000000000000000, 0.0000000000000000000 ) ) ;
#446 = ADVANCED_FACE ( 'NONE', ( #569 ), #583, .F. ) ;
#447 = ORIENTED_EDGE ( 'NONE', *, *, #673, .F. ) ;
#448 = CLOSED_SHELL ( 'NONE', ( #133, #232, #20, #900, #1247, #525, #535, #1193, #339, #47, #414, #203, #664, #656, #322, #483, #1284, #75, #1066, #1153, #647, #1152, #982, #564, #1067, #10 ) ) ;
#449 = CARTESIAN_POINT ( 'NONE',  ( 0.0000000000000000000, 11.73000000000000043, -2.899999999999999911 ) ) ;
#450 = VECTOR ( 'NONE', #61, 1000.000000000000000 ) ;
#451 = CARTESIAN_POINT ( 'NONE',  ( -0.3000000000000000999, 8.589999999999999858, -2.899999999999999911 ) ) ;
#452 = VECTOR ( 'NONE', #1080, 1000.000000000000000 ) ;
#453 = PRESENTATION_LAYER_ASSIGNMENT (  '', '', ( #864 ) ) ;
#454 = DIRECTION ( 'NONE',  ( 0.0000000000000000000, 0.0000000000000000000, 1.000000000000000000 ) ) ;
#455 = EDGE_CURVE ( 'NONE', #313, #849, #78, .T. ) ;
#456 = EDGE_CURVE ( 'NONE', #576, #316, #388, .T. ) ;
#457 = VERTEX_POINT ( 'NONE', #484 ) ;
#458 =( NAMED_UNIT ( * ) PLANE_ANGLE_UNIT ( ) SI_UNIT ( $, .RADIAN. ) );
#459 = DIRECTION ( 'NONE',  ( 0.0000000000000000000, -0.0000000000000000000, -1.000000000000000000 ) ) ;
#460 = CARTESIAN_POINT ( 'NONE',  ( -0.2999999999999999889, 0.0000000000000000000, 1.053775882719999890 ) ) ;
#461 = EDGE_LOOP ( 'NONE', ( #1221, #102, #1020, #473, #1190, #376, #750, #1045 ) ) ;
#462 = MANIFOLD_SOLID_BREP ( 'Body.2', #1311 ) ;
#463 = EDGE_CURVE ( 'NONE', #1199, #209, #1207, .T. ) ;
#464 = EDGE_CURVE ( 'NONE', #1120, #686, #273, .T. ) ;
#465 = LINE ( 'NONE', #675, #1209 ) ;
#466 = CYLINDRICAL_SURFACE ( 'NONE', #117, 0.2500000000000002220 ) ;
#467 = DIRECTION ( 'NONE',  ( 1.000000000000000000, -0.0000000000000000000, 0.0000000000000000000 ) ) ;
#468 = CARTESIAN_POINT ( 'NONE',  ( 0.7500000000000000000, 12.69999999999999929, 0.5000000000000000000 ) ) ;
#469 = ORIENTED_EDGE ( 'NONE', *, *, #26, .F. ) ;
#470 = DIRECTION ( 'NONE',  ( 1.000000000000000000, 0.0000000000000000000, 0.0000000000000000000 ) ) ;
#471 = EDGE_CURVE ( 'NONE', #1047, #398, #294, .T. ) ;
#472 = DIRECTION ( 'NONE',  ( 0.0000000000000000000, 1.000000000000000000, 0.0000000000000000000 ) ) ;
#473 = ORIENTED_EDGE ( 'NONE', *, *, #1252, .T. ) ;
#474 = AXIS2_PLACEMENT_3D ( 'NONE', #879, #1218, #1292 ) ;
#475 = DIRECTION ( 'NONE',  ( -0.0000000000000000000, -1.000000000000000000, -0.0000000000000000000 ) ) ;
#476 = VECTOR ( 'NONE', #159, 1000.000000000000000 ) ;
#477 = PRESENTATION_LAYER_ASSIGNMENT (  '', '', ( #218 ) ) ;
#478 = ORIENTED_EDGE ( 'NONE', *, *, #528, .T. ) ;
#479 = LINE ( 'NONE', #390, #902 ) ;
#480 = DIRECTION ( 'NONE',  ( 0.0000000000000000000, 1.000000000000000000, 0.0000000000000000000 ) ) ;
#481 = ORIENTED_EDGE ( 'NONE', *, *, #792, .T. ) ;
#482 = DIRECTION ( 'NONE',  ( -0.0000000000000000000, 1.000000000000000000, 0.0000000000000000000 ) ) ;
#483 = ADVANCED_FACE ( 'NONE', ( #822 ), #1322, .T. ) ;
#484 = CARTESIAN_POINT ( 'NONE',  ( 1.250000000000000000, 7.620000000000000107, 8.400000000000000355 ) ) ;
#485 = ORIENTED_EDGE ( 'NONE', *, *, #596, .T. ) ;
#486 = CARTESIAN_POINT ( 'NONE',  ( 0.3000000000000000999, 8.589999999999999858, -2.899999999999999911 ) ) ;
#487 = CARTESIAN_POINT ( 'NONE',  ( 0.0000000000000000000, 11.13000000000000078, 1.053775882719999890 ) ) ;
#488 = EDGE_LOOP ( 'NONE', ( #1205, #177, #98, #1090 ) ) ;
#489 = CARTESIAN_POINT ( 'NONE',  ( 0.0000000000000000000, 11.73000000000000043, 1.053775882719999890 ) ) ;
#490 = EDGE_CURVE ( 'NONE', #308, #16, #516, .T. ) ;
#491 = LINE ( 'NONE', #468, #690 ) ;
#492 = EDGE_LOOP ( 'NONE', ( #478, #442, #613, #335 ) ) ;
#493 = DIRECTION ( 'NONE',  ( -0.0000000000000000000, -1.000000000000000000, -0.0000000000000000000 ) ) ;
#494 = ORIENTED_EDGE ( 'NONE', *, *, #1091, .T. ) ;
#495 = DIRECTION ( 'NONE',  ( 0.0000000000000000000, -0.0000000000000000000, 1.000000000000000000 ) ) ;
#496 = VECTOR ( 'NONE', #493, 1000.000000000000000 ) ;
#497 = VECTOR ( 'NONE', #995, 1000.000000000000000 ) ;
#498 = SURFACE_SIDE_STYLE ('',( #800 ) ) ;
#499 = ORIENTED_EDGE ( 'NONE', *, *, #219, .T. ) ;
#500 = AXIS2_PLACEMENT_3D ( 'NONE', #1176, #136, #444 ) ;
#501 = CARTESIAN_POINT ( 'NONE',  ( 0.0000000000000000000, 8.939999999999999503, -3.149999999999999911 ) ) ;
#502 = ORIENTED_EDGE ( 'NONE', *, *, #654, .T. ) ;
#503 =( NAMED_UNIT ( * ) SI_UNIT ( $, .STERADIAN. ) SOLID_ANGLE_UNIT ( ) );
#504 = CARTESIAN_POINT ( 'NONE',  ( 0.2999999999999999889, 11.13000000000000078, 1.053775882719999890 ) ) ;
#505 = ORIENTED_EDGE ( 'NONE', *, *, #415, .F. ) ;
#506 = CARTESIAN_POINT ( 'NONE',  ( -0.05000000000000000278, 11.73000000000000043, -3.149999999999999911 ) ) ;
#507 = EDGE_CURVE ( 'NONE', #428, #12, #927, .T. ) ;
#508 = CARTESIAN_POINT ( 'NONE',  ( 0.05000000000000000278, 8.939999999999999503, -3.149999999999999911 ) ) ;
#509 = EDGE_LOOP ( 'NONE', ( #834, #436, #738, #1111 ) ) ;
#510 = DIRECTION ( 'NONE',  ( -1.000000000000000000, -0.0000000000000000000, -0.0000000000000000000 ) ) ;
#511 = CARTESIAN_POINT ( 'NONE',  ( 0.3000000000000000999, 11.13000000000000078, -2.899999999999999911 ) ) ;
#512 = ORIENTED_EDGE ( 'NONE', *, *, #93, .T. ) ;
#513 = DIRECTION ( 'NONE',  ( 0.0000000000000000000, 0.7071067811865474617, 0.7071067811865474617 ) ) ;
#514 = CARTESIAN_POINT ( 'NONE',  ( 0.7500000000000000000, 12.69999999999999929, 0.5000000000000000000 ) ) ;
#515 = EDGE_LOOP ( 'NONE', ( #928, #505, #226, #570 ) ) ;
#516 = LINE ( 'NONE', #120, #1168 ) ;
#517 = MECHANICAL_DESIGN_GEOMETRIC_PRESENTATION_REPRESENTATION (  '', ( #1122 ), #237 ) ;
#518 = VERTEX_POINT ( 'NONE', #307 ) ;
#519 = VECTOR ( 'NONE', #694, 1000.000000000000000 ) ;
#520 = VECTOR ( 'NONE', #510, 1000.000000000000000 ) ;
#521 = CARTESIAN_POINT ( 'NONE',  ( 0.2999999999999999889, 11.13000000000000078, 1.053775882719999890 ) ) ;
#522 = UNCERTAINTY_MEASURE_WITH_UNIT (LENGTH_MEASURE( 1.000000000000000082E-05 ), #590, 'distance_accuracy_value', 'NONE');
#523 = AXIS2_PLACEMENT_3D ( 'NONE', #851, #1264, #350 ) ;
#524 = CYLINDRICAL_SURFACE ( 'NONE', #1105, 0.2500000000000002220 ) ;
#525 = ADVANCED_FACE ( 'NONE', ( #416 ), #1227, .T. ) ;
#526 = EDGE_CURVE ( 'NONE', #313, #807, #633, .T. ) ;
#527 = DIRECTION ( 'NONE',  ( 0.0000000000000000000, 0.0000000000000000000, 1.000000000000000000 ) ) ;
#528 = EDGE_CURVE ( 'NONE', #398, #19, #1, .T. ) ;
#529 = EDGE_LOOP ( 'NONE', ( #401, #190, #780, #1015 ) ) ;
#530 = EDGE_LOOP ( 'NONE', ( #1167, #924, #25, #810 ) ) ;
#531 =( BOUNDED_CURVE ( )  B_SPLINE_CURVE ( 3, ( #201, #729, #743, #193 ),
 .UNSPECIFIED., .F., .T. ) 
 B_SPLINE_CURVE_WITH_KNOTS ( ( 4, 4 ),
 ( 4.712388980384689674, 6.283185307179586232 ),
 .UNSPECIFIED. ) 
 CURVE ( )  GEOMETRIC_REPRESENTATION_ITEM ( )  RATIONAL_B_SPLINE_CURVE ( ( 1.000000000000000000, 0.8047378541243649375, 0.8047378541243649375, 1.000000000000000000 ) ) 
 REPRESENTATION_ITEM ( '' )  );
#532 = DIRECTION ( 'NONE',  ( 0.0000000000000000000, 0.0000000000000000000, 1.000000000000000000 ) ) ;
#533 = DIRECTION ( 'NONE',  ( -0.0000000000000000000, -1.000000000000000000, 0.0000000000000000000 ) ) ;
#534 = ORIENTED_EDGE ( 'NONE', *, *, #51, .T. ) ;
#535 = ADVANCED_FACE ( 'NONE', ( #828 ), #400, .F. ) ;
#536 = ORIENTED_EDGE ( 'NONE', *, *, #899, .F. ) ;
#537 = PRODUCT_CONTEXT ( 'NONE', #1297, 'mechanical' ) ;
#538 = PLANE ( 'NONE',  #603 ) ;
#539 = CARTESIAN_POINT ( 'NONE',  ( -0.05000000000000000278, 8.839999999999999858, -3.149999999999999911 ) ) ;
#540 = PLANE ( 'NONE',  #1016 ) ;
#541 = ORIENTED_EDGE ( 'NONE', *, *, #438, .F. ) ;
#542 = EDGE_CURVE ( 'NONE', #1262, #403, #531, .T. ) ;
#543 = AXIS2_PLACEMENT_3D ( 'NONE', #402, #1324, #1033 ) ;
#544 = VECTOR ( 'NONE', #595, 1000.000000000000000 ) ;
#545 = LINE ( 'NONE', #958, #256 ) ;
#546 = VECTOR ( 'NONE', #147, 1000.000000000000000 ) ;
#547 = DIRECTION ( 'NONE',  ( 0.0000000000000000000, 0.0000000000000000000, -1.000000000000000000 ) ) ;
#548 = DIRECTION ( 'NONE',  ( 0.0000000000000000000, 0.0000000000000000000, -1.000000000000000000 ) ) ;
#549 = ORIENTED_EDGE ( 'NONE', *, *, #846, .F. ) ;
#550 = EDGE_CURVE ( 'NONE', #1132, #88, #957, .T. ) ;
#551 = CARTESIAN_POINT ( 'NONE',  ( 0.0000000000000000000, 8.939999999999999503, -2.899999999999999911 ) ) ;
#552 = DIRECTION ( 'NONE',  ( -0.0000000000000000000, -0.0000000000000000000, -1.000000000000000000 ) ) ;
#553 = ORIENTED_EDGE ( 'NONE', *, *, #57, .F. ) ;
#554 = CYLINDRICAL_SURFACE ( 'NONE', #155, 0.2500000000000002220 ) ;
#555 = DIRECTION ( 'NONE',  ( 0.0000000000000000000, -1.000000000000000000, -0.0000000000000000000 ) ) ;
#556 = ORIENTED_EDGE ( 'NONE', *, *, #542, .F. ) ;
#557 = AXIS2_PLACEMENT_3D ( 'NONE', #915, #196, #513 ) ;
#558 = PRESENTATION_STYLE_ASSIGNMENT (( #953 ) ) ;
#559 = STYLED_ITEM ( 'NONE', ( #890 ), #462 ) ;
#560 = DIRECTION ( 'NONE',  ( 0.0000000000000000000, -0.0000000000000000000, -1.000000000000000000 ) ) ;
#561 = EDGE_CURVE ( 'NONE', #624, #829, #1037, .T. ) ;
#562 = CARTESIAN_POINT ( 'NONE',  ( 0.3000000000000000999, 8.589999999999999858, -2.899999999999999911 ) ) ;
#563 = EDGE_CURVE ( 'NONE', #829, #2, #1139, .T. ) ;
#564 = ADVANCED_FACE ( 'NONE', ( #736 ), #214, .T. ) ;
#565 = EDGE_LOOP ( 'NONE', ( #1308, #770, #42, #1155 ) ) ;
#566 = FACE_BOUND ( 'NONE', #202, .T. ) ;
#567 = DIRECTION ( 'NONE',  ( 0.0000000000000000000, -0.0000000000000000000, -1.000000000000000000 ) ) ;
#568 = CARTESIAN_POINT ( 'NONE',  ( -0.7500000000000000000, 12.69999999999999929, 0.5000000000000000000 ) ) ;
#569 = FACE_OUTER_BOUND ( 'NONE', #740, .T. ) ;
#570 = ORIENTED_EDGE ( 'NONE', *, *, #1173, .F. ) ;
#571 = PLANE ( 'NONE',  #771 ) ;
#572 = CARTESIAN_POINT ( 'NONE',  ( 0.05000000000000000278, 11.73000000000000043, -3.149999999999999911 ) ) ;
#573 = ORIENTED_EDGE ( 'NONE', *, *, #1245, .F. ) ;
#574 = CARTESIAN_POINT ( 'NONE',  ( -0.4000000000000000222, 11.02999999999999936, 0.5000000000000003331 ) ) ;
#575 = DIRECTION ( 'NONE',  ( -0.0000000000000000000, -1.000000000000000000, -0.0000000000000000000 ) ) ;
#576 = VERTEX_POINT ( 'NONE', #422 ) ;
#577 = CARTESIAN_POINT ( 'NONE',  ( 0.0000000000000000000, 8.089999999999999858, 8.400000000000000355 ) ) ;
#578 = ORIENTED_EDGE ( 'NONE', *, *, #561, .T. ) ;
#579 = VECTOR ( 'NONE', #100, 1000.000000000000000 ) ;
#580 = LINE ( 'NONE', #60, #544 ) ;
#581 = VECTOR ( 'NONE', #555, 1000.000000000000000 ) ;
#582 = MECHANICAL_DESIGN_GEOMETRIC_PRESENTATION_REPRESENTATION (  '', ( #218 ), #1235 ) ;
#583 = PLANE ( 'NONE',  #1099 ) ;
#584 = EDGE_LOOP ( 'NONE', ( #1301, #22, #911, #942 ) ) ;
#585 = DIRECTION ( 'NONE',  ( 0.0000000000000000000, 0.0000000000000000000, -1.000000000000000000 ) ) ;
#586 = LINE ( 'NONE', #880, #138 ) ;
#587 = EDGE_LOOP ( 'NONE', ( #1298, #156, #215, #164 ) ) ;
#588 = EDGE_CURVE ( 'NONE', #403, #1202, #723, .T. ) ;
#589 = DIRECTION ( 'NONE',  ( 0.0000000000000000000, 1.000000000000000000, 0.0000000000000000000 ) ) ;
#590 =( LENGTH_UNIT ( ) NAMED_UNIT ( * ) SI_UNIT ( .MILLI., .METRE. ) );
#591 = ORIENTED_EDGE ( 'NONE', *, *, #846, .T. ) ;
#592 = FACE_OUTER_BOUND ( 'NONE', #412, .T. ) ;
#593 = DIRECTION ( 'NONE',  ( -0.0000000000000000000, -0.0000000000000000000, 1.000000000000000000 ) ) ;
#594 = ORIENTED_EDGE ( 'NONE', *, *, #275, .T. ) ;
#595 = DIRECTION ( 'NONE',  ( -1.000000000000000000, 0.0000000000000000000, -0.0000000000000000000 ) ) ;
#596 = EDGE_CURVE ( 'NONE', #1202, #518, #1180, .T. ) ;
#597 = CARTESIAN_POINT ( 'NONE',  ( 0.3000000000000000999, 9.189999999999999503, -2.899999999999999911 ) ) ;
#598 = EDGE_LOOP ( 'NONE', ( #328, #639, #389, #645 ) ) ;
#599 = CARTESIAN_POINT ( 'NONE',  ( 0.0000000000000000000, 11.13000000000000078, 1.053775882719999890 ) ) ;
#600 = CARTESIAN_POINT ( 'NONE',  ( -0.7500000000000000000, 7.620000000000000107, 0.5000000000000000000 ) ) ;
#601 = ORIENTED_EDGE ( 'NONE', *, *, #464, .F. ) ;
#602 = DIRECTION ( 'NONE',  ( 1.000000000000000000, 0.0000000000000000000, 0.0000000000000000000 ) ) ;
#603 = AXIS2_PLACEMENT_3D ( 'NONE', #433, #27, #129 ) ;
#604 = VECTOR ( 'NONE', #170, 1000.000000000000000 ) ;
#605 = CARTESIAN_POINT ( 'NONE',  ( 0.4000000000000000222, 13.71599999999999930, 8.000000000000000000 ) ) ;
#606 = ORIENTED_EDGE ( 'NONE', *, *, #415, .T. ) ;
#607 = AXIS2_PLACEMENT_3D ( 'NONE', #1321, #602, #938 ) ;
#608 = EDGE_CURVE ( 'NONE', #88, #283, #18, .T. ) ;
#609 = LINE ( 'NONE', #501, #967 ) ;
#610 = PLANE ( 'NONE',  #352 ) ;
#611 = ORIENTED_EDGE ( 'NONE', *, *, #1073, .F. ) ;
#612 = FILL_AREA_STYLE_COLOUR ( '', #9 ) ;
#613 = ORIENTED_EDGE ( 'NONE', *, *, #802, .T. ) ;
#614 = EDGE_CURVE ( 'NONE', #867, #12, #840, .T. ) ;
#615 = FACE_OUTER_BOUND ( 'NONE', #392, .T. ) ;
#616 = PLANE ( 'NONE',  #240 ) ;
#617 = ORIENTED_EDGE ( 'NONE', *, *, #845, .F. ) ;
#618 = LINE ( 'NONE', #8, #671 ) ;
#619 = CARTESIAN_POINT ( 'NONE',  ( 0.2999999999999999889, 11.12999999999999901, -3.046446609406725958 ) ) ;
#620 = ORIENTED_EDGE ( 'NONE', *, *, #374, .F. ) ;
#621 = CARTESIAN_POINT ( 'NONE',  ( 0.0000000000000000000, 12.69999999999999929, -5.831485763410000748E-15 ) ) ;
#622 = EDGE_CURVE ( 'NONE', #53, #145, #257, .T. ) ;
#623 = CARTESIAN_POINT ( 'NONE',  ( -0.3000000000000000999, 9.189999999999999503, -2.899999999999999911 ) ) ;
#624 = VERTEX_POINT ( 'NONE', #665 ) ;
#625 = CARTESIAN_POINT ( 'NONE',  ( -0.3000000000000000999, 8.589999999999999858, -2.899999999999999911 ) ) ;
#626 = DIRECTION ( 'NONE',  ( -1.000000000000000000, 0.0000000000000000000, 0.0000000000000000000 ) ) ;
#627 = VECTOR ( 'NONE', #296, 1000.000000000000000 ) ;
#628 = VERTEX_POINT ( 'NONE', #1063 ) ;
#629 = AXIS2_PLACEMENT_3D ( 'NONE', #1154, #973, #441 ) ;
#630 = VECTOR ( 'NONE', #312, 1000.000000000000000 ) ;
#631 = DIRECTION ( 'NONE',  ( 0.0000000000000000000, -1.000000000000000000, -0.0000000000000000000 ) ) ;
#632 = CARTESIAN_POINT ( 'NONE',  ( 0.2999999999999999889, 8.589999999999999858, 1.053775882719999890 ) ) ;
#633 = LINE ( 'NONE', #334, #862 ) ;
#634 = ORIENTED_EDGE ( 'NONE', *, *, #148, .T. ) ;
#635 = ORIENTED_EDGE ( 'NONE', *, *, #192, .F. ) ;
#636 = CARTESIAN_POINT ( 'NONE',  ( -0.4000000000000001887, 11.83000000000000007, 8.000000000000000000 ) ) ;
#637 = EDGE_CURVE ( 'NONE', #653, #96, #1269, .T. ) ;
#638 = FACE_OUTER_BOUND ( 'NONE', #702, .T. ) ;
#639 = ORIENTED_EDGE ( 'NONE', *, *, #852, .T. ) ;
#640 = ORIENTED_EDGE ( 'NONE', *, *, #1181, .F. ) ;
#641 = FILL_AREA_STYLE_COLOUR ( '', #28 ) ;
#642 = CARTESIAN_POINT ( 'NONE',  ( -0.05000000000000000278, 11.38000000000000078, -3.149999999999999911 ) ) ;
#643 = DIRECTION ( 'NONE',  ( 1.000000000000000000, -0.0000000000000000000, 0.0000000000000000000 ) ) ;
#644 = ORIENTED_EDGE ( 'NONE', *, *, #749, .T. ) ;
#645 = ORIENTED_EDGE ( 'NONE', *, *, #464, .T. ) ;
#646 = VECTOR ( 'NONE', #703, 1000.000000000000000 ) ;
#647 = ADVANCED_FACE ( 'NONE', ( #356 ), #131, .F. ) ;
#648 = AXIS2_PLACEMENT_3D ( 'NONE', #678, #1088, #165 ) ;
#649 = LINE ( 'NONE', #449, #1075 ) ;
#650 = AXIS2_PLACEMENT_3D ( 'NONE', #118, #1035, #1138 ) ;
#651 = FACE_OUTER_BOUND ( 'NONE', #1032, .T. ) ;
#652 = CARTESIAN_POINT ( 'NONE',  ( 0.4000000000000000222, 8.489999999999998437, 8.000000000000000000 ) ) ;
#653 = VERTEX_POINT ( 'NONE', #1172 ) ;
#654 = EDGE_CURVE ( 'NONE', #394, #867, #435, .T. ) ;
#655 = APPLICATION_PROTOCOL_DEFINITION ( 'draft international standard', 'automotive_design', 1998, #108 ) ;
#656 = ADVANCED_FACE ( 'NONE', ( #638 ), #540, .T. ) ;
#657 = LINE ( 'NONE', #1068, #546 ) ;
#658 = DIRECTION ( 'NONE',  ( 1.000000000000000000, 0.0000000000000000000, 0.0000000000000000000 ) ) ;
#659 = ORIENTED_EDGE ( 'NONE', *, *, #134, .T. ) ;
#660 = DIRECTION ( 'NONE',  ( 0.0000000000000000000, 1.000000000000000000, 0.0000000000000000000 ) ) ;
#661 = EDGE_CURVE ( 'NONE', #1202, #385, #955, .T. ) ;
#662 = LINE ( 'NONE', #434, #1127 ) ;
#663 = EDGE_CURVE ( 'NONE', #150, #457, #853, .T. ) ;
#664 = ADVANCED_FACE ( 'NONE', ( #1165 ), #149, .T. ) ;
#665 = CARTESIAN_POINT ( 'NONE',  ( 0.05000000000000000278, 11.38000000000000078, -3.149999999999999911 ) ) ;
#666 = ORIENTED_EDGE ( 'NONE', *, *, #243, .F. ) ;
#667 = VECTOR ( 'NONE', #211, 1000.000000000000000 ) ;
#668 = LINE ( 'NONE', #1052, #925 ) ;
#669 = AXIS2_PLACEMENT_3D ( 'NONE', #1054, #445, #454 ) ;
#670 = DIRECTION ( 'NONE',  ( 0.0000000000000000000, 1.000000000000000000, -0.0000000000000000000 ) ) ;
#671 = VECTOR ( 'NONE', #413, 1000.000000000000114 ) ;
#672 = LINE ( 'NONE', #1095, #195 ) ;
#673 = EDGE_CURVE ( 'NONE', #313, #271, #241, .T. ) ;
#674 = EDGE_LOOP ( 'NONE', ( #898, #594, #417, #786 ) ) ;
#675 = CARTESIAN_POINT ( 'NONE',  ( 0.0000000000000000000, 12.23000000000000043, 8.400000000000000355 ) ) ;
#676 = CARTESIAN_POINT ( 'NONE',  ( 0.4000000000000000222, 11.02999999999999936, 8.400000000000000355 ) ) ;
#677 = ORIENTED_EDGE ( 'NONE', *, *, #1083, .T. ) ;
#678 = CARTESIAN_POINT ( 'NONE',  ( 0.0000000000000000000, 11.73000000000000043, -3.149999999999999911 ) ) ;
#679 = EDGE_LOOP ( 'NONE', ( #591, #1161, #222, #827 ) ) ;
#680 = CARTESIAN_POINT ( 'NONE',  ( 0.7500000000000000000, 7.620000000000000107, -3.788906111696335115E-15 ) ) ;
#681 = PRODUCT_DEFINITION_FORMATION_WITH_SPECIFIED_SOURCE ( 'ANY', '', #181, .NOT_KNOWN. ) ;
#682 = DIRECTION ( 'NONE',  ( 0.0000000000000000000, 0.0000000000000000000, 1.000000000000000000 ) ) ;
#683 = EDGE_LOOP ( 'NONE', ( #1034, #812, #878, #635 ) ) ;
#684 = DIRECTION ( 'NONE',  ( -0.0000000000000000000, -0.0000000000000000000, 1.000000000000000000 ) ) ;
#685 = CARTESIAN_POINT ( 'NONE',  ( -1.250000000000000000, 0.0000000000000000000, -1.776356839400000199E-15 ) ) ;
#686 = VERTEX_POINT ( 'NONE', #353 ) ;
#687 = CARTESIAN_POINT ( 'NONE',  ( -0.4000000000000000222, 8.490000000000000213, 8.400000000000000355 ) ) ;
#688 = LINE ( 'NONE', #54, #452 ) ;
#689 = ORIENTED_EDGE ( 'NONE', *, *, #528, .F. ) ;
#690 = VECTOR ( 'NONE', #575, 1000.000000000000000 ) ;
#691 = CARTESIAN_POINT ( 'NONE',  ( 0.3999999999999999667, 12.69999999999999929, 0.5000000000000000000 ) ) ;
#692 = AXIS2_PLACEMENT_3D ( 'NONE', #1213, #984, #64 ) ;
#693 =( GEOMETRIC_REPRESENTATION_CONTEXT ( 3 ) GLOBAL_UNCERTAINTY_ASSIGNED_CONTEXT ( ( #234 ) ) GLOBAL_UNIT_ASSIGNED_CONTEXT ( ( #122, #128, #43 ) ) REPRESENTATION_CONTEXT ( 'NONE', 'WORKASPACE' ) );
#694 = DIRECTION ( 'NONE',  ( -0.0000000000000000000, -1.000000000000000000, 0.0000000000000000000 ) ) ;
#695 = ORIENTED_EDGE ( 'NONE', *, *, #148, .F. ) ;
#696 = LINE ( 'NONE', #80, #1230 ) ;
#697 = EDGE_CURVE ( 'NONE', #1228, #1199, #761, .T. ) ;
#698 = CARTESIAN_POINT ( 'NONE',  ( 0.0000000000000000000, 8.589999999999999858, 1.053775882719999890 ) ) ;
#699 = ORIENTED_EDGE ( 'NONE', *, *, #622, .F. ) ;
#700 = DIRECTION ( 'NONE',  ( 0.0000000000000000000, 0.0000000000000000000, 1.000000000000000000 ) ) ;
#701 = CARTESIAN_POINT ( 'NONE',  ( 0.4000000000000000222, 13.71599999999999930, 8.000000000000000000 ) ) ;
#702 = EDGE_LOOP ( 'NONE', ( #695, #947, #734, #261 ) ) ;
#703 = DIRECTION ( 'NONE',  ( -0.0000000000000000000, -1.000000000000000000, 0.0000000000000000000 ) ) ;
#704 = CARTESIAN_POINT ( 'NONE',  ( 0.05000000000000000278, 11.48000000000000043, -3.149999999999999911 ) ) ;
#705 = ORIENTED_EDGE ( 'NONE', *, *, #966, .T. ) ;
#706 = CARTESIAN_POINT ( 'NONE',  ( -0.1964466094067262580, 8.693553390593274699, -3.149999999999999023 ) ) ;
#707 = EDGE_CURVE ( 'NONE', #907, #829, #144, .T. ) ;
#708 = DIRECTION ( 'NONE',  ( 0.0000000000000000000, 0.0000000000000000000, -1.000000000000000000 ) ) ;
#709 = ORIENTED_EDGE ( 'NONE', *, *, #1183, .T. ) ;
#710 = LINE ( 'NONE', #825, #667 ) ;
#711 = DIRECTION ( 'NONE',  ( 0.0000000000000000000, -1.000000000000000000, 0.0000000000000000000 ) ) ;
#712 = ORIENTED_EDGE ( 'NONE', *, *, #299, .F. ) ;
#713 = SURFACE_STYLE_USAGE ( .BOTH. , #1031 ) ;
#714 = AXIS2_PLACEMENT_3D ( 'NONE', #944, #745, #1179 ) ;
#715 = VECTOR ( 'NONE', #895, 1000.000000000000000 ) ;
#716 = EDGE_CURVE ( 'NONE', #1024, #394, #961, .T. ) ;
#717 = DIRECTION ( 'NONE',  ( 0.0000000000000000000, 0.7071067811865474617, -0.7071067811865474617 ) ) ;
#718 = ORIENTED_EDGE ( 'NONE', *, *, #456, .T. ) ;
#719 = DIRECTION ( 'NONE',  ( -0.0000000000000000000, -1.000000000000000000, -0.0000000000000000000 ) ) ;
#720 = LINE ( 'NONE', #600, #1212 ) ;
#721 = ORIENTED_EDGE ( 'NONE', *, *, #716, .F. ) ;
#722 = DIRECTION ( 'NONE',  ( -1.000000000000000000, 0.0000000000000000000, -0.0000000000000000000 ) ) ;
#723 = LINE ( 'NONE', #920, #259 ) ;
#724 = EDGE_LOOP ( 'NONE', ( #677, #363, #1277, #721 ) ) ;
#725 = DIRECTION ( 'NONE',  ( 1.000000000000000000, 0.0000000000000000000, -0.0000000000000000000 ) ) ;
#726 = CARTESIAN_POINT ( 'NONE',  ( -0.4000000000000000222, 9.289999999999999147, 8.400000000000000355 ) ) ;
#727 = ORIENTED_EDGE ( 'NONE', *, *, #654, .F. ) ;
#728 = SURFACE_STYLE_FILL_AREA ( #314 ) ;
#729 = CARTESIAN_POINT ( 'NONE',  ( 0.1964466094067261748, 9.086446609406726438, -3.149999999999999023 ) ) ;
#730 = ORIENTED_EDGE ( 'NONE', *, *, #125, .T. ) ;
#731 = PLANE ( 'NONE',  #1145 ) ;
#732 = EDGE_CURVE ( 'NONE', #96, #807, #230, .T. ) ;
#733 = ADVANCED_FACE ( 'NONE', ( #1177 ), #48, .T. ) ;
#734 = ORIENTED_EDGE ( 'NONE', *, *, #1252, .F. ) ;
#735 = DIRECTION ( 'NONE',  ( -0.0000000000000000000, 0.0000000000000000000, 1.000000000000000000 ) ) ;
#736 = FACE_OUTER_BOUND ( 'NONE', #1217, .T. ) ;
#737 = AXIS2_PLACEMENT_3D ( 'NONE', #217, #631, #937 ) ;
#738 = ORIENTED_EDGE ( 'NONE', *, *, #1129, .F. ) ;
#739 = VECTOR ( 'NONE', #658, 1000.000000000000000 ) ;
#740 = EDGE_LOOP ( 'NONE', ( #184, #620, #932, #1266 ) ) ;
#741 = EDGE_CURVE ( 'NONE', #1132, #79, #1276, .T. ) ;
#742 = CARTESIAN_POINT ( 'NONE',  ( 0.4000000000000000222, 11.02999999999999936, 8.400000000000000355 ) ) ;
#743 = CARTESIAN_POINT ( 'NONE',  ( 0.2999999999999999889, 9.189999999999999503, -3.046446609406725958 ) ) ;
#744 = ORIENTED_EDGE ( 'NONE', *, *, #1226, .T. ) ;
#745 = DIRECTION ( 'NONE',  ( -0.0000000000000000000, 0.0000000000000000000, 1.000000000000000000 ) ) ;
#746 = DIRECTION ( 'NONE',  ( 0.0000000000000000000, 1.000000000000000000, -0.0000000000000000000 ) ) ;
#747 = CARTESIAN_POINT ( 'NONE',  ( 0.0000000000000000000, 11.13000000000000078, -2.899999999999999467 ) ) ;
#748 = EDGE_CURVE ( 'NONE', #79, #372, #1074, .T. ) ;
#749 = EDGE_CURVE ( 'NONE', #341, #1076, #889, .T. ) ;
#750 = ORIENTED_EDGE ( 'NONE', *, *, #250, .T. ) ;
#751 = ORIENTED_EDGE ( 'NONE', *, *, #661, .T. ) ;
#752 = CARTESIAN_POINT ( 'NONE',  ( 0.0000000000000000000, 0.0000000000000000000, 0.0000000000000000000 ) ) ;
#753 =( LENGTH_UNIT ( ) NAMED_UNIT ( * ) SI_UNIT ( .MILLI., .METRE. ) );
#754 = CARTESIAN_POINT ( 'NONE',  ( 0.2999999999999999889, 9.189999999999999503, 1.053775882719999890 ) ) ;
#755 = DIRECTION ( 'NONE',  ( 0.0000000000000000000, -0.0000000000000000000, 1.000000000000000000 ) ) ;
#756 = ORIENTED_EDGE ( 'NONE', *, *, #831, .F. ) ;
#757 = VECTOR ( 'NONE', #858, 1000.000000000000000 ) ;
#758 = DIRECTION ( 'NONE',  ( -0.5773502691896248429, -0.5773502691896261751, -0.5773502691896261751 ) ) ;
#759 = AXIS2_PLACEMENT_3D ( 'NONE', #358, #290, #263 ) ;
#760 = FACE_OUTER_BOUND ( 'NONE', #904, .T. ) ;
#761 = LINE ( 'NONE', #340, #1187 ) ;
#762 = EDGE_CURVE ( 'NONE', #686, #628, #386, .T. ) ;
#763 = EDGE_CURVE ( 'NONE', #1076, #1202, #373, .T. ) ;
#764 = CARTESIAN_POINT ( 'NONE',  ( 0.05000000000000000278, 8.839999999999999858, -3.149999999999999911 ) ) ;
#765 = DIRECTION ( 'NONE',  ( -0.0000000000000000000, 0.0000000000000000000, 1.000000000000000000 ) ) ;
#766 = CARTESIAN_POINT ( 'NONE',  ( -0.2999999999999999889, 11.73000000000000043, 0.0000000000000000000 ) ) ;
#767 = VERTEX_POINT ( 'NONE', #769 ) ;
#768 = PLANE ( 'NONE',  #1018 ) ;
#769 = CARTESIAN_POINT ( 'NONE',  ( -1.250000000000000000, 12.69999999999999929, -4.817703532407500463E-15 ) ) ;
#770 = ORIENTED_EDGE ( 'NONE', *, *, #805, .F. ) ;
#771 = AXIS2_PLACEMENT_3D ( 'NONE', #157, #72, #772 ) ;
#772 = DIRECTION ( 'NONE',  ( 0.0000000000000000000, 0.0000000000000000000, -1.000000000000000000 ) ) ;
#773 = PRESENTATION_LAYER_ASSIGNMENT (  '', '', ( #559 ) ) ;
#774 = CARTESIAN_POINT ( 'NONE',  ( -0.8000000000000010436, 9.690000000000001279, 8.400000000000000355 ) ) ;
#775 = ORIENTED_EDGE ( 'NONE', *, *, #802, .F. ) ;
#776 = VECTOR ( 'NONE', #189, 1000.000000000000000 ) ;
#777 = EDGE_CURVE ( 'NONE', #1097, #1024, #979, .T. ) ;
#778 = CARTESIAN_POINT ( 'NONE',  ( -0.2999999999999999889, 0.0000000000000000000, -2.899999999999999911 ) ) ;
#779 = DIRECTION ( 'NONE',  ( 0.7071067811865474617, 0.0000000000000000000, 0.7071067811865474617 ) ) ;
#780 = ORIENTED_EDGE ( 'NONE', *, *, #220, .T. ) ;
#781 = CARTESIAN_POINT ( 'NONE',  ( -1.750000000000000000, 8.490000000000000213, 8.000000000000000000 ) ) ;
#782 = CARTESIAN_POINT ( 'NONE',  ( -0.3000000000000000999, 11.73000000000000043, -2.899999999999999911 ) ) ;
#783 = VERTEX_POINT ( 'NONE', #258 ) ;
#784 = CARTESIAN_POINT ( 'NONE',  ( 0.8000000000000009326, 12.23000000000000043, 8.400000000000000355 ) ) ;
#785 = CARTESIAN_POINT ( 'NONE',  ( 0.3999999999999999667, 11.83000000000000007, 0.5000000000000003331 ) ) ;
#786 = ORIENTED_EDGE ( 'NONE', *, *, #1021, .F. ) ;
#787 = DIRECTION ( 'NONE',  ( 1.000000000000000000, 0.0000000000000000000, 0.0000000000000000000 ) ) ;
#788 = DIRECTION ( 'NONE',  ( -0.0000000000000000000, 1.000000000000000000, 0.0000000000000000000 ) ) ;
#789 = EDGE_LOOP ( 'NONE', ( #854, #1030, #469, #841 ) ) ;
#790 = CARTESIAN_POINT ( 'NONE',  ( 0.4000000000000000222, 9.289999999999999147, 8.400000000000000355 ) ) ;
#791 = EDGE_LOOP ( 'NONE', ( #556, #56, #962, #968 ) ) ;
#792 = EDGE_CURVE ( 'NONE', #79, #16, #83, .T. ) ;
#793 = CARTESIAN_POINT ( 'NONE',  ( 1.250000000000000000, 12.69999999999999929, 0.0000000000000000000 ) ) ;
#794 = VECTOR ( 'NONE', #383, 1000.000000000000000 ) ;
#795 = LINE ( 'NONE', #572, #1169 ) ;
#796 = ORIENTED_EDGE ( 'NONE', *, *, #40, .T. ) ;
#797 = VECTOR ( 'NONE', #848, 1000.000000000000000 ) ;
#798 = DIRECTION ( 'NONE',  ( -0.5773502691896256200, -0.5773502691896258421, -0.5773502691896258421 ) ) ;
#799 = VECTOR ( 'NONE', #735, 1000.000000000000000 ) ;
#800 = SURFACE_STYLE_FILL_AREA ( #1194 ) ;
#801 = VERTEX_POINT ( 'NONE', #1106 ) ;
#802 = EDGE_CURVE ( 'NONE', #940, #1047, #876, .T. ) ;
#803 = EDGE_CURVE ( 'NONE', #653, #1120, #672, .T. ) ;
#804 = FACE_OUTER_BOUND ( 'NONE', #1114, .T. ) ;
#805 = EDGE_CURVE ( 'NONE', #428, #1097, #580, .T. ) ;
#806 = CARTESIAN_POINT ( 'NONE',  ( 0.0000000000000000000, 9.189999999999999503, 1.053775882719999890 ) ) ;
#807 = VERTEX_POINT ( 'NONE', #994 ) ;
#808 = FACE_OUTER_BOUND ( 'NONE', #530, .T. ) ;
#809 = FACE_OUTER_BOUND ( 'NONE', #885, .T. ) ;
#810 = ORIENTED_EDGE ( 'NONE', *, *, #1245, .T. ) ;
#811 = CARTESIAN_POINT ( 'NONE',  ( 0.3000000000000000999, 11.73000000000000043, -2.899999999999999911 ) ) ;
#812 = ORIENTED_EDGE ( 'NONE', *, *, #748, .F. ) ;
#813 = EDGE_CURVE ( 'NONE', #914, #341, #89, .T. ) ;
#814 = CARTESIAN_POINT ( 'NONE',  ( -1.750000000000000000, 11.02999999999999936, 8.000000000000000000 ) ) ;
#815 = ORIENTED_EDGE ( 'NONE', *, *, #1060, .F. ) ;
#816 = ADVANCED_BREP_SHAPE_REPRESENTATION ( 'CD26C6E7-0A3F-4281-9F10-F8D1275DEA1F', ( #936, #462, #59, #119 ), #1058 ) ;
#817 = PLANE ( 'NONE',  #543 ) ;
#818 = CARTESIAN_POINT ( 'NONE',  ( 0.1964466094067261748, 11.62644660940672914, -3.149999999999999023 ) ) ;
#819 = EDGE_LOOP ( 'NONE', ( #369, #1140, #573, #206 ) ) ;
#820 = CARTESIAN_POINT ( 'NONE',  ( 0.05000000000000000278, 11.42999999999999972, -2.899999999999999911 ) ) ;
#821 = AXIS2_PLACEMENT_3D ( 'NONE', #320, #111, #527 ) ;
#822 = FACE_OUTER_BOUND ( 'NONE', #488, .T. ) ;
#823 = ORIENTED_EDGE ( 'NONE', *, *, #707, .F. ) ;
#824 = VECTOR ( 'NONE', #887, 1000.000000000000000 ) ;
#825 = CARTESIAN_POINT ( 'NONE',  ( -0.4000000000000000222, 11.83000000000000007, 8.000000000000000000 ) ) ;
#826 = DIRECTION ( 'NONE',  ( 0.0000000000000000000, 1.000000000000000000, 0.0000000000000000000 ) ) ;
#827 = ORIENTED_EDGE ( 'NONE', *, *, #762, .F. ) ;
#828 = FACE_OUTER_BOUND ( 'NONE', #1064, .T. ) ;
#829 = VERTEX_POINT ( 'NONE', #1302 ) ;
#830 = ADVANCED_FACE ( 'NONE', ( #1082 ), #905, .T. ) ;
#831 = EDGE_CURVE ( 'NONE', #1289, #233, #293, .T. ) ;
#832 = LINE ( 'NONE', #1130, #1287 ) ;
#833 = CARTESIAN_POINT ( 'NONE',  ( 1.250000000000000000, 7.620000000000000107, 8.400000000000000355 ) ) ;
#834 = ORIENTED_EDGE ( 'NONE', *, *, #276, .F. ) ;
#835 =( NAMED_UNIT ( * ) PLANE_ANGLE_UNIT ( ) SI_UNIT ( $, .RADIAN. ) );
#836 = CARTESIAN_POINT ( 'NONE',  ( -0.3000000000000000999, 9.189999999999999503, -2.899999999999999911 ) ) ;
#837 = ORIENTED_EDGE ( 'NONE', *, *, #299, .T. ) ;
#838 = CARTESIAN_POINT ( 'NONE',  ( 0.3999999999999999667, 11.02999999999999936, 0.5000000000000002220 ) ) ;
#839 = CYLINDRICAL_SURFACE ( 'NONE', #500, 0.2500000000000002220 ) ;
#840 = LINE ( 'NONE', #1049, #1036 ) ;
#841 = ORIENTED_EDGE ( 'NONE', *, *, #456, .F. ) ;
#842 = VECTOR ( 'NONE', #495, 1000.000000000000000 ) ;
#843 = VECTOR ( 'NONE', #765, 1000.000000000000000 ) ;
#844 = FILL_AREA_STYLE ('',( #641 ) ) ;
#845 = EDGE_CURVE ( 'NONE', #849, #628, #1316, .T. ) ;
#846 = EDGE_CURVE ( 'NONE', #686, #313, #1306, .T. ) ;
#847 = DIRECTION ( 'NONE',  ( -1.000000000000000000, 0.0000000000000000000, 0.0000000000000000000 ) ) ;
#848 = DIRECTION ( 'NONE',  ( -0.0000000000000000000, -0.0000000000000000000, 1.000000000000000000 ) ) ;
#849 = VERTEX_POINT ( 'NONE', #1286 ) ;
#850 = DIRECTION ( 'NONE',  ( 0.0000000000000000000, -0.0000000000000000000, 1.000000000000000000 ) ) ;
#851 = CARTESIAN_POINT ( 'NONE',  ( -0.7500000000000000000, 12.69999999999999929, 0.5000000000000000000 ) ) ;
#852 = EDGE_CURVE ( 'NONE', #628, #653, #365, .T. ) ;
#853 = LINE ( 'NONE', #36, #969 ) ;
#854 = ORIENTED_EDGE ( 'NONE', *, *, #1310, .F. ) ;
#855 = DIRECTION ( 'NONE',  ( 1.000000000000000000, 0.0000000000000000000, 0.0000000000000000000 ) ) ;
#856 = SURFACE_SIDE_STYLE ('',( #1274 ) ) ;
#857 = CARTESIAN_POINT ( 'NONE',  ( -0.2999999999999999889, 11.13000000000000078, 1.053775882719999890 ) ) ;
#858 = DIRECTION ( 'NONE',  ( 0.0000000000000000000, -1.000000000000000000, -0.0000000000000000000 ) ) ;
#859 = ORIENTED_EDGE ( 'NONE', *, *, #1021, .T. ) ;
#860 = VECTOR ( 'NONE', #34, 1000.000000000000000 ) ;
#861 = ADVANCED_FACE ( 'NONE', ( #272 ), #265, .F. ) ;
#862 = VECTOR ( 'NONE', #939, 1000.000000000000000 ) ;
#863 = FACE_OUTER_BOUND ( 'NONE', #515, .T. ) ;
#864 = STYLED_ITEM ( 'NONE', ( #336 ), #816 ) ;
#865 = CARTESIAN_POINT ( 'NONE',  ( -0.1964466094067262580, 11.23355339059327740, -3.149999999999999023 ) ) ;
#866 = DIRECTION ( 'NONE',  ( 0.7071067811865475727, -0.0000000000000000000, 0.7071067811865475727 ) ) ;
#867 = VERTEX_POINT ( 'NONE', #574 ) ;
#868 = EDGE_CURVE ( 'NONE', #1137, #33, #986, .T. ) ;
#869 = CARTESIAN_POINT ( 'NONE',  ( 0.0000000000000000000, 11.73000000000000043, -3.149999999999999911 ) ) ;
#870 = PLANE ( 'NONE',  #332 ) ;
#871 = CARTESIAN_POINT ( 'NONE',  ( -0.2999999999999999889, 9.189999999999999503, 0.0000000000000000000 ) ) ;
#872 = ORIENTED_EDGE ( 'NONE', *, *, #608, .T. ) ;
#873 = EDGE_CURVE ( 'NONE', #403, #993, #883, .T. ) ;
#874 = DIRECTION ( 'NONE',  ( 0.0000000000000000000, 0.7071067811865474617, -0.7071067811865474617 ) ) ;
#875 = FACE_OUTER_BOUND ( 'NONE', #302, .T. ) ;
#876 = LINE ( 'NONE', #784, #137 ) ;
#877 = CARTESIAN_POINT ( 'NONE',  ( -1.250000000000000000, 0.0000000000000000000, 8.400000000000000355 ) ) ;
#878 = ORIENTED_EDGE ( 'NONE', *, *, #741, .F. ) ;
#879 = CARTESIAN_POINT ( 'NONE',  ( 0.0000000000000000000, 11.38000000000000078, -2.899999999999999911 ) ) ;
#880 = CARTESIAN_POINT ( 'NONE',  ( 0.2999999999999999889, 0.0000000000000000000, -2.899999999999999911 ) ) ;
#881 = ORIENTED_EDGE ( 'NONE', *, *, #291, .T. ) ;
#882 = EDGE_CURVE ( 'NONE', #1305, #1289, #77, .T. ) ;
#883 = LINE ( 'NONE', #1295, #239 ) ;
#884 = DIRECTION ( 'NONE',  ( 1.000000000000000000, -0.0000000000000000000, 0.0000000000000000000 ) ) ;
#885 = EDGE_LOOP ( 'NONE', ( #268, #1271, #512, #231 ) ) ;
#886 = PLANE ( 'NONE',  #946 ) ;
#887 = DIRECTION ( 'NONE',  ( 1.000000000000000000, -0.0000000000000000000, 0.0000000000000000000 ) ) ;
#888 = ORIENTED_EDGE ( 'NONE', *, *, #550, .T. ) ;
#889 = LINE ( 'NONE', #1184, #604 ) ;
#890 = PRESENTATION_STYLE_ASSIGNMENT (( #1113 ) ) ;
#891 = ORIENTED_EDGE ( 'NONE', *, *, #40, .F. ) ;
#892 = CARTESIAN_POINT ( 'NONE',  ( 0.05000000000000000278, 11.73000000000000043, -3.149999999999999911 ) ) ;
#893 = FACE_OUTER_BOUND ( 'NONE', #724, .T. ) ;
#894 = ORIENTED_EDGE ( 'NONE', *, *, #439, .T. ) ;
#895 = DIRECTION ( 'NONE',  ( -0.0000000000000000000, 0.0000000000000000000, -1.000000000000000000 ) ) ;
#896 = EDGE_CURVE ( 'NONE', #2, #372, #399, .T. ) ;
#897 = CARTESIAN_POINT ( 'NONE',  ( 0.4000000000000000222, 11.02999999999999936, 8.000000000000000000 ) ) ;
#898 = ORIENTED_EDGE ( 'NONE', *, *, #899, .T. ) ;
#899 = EDGE_CURVE ( 'NONE', #1076, #1056, #76, .T. ) ;
#900 = ADVANCED_FACE ( 'NONE', ( #1242 ), #319, .F. ) ;
#901 = CARTESIAN_POINT ( 'NONE',  ( -0.7500000000000000000, 7.620000000000000107, 0.5000000000000001110 ) ) ;
#902 = VECTOR ( 'NONE', #1188, 1000.000000000000000 ) ;
#903 =( NAMED_UNIT ( * ) PLANE_ANGLE_UNIT ( ) SI_UNIT ( $, .RADIAN. ) );
#904 = EDGE_LOOP ( 'NONE', ( #1134, #1007, #502, #1128 ) ) ;
#905 = PLANE ( 'NONE',  #366 ) ;
#906 = VECTOR ( 'NONE', #17, 1000.000000000000000 ) ;
#907 = VERTEX_POINT ( 'NONE', #213 ) ;
#908 = EDGE_CURVE ( 'NONE', #829, #308, #110, .T. ) ;
#909 = DIRECTION ( 'NONE',  ( -1.000000000000000000, -0.0000000000000000000, -0.0000000000000000000 ) ) ;
#910 = CARTESIAN_POINT ( 'NONE',  ( 0.0000000000000000000, 11.73000000000000043, -3.149999999999999911 ) ) ;
#911 = ORIENTED_EDGE ( 'NONE', *, *, #805, .T. ) ;
#912 = DIRECTION ( 'NONE',  ( 0.0000000000000000000, -0.0000000000000000000, 1.000000000000000000 ) ) ;
#913 = DIRECTION ( 'NONE',  ( 0.5773502691896263972, -0.5773502691896242878, 0.5773502691896266192 ) ) ;
#914 = VERTEX_POINT ( 'NONE', #632 ) ;
#915 = CARTESIAN_POINT ( 'NONE',  ( 1.750000000000000000, 11.83000000000000007, 8.000000000000000000 ) ) ;
#916 = ADVANCED_FACE ( 'NONE', ( #808 ), #200, .T. ) ;
#917 = PLANE ( 'NONE',  #197 ) ;
#918 = CARTESIAN_POINT ( 'NONE',  ( 0.2999999999999999889, 11.13000000000000078, 1.053775882719999890 ) ) ;
#919 = CARTESIAN_POINT ( 'NONE',  ( -0.2999999999999999889, 8.589999999999999858, -3.046446609406725958 ) ) ;
#920 = CARTESIAN_POINT ( 'NONE',  ( 0.0000000000000000000, 9.189999999999999503, -2.899999999999999911 ) ) ;
#921 = ORIENTED_EDGE ( 'NONE', *, *, #813, .T. ) ;
#922 = CARTESIAN_POINT ( 'NONE',  ( -0.7500000000000000000, 12.69999999999999929, 0.0000000000000000000 ) ) ;
#923 = DIRECTION ( 'NONE',  ( 0.0000000000000000000, 0.0000000000000000000, -1.000000000000000000 ) ) ;
#924 = ORIENTED_EDGE ( 'NONE', *, *, #908, .T. ) ;
#925 = VECTOR ( 'NONE', #758, 1000.000000000000114 ) ;
#926 = VECTOR ( 'NONE', #467, 1000.000000000000000 ) ;
#927 = LINE ( 'NONE', #11, #115 ) ;
#928 = ORIENTED_EDGE ( 'NONE', *, *, #608, .F. ) ;
#929 = VECTOR ( 'NONE', #472, 1000.000000000000000 ) ;
#930 = CARTESIAN_POINT ( 'NONE',  ( -0.2999999999999999889, 8.589999999999999858, 1.053775882719999890 ) ) ;
#931 = PLANE ( 'NONE',  #1078 ) ;
#932 = ORIENTED_EDGE ( 'NONE', *, *, #661, .F. ) ;
#933 = CARTESIAN_POINT ( 'NONE',  ( 0.0000000000000000000, 12.69999999999999929, -5.831485763410000748E-15 ) ) ;
#934 = DIRECTION ( 'NONE',  ( -0.0000000000000000000, -1.000000000000000000, 0.0000000000000000000 ) ) ;
#935 = ORIENTED_EDGE ( 'NONE', *, *, #1060, .T. ) ;
#936 = MANIFOLD_SOLID_BREP ( 'PartBody', #448 ) ;
#937 = DIRECTION ( 'NONE',  ( 0.0000000000000000000, 0.0000000000000000000, -1.000000000000000000 ) ) ;
#938 = DIRECTION ( 'NONE',  ( 0.0000000000000000000, 0.0000000000000000000, -1.000000000000000000 ) ) ;
#939 = DIRECTION ( 'NONE',  ( -1.000000000000000000, 0.0000000000000000000, -0.0000000000000000000 ) ) ;
#940 = VERTEX_POINT ( 'NONE', #306 ) ;
#941 = ADVANCED_FACE ( 'NONE', ( #404 ), #191, .T. ) ;
#942 = ORIENTED_EDGE ( 'NONE', *, *, #1142, .F. ) ;
#943 = SHAPE_DEFINITION_REPRESENTATION ( #1196, #816 ) ;
#944 = CARTESIAN_POINT ( 'NONE',  ( 0.0000000000000000000, 12.69999999999999929, -5.831485763410000748E-15 ) ) ;
#945 = LINE ( 'NONE', #954, #367 ) ;
#946 = AXIS2_PLACEMENT_3D ( 'NONE', #1299, #377, #997 ) ;
#947 = ORIENTED_EDGE ( 'NONE', *, *, #663, .T. ) ;
#948 =( BOUNDED_CURVE ( )  B_SPLINE_CURVE ( 3, ( #704, #818, #1143, #411 ),
 .UNSPECIFIED., .F., .T. ) 
 B_SPLINE_CURVE_WITH_KNOTS ( ( 4, 4 ),
 ( 4.712388980384689674, 6.283185307179586232 ),
 .UNSPECIFIED. ) 
 CURVE ( )  GEOMETRIC_REPRESENTATION_ITEM ( )  RATIONAL_B_SPLINE_CURVE ( ( 1.000000000000000000, 0.8047378541243649375, 0.8047378541243649375, 1.000000000000000000 ) ) 
 REPRESENTATION_ITEM ( '' )  );
#949 = MECHANICAL_DESIGN_GEOMETRIC_PRESENTATION_REPRESENTATION (  '', ( #559 ), #408 ) ;
#950 = VECTOR ( 'NONE', #722, 1000.000000000000000 ) ;
#951 = ORIENTED_EDGE ( 'NONE', *, *, #896, .T. ) ;
#952 = EDGE_CURVE ( 'NONE', #145, #914, #103, .T. ) ;
#953 = SURFACE_STYLE_USAGE ( .BOTH. , #856 ) ;
#954 = CARTESIAN_POINT ( 'NONE',  ( 0.0000000000000000000, 8.589999999999999858, -2.899999999999999467 ) ) ;
#955 = LINE ( 'NONE', #871, #797 ) ;
#956 = EDGE_LOOP ( 'NONE', ( #140, #534, #553, #1084 ) ) ;
#957 =( BOUNDED_CURVE ( )  B_SPLINE_CURVE ( 3, ( #24, #1039, #97, #1019 ),
 .UNSPECIFIED., .F., .T. ) 
 B_SPLINE_CURVE_WITH_KNOTS ( ( 4, 4 ),
 ( 0.0000000000000000000, 1.570796326794896780 ),
 .UNSPECIFIED. ) 
 CURVE ( )  GEOMETRIC_REPRESENTATION_ITEM ( )  RATIONAL_B_SPLINE_CURVE ( ( 1.000000000000000000, 0.8047378541243649375, 0.8047378541243649375, 1.000000000000000000 ) ) 
 REPRESENTATION_ITEM ( '' )  );
#958 = CARTESIAN_POINT ( 'NONE',  ( 0.4000000000000000222, 11.83000000000000007, 8.400000000000000355 ) ) ;
#959 = ADVANCED_FACE ( 'NONE', ( #1042 ), #524, .T. ) ;
#960 = PLANE ( 'NONE',  #523 ) ;
#961 = LINE ( 'NONE', #1159, #757 ) ;
#962 = ORIENTED_EDGE ( 'NONE', *, *, #596, .F. ) ;
#963 = SURFACE_STYLE_FILL_AREA ( #227 ) ;
#964 = DIRECTION ( 'NONE',  ( 0.0000000000000000000, 0.0000000000000000000, -1.000000000000000000 ) ) ;
#965 = EDGE_CURVE ( 'NONE', #849, #96, #1146, .T. ) ;
#966 = EDGE_CURVE ( 'NONE', #1070, #807, #618, .T. ) ;
#967 = VECTOR ( 'NONE', #909, 1000.000000000000000 ) ;
#968 = ORIENTED_EDGE ( 'NONE', *, *, #588, .F. ) ;
#969 = VECTOR ( 'NONE', #55, 1000.000000000000000 ) ;
#970 = VECTOR ( 'NONE', #682, 1000.000000000000000 ) ;
#971 = CARTESIAN_POINT ( 'NONE',  ( 0.0000000000000000000, 9.689999999999999503, 8.400000000000000355 ) ) ;
#972 = PLANE ( 'NONE',  #759 ) ;
#973 = DIRECTION ( 'NONE',  ( -0.0000000000000000000, 1.000000000000000000, 0.0000000000000000000 ) ) ;
#974 = PRODUCT_RELATED_PRODUCT_CATEGORY ( 'part', '', ( #181 ) ) ;
#975 = EDGE_CURVE ( 'NONE', #907, #283, #210, .T. ) ;
#976 = ORIENTED_EDGE ( 'NONE', *, *, #220, .F. ) ;
#977 = DIRECTION ( 'NONE',  ( 0.0000000000000000000, 0.0000000000000000000, 1.000000000000000000 ) ) ;
#978 = LINE ( 'NONE', #577, #824 ) ;
#979 = LINE ( 'NONE', #380, #842 ) ;
#980 = LINE ( 'NONE', #685, #450 ) ;
#981 = ORIENTED_EDGE ( 'NONE', *, *, #975, .T. ) ;
#982 = ADVANCED_FACE ( 'NONE', ( #45 ), #1053, .T. ) ;
#983 = DIRECTION ( 'NONE',  ( 0.0000000000000000000, 0.0000000000000000000, -1.000000000000000000 ) ) ;
#984 = DIRECTION ( 'NONE',  ( 1.000000000000000000, 0.0000000000000000000, 0.0000000000000000000 ) ) ;
#985 = ORIENTED_EDGE ( 'NONE', *, *, #707, .T. ) ;
#986 = LINE ( 'NONE', #66, #70 ) ;
#987 = ORIENTED_EDGE ( 'NONE', *, *, #276, .T. ) ;
#988 = VECTOR ( 'NONE', #977, 1000.000000000000000 ) ;
#989 = FACE_OUTER_BOUND ( 'NONE', #423, .T. ) ;
#990 = VECTOR ( 'NONE', #912, 1000.000000000000000 ) ;
#991 = ADVANCED_FACE ( 'NONE', ( #651 ), #839, .T. ) ;
#992 = CARTESIAN_POINT ( 'NONE',  ( -0.4000000000000000222, 8.490000000000000213, 0.5000000000000003331 ) ) ;
#993 = VERTEX_POINT ( 'NONE', #754 ) ;
#994 = CARTESIAN_POINT ( 'NONE',  ( -0.3999999999999999112, 8.490000000000000213, 8.000000000000000000 ) ) ;
#995 = DIRECTION ( 'NONE',  ( 1.000000000000000000, -0.0000000000000000000, 0.0000000000000000000 ) ) ;
#996 = EDGE_LOOP ( 'NONE', ( #161, #499, #705, #1214 ) ) ;
#997 = DIRECTION ( 'NONE',  ( 0.0000000000000000000, 0.0000000000000000000, -1.000000000000000000 ) ) ;
#998 = DIRECTION ( 'NONE',  ( -0.0000000000000000000, 1.000000000000000000, 0.0000000000000000000 ) ) ;
#999 = ORIENTED_EDGE ( 'NONE', *, *, #882, .T. ) ;
#1000 = EDGE_CURVE ( 'NONE', #1124, #1149, #1260, .T. ) ;
#1001 = DIRECTION ( 'NONE',  ( 0.0000000000000000000, 1.000000000000000000, 0.0000000000000000000 ) ) ;
#1002 = ADVANCED_FACE ( 'NONE', ( #1254 ), #1151, .T. ) ;
#1003 = EDGE_CURVE ( 'NONE', #457, #316, #1072, .T. ) ;
#1004 = ORIENTED_EDGE ( 'NONE', *, *, #550, .F. ) ;
#1005 = LINE ( 'NONE', #370, #627 ) ;
#1006 = CARTESIAN_POINT ( 'NONE',  ( 0.0000000000000000000, 11.13000000000000078, 1.053775882719999890 ) ) ;
#1007 = ORIENTED_EDGE ( 'NONE', *, *, #716, .T. ) ;
#1008 = CARTESIAN_POINT ( 'NONE',  ( -0.4000000000000000222, 9.289999999999999147, 0.5000000000000004441 ) ) ;
#1009 = ADVANCED_FACE ( 'NONE', ( #1268 ), #554, .T. ) ;
#1010 = DIRECTION ( 'NONE',  ( 0.0000000000000000000, -1.000000000000000000, -0.0000000000000000000 ) ) ;
#1011 = ORIENTED_EDGE ( 'NONE', *, *, #1174, .F. ) ;
#1012 = PLANE ( 'NONE',  #216 ) ;
#1013 = AXIS2_PLACEMENT_3D ( 'NONE', #375, #1089, #779 ) ;
#1014 = FACE_OUTER_BOUND ( 'NONE', #1050, .T. ) ;
#1015 = ORIENTED_EDGE ( 'NONE', *, *, #803, .F. ) ;
#1016 = AXIS2_PLACEMENT_3D ( 'NONE', #1069, #154, #548 ) ;
#1017 = CARTESIAN_POINT ( 'NONE',  ( -0.05000000000000000278, 8.839999999999999858, -3.149999999999999911 ) ) ;
#1018 = AXIS2_PLACEMENT_3D ( 'NONE', #698, #278, #567 ) ;
#1019 = CARTESIAN_POINT ( 'NONE',  ( -0.05000000000000000278, 11.48000000000000043, -3.149999999999999911 ) ) ;
#1020 = ORIENTED_EDGE ( 'NONE', *, *, #243, .T. ) ;
#1021 = EDGE_CURVE ( 'NONE', #1076, #145, #945, .T. ) ;
#1022 = CARTESIAN_POINT ( 'NONE',  ( -0.2999999999999999889, 11.13000000000000078, 1.053775882719999890 ) ) ;
#1023 = DIRECTION ( 'NONE',  ( 0.0000000000000000000, -0.0000000000000000000, -1.000000000000000000 ) ) ;
#1024 = VERTEX_POINT ( 'NONE', #636 ) ;
#1025 = PRESENTATION_STYLE_ASSIGNMENT (( #713 ) ) ;
#1026 = DIRECTION ( 'NONE',  ( 0.0000000000000000000, 0.0000000000000000000, 1.000000000000000000 ) ) ;
#1027 = ORIENTED_EDGE ( 'NONE', *, *, #396, .T. ) ;
#1028 = DIRECTION ( 'NONE',  ( 1.000000000000000000, 0.0000000000000000000, 0.0000000000000000000 ) ) ;
#1029 = CARTESIAN_POINT ( 'NONE',  ( -1.250000000000000000, 12.69999999999999929, 0.0000000000000000000 ) ) ;
#1030 = ORIENTED_EDGE ( 'NONE', *, *, #432, .F. ) ;
#1031 = SURFACE_SIDE_STYLE ('',( #728 ) ) ;
#1032 = EDGE_LOOP ( 'NONE', ( #485, #987, #536, #85 ) ) ;
#1033 = DIRECTION ( 'NONE',  ( 0.0000000000000000000, 0.0000000000000000000, -1.000000000000000000 ) ) ;
#1034 = ORIENTED_EDGE ( 'NONE', *, *, #1051, .F. ) ;
#1035 = DIRECTION ( 'NONE',  ( 0.0000000000000000000, 1.000000000000000000, 0.0000000000000000000 ) ) ;
#1036 = VECTOR ( 'NONE', #643, 1000.000000000000000 ) ;
#1037 =( BOUNDED_CURVE ( )  B_SPLINE_CURVE ( 3, ( #104, #1243, #619, #511 ),
 .UNSPECIFIED., .F., .T. ) 
 B_SPLINE_CURVE_WITH_KNOTS ( ( 4, 4 ),
 ( 4.712388980384689674, 6.283185307179586232 ),
 .UNSPECIFIED. ) 
 CURVE ( )  GEOMETRIC_REPRESENTATION_ITEM ( )  RATIONAL_B_SPLINE_CURVE ( ( 1.000000000000000000, 0.8047378541243649375, 0.8047378541243649375, 1.000000000000000000 ) ) 
 REPRESENTATION_ITEM ( '' )  );
#1038 = VECTOR ( 'NONE', #101, 1000.000000000000000 ) ;
#1039 = CARTESIAN_POINT ( 'NONE',  ( -0.2999999999999999889, 11.73000000000000043, -3.046446609406725958 ) ) ;
#1040 = ORIENTED_EDGE ( 'NONE', *, *, #868, .F. ) ;
#1041 = ORIENTED_EDGE ( 'NONE', *, *, #51, .F. ) ;
#1042 = FACE_OUTER_BOUND ( 'NONE', #74, .T. ) ;
#1043 = EDGE_CURVE ( 'NONE', #1087, #233, #1048, .T. ) ;
#1044 = CARTESIAN_POINT ( 'NONE',  ( -0.05000000000000000278, 11.73000000000000043, -3.149999999999999911 ) ) ;
#1045 = ORIENTED_EDGE ( 'NONE', *, *, #1043, .T. ) ;
#1046 = UNCERTAINTY_MEASURE_WITH_UNIT (LENGTH_MEASURE( 1.000000000000000082E-05 ), #421, 'distance_accuracy_value', 'NONE');
#1047 = VERTEX_POINT ( 'NONE', #29 ) ;
#1048 = LINE ( 'NONE', #355, #843 ) ;
#1049 = CARTESIAN_POINT ( 'NONE',  ( -0.7500000000000000000, 11.02999999999999936, 0.5000000000000000000 ) ) ;
#1050 = EDGE_LOOP ( 'NONE', ( #1238, #187, #712, #420 ) ) ;
#1051 = EDGE_CURVE ( 'NONE', #372, #907, #130, .T. ) ;
#1052 = CARTESIAN_POINT ( 'NONE',  ( 0.7999999999999996003, 9.690000000000001279, 8.400000000000000355 ) ) ;
#1053 = PLANE ( 'NONE',  #71 ) ;
#1054 = CARTESIAN_POINT ( 'NONE',  ( 0.05000000000000000278, 11.42999999999999972, -2.899999999999999911 ) ) ;
#1055 = AXIS2_PLACEMENT_3D ( 'NONE', #361, #983, #162 ) ;
#1056 = VERTEX_POINT ( 'NONE', #539 ) ;
#1057 = VECTOR ( 'NONE', #700, 1000.000000000000000 ) ;
#1058 =( GEOMETRIC_REPRESENTATION_CONTEXT ( 3 ) GLOBAL_UNCERTAINTY_ASSIGNED_CONTEXT ( ( #14 ) ) GLOBAL_UNIT_ASSIGNED_CONTEXT ( ( #107, #903, #1136 ) ) REPRESENTATION_CONTEXT ( 'NONE', 'WORKASPACE' ) );
#1059 = ORIENTED_EDGE ( 'NONE', *, *, #952, .T. ) ;
#1060 = EDGE_CURVE ( 'NONE', #1087, #1305, #662, .T. ) ;
#1061 = DIRECTION ( 'NONE',  ( -0.0000000000000000000, 0.0000000000000000000, 1.000000000000000000 ) ) ;
#1062 = DIRECTION ( 'NONE',  ( -0.0000000000000000000, 1.000000000000000000, 0.0000000000000000000 ) ) ;
#1063 = CARTESIAN_POINT ( 'NONE',  ( 0.3999999999999999667, 9.289999999999999147, 0.5000000000000003331 ) ) ;
#1064 = EDGE_LOOP ( 'NONE', ( #166, #1027, #689, #1315 ) ) ;
#1065 = DIRECTION ( 'NONE',  ( -0.5773502691896250649, 0.5773502691896261751, 0.5773502691896261751 ) ) ;
#1066 = ADVANCED_FACE ( 'NONE', ( #1157, #229, #35 ), #960, .T. ) ;
#1067 = ADVANCED_FACE ( 'NONE', ( #760 ), #1164, .T. ) ;
#1068 = CARTESIAN_POINT ( 'NONE',  ( 0.4000000000000000222, 11.02999999999999936, 8.000000000000000000 ) ) ;
#1069 = CARTESIAN_POINT ( 'NONE',  ( 1.250000000000000000, 0.0000000000000000000, 0.0000000000000000000 ) ) ;
#1070 = VERTEX_POINT ( 'NONE', #39 ) ;
#1071 = CARTESIAN_POINT ( 'NONE',  ( -1.250000000000000000, 7.620000000000000107, 0.0000000000000000000 ) ) ;
#1072 = LINE ( 'NONE', #143, #284 ) ;
#1073 = EDGE_CURVE ( 'NONE', #398, #394, #657, .T. ) ;
#1074 = LINE ( 'NONE', #460, #476 ) ;
#1075 = VECTOR ( 'NONE', #248, 1000.000000000000000 ) ;
#1076 = VERTEX_POINT ( 'NONE', #451 ) ;
#1077 = COLOUR_RGB ( '',0.8313725490196077761, 0.8313725490196077761, 0.0000000000000000000 ) ;
#1078 = AXIS2_PLACEMENT_3D ( 'NONE', #910, #826, #1123 ) ;
#1079 = LINE ( 'NONE', #86, #496 ) ;
#1080 = DIRECTION ( 'NONE',  ( 1.000000000000000000, 0.0000000000000000000, 0.0000000000000000000 ) ) ;
#1081 = EDGE_CURVE ( 'NONE', #19, #940, #1275, .T. ) ;
#1082 = FACE_OUTER_BOUND ( 'NONE', #279, .T. ) ;
#1083 = EDGE_CURVE ( 'NONE', #1024, #1137, #1293, .T. ) ;
#1084 = ORIENTED_EDGE ( 'NONE', *, *, #965, .F. ) ;
#1085 = LINE ( 'NONE', #687, #135 ) ;
#1086 = LINE ( 'NONE', #58, #929 ) ;
#1087 = VERTEX_POINT ( 'NONE', #371 ) ;
#1088 = DIRECTION ( 'NONE',  ( -0.0000000000000000000, 0.0000000000000000000, 1.000000000000000000 ) ) ;
#1089 = DIRECTION ( 'NONE',  ( -0.7071067811865475727, 0.0000000000000000000, 0.7071067811865475727 ) ) ;
#1090 = ORIENTED_EDGE ( 'NONE', *, *, #507, .T. ) ;
#1091 = EDGE_CURVE ( 'NONE', #1070, #271, #978, .T. ) ;
#1092 = CARTESIAN_POINT ( 'NONE',  ( 1.250000000000000000, 12.69999999999999929, 8.400000000000000355 ) ) ;
#1093 = DIRECTION ( 'NONE',  ( -0.5773502691896256200, 0.5773502691896258421, 0.5773502691896258421 ) ) ;
#1094 = ORIENTED_EDGE ( 'NONE', *, *, #463, .F. ) ;
#1095 = CARTESIAN_POINT ( 'NONE',  ( -0.4000000000000000222, 12.69999999999999929, 0.5000000000000000000 ) ) ;
#1096 = DIRECTION ( 'NONE',  ( 0.0000000000000000000, 1.000000000000000000, -0.0000000000000000000 ) ) ;
#1097 = VERTEX_POINT ( 'NONE', #1189 ) ;
#1098 = PRESENTATION_LAYER_ASSIGNMENT (  '', '', ( #1122 ) ) ;
#1099 = AXIS2_PLACEMENT_3D ( 'NONE', #1307, #90, #708 ) ;
#1100 = FACE_BOUND ( 'NONE', #360, .T. ) ;
#1101 = AXIS2_PLACEMENT_3D ( 'NONE', #814, #208, #717 ) ;
#1102 = ADVANCED_FACE ( 'Body.2', ( #1300 ), #466, .T. ) ;
#1103 = LINE ( 'NONE', #676, #970 ) ;
#1104 = EDGE_LOOP ( 'NONE', ( #379, #985, #325, #951 ) ) ;
#1105 = AXIS2_PLACEMENT_3D ( 'NONE', #820, #207, #532 ) ;
#1106 = CARTESIAN_POINT ( 'NONE',  ( -1.250000000000000000, 7.620000000000000107, -2.769322388690903636E-15 ) ) ;
#1107 = CARTESIAN_POINT ( 'NONE',  ( 0.4000000000000000222, 8.490000000000000213, 0.5000000000000004441 ) ) ;
#1108 = EDGE_LOOP ( 'NONE', ( #180, #606, #1004, #891 ) ) ;
#1109 = FACE_OUTER_BOUND ( 'NONE', #91, .T. ) ;
#1110 = DIRECTION ( 'NONE',  ( 0.0000000000000000000, -1.000000000000000000, 0.0000000000000000000 ) ) ;
#1111 = ORIENTED_EDGE ( 'NONE', *, *, #275, .F. ) ;
#1112 = DIRECTION ( 'NONE',  ( -0.0000000000000000000, -1.000000000000000000, -0.0000000000000000000 ) ) ;
#1113 = SURFACE_STYLE_USAGE ( .BOTH. , #498 ) ;
#1114 = EDGE_LOOP ( 'NONE', ( #981, #194, #578, #823 ) ) ;
#1115 = DIRECTION ( 'NONE',  ( 0.0000000000000000000, 0.0000000000000000000, -1.000000000000000000 ) ) ;
#1116 = LINE ( 'NONE', #1029, #50 ) ;
#1117 = VERTEX_POINT ( 'NONE', #774 ) ;
#1118 = CARTESIAN_POINT ( 'NONE',  ( -0.7500000000000000000, 12.69999999999999929, 0.0000000000000000000 ) ) ;
#1119 = LINE ( 'NONE', #1288, #1185 ) ;
#1120 = VERTEX_POINT ( 'NONE', #992 ) ;
#1121 = CARTESIAN_POINT ( 'NONE',  ( 0.0000000000000000000, 10.63000000000000078, 8.400000000000000355 ) ) ;
#1122 = STYLED_ITEM ( 'NONE', ( #558 ), #59 ) ;
#1123 = DIRECTION ( 'NONE',  ( 0.0000000000000000000, -0.0000000000000000000, 1.000000000000000000 ) ) ;
#1124 = VERTEX_POINT ( 'NONE', #158 ) ;
#1125 = VECTOR ( 'NONE', #185, 1000.000000000000000 ) ;
#1126 = DIRECTION ( 'NONE',  ( -0.0000000000000000000, 0.0000000000000000000, 1.000000000000000000 ) ) ;
#1127 = VECTOR ( 'NONE', #746, 1000.000000000000000 ) ;
#1128 = ORIENTED_EDGE ( 'NONE', *, *, #1142, .T. ) ;
#1129 = EDGE_CURVE ( 'NONE', #53, #1262, #795, .T. ) ;
#1130 = CARTESIAN_POINT ( 'NONE',  ( 0.0000000000000000000, 8.839999999999999858, -3.149999999999999911 ) ) ;
#1131 = DIRECTION ( 'NONE',  ( 0.0000000000000000000, -0.0000000000000000000, 1.000000000000000000 ) ) ;
#1132 = VERTEX_POINT ( 'NONE', #782 ) ;
#1133 = DIRECTION ( 'NONE',  ( -0.0000000000000000000, 0.0000000000000000000, 1.000000000000000000 ) ) ;
#1134 = ORIENTED_EDGE ( 'NONE', *, *, #777, .T. ) ;
#1135 = PLANE ( 'NONE',  #557 ) ;
#1136 =( NAMED_UNIT ( * ) SI_UNIT ( $, .STERADIAN. ) SOLID_ANGLE_UNIT ( ) );
#1137 = VERTEX_POINT ( 'NONE', #163 ) ;
#1138 = DIRECTION ( 'NONE',  ( 0.0000000000000000000, 0.0000000000000000000, 1.000000000000000000 ) ) ;
#1139 = LINE ( 'NONE', #504, #349 ) ;
#1140 = ORIENTED_EDGE ( 'NONE', *, *, #896, .F. ) ;
#1141 = LINE ( 'NONE', #13, #4 ) ;
#1142 = EDGE_CURVE ( 'NONE', #867, #1097, #1198, .T. ) ;
#1143 = CARTESIAN_POINT ( 'NONE',  ( 0.2999999999999999889, 11.73000000000000043, -3.046446609406725958 ) ) ;
#1144 = ORIENTED_EDGE ( 'NONE', *, *, #741, .T. ) ;
#1145 = AXIS2_PLACEMENT_3D ( 'NONE', #922, #725, #106 ) ;
#1146 = LINE ( 'NONE', #1234, #950 ) ;
#1147 = VECTOR ( 'NONE', #533, 1000.000000000000000 ) ;
#1148 = DIRECTION ( 'NONE',  ( -0.7071067811865475727, 0.0000000000000000000, 0.7071067811865475727 ) ) ;
#1149 = VERTEX_POINT ( 'NONE', #270 ) ;
#1150 = CARTESIAN_POINT ( 'NONE',  ( 0.8000000000000012657, 10.62999999999999901, 8.400000000000000355 ) ) ;
#1151 = CYLINDRICAL_SURFACE ( 'NONE', #1256, 0.2500000000000002220 ) ;
#1152 = ADVANCED_FACE ( 'NONE', ( #378 ), #73, .T. ) ;
#1153 = ADVANCED_FACE ( 'NONE', ( #875 ), #972, .F. ) ;
#1154 = CARTESIAN_POINT ( 'NONE',  ( -0.4000000000000000222, 11.83000000000000007, 8.400000000000000355 ) ) ;
#1155 = ORIENTED_EDGE ( 'NONE', *, *, #354, .F. ) ;
#1156 = CARTESIAN_POINT ( 'NONE',  ( -0.8000000000000000444, 10.63000000000000256, 8.400000000000000355 ) ) ;
#1157 = FACE_BOUND ( 'NONE', #584, .T. ) ;
#1158 = ADVANCED_FACE ( 'NONE', ( #1204 ), #768, .T. ) ;
#1159 = CARTESIAN_POINT ( 'NONE',  ( -0.4000000000000000222, 11.83000000000000007, 8.000000000000000000 ) ) ;
#1160 = ORIENTED_EDGE ( 'NONE', *, *, #1043, .F. ) ;
#1161 = ORIENTED_EDGE ( 'NONE', *, *, #455, .T. ) ;
#1162 = DIRECTION ( 'NONE',  ( 0.0000000000000000000, 0.0000000000000000000, 1.000000000000000000 ) ) ;
#1163 = CARTESIAN_POINT ( 'NONE',  ( -0.2999999999999999889, 11.72999999999999865, 1.053775882719999890 ) ) ;
#1164 = PLANE ( 'NONE',  #31 ) ;
#1165 = FACE_OUTER_BOUND ( 'NONE', #996, .T. ) ;
#1166 = VECTOR ( 'NONE', #1239, 1000.000000000000000 ) ;
#1167 = ORIENTED_EDGE ( 'NONE', *, *, #563, .F. ) ;
#1168 = VECTOR ( 'NONE', #1237, 1000.000000000000000 ) ;
#1169 = VECTOR ( 'NONE', #670, 1000.000000000000000 ) ;
#1170 = CARTESIAN_POINT ( 'NONE',  ( 0.7500000000000000000, 7.620000000000000107, 0.5000000000000000000 ) ) ;
#1171 = CARTESIAN_POINT ( 'NONE',  ( -0.2999999999999999889, 11.12999999999999901, -3.046446609406725958 ) ) ;
#1172 = CARTESIAN_POINT ( 'NONE',  ( -0.4000000000000000222, 9.289999999999999147, 0.5000000000000002220 ) ) ;
#1173 = EDGE_CURVE ( 'NONE', #283, #624, #688, .T. ) ;
#1174 = EDGE_CURVE ( 'NONE', #12, #398, #1103, .T. ) ;
#1175 = FACE_OUTER_BOUND ( 'NONE', #123, .T. ) ;
#1176 = CARTESIAN_POINT ( 'NONE',  ( -0.05000000000000000278, 11.42999999999999972, -2.899999999999999911 ) ) ;
#1177 = FACE_OUTER_BOUND ( 'NONE', #587, .T. ) ;
#1178 = ORIENTED_EDGE ( 'NONE', *, *, #831, .T. ) ;
#1179 = DIRECTION ( 'NONE',  ( 1.000000000000000000, 0.0000000000000000000, 0.0000000000000000000 ) ) ;
#1180 =( BOUNDED_CURVE ( )  B_SPLINE_CURVE ( 3, ( #836, #1250, #327, #427 ),
 .UNSPECIFIED., .F., .T. ) 
 B_SPLINE_CURVE_WITH_KNOTS ( ( 4, 4 ),
 ( 0.0000000000000000000, 1.570796326794896780 ),
 .UNSPECIFIED. ) 
 CURVE ( )  GEOMETRIC_REPRESENTATION_ITEM ( )  RATIONAL_B_SPLINE_CURVE ( ( 1.000000000000000000, 0.8047378541243649375, 0.8047378541243649375, 1.000000000000000000 ) ) 
 REPRESENTATION_ITEM ( '' )  );
#1181 = EDGE_CURVE ( 'NONE', #271, #1251, #1086, .T. ) ;
#1182 = DIRECTION ( 'NONE',  ( 0.7071067811865475727, -0.0000000000000000000, 0.7071067811865475727 ) ) ;
#1183 = EDGE_CURVE ( 'NONE', #145, #403, #586, .T. ) ;
#1184 = CARTESIAN_POINT ( 'NONE',  ( -0.2999999999999999889, 8.589999999999999858, 1.053775882719999890 ) ) ;
#1185 = VECTOR ( 'NONE', #1317, 1000.000000000000114 ) ;
#1186 = ORIENTED_EDGE ( 'NONE', *, *, #852, .F. ) ;
#1187 = VECTOR ( 'NONE', #552, 1000.000000000000000 ) ;
#1188 = DIRECTION ( 'NONE',  ( 1.000000000000000000, -0.0000000000000000000, 0.0000000000000000000 ) ) ;
#1189 = CARTESIAN_POINT ( 'NONE',  ( -0.4000000000000000222, 11.83000000000000007, 0.5000000000000003331 ) ) ;
#1190 = ORIENTED_EDGE ( 'NONE', *, *, #1003, .T. ) ;
#1191 = DIRECTION ( 'NONE',  ( -1.000000000000000000, -0.0000000000000000000, -0.0000000000000000000 ) ) ;
#1192 = ADVANCED_FACE ( 'NONE', ( #1285 ), #870, .T. ) ;
#1193 = ADVANCED_FACE ( 'NONE', ( #893 ), #1280, .T. ) ;
#1194 = FILL_AREA_STYLE ('',( #368 ) ) ;
#1195 = ORIENTED_EDGE ( 'NONE', *, *, #364, .F. ) ;
#1196 = PRODUCT_DEFINITION_SHAPE ( 'NONE', 'NONE',  #1219 ) ;
#1197 = DIRECTION ( 'NONE',  ( 0.0000000000000000000, -0.7071067811865475727, -0.7071067811865475727 ) ) ;
#1198 = LINE ( 'NONE', #183, #1272 ) ;
#1199 = VERTEX_POINT ( 'NONE', #5 ) ;
#1200 = DIRECTION ( 'NONE',  ( 0.0000000000000000000, -0.0000000000000000000, 1.000000000000000000 ) ) ;
#1201 = PLANE ( 'NONE',  #1013 ) ;
#1202 = VERTEX_POINT ( 'NONE', #623 ) ;
#1203 = LINE ( 'NONE', #892, #794 ) ;
#1204 = FACE_OUTER_BOUND ( 'NONE', #132, .T. ) ;
#1205 = ORIENTED_EDGE ( 'NONE', *, *, #1174, .T. ) ;
#1206 = DIRECTION ( 'NONE',  ( -1.000000000000000000, -0.0000000000000000000, -0.0000000000000000000 ) ) ;
#1207 = LINE ( 'NONE', #282, #519 ) ;
#1208 = ORIENTED_EDGE ( 'NONE', *, *, #1083, .F. ) ;
#1209 = VECTOR ( 'NONE', #288, 1000.000000000000000 ) ;
#1210 = VECTOR ( 'NONE', #755, 1000.000000000000000 ) ;
#1211 = CARTESIAN_POINT ( 'NONE',  ( 0.8000000000000012657, 8.089999999999999858, 8.400000000000000355 ) ) ;
#1212 = VECTOR ( 'NONE', #397, 1000.000000000000000 ) ;
#1213 = CARTESIAN_POINT ( 'NONE',  ( -0.4000000000000000222, 11.83000000000000007, 8.400000000000000355 ) ) ;
#1214 = ORIENTED_EDGE ( 'NONE', *, *, #732, .F. ) ;
#1215 = MECHANICAL_DESIGN_GEOMETRIC_PRESENTATION_REPRESENTATION (  '', ( #864 ), #693 ) ;
#1216 = CARTESIAN_POINT ( 'NONE',  ( 0.4000000000000000222, 8.490000000000000213, 8.400000000000000355 ) ) ;
#1217 = EDGE_LOOP ( 'NONE', ( #1318, #730, #223, #1303 ) ) ;
#1218 = DIRECTION ( 'NONE',  ( 1.000000000000000000, 0.0000000000000000000, 0.0000000000000000000 ) ) ;
#1219 = PRODUCT_DEFINITION ( 'UNKNOWN', '', #681, #346 ) ;
#1220 = CARTESIAN_POINT ( 'NONE',  ( 0.0000000000000000000, 7.620000000000000107, 8.400000000000000355 ) ) ;
#1221 = ORIENTED_EDGE ( 'NONE', *, *, #1309, .F. ) ;
#1222 = ORIENTED_EDGE ( 'NONE', *, *, #873, .F. ) ;
#1223 = CARTESIAN_POINT ( 'NONE',  ( -0.3999999999999998557, 11.03000000000000114, 8.000000000000000000 ) ) ;
#1224 = FACE_OUTER_BOUND ( 'NONE', #264, .T. ) ;
#1225 = EDGE_LOOP ( 'NONE', ( #894, #382, #756, #298 ) ) ;
#1226 = EDGE_CURVE ( 'NONE', #385, #993, #15, .T. ) ;
#1227 = PLANE ( 'NONE',  #1255 ) ;
#1228 = VERTEX_POINT ( 'NONE', #514 ) ;
#1229 = FACE_OUTER_BOUND ( 'NONE', #173, .T. ) ;
#1230 = VECTOR ( 'NONE', #787, 1000.000000000000000 ) ;
#1231 = DIRECTION ( 'NONE',  ( -0.0000000000000000000, 1.000000000000000000, 0.0000000000000000000 ) ) ;
#1232 = ORIENTED_EDGE ( 'NONE', *, *, #219, .F. ) ;
#1233 = VECTOR ( 'NONE', #1191, 1000.000000000000000 ) ;
#1234 = CARTESIAN_POINT ( 'NONE',  ( 1.750000000000000000, 9.289999999999999147, 8.000000000000000000 ) ) ;
#1235 =( GEOMETRIC_REPRESENTATION_CONTEXT ( 3 ) GLOBAL_UNCERTAINTY_ASSIGNED_CONTEXT ( ( #1046 ) ) GLOBAL_UNIT_ASSIGNED_CONTEXT ( ( #421, #835, #503 ) ) REPRESENTATION_CONTEXT ( 'NONE', 'WORKASPACE' ) );
#1236 = ADVANCED_FACE ( 'NONE', ( #304 ), #931, .T. ) ;
#1237 = DIRECTION ( 'NONE',  ( -0.0000000000000000000, -0.0000000000000000000, 1.000000000000000000 ) ) ;
#1238 = ORIENTED_EDGE ( 'NONE', *, *, #374, .T. ) ;
#1239 = DIRECTION ( 'NONE',  ( -1.000000000000000000, -0.0000000000000000000, 0.0000000000000000000 ) ) ;
#1240 = UNCERTAINTY_MEASURE_WITH_UNIT (LENGTH_MEASURE( 1.000000000000000082E-05 ), #753, 'distance_accuracy_value', 'NONE');
#1241 = EDGE_LOOP ( 'NONE', ( #541, #105, #881, #242, #659, #634, #429, #292 ) ) ;
#1242 = FACE_OUTER_BOUND ( 'NONE', #1294, .T. ) ;
#1243 = CARTESIAN_POINT ( 'NONE',  ( 0.1964466094067261748, 11.23355339059327740, -3.149999999999999023 ) ) ;
#1244 = ORIENTED_EDGE ( 'NONE', *, *, #1081, .F. ) ;
#1245 = EDGE_CURVE ( 'NONE', #16, #2, #198, .T. ) ;
#1246 = DIRECTION ( 'NONE',  ( -1.000000000000000000, 0.0000000000000000000, -0.0000000000000000000 ) ) ;
#1247 = ADVANCED_FACE ( 'NONE', ( #1325 ), #610, .T. ) ;
#1248 = DIRECTION ( 'NONE',  ( -1.000000000000000000, 0.0000000000000000000, -0.0000000000000000000 ) ) ;
#1249 = ORIENTED_EDGE ( 'NONE', *, *, #1003, .F. ) ;
#1250 = CARTESIAN_POINT ( 'NONE',  ( -0.2999999999999999889, 9.189999999999999503, -3.046446609406725958 ) ) ;
#1251 = VERTEX_POINT ( 'NONE', #87 ) ;
#1252 = EDGE_CURVE ( 'NONE', #1124, #457, #324, .T. ) ;
#1253 = ORIENTED_EDGE ( 'NONE', *, *, #637, .F. ) ;
#1254 = FACE_OUTER_BOUND ( 'NONE', #674, .T. ) ;
#1255 = AXIS2_PLACEMENT_3D ( 'NONE', #605, #1148, #315 ) ;
#1256 = AXIS2_PLACEMENT_3D ( 'NONE', #338, #333, #547 ) ;
#1257 = CARTESIAN_POINT ( 'NONE',  ( 0.4000000000000000222, 11.02999999999999758, 8.000000000000000000 ) ) ;
#1258 = ORIENTED_EDGE ( 'NONE', *, *, #542, .T. ) ;
#1259 = PLANE ( 'NONE',  #714 ) ;
#1260 = LINE ( 'NONE', #440, #1314 ) ;
#1261 = DIRECTION ( 'NONE',  ( 0.5773502691896256200, -0.5773502691896258421, 0.5773502691896258421 ) ) ;
#1262 = VERTEX_POINT ( 'NONE', #508 ) ;
#1263 = DIRECTION ( 'NONE',  ( -1.000000000000000000, 0.0000000000000000000, -0.0000000000000000000 ) ) ;
#1264 = DIRECTION ( 'NONE',  ( 0.0000000000000000000, 0.0000000000000000000, -1.000000000000000000 ) ) ;
#1265 = DIRECTION ( 'NONE',  ( 0.0000000000000000000, 0.0000000000000000000, -1.000000000000000000 ) ) ;
#1266 = ORIENTED_EDGE ( 'NONE', *, *, #763, .F. ) ;
#1267 = DIRECTION ( 'NONE',  ( -0.0000000000000000000, -0.0000000000000000000, -1.000000000000000000 ) ) ;
#1268 = FACE_OUTER_BOUND ( 'NONE', #791, .T. ) ;
#1269 = LINE ( 'NONE', #225, #1210 ) ;
#1270 = VECTOR ( 'NONE', #186, 1000.000000000000000 ) ;
#1271 = ORIENTED_EDGE ( 'NONE', *, *, #1181, .T. ) ;
#1272 = VECTOR ( 'NONE', #788, 1000.000000000000000 ) ;
#1273 = VECTOR ( 'NONE', #560, 1000.000000000000000 ) ;
#1274 = SURFACE_STYLE_FILL_AREA ( #844 ) ;
#1275 = LINE ( 'NONE', #384, #260 ) ;
#1276 = LINE ( 'NONE', #766, #330 ) ;
#1277 = ORIENTED_EDGE ( 'NONE', *, *, #431, .T. ) ;
#1278 = EDGE_CURVE ( 'NONE', #783, #308, #948, .T. ) ;
#1279 = PLANE ( 'NONE',  #171 ) ;
#1280 = PLANE ( 'NONE',  #175 ) ;
#1281 = CARTESIAN_POINT ( 'NONE',  ( -0.4000000000000000222, 6.604000000000000092, 8.000000000000000000 ) ) ;
#1282 = ORIENTED_EDGE ( 'NONE', *, *, #526, .T. ) ;
#1283 = DIRECTION ( 'NONE',  ( -0.0000000000000000000, 0.0000000000000000000, -1.000000000000000000 ) ) ;
#1284 = ADVANCED_FACE ( 'NONE', ( #1224 ), #917, .F. ) ;
#1285 = FACE_OUTER_BOUND ( 'NONE', #1104, .T. ) ;
#1286 = CARTESIAN_POINT ( 'NONE',  ( 0.3999999999999998002, 9.289999999999999147, 8.000000000000000000 ) ) ;
#1287 = VECTOR ( 'NONE', #1028, 1000.000000000000000 ) ;
#1288 = CARTESIAN_POINT ( 'NONE',  ( -0.7999999999999996003, 10.62999999999999901, 8.400000000000000355 ) ) ;
#1289 = VERTEX_POINT ( 'NONE', #205 ) ;
#1290 = VECTOR ( 'NONE', #1096, 1000.000000000000000 ) ;
#1291 = VECTOR ( 'NONE', #1093, 999.9999999999998863 ) ;
#1292 = DIRECTION ( 'NONE',  ( 0.0000000000000000000, 0.0000000000000000000, -1.000000000000000000 ) ) ;
#1293 = LINE ( 'NONE', #176, #1291 ) ;
#1294 = EDGE_LOOP ( 'NONE', ( #69, #112, #116, #815 ) ) ;
#1295 = CARTESIAN_POINT ( 'NONE',  ( 0.2999999999999999889, 9.189999999999999503, 0.0000000000000000000 ) ) ;
#1296 = CARTESIAN_POINT ( 'NONE',  ( 0.4000000000000001887, 11.02999999999999758, 8.000000000000000000 ) ) ;
#1297 = APPLICATION_CONTEXT ( 'automotive_design' ) ;
#1298 = ORIENTED_EDGE ( 'NONE', *, *, #561, .F. ) ;
#1299 = CARTESIAN_POINT ( 'NONE',  ( 0.2999999999999999889, 0.0000000000000000000, 0.0000000000000000000 ) ) ;
#1300 = FACE_OUTER_BOUND ( 'NONE', #1108, .T. ) ;
#1301 = ORIENTED_EDGE ( 'NONE', *, *, #614, .T. ) ;
#1302 = CARTESIAN_POINT ( 'NONE',  ( 0.3000000000000000999, 11.13000000000000078, -2.899999999999999911 ) ) ;
#1303 = ORIENTED_EDGE ( 'NONE', *, *, #697, .T. ) ;
#1304 = CARTESIAN_POINT ( 'NONE',  ( -0.4000000000000000222, 6.604000000000000092, 8.000000000000000000 ) ) ;
#1305 = VERTEX_POINT ( 'NONE', #297 ) ;
#1306 = LINE ( 'NONE', #1216, #1057 ) ;
#1307 = CARTESIAN_POINT ( 'NONE',  ( -0.2999999999999999889, 0.0000000000000000000, 0.0000000000000000000 ) ) ;
#1308 = ORIENTED_EDGE ( 'NONE', *, *, #777, .F. ) ;
#1309 = EDGE_CURVE ( 'NONE', #121, #233, #720, .T. ) ;
#1310 = EDGE_CURVE ( 'NONE', #767, #576, #1116, .T. ) ;
#1311 = CLOSED_SHELL ( 'NONE', ( #1192, #244, #289, #286, #916, #52, #941, #733, #1236, #1102 ) ) ;
#1312 = VECTOR ( 'NONE', #179, 1000.000000000000000 ) ;
#1313 = LINE ( 'NONE', #793, #329 ) ;
#1314 = VECTOR ( 'NONE', #1062, 1000.000000000000000 ) ;
#1315 = ORIENTED_EDGE ( 'NONE', *, *, #1073, .T. ) ;
#1316 = LINE ( 'NONE', #790, #715 ) ;
#1317 = DIRECTION ( 'NONE',  ( 0.5773502691896248429, 0.5773502691896261751, -0.5773502691896261751 ) ) ;
#1318 = ORIENTED_EDGE ( 'NONE', *, *, #463, .T. ) ;
#1319 = CARTESIAN_POINT ( 'NONE',  ( -0.2999999999999999889, 9.189999999999999503, 1.053775882719999890 ) ) ;
#1320 = ORIENTED_EDGE ( 'NONE', *, *, #160, .T. ) ;
#1321 = CARTESIAN_POINT ( 'NONE',  ( 0.2999999999999999889, 0.0000000000000000000, 0.0000000000000000000 ) ) ;
#1322 = PLANE ( 'NONE',  #821 ) ;
#1323 = ORIENTED_EDGE ( 'NONE', *, *, #1129, .T. ) ;
#1324 = DIRECTION ( 'NONE',  ( 1.000000000000000000, 0.0000000000000000000, 0.0000000000000000000 ) ) ;
#1325 = FACE_OUTER_BOUND ( 'NONE', #461, .T. ) ;
#1326 = FACE_OUTER_BOUND ( 'NONE', #141, .T. ) ;
#1327 = ADVANCED_FACE ( 'NONE', ( #1014 ), #616, .F. ) ;
#1328 = CARTESIAN_POINT ( 'NONE',  ( 0.2999999999999999889, 8.589999999999999858, 1.053775882719999890 ) ) ;
ENDSEC;
END-ISO-10303-21;
